<?xml version="1.0" standalone="no"?>
<!DOCTYPE svg PUBLIC "-//W3C//DTD SVG 1.1//EN" "http://www.w3.org/Graphics/SVG/1.1/DTD/svg11.dtd" >
<svg>
<metadata>
Created by FontForge 20090622 at Fri Oct  7 10:14:52 2016
 By deploy user
Copyright (c) 2015 by Red Hat, Inc. All rights reserved.
</metadata>
<defs>
<font id="Overpass-ExtraLight" horiz-adv-x="668" >
  <font-face 
    font-family="Overpass"
    font-weight="200"
    font-stretch="normal"
    units-per-em="1000"
    panose-1="2 11 2 6 3 2 3 2 2 4"
    ascent="750"
    descent="-250"
    x-height="511"
    cap-height="700"
    bbox="-95 -265 1214 955"
    underline-thickness="20"
    underline-position="-113"
    unicode-range="U+0020-U+FB02"
  />
<missing-glyph horiz-adv-x="230" 
 />
    <glyph glyph-name="fi" unicode="fi" horiz-adv-x="553" 
d="M161 478v-478h-36v478h-82v33h82v92q0 109 98 109q16 0 32 -4.5t29 -11.5v-32q-14 6 -27.5 10.5t-33.5 4.5q-35 0 -48.5 -19t-13.5 -61v-88h123v-33h-123zM406 0v511h36v-511h-36zM424 633q-12 0 -20.5 8.5t-8.5 20.5q0 13 8.5 22t20.5 9q13 0 21 -9t8 -22
q0 -12 -8 -20.5t-21 -8.5z" />
    <glyph glyph-name="fl" unicode="fl" horiz-adv-x="547" 
d="M161 478v-478h-36v478h-82v33h82v92q0 109 98 109q16 0 32 -4.5t29 -11.5v-32q-14 6 -27.5 10.5t-33.5 4.5q-35 0 -48.5 -19t-13.5 -61v-88h123v-33h-123zM403 0v704l36 18v-722h-36z" />
    <glyph glyph-name=".notdef" horiz-adv-x="230" 
 />
    <glyph glyph-name="eth" unicode="&#xf0;" horiz-adv-x="550" 
d="M328 639q78 -60 113.5 -154t35.5 -218q0 -137 -53.5 -208t-149.5 -71q-46 0 -83 17.5t-63.5 48.5t-40.5 74t-14 93q0 53 15 96.5t42 74t64 47.5t80 17q33 0 60.5 -9.5t48 -26t34.5 -38.5t21 -47q-8 91 -42 162.5t-91 115.5l-72 -76l-22 22l66 72q-57 36 -130 46v35
q88 -15 155 -55l65 70l23 -22zM274 420q-35 0 -64.5 -15t-51.5 -41t-34 -63t-12 -80q0 -42 11 -78t32 -62.5t51 -41.5t68 -15t68 15t51 41.5t32 62t11 77.5t-11.5 78.5t-33 63.5t-51.5 42.5t-66 15.5z" />
    <glyph glyph-name="Lslash" unicode="&#x141;" horiz-adv-x="541" 
d="M115 0v299l-75 -58v40l75 58v361h36v-333l128 99v-40l-128 -100v-293h347v-33h-383z" />
    <glyph glyph-name="lslash" unicode="&#x142;" horiz-adv-x="253" 
d="M103 0v293l-70 -54v39l70 54v372l36 18v-363l81 62v-39l-81 -62v-320h-36z" />
    <glyph glyph-name="Scaron" unicode="&#x160;" horiz-adv-x="600" 
d="M439 586q-18 44 -55 67.5t-94 23.5q-70 0 -109 -32t-39 -88q0 -34 15 -58.5t39 -43.5t55 -33.5t63 -27.5q33 -14 67 -32t61.5 -44t45 -61.5t17.5 -83.5q0 -44 -15 -78.5t-42 -58t-64.5 -36t-82.5 -12.5q-40 0 -75 12t-63 32t-49 46.5t-33 56.5l38 12q25 -56 72.5 -90
t110.5 -34q75 0 120 38t45 113q0 36 -14 64.5t-37.5 51t-54 39.5t-63.5 30q-35 14 -69.5 30.5t-62.5 40t-45 54.5t-17 75q0 33 12.5 61t36.5 48.5t59 32t81 11.5q33 0 62 -8t53 -23t41 -36.5t26 -47.5zM310 766h-32l-151 156h37l130 -120l130 120h37z" />
    <glyph glyph-name="scaron" unicode="&#x161;" horiz-adv-x="467" 
d="M348 437q-21 20 -50.5 36t-70.5 16q-54 0 -83 -25t-29 -67q0 -25 10 -42t27.5 -30t40 -23t47.5 -20q33 -13 61 -26.5t48.5 -31.5t32.5 -43t12 -61q0 -59 -39 -95.5t-114 -36.5q-53 0 -93 22.5t-68 54.5l28 24q23 -26 56.5 -46.5t75.5 -20.5q54 0 85.5 24t31.5 74
q0 27 -12 47t-31.5 36t-44.5 28t-52 22q-63 23 -101 55t-38 89q0 54 39.5 90t110.5 36q43 0 81.5 -17t65.5 -46zM245 576h-32l-151 156h37l130 -120l130 120h37z" />
    <glyph glyph-name="Yacute" unicode="&#xdd;" horiz-adv-x="610" 
d="M287 0v277l-228 423h39l207 -386l207 386h39l-228 -423v-277h-36zM268 766h-37l151 156h55z" />
    <glyph glyph-name="yacute" unicode="&#xfd;" horiz-adv-x="515" 
d="M237 12l-184 499h36l166 -452l166 452h36l-260 -705h-36zM185 576h-37l151 156h55z" />
    <glyph glyph-name="Thorn" unicode="&#xde;" horiz-adv-x="609" 
d="M115 0v700h36v-139h182q63 0 105 -17.5t68 -46.5t37 -66t11 -76q0 -35 -12 -71.5t-38 -66t-68 -48.5t-103 -19h-182v-150h-36zM334 186q50 0 84.5 15.5t56 40t31 54.5t9.5 59q0 31 -9 61.5t-30 54.5t-55.5 39t-86.5 15h-183v-339h183z" />
    <glyph glyph-name="thorn" unicode="&#xfe;" horiz-adv-x="568" 
d="M293 -12q-48 0 -87.5 25.5t-61.5 70.5v-269l-36 -18v907l36 18v-285q53 86 157 86q45 0 81 -19t61 -54t38.5 -84.5t13.5 -109.5q0 -131 -55.5 -199.5t-146.5 -68.5zM293 24q78 0 120.5 60t42.5 172q0 52 -11 95t-32 73t-51.5 46.5t-68.5 16.5q-47 0 -86.5 -26.5
t-62.5 -71.5v-255q25 -51 63.5 -80.5t85.5 -29.5z" />
    <glyph glyph-name="Zcaron" unicode="&#x17d;" horiz-adv-x="605" 
d="M72 0v19l413 648h-390v33h438v-21l-409 -646h409v-33h-461zM348 766h-32l-151 156h37l130 -120l130 120h37z" />
    <glyph glyph-name="zcaron" unicode="&#x17e;" horiz-adv-x="505" 
d="M73 0v22l306 456h-286v33h334v-21l-307 -457h306v-33h-353zM264 576h-32l-151 156h37l130 -120l130 120h37z" />
    <glyph glyph-name="onehalf" unicode="&#xbd;" horiz-adv-x="729" 
d="M30 -12l478 724h43l-478 -724h-43zM97 283v334h-56v22q38 2 51.5 18t18.5 48h24v-422h-38zM405 331q11 40 44 69t86 29q56 0 91 -32t35 -89q0 -55 -26.5 -87.5t-79.5 -63.5q-51 -29 -75 -56.5t-32 -60.5h211v-40h-254q0 37 11.5 65.5t29.5 51t42 40t50 33.5
q42 25 63.5 50.5t21.5 67.5q0 15 -5 30t-15.5 27t-27.5 20t-40 8q-43 0 -65 -21t-32 -54z" />
    <glyph glyph-name="onequarter" unicode="&#xbc;" horiz-adv-x="680" 
d="M30 -12l478 724h43l-478 -724h-43zM97 283v334h-56v22q38 2 51.5 18t18.5 48h24v-422h-38zM527 0v117h-212v20l219 286h31v-270h56v-36h-56v-117h-38zM527 153v207l-159 -207h159z" />
    <glyph glyph-name="onesuperior" unicode="&#xb9;" horiz-adv-x="206" 
d="M87 444v334h-56v22q38 2 51.5 18t18.5 48h24v-422h-38z" />
    <glyph glyph-name="threequarters" unicode="&#xbe;" horiz-adv-x="824" 
d="M173 -12l478 724h43l-478 -724h-43zM79 377q16 -33 40 -51.5t66 -18.5q43 0 70.5 22t27.5 63q0 38 -22.5 63.5t-65.5 25.5h-31v36h21q37 0 59 25.5t22 57.5t-19.5 54t-59.5 22q-35 0 -57.5 -17.5t-36.5 -46.5l-34 14q17 40 50 63t78 23q51 0 84 -29t33 -83q0 -30 -16 -58
t-47 -40q36 -8 58 -36.5t22 -73.5q0 -28 -11 -50.5t-29.5 -38t-43 -24t-52.5 -8.5q-54 0 -88 25.5t-53 67.5zM670 0v117h-212v20l219 286h31v-270h56v-36h-56v-117h-38zM670 153v207l-159 -207h159z" />
    <glyph glyph-name="threesuperior" unicode="&#xb3;" horiz-adv-x="373" 
d="M77 539q16 -33 40 -51.5t66 -18.5q43 0 70.5 22t27.5 63q0 38 -22.5 63.5t-65.5 25.5h-31v36h21q37 0 59 25.5t22 57.5t-19.5 54t-59.5 22q-35 0 -57.5 -17.5t-36.5 -46.5l-34 14q17 40 50 63t78 23q51 0 84 -29t33 -83q0 -30 -16 -58t-47 -40q36 -8 58 -36.5t22 -73.5
q0 -28 -11 -50.5t-29.5 -38t-43 -24t-52.5 -8.5q-54 0 -88 25.5t-53 67.5z" />
    <glyph glyph-name="twosuperior" unicode="&#xb2;" horiz-adv-x="376" 
d="M52 775q11 40 44 69t86 29q56 0 91 -32t35 -89q0 -55 -26.5 -87.5t-79.5 -63.5q-51 -29 -75 -56t-32 -60h211v-41h-254q0 37 11.5 65.5t29.5 51t42 40t50 33.5q42 25 63.5 50.5t21.5 67.5q0 15 -5 30t-15.5 27t-27.5 20t-40 8q-43 0 -65 -21t-32 -54z" />
    <glyph glyph-name="brokenbar" unicode="&#xa6;" horiz-adv-x="276" 
d="M120 393v327h36v-327h-36zM120 -120v325h36v-325h-36z" />
    <glyph glyph-name="minus" unicode="&#x2212;" horiz-adv-x="666" 
d="M98 324v36h470v-36h-470z" />
    <glyph glyph-name="multiply" unicode="&#xd7;" horiz-adv-x="666" 
d="M333 316l-189 -189l-25 24l190 190l-190 190l25 24l189 -189l189 189l25 -24l-190 -190l190 -190l-25 -24z" />
    <glyph glyph-name="space" unicode=" " horiz-adv-x="230" 
 />
    <glyph glyph-name="exclam" unicode="!" horiz-adv-x="276" 
d="M133 193l-14 267v252h38v-252l-14 -267h-10zM138 -14q-12 0 -20.5 8.5t-8.5 20.5q0 13 8.5 22t20.5 9q13 0 21 -9t8 -22q0 -12 -8 -20.5t-21 -8.5z" />
    <glyph glyph-name="quotedbl" unicode="&#x22;" horiz-adv-x="372" 
d="M83 700h38v-267h-38v267zM251 700h38v-267h-38v267z" />
    <glyph glyph-name="numbersign" unicode="#" horiz-adv-x="691" 
d="M157 0l35 218h-121l6 36h120l33 203h-121l6 36h120l33 207h38l-33 -207h187l33 207h42l-33 -207h118l-5 -36h-118l-33 -203h119l-6 -36h-118l-34 -218h-42l34 218h-187l-34 -218h-39zM235 254h187l33 203h-187z" />
    <glyph glyph-name="dollar" unicode="$" horiz-adv-x="598" 
d="M439 585q-18 44 -55 68t-94 24q-70 0 -109 -32t-39 -88q0 -34 15 -58.5t39 -43.5t55 -33.5t63 -27.5q33 -14 67 -32t61.5 -44t45 -61.5t17.5 -83.5q0 -42 -14 -75.5t-39 -57t-59.5 -36.5t-76.5 -15v-87h-36v87q-36 3 -67.5 16t-57 32.5t-44 44.5t-30.5 53l38 13
q25 -56 72.5 -90.5t110.5 -34.5q75 0 120 38t45 113q0 36 -14 64.5t-37.5 51t-54 39.5t-63.5 30q-35 14 -69.5 30.5t-62.5 40t-45 54.5t-17 75q0 63 45 106t131 47v77h36v-79q57 -5 100 -35t59 -78z" />
    <glyph glyph-name="percent" unicode="%" horiz-adv-x="895" 
d="M225 356q-42 0 -71 16t-47 41.5t-26 57t-8 63.5q0 29 7.5 60.5t25.5 57.5t47 43t72 17t72 -17t47 -43t25.5 -57.5t7.5 -60.5q0 -32 -8 -63.5t-26 -57t-47 -41.5t-71 -16zM225 392q31 0 53 12.5t35.5 33t19.5 45.5t6 51q0 23 -6 48t-19.5 46t-35 34.5t-53.5 13.5
t-53.5 -13.5t-35 -34.5t-19.5 -46t-6 -48q0 -26 6 -51t19.5 -45.5t35.5 -33t53 -12.5zM230 -12h-43l478 724h43zM670 -12q-42 0 -71 16t-47 41.5t-26 57t-8 63.5q0 29 7.5 60.5t25.5 57.5t47 43t72 17t72 -17t47 -43t25.5 -57.5t7.5 -60.5q0 -32 -8 -63.5t-26 -57t-47 -41.5
t-71 -16zM670 24q31 0 53 12.5t35.5 33t19.5 45.5t6 51q0 23 -6 48t-19.5 46t-35 34.5t-53.5 13.5t-53.5 -13.5t-35 -34.5t-19.5 -46t-6 -48q0 -26 6 -51t19.5 -45.5t35.5 -33t53 -12.5z" />
    <glyph glyph-name="ampersand" unicode="&#x26;" horiz-adv-x="656" 
d="M566 0l-90 107q-39 -51 -95.5 -85t-129.5 -34q-42 0 -76.5 12.5t-59.5 36.5t-38.5 58t-13.5 76q0 37 13.5 68t37 57.5t55.5 50t69 44.5q-26 32 -44.5 57.5t-29.5 46.5t-16 40t-5 37q0 33 12 59t32 44t47.5 27.5t59.5 9.5q31 0 57.5 -10.5t45.5 -29.5t30 -45t11 -57
q0 -56 -36.5 -100.5t-108.5 -86.5l180 -213q20 35 32 73.5t17 75.5h38q-4 -42 -19 -88.5t-42 -90.5l119 -140h-52zM251 24q66 0 116 31.5t85 80.5l-192 228q-75 -43 -117 -88.5t-42 -104.5q0 -35 11.5 -62.5t31.5 -46.5t47.5 -28.5t59.5 -9.5zM181 572q0 -35 24 -73.5
t66 -89.5q63 37 96 75.5t33 79.5q0 52 -32 82t-78 30q-49 0 -79 -28t-30 -76z" />
    <glyph glyph-name="quotesingle" unicode="'" horiz-adv-x="204" 
d="M83 700h38v-267h-38v267z" />
    <glyph glyph-name="parenleft" unicode="(" horiz-adv-x="346" 
d="M231 -130q-23 30 -45 68.5t-39 89t-27.5 113.5t-10.5 143q0 79 11.5 145t30 118.5t42.5 93.5t49 71h36q-13 -16 -35 -53.5t-43.5 -92.5t-37 -126.5t-15.5 -155.5q0 -86 14.5 -155t34.5 -121.5t40 -87t31 -50.5h-36z" />
    <glyph glyph-name="parenright" unicode=")" horiz-adv-x="346" 
d="M79 -130q11 16 31 50.5t40 87t34.5 121.5t14.5 155q0 84 -15.5 155.5t-37 126.5t-43.5 92.5t-35 53.5h36q25 -30 49 -71t42.5 -93.5t30 -118.5t11.5 -145q0 -80 -10.5 -143t-27.5 -113.5t-39 -89t-45 -68.5h-36z" />
    <glyph glyph-name="asterisk" unicode="*" horiz-adv-x="534" 
d="M318 393l-51 90l-51 -90l-60 -83l-31 24l60 83l73 73l-99 21l-96 32l13 36l97 -32l87 -45l-13 93v105h40v-105l-13 -93l87 45l97 32l13 -36l-96 -32l-99 -21l73 -73l60 -83l-31 -24z" />
    <glyph glyph-name="plus" unicode="+" horiz-adv-x="666" 
d="M351 324v-216h-38v216h-215v36h215v218h38v-218h217v-36h-217z" />
    <glyph glyph-name="comma" unicode="," horiz-adv-x="212" 
d="M77 -138q14 20 23.5 51.5t9.5 59.5q0 4 -0.5 7t-0.5 6q-14 0 -23 8t-9 21q0 14 8.5 22.5t20.5 8.5q14 0 23.5 -10t9.5 -36q0 -21 -5 -42.5t-12.5 -40t-17 -34t-18.5 -24.5z" />
    <glyph glyph-name="hyphen" unicode="-" horiz-adv-x="409" 
d="M93 280v36h223v-36h-223z" />
    <glyph glyph-name="period" unicode="." horiz-adv-x="212" 
d="M106 -14q-12 0 -20.5 8.5t-8.5 20.5q0 13 8.5 22t20.5 9q13 0 21 -9t8 -22q0 -12 -8 -20.5t-21 -8.5z" />
    <glyph glyph-name="slash" unicode="/" horiz-adv-x="492" 
d="M17 -130l393 842h40l-393 -842h-40z" />
    <glyph glyph-name="zero" unicode="0" horiz-adv-x="626" 
d="M313 -12q-64 0 -106.5 32t-68.5 83.5t-37 116t-11 130.5q0 36 4 77.5t13.5 81.5t26 77t41.5 65t59 44.5t79 16.5q64 0 106.5 -32.5t68.5 -84.5t37 -116.5t11 -128.5q0 -37 -4 -78t-14 -81.5t-26.5 -77t-41 -64.5t-58.5 -44.5t-79 -16.5zM313 24q55 0 91 32t56.5 81
t28.5 106t8 107q0 58 -9 116t-30.5 104.5t-57 76t-87.5 29.5q-56 0 -91.5 -32.5t-56 -81.5t-28.5 -106t-8 -106q0 -59 9 -117.5t30.5 -105t56.5 -75t88 -28.5z" />
    <glyph glyph-name="one" unicode="1" horiz-adv-x="340" 
d="M179 0v582h-119v24q34 0 56 3.5t36.5 13.5t23 28.5t14.5 48.5h25v-700h-36z" />
    <glyph glyph-name="two" unicode="2" horiz-adv-x="606" 
d="M88 0q0 59 14.5 101t40 74t61 58t78.5 54l68 45t61 51t43.5 62t16.5 78q0 67 -43 110t-120 43q-69 0 -112.5 -36t-59.5 -94l-34 16q9 32 27 59.5t44 47.5t60 31.5t75 11.5q48 0 85 -14t63 -39t39.5 -59.5t13.5 -76.5q0 -51 -18.5 -90t-48 -70t-66.5 -56.5l-75 -49.5
q-40 -26 -71.5 -49.5t-53 -49t-34 -55.5t-13.5 -67h386v-36h-427z" />
    <glyph glyph-name="three" unicode="3" horiz-adv-x="596" 
d="M289 -12q-46 0 -82.5 12.5t-64 33.5t-47.5 48t-32 57l35 13q28 -62 75 -95t116 -33q38 0 71 10t57.5 30t38.5 49.5t14 68.5q0 76 -44.5 120t-127.5 44h-38v35h23q34 0 63 10.5t50.5 30.5t33.5 49t12 65q0 32 -11.5 58t-32 44t-48 28t-59.5 10q-34 0 -61 -10t-47.5 -26
t-35 -35.5t-23.5 -37.5l-34 14q11 24 29.5 47.5t44 42t57.5 30t70 11.5q40 0 75 -12.5t60 -36t39.5 -56t14.5 -71.5q0 -53 -27 -99.5t-87 -69.5q65 -13 103.5 -63t38.5 -122q0 -45 -16.5 -80.5t-46 -61t-69.5 -39t-87 -13.5z" />
    <glyph glyph-name="four" unicode="4" horiz-adv-x="593" 
d="M390 0v204h-342v21l362 475h16v-463h106v-33h-106v-204h-36zM390 237v383l-291 -383h291z" />
    <glyph glyph-name="five" unicode="5" horiz-adv-x="634" 
d="M304 -12q-39 0 -72 9t-60 22.5t-47.5 29.5t-33.5 30l24 30q12 -14 30 -28.5t41.5 -27.5t53 -21t65.5 -8q52 0 89.5 17t62 45t36.5 65t12 76q0 42 -14 77t-39 60t-59.5 38.5t-75.5 13.5q-60 0 -101 -23.5t-69 -55.5l-30 8l57 355h323v-36h-291l-43 -268q29 26 68 41t87 15
t89.5 -16.5t71.5 -46t47 -71t17 -91.5q0 -46 -14.5 -89t-44 -76.5t-74.5 -53.5t-106 -20z" />
    <glyph glyph-name="six" unicode="6" horiz-adv-x="592" 
d="M292 -12q-58 0 -99 21.5t-66.5 55.5t-37 76.5t-11.5 85.5q0 84 20.5 159.5t61 138.5t102 110.5t144.5 76.5v-37q-110 -38 -183.5 -123t-99.5 -217q26 42 72 66t97 24q49 0 88.5 -16.5t67 -45t42.5 -68t15 -85.5q0 -48 -15.5 -88.5t-43 -70.5t-67 -46.5t-87.5 -16.5z
M292 389q-38 0 -70 -13.5t-55 -37.5t-36 -57t-13 -71q0 -40 12.5 -74t35.5 -59t55 -39t71 -14t71.5 14t55.5 38t35.5 57t12.5 72q0 40 -12 74t-35 58.5t-55.5 38t-72.5 13.5z" />
    <glyph glyph-name="seven" unicode="7" horiz-adv-x="505" 
d="M182 0q1 85 12 168.5t37 166.5t70 165t112 164h-359v36h397v-31q-76 -86 -121 -176.5t-69 -177.5t-31.5 -167.5t-8.5 -147.5h-39z" />
    <glyph glyph-name="eight" unicode="8" horiz-adv-x="604" 
d="M302 24q37 0 68.5 11.5t54.5 33.5t36.5 52.5t13.5 69.5q0 36 -12.5 68.5t-35 57t-54.5 38.5t-71 14t-71 -14t-54.5 -38.5t-35 -57t-12.5 -68.5q0 -39 13 -69.5t36.5 -52.5t55 -33.5t68.5 -11.5zM302 712q39 0 72 -13.5t57.5 -37.5t38 -55.5t13.5 -67.5q0 -50 -28 -92
t-87 -60q69 -19 108 -71.5t39 -123.5q0 -43 -16 -80t-44.5 -64.5t-67.5 -43t-85 -15.5t-85 15.5t-67.5 43t-44.5 64.5t-16 80q0 35 10.5 67t29 57.5t45.5 43.5t60 27q-55 17 -84 59.5t-29 92.5q0 36 13.5 67.5t38 55.5t57.5 37.5t72 13.5zM302 401q66 0 104.5 38t38.5 99
q0 32 -11 57.5t-30 43.5t-45.5 27.5t-56.5 9.5t-56.5 -9.5t-45.5 -27.5t-30 -43.5t-11 -57.5q0 -61 38.5 -99t104.5 -38z" />
    <glyph glyph-name="nine" unicode="9" horiz-adv-x="592" 
d="M292 712q52 0 92 -20t67 -52.5t40.5 -74t13.5 -85.5q0 -88 -23 -167.5t-65 -144.5t-100 -111.5t-128 -68.5v36q55 18 100.5 53.5t79.5 82t55.5 101.5t29.5 113q-24 -36 -67 -61t-109 -25q-44 0 -81 16t-63.5 44.5t-41.5 66.5t-15 82q0 46 16 85t44.5 68t68 45.5
t86.5 16.5zM283 324q40 0 73.5 13.5t57.5 36.5t37 55t13 68q0 38 -13.5 71t-37 57t-55 37.5t-68.5 13.5q-39 0 -71 -13.5t-55.5 -37t-36 -55.5t-12.5 -68q0 -38 12 -70.5t34 -56.5t53 -37.5t69 -13.5z" />
    <glyph glyph-name="colon" unicode=":" horiz-adv-x="212" 
d="M106 -14q-12 0 -20.5 8.5t-8.5 20.5q0 13 8.5 22t20.5 9q13 0 21 -9t8 -22q0 -12 -8 -20.5t-21 -8.5zM106 423q-12 0 -20.5 8.5t-8.5 20.5q0 13 8.5 22t20.5 9q13 0 21 -9t8 -22q0 -12 -8 -20.5t-21 -8.5z" />
    <glyph glyph-name="semicolon" unicode=";" horiz-adv-x="212" 
d="M106 423q-12 0 -20.5 8.5t-8.5 20.5q0 13 8.5 22t20.5 9q13 0 21 -9t8 -22q0 -12 -8 -20.5t-21 -8.5zM77 -138q14 20 23.5 51.5t9.5 59.5q0 4 -0.5 7t-0.5 6q-14 0 -23 8t-9 21q0 14 8.5 22.5t20.5 8.5q14 0 23.5 -10t9.5 -36q0 -21 -5 -42.5t-12.5 -40t-17 -34
t-18.5 -24.5z" />
    <glyph glyph-name="less" unicode="&#x3c;" horiz-adv-x="666" 
d="M568 120l-470 204v38l470 204v-41l-423 -182l423 -182v-41z" />
    <glyph glyph-name="equal" unicode="=" horiz-adv-x="666" 
d="M98 229v36h470v-36h-470zM98 419v36h470v-36h-470z" />
    <glyph glyph-name="greater" unicode="&#x3e;" horiz-adv-x="666" 
d="M568 324l-470 -204v41l423 182l-423 182v41l470 -204v-38z" />
    <glyph glyph-name="question" unicode="?" horiz-adv-x="532" 
d="M236 156v34q0 44 14 76.5t35 58.5t45 48t45 45t35 50t14 64q0 30 -10 56t-30 45.5t-49 31t-67 11.5q-129 0 -166 -121l-34 15q22 69 74.5 105.5t125.5 36.5q47 0 83 -14t61 -38.5t37.5 -57.5t12.5 -70q0 -41 -14 -70.5t-35 -54t-45 -46t-45 -46t-35 -54.5t-14 -71v-34
h-38zM255 -14q-12 0 -20.5 8.5t-8.5 20.5q0 13 8.5 22t20.5 9q13 0 21 -9t8 -22q0 -12 -8 -20.5t-21 -8.5z" />
    <glyph glyph-name="at" unicode="@" horiz-adv-x="805" 
d="M402 -12q-69 0 -130 23t-106.5 67.5t-72 108.5t-26.5 147t28.5 152.5t77.5 119.5t113 78t135 28q70 0 128.5 -21t100.5 -59.5t65 -92.5t23 -120q0 -57 -12 -104.5t-32.5 -82t-48.5 -53.5t-59 -19q-32 0 -54 18.5t-26 55.5q-14 -26 -30.5 -42t-34.5 -25t-35 -12.5
t-32 -3.5q-65 0 -104 44t-39 125q0 38 12 75.5t35 67t55.5 48t73.5 18.5q27 0 47.5 -8.5t36 -22.5t25 -31.5t14.5 -36.5l15 86h35l-35 -205q-3 -16 -4.5 -32.5t-1.5 -27.5q0 -29 12.5 -44.5t34.5 -15.5q24 0 45 17t36 47t24 72t9 92q0 57 -20.5 104.5t-57.5 81t-88.5 52.5
t-112.5 19q-65 0 -122.5 -25.5t-100.5 -71.5t-68 -108.5t-25 -137.5q0 -65 20.5 -121.5t59 -98t94.5 -65.5t127 -24q30 0 63 3t61 10l-8 -36q-26 -7 -56.5 -10t-63.5 -3zM411 494q-35 0 -61.5 -14t-44.5 -38t-27 -56t-9 -67q0 -62 30 -97.5t79 -35.5q31 0 56.5 14t43.5 38
t28 55.5t10 67.5q0 30 -8.5 55t-23 42t-33.5 26.5t-40 9.5z" />
    <glyph glyph-name="A" unicode="A" 
d="M552 0l-70 197h-297l-67 -197h-37l240 700h24l242 -700h-35zM473 227l-104 302l-6.5 20l-10 30.5l-10.5 33t-8 27.5l-8 -28t-11 -34l-11 -30.5t-6 -18.5l-104 -302h279z" />
    <glyph glyph-name="B" unicode="B" horiz-adv-x="642" 
d="M115 700h215q57 0 95 -15t61 -39.5t32.5 -55.5t9.5 -64q0 -58 -35.5 -102.5t-99.5 -58.5q35 -3 64.5 -17t50.5 -37t33 -54t12 -69q0 -34 -10 -67.5t-34 -60.5t-63.5 -43.5t-99.5 -16.5h-231v700zM355 32q47 0 78.5 12.5t50 33.5t26 48t7.5 55q0 33 -8.5 63t-30.5 53
t-59.5 36.5t-95.5 13.5h-172v-315h204zM311 379q90 0 135.5 40.5t45.5 108.5q0 25 -6.5 50.5t-24.5 45t-49 32t-79 12.5h-182v-289h160z" />
    <glyph glyph-name="C" unicode="C" horiz-adv-x="650" 
d="M361 -12q-73 0 -124.5 31t-84 81.5t-47.5 115.5t-15 134q0 70 16.5 135t49.5 115.5t84 81t120 30.5q44 0 76.5 -9.5t55.5 -25.5t39.5 -36.5t28.5 -41.5l-31 -18q-11 18 -24.5 35t-33 30.5t-47 21.5t-64.5 8q-59 0 -102.5 -27.5t-72 -72.5t-42.5 -104t-14 -122
q0 -62 12.5 -121t40.5 -104.5t72 -73t107 -27.5q35 0 63.5 9t50 23.5t37 33.5t25.5 39l33 -13q-11 -24 -29.5 -47t-44 -41t-59.5 -29t-76 -11z" />
    <glyph glyph-name="D" unicode="D" horiz-adv-x="675" 
d="M115 700h160q87 0 146.5 -30.5t95.5 -80t52 -112t16 -127.5q0 -60 -14.5 -122.5t-50.5 -113t-96.5 -82.5t-152.5 -32h-156v700zM271 36q81 0 134 29t84.5 74t44 101t12.5 110q0 58 -14 114.5t-45.5 100.5t-83.5 71.5t-128 27.5h-124v-628h120z" />
    <glyph glyph-name="E" unicode="E" horiz-adv-x="592" 
d="M115 0v700h365v-33h-329v-288h222v-33h-222v-313h351v-33h-387z" />
    <glyph glyph-name="F" unicode="F" horiz-adv-x="560" 
d="M115 0v700h375v-33h-339v-288h229v-33h-229v-346h-36z" />
    <glyph glyph-name="G" unicode="G" horiz-adv-x="691" 
d="M363 -12q-74 0 -125.5 31t-84.5 81.5t-48 115.5t-15 134q0 72 16 137.5t49.5 115.5t85 79.5t122.5 29.5q37 0 67 -8.5t53 -22t40.5 -31t30.5 -34.5l-32 -21q-23 32 -61 56.5t-98 24.5q-65 0 -109.5 -29.5t-72.5 -76.5t-40 -105t-12 -115q0 -63 13.5 -122t42 -104.5
t72.5 -72.5t106 -27q84 0 134 60.5t50 184.5v12h-147v34h185v-34q0 -78 -16.5 -133.5t-46.5 -91t-70.5 -52t-88.5 -16.5z" />
    <glyph glyph-name="H" unicode="H" horiz-adv-x="678" 
d="M527 0v347h-376v-347h-36v700h36v-319h376v319h36v-700h-36z" />
    <glyph glyph-name="I" unicode="I" horiz-adv-x="266" 
d="M115 0v700h36v-700h-36z" />
    <glyph glyph-name="J" unicode="J" horiz-adv-x="542" 
d="M225 -12q-76 0 -117.5 31.5t-64.5 87.5l30 16q20 -45 55 -73t97 -28q28 0 58 8.5t55 31t41 61.5t16 100v477h36v-475q0 -72 -19.5 -118t-49.5 -72.5t-66.5 -36.5t-70.5 -10z" />
    <glyph glyph-name="K" unicode="K" horiz-adv-x="629" 
d="M519 0l-235 431l-133 -167v-264h-36v700h36v-383l304 383h43l-189 -238l252 -462h-42z" />
    <glyph glyph-name="L" unicode="L" horiz-adv-x="541" 
d="M115 0v700h36v-667h347v-33h-383z" />
    <glyph glyph-name="M" unicode="M" horiz-adv-x="808" 
d="M657 0v596l-253 -608l-253 608v-596h-36v700h32l257 -619l257 619h32v-700h-36z" />
    <glyph glyph-name="N" unicode="N" horiz-adv-x="691" 
d="M541 0l-390 631v-631h-36v700h35l390 -631v631h36v-700h-35z" />
    <glyph glyph-name="O" unicode="O" horiz-adv-x="726" 
d="M363 24q65 0 110 29.5t72.5 76.5t39.5 105t12 115q0 62 -12 121t-39.5 104.5t-72.5 73t-110 27.5t-110 -29.5t-72.5 -76.5t-39.5 -105t-12 -115q0 -62 12 -121t39.5 -104.5t72.5 -73t110 -27.5zM363 -12q-75 0 -127 32t-84.5 84t-47 116.5t-14.5 129.5t14.5 129.5
t47 116.5t84.5 84t127 32t127 -32t84.5 -84t47 -116.5t14.5 -129.5t-14.5 -129.5t-47 -116.5t-84.5 -84t-127 -32z" />
    <glyph glyph-name="P" unicode="P" horiz-adv-x="609" 
d="M115 0v700h219q63 0 105 -18t67.5 -47t36.5 -66t11 -75q0 -35 -11.5 -71.5t-38 -66t-68.5 -48.5t-102 -19h-183v-289h-36zM334 325q50 0 84.5 15.5t56 40t31 54.5t9.5 59q0 31 -9 61.5t-30 54.5t-55.5 39t-86.5 15h-183v-339h183z" />
    <glyph glyph-name="Q" unicode="Q" horiz-adv-x="726" 
d="M569 -57l-60 90q-29 -21 -65 -33t-81 -12q-75 0 -127 32t-84.5 84t-47 116.5t-14.5 129.5t14.5 129.5t47 116.5t84.5 84t127 32t127 -32t84.5 -84t47 -116.5t14.5 -129.5q0 -41 -5.5 -82.5t-18 -80.5t-32 -73t-46.5 -60l62 -92zM363 24q38 0 69 10.5t56 29.5l-61 91
l27 19l59 -88q23 24 39 54.5t26 65t14.5 71.5t4.5 73q0 62 -12 121t-39.5 104.5t-72.5 73t-110 27.5t-110 -29.5t-72.5 -76.5t-39.5 -105t-12 -115q0 -62 12 -121t39.5 -104.5t72.5 -73t110 -27.5z" />
    <glyph glyph-name="R" unicode="R" horiz-adv-x="654" 
d="M556 517q0 -35 -10.5 -67.5t-33 -58t-57 -42t-82.5 -20.5l161 -329h-40l-159 329h-184v-329h-36v700h240q57 0 95.5 -16t62 -42t33.5 -58.5t10 -66.5zM355 362q46 0 77.5 14t50.5 36t27 49.5t8 55.5q0 24 -7.5 50.5t-26 48.5t-50 36.5t-79.5 14.5h-204v-305h204z" />
    <glyph glyph-name="S" unicode="S" horiz-adv-x="600" 
d="M439 586q-18 44 -55 67.5t-94 23.5q-70 0 -109 -32t-39 -88q0 -34 15 -58.5t39 -43.5t55 -33.5t63 -27.5q33 -14 67 -32t61.5 -44t45 -61.5t17.5 -83.5q0 -44 -15 -78.5t-42 -58t-64.5 -36t-82.5 -12.5q-40 0 -75 12t-63 32t-49 46.5t-33 56.5l38 12q25 -56 72.5 -90
t110.5 -34q75 0 120 38t45 113q0 36 -14 64.5t-37.5 51t-54 39.5t-63.5 30q-35 14 -69.5 30.5t-62.5 40t-45 54.5t-17 75q0 33 12.5 61t36.5 48.5t59 32t81 11.5q33 0 62 -8t53 -23t41 -36.5t26 -47.5z" />
    <glyph glyph-name="T" unicode="T" horiz-adv-x="567" 
d="M301 667v-667h-36v667h-192v33h421v-33h-193z" />
    <glyph glyph-name="U" unicode="U" 
d="M334 -12q-52 0 -93.5 14.5t-70 46t-44 81t-15.5 119.5v451h36v-449q0 -69 15.5 -113.5t41 -70t59.5 -35.5t71 -10t71 10t59.5 35.5t41 70t15.5 113.5v449h36v-451q0 -70 -15.5 -119.5t-44 -81t-70 -46t-93.5 -14.5z" />
    <glyph glyph-name="V" unicode="V" horiz-adv-x="642" 
d="M335 0h-28l-239 700h39l214 -625l214 625h39z" />
    <glyph glyph-name="W" unicode="W" horiz-adv-x="842" 
d="M774 700l-170 -700h-30l-153 612l-153 -612h-30l-170 700h39l147 -610l152 610h30l152 -610l147 610h39z" />
    <glyph glyph-name="X" unicode="X" horiz-adv-x="556" 
d="M458 0l-180 329l-180 -329h-40l201 366l-184 334h40l163 -298l163 298h40l-184 -334l201 -366h-40z" />
    <glyph glyph-name="Y" unicode="Y" horiz-adv-x="610" 
d="M287 0v277l-228 423h39l207 -386l207 386h39l-228 -423v-277h-36z" />
    <glyph glyph-name="Z" unicode="Z" horiz-adv-x="605" 
d="M72 0v19l413 648h-390v33h438v-21l-409 -646h409v-33h-461z" />
    <glyph glyph-name="bracketleft" unicode="[" horiz-adv-x="385" 
d="M135 -130v842h175v-34h-139v-774h139v-34h-175z" />
    <glyph glyph-name="backslash" unicode="\" horiz-adv-x="492" 
d="M411 -130l-393 842h38l393 -842h-38z" />
    <glyph glyph-name="bracketright" unicode="]" horiz-adv-x="385" 
d="M250 -130h-175v34h139v774h-139v34h175v-842z" />
    <glyph glyph-name="asciicircum" unicode="^" horiz-adv-x="666" 
d="M508 362l-175 301l-175 -301h-38l194 350h38l194 -350h-38z" />
    <glyph glyph-name="underscore" unicode="_" horiz-adv-x="536" 
d="M13 -155v33h510v-33h-510z" />
    <glyph glyph-name="grave" unicode="`" horiz-adv-x="341" 
d="M207 576l-169 156h55l151 -156h-37z" />
    <glyph glyph-name="a" unicode="a" horiz-adv-x="527" 
d="M403 0v80q-30 -42 -72.5 -67t-89.5 -25q-75 0 -119 42.5t-44 123.5q0 42 14 72.5t37.5 50.5t55.5 29.5t68 9.5q41 0 78 -13t72 -36v76q0 45 -10.5 74t-27.5 45t-40 22t-47 6q-42 0 -83 -15.5t-71 -33.5l-11 31q29 17 72 34t96 17q27 0 55 -7t51 -25t37.5 -50t14.5 -83
v-358h-36zM241 21q28 0 52 9t44 23.5t36.5 32.5t29.5 36v111q-29 20 -67.5 35t-82.5 15q-26 0 -50.5 -8t-43.5 -23.5t-30.5 -40t-11.5 -57.5q0 -60 33.5 -96.5t90.5 -36.5z" />
    <glyph glyph-name="b" unicode="b" horiz-adv-x="564" 
d="M303 -12q-51 0 -89 20t-70 65v-73h-36v704l36 18v-286q24 40 64.5 63.5t88.5 23.5q89 0 141.5 -70t52.5 -197q0 -131 -50 -199.5t-138 -68.5zM300 24q75 0 113.5 63t38.5 169q0 112 -39.5 171.5t-116.5 59.5q-28 0 -52 -10t-43.5 -25.5t-34 -34t-22.5 -34.5v-254
q24 -47 65 -76t91 -29z" />
    <glyph glyph-name="c" unicode="c" horiz-adv-x="483" 
d="M257 -12q-85 0 -134.5 69.5t-49.5 197.5q0 127 50.5 197.5t140.5 70.5q52 0 91 -27.5t58 -79.5l-36 -14q-14 41 -44 63t-69 22q-76 0 -114 -59t-38 -173q0 -110 39.5 -170.5t105.5 -60.5q46 0 80 25.5t47 68.5l36 -13q-17 -54 -60 -85.5t-103 -31.5z" />
    <glyph glyph-name="d" unicode="d" horiz-adv-x="564" 
d="M267 -12q-45 0 -81 19t-61 54t-38.5 84.5t-13.5 110.5q0 127 52.5 197t149.5 70q28 0 50.5 -8t40 -20.5t31 -28t23.5 -30.5v268l36 18v-722h-36v73q-31 -45 -70 -65t-83 -20zM275 24q44 0 83 30.5t62 74.5v255q-9 15 -22.5 32.5t-31.5 33.5t-41 26.5t-50 10.5
q-79 0 -121 -60t-42 -171q0 -48 11.5 -90.5t32.5 -74t51 -49.5t68 -18z" />
    <glyph glyph-name="e" unicode="e" horiz-adv-x="531" 
d="M112 245q4 -115 48 -168t121 -53q29 0 60.5 10t59.5 33l21 -26q-27 -23 -64.5 -38t-79.5 -15q-98 0 -151.5 72t-53.5 196q0 64 15.5 113.5t42.5 83.5t64.5 52t82.5 18q41 0 75 -15.5t58.5 -48t38 -83t13.5 -120.5v-11h-351zM278 490q-34 0 -63 -12.5t-51 -38t-35.5 -66
t-16.5 -95.5h313q0 64 -14.5 105.5t-36.5 65t-47.5 32.5t-48.5 9z" />
    <glyph glyph-name="f" unicode="f" horiz-adv-x="327" 
d="M161 478v-478h-36v478h-82v33h82v92q0 109 98 109q16 0 32 -4.5t29 -11.5v-32q-14 6 -27.5 10.5t-33.5 4.5q-35 0 -48.5 -19t-13.5 -61v-88h123v-33h-123z" />
    <glyph glyph-name="g" unicode="g" horiz-adv-x="566" 
d="M215 -181q113 6 160 46.5t47 115.5v103q-24 -50 -64.5 -73t-88.5 -23q-39 0 -74.5 17t-62.5 50.5t-43 83.5t-16 117q0 63 14.5 112.5t41 84t63 52.5t81.5 18q28 0 52 -7.5t43 -20t32.5 -28t21.5 -30.5v74h36v-534q0 -55 -19.5 -90.5t-51 -56.5t-71.5 -30.5t-82 -12.5z
M270 24q26 0 49.5 9t43 24.5t34.5 35.5t25 41v255q-26 48 -65.5 73t-83.5 25q-78 0 -119.5 -59.5t-41.5 -171.5q0 -56 12.5 -99t34 -72.5t50.5 -45t61 -15.5z" />
    <glyph glyph-name="h" unicode="h" horiz-adv-x="562" 
d="M295 523q81 0 122.5 -51.5t41.5 -159.5v-312h-36v320q0 46 -9.5 78.5t-26.5 52.5t-41 29t-54 9q-32 0 -59 -10t-46.5 -32.5t-31 -59t-11.5 -90.5v-297h-36v704l36 18v-303q10 28 27.5 48t38.5 32.5t43 18t42 5.5z" />
    <glyph glyph-name="i" unicode="i" horiz-adv-x="258" 
d="M111 0v511h36v-511h-36zM129 633q-12 0 -20.5 8.5t-8.5 20.5q0 13 8.5 22t20.5 9q13 0 21 -9t8 -22q0 -12 -8 -20.5t-21 -8.5z" />
    <glyph glyph-name="j" unicode="j" horiz-adv-x="264" 
d="M129 633q-12 0 -20.5 8.5t-8.5 20.5q0 13 8.5 22t20.5 9q13 0 21 -9t8 -22q0 -12 -8 -20.5t-21 -8.5zM148 -49q0 -47 -11.5 -77t-31.5 -48.5t-46 -27t-54 -11.5l-18 31q64 5 94.5 34.5t30.5 96.5v562h36v-560z" />
    <glyph glyph-name="k" unicode="k" horiz-adv-x="513" 
d="M279 371l191 -371h-41l-176 343l-109 -116v-227h-36v704l36 18v-450l218 239h45z" />
    <glyph glyph-name="l" unicode="l" horiz-adv-x="252" 
d="M108 0v704l36 18v-722h-36z" />
    <glyph glyph-name="m" unicode="m" horiz-adv-x="845" 
d="M582 523q74 0 117 -46t43 -126v-351h-36v321q0 28 -4 57.5t-17.5 54t-38.5 40.5t-67 16q-32 0 -57.5 -13.5t-43 -36.5t-26.5 -53.5t-9 -64.5v-321h-36v321q0 28 -4.5 57.5t-17.5 54t-38 40.5t-65 16q-35 0 -61 -13t-43 -36.5t-25.5 -55.5t-8.5 -70v-314h-36v511h36v-84
q23 50 61 73t82 23q51 0 89.5 -29.5t51.5 -95.5q20 62 62 93.5t92 31.5z" />
    <glyph glyph-name="n" unicode="n" horiz-adv-x="562" 
d="M144 419q10 28 27.5 48t38 32.5t43 18t42.5 5.5q81 0 122.5 -51.5t41.5 -159.5v-312h-36v319q0 93 -36 131.5t-95 38.5q-32 0 -59 -10t-46.5 -32.5t-31 -59t-11.5 -90.5v-297h-36v511h36v-92z" />
    <glyph glyph-name="o" unicode="o" horiz-adv-x="550" 
d="M275 24q78 0 120.5 61t42.5 171q0 109 -41.5 170t-121.5 61t-121.5 -59.5t-41.5 -172.5q0 -109 41.5 -170t121.5 -61zM275 523q91 0 146.5 -69.5t55.5 -197.5q0 -63 -14.5 -113t-41 -84.5t-64 -52.5t-82.5 -18q-91 0 -146.5 69.5t-55.5 197.5q0 63 14.5 112.5t41 84
t64 53t82.5 18.5z" />
    <glyph glyph-name="p" unicode="p" horiz-adv-x="568" 
d="M293 -12q-48 0 -86.5 24.5t-62.5 71.5v-269l-36 -18v714h36v-74q53 86 157 86q45 0 81 -19t61 -54t38.5 -84.5t13.5 -109.5q0 -131 -55.5 -199.5t-146.5 -68.5zM293 24q78 0 120.5 60t42.5 172q0 52 -11 95t-32 73t-51.5 46.5t-68.5 16.5q-47 0 -86.5 -26.5t-62.5 -71.5
v-255q25 -51 63.5 -80.5t85.5 -29.5z" />
    <glyph glyph-name="q" unicode="q" horiz-adv-x="568" 
d="M275 -12q-91 0 -146.5 66t-55.5 197q0 60 13.5 110t38.5 86t61 56t81 20q104 0 157 -86v74h36v-693l-36 -18v284q-22 -45 -61.5 -70.5t-87.5 -25.5zM275 24q47 0 85.5 29.5t63.5 80.5v255q-23 45 -62.5 71.5t-86.5 26.5q-38 0 -68.5 -17t-51.5 -48.5t-32 -75t-11 -95.5
q0 -112 42.5 -169.5t120.5 -57.5z" />
    <glyph glyph-name="r" unicode="r" horiz-adv-x="390" 
d="M108 0v511h36v-109q24 63 64.5 92t85.5 29q25 0 42 -6.5t26 -14.5l-6 -36q-10 6 -27 11.5t-40 5.5t-48.5 -10.5t-47 -34t-35.5 -62t-14 -93.5v-283h-36z" />
    <glyph glyph-name="s" unicode="s" horiz-adv-x="467" 
d="M348 437q-21 20 -50.5 36t-70.5 16q-54 0 -83 -25t-29 -67q0 -25 10 -42t27.5 -30t40 -23t47.5 -20q33 -13 61 -26.5t48.5 -31.5t32.5 -43t12 -61q0 -59 -39 -95.5t-114 -36.5q-53 0 -93 22.5t-68 54.5l28 24q23 -26 56.5 -46.5t75.5 -20.5q54 0 85.5 24t31.5 74
q0 27 -12 47t-31.5 36t-44.5 28t-52 22q-63 23 -101 55t-38 89q0 54 39.5 90t110.5 36q43 0 81.5 -17t65.5 -46z" />
    <glyph glyph-name="t" unicode="t" horiz-adv-x="371" 
d="M229 -12q-53 0 -73.5 33t-20.5 83v374h-87v33h87v193l36 18v-211h130v-33h-130v-369q0 -40 12 -63t50 -23q23 0 42.5 8t32.5 16l-4 -38q-16 -10 -36.5 -15.5t-38.5 -5.5z" />
    <glyph glyph-name="u" unicode="u" horiz-adv-x="562" 
d="M418 0v86q-13 -28 -30.5 -47t-37 -30t-41 -16t-41.5 -5q-81 0 -123 51.5t-42 159.5v312h36v-320q0 -93 36 -131.5t95 -38.5q31 0 58.5 10t47 33t31 59.5t11.5 90.5v297h36v-511h-36z" />
    <glyph glyph-name="v" unicode="v" horiz-adv-x="506" 
d="M266 0h-26l-182 511h36l159 -443l159 443h36z" />
    <glyph glyph-name="w" unicode="w" horiz-adv-x="708" 
d="M520 0h-26l-140 443l-140 -443h-26l-130 511h36l110 -443l137 443h26l137 -443l110 443h36z" />
    <glyph glyph-name="x" unicode="x" horiz-adv-x="498" 
d="M58 0l171 266l-157 245h39l138 -214l138 214h39l-158 -245l172 -266h-39l-152 236l-152 -236h-39z" />
    <glyph glyph-name="y" unicode="y" horiz-adv-x="515" 
d="M237 12l-184 499h36l166 -452l166 452h36l-260 -705h-36z" />
    <glyph glyph-name="z" unicode="z" horiz-adv-x="505" 
d="M73 0v22l306 456h-286v33h334v-21l-307 -457h306v-33h-353z" />
    <glyph glyph-name="braceleft" unicode="{" horiz-adv-x="384" 
d="M94 290q26 -2 46.5 -8.5t34.5 -22.5t21.5 -45t7.5 -76v-82q0 -72 28 -112t87 -42v-32q-84 2 -119 59t-35 172v61q0 54 -25.5 82t-67.5 28h-4v39h4q42 0 67.5 27.5t25.5 82.5v60q0 115 35 172t119 59v-32q-59 -2 -87 -42t-28 -112v-82q0 -44 -7.5 -72.5t-21.5 -45.5
t-34.5 -24.5t-46.5 -9.5v-2z" />
    <glyph glyph-name="bar" unicode="|" horiz-adv-x="276" 
d="M120 -205v1010h36v-1010h-36z" />
    <glyph glyph-name="braceright" unicode="}" horiz-adv-x="384" 
d="M290 292q-26 2 -46.5 8.5t-34.5 22.5t-21.5 45t-7.5 76v82q0 72 -28 112t-87 42v32q84 -2 119 -59t35 -172v-61q0 -54 25.5 -82t67.5 -28h4v-39h-4q-42 0 -67.5 -27.5t-25.5 -82.5v-60q0 -115 -35 -172t-119 -59v32q59 2 87 42t28 112v82q0 44 7.5 72.5t21.5 45.5
t34.5 24.5t46.5 9.5v2z" />
    <glyph glyph-name="asciitilde" unicode="~" horiz-adv-x="666" 
d="M448 277q-35 0 -64.5 14.5t-56.5 32.5t-54 32.5t-57 14.5q-36 0 -56.5 -24.5t-22.5 -69.5h-37q0 24 7 47.5t21.5 42t36.5 29.5t53 11q35 0 64.5 -14.5t56.5 -32.5t54 -32.5t57 -14.5q36 0 56.5 25t22.5 69h37q0 -24 -7 -47.5t-21 -42t-36.5 -29.5t-53.5 -11z" />
    <glyph glyph-name="Adieresis" unicode="&#xc4;" 
d="M552 0l-70 197h-297l-67 -197h-37l240 700h24l242 -700h-35zM473 227l-104 302l-6.5 20l-10 30.5l-10.5 33t-8 27.5l-8 -28t-11 -34l-11 -30.5t-6 -18.5l-104 -302h279zM250 796q-12 0 -20.5 8.5t-8.5 20.5q0 13 8.5 22t20.5 9q13 0 21 -9t8 -22q0 -12 -8 -20.5t-21 -8.5
zM416 796q-12 0 -20.5 8.5t-8.5 20.5q0 13 8.5 22t20.5 9q13 0 21 -9t8 -22q0 -12 -8 -20.5t-21 -8.5z" />
    <glyph glyph-name="Aring" unicode="&#xc5;" 
d="M482 197h-296l-69 -197h-36l220 639q-35 11 -58.5 39t-23.5 68q0 23 9 43.5t25 36t36.5 24.5t44.5 9t44.5 -9t36.5 -24.5t25 -36t9 -43.5q0 -38 -23 -67t-59 -40l220 -639h-36zM195 227h278l-139 407zM334 665q34 0 57.5 23t23.5 58t-23.5 58.5t-57.5 23.5
q-32 0 -56.5 -22t-24.5 -60q0 -37 24.5 -59t56.5 -22z" />
    <glyph glyph-name="Ccedilla" unicode="&#xc7;" horiz-adv-x="650" 
d="M346 -234q-23 0 -41 7.5t-30 20.5l25 18q8 -6 18.5 -11.5t26.5 -5.5q31 0 47.5 17.5t16.5 43.5t-18 43t-47 17q-22 0 -38 -8l-10 12l49 69q-68 3 -116.5 35t-79.5 82t-45 113.5t-14 130.5q0 70 16.5 135t49.5 115.5t84 81t120 30.5q44 0 76.5 -9.5t55.5 -25.5t39.5 -36.5
t28.5 -41.5l-31 -18q-11 18 -24.5 35t-33 30.5t-47 21.5t-64.5 8q-59 0 -102.5 -27.5t-72.5 -72.5t-43 -104t-14 -122q0 -62 13 -121t40.5 -104.5t72 -73t107.5 -27.5q35 0 63.5 9t50 23.5t37 33.5t25.5 39l33 -13q-11 -23 -28.5 -45.5t-42 -40.5t-56 -29.5t-71.5 -12.5
l-27 -47q25 0 43.5 -7.5t30.5 -19.5t18 -27t6 -30q0 -38 -25.5 -64.5t-71.5 -26.5z" />
    <glyph glyph-name="Eacute" unicode="&#xc9;" horiz-adv-x="592" 
d="M115 0v700h365v-33h-329v-288h222v-33h-222v-313h351v-33h-387zM248 766h-37l151 156h55z" />
    <glyph glyph-name="Ntilde" unicode="&#xd1;" horiz-adv-x="691" 
d="M541 0l-390 631v-631h-36v700h35l390 -631v631h36v-700h-35zM425 792q-25 0 -46 12.5t-41 28t-39 28t-40 12.5q-49 0 -52 -77h-27q0 48 21.5 79t64.5 31q25 0 46 -12.5t41 -28t39 -28t40 -12.5q49 0 52 77h27q0 -48 -21.5 -79t-64.5 -31z" />
    <glyph glyph-name="Odieresis" unicode="&#xd6;" horiz-adv-x="726" 
d="M363 24q65 0 110 29.5t72.5 76.5t39.5 105t12 115q0 62 -12 121t-39.5 104.5t-72.5 73t-110 27.5t-110 -29.5t-72.5 -76.5t-39.5 -105t-12 -115q0 -62 12 -121t39.5 -104.5t72.5 -73t110 -27.5zM363 -12q-75 0 -127 32t-84.5 84t-47 116.5t-14.5 129.5t14.5 129.5
t47 116.5t84.5 84t127 32t127 -32t84.5 -84t47 -116.5t14.5 -129.5t-14.5 -129.5t-47 -116.5t-84.5 -84t-127 -32zM280 796q-12 0 -20.5 8.5t-8.5 20.5q0 13 8.5 22t20.5 9q13 0 21 -9t8 -22q0 -12 -8 -20.5t-21 -8.5zM446 796q-12 0 -20.5 8.5t-8.5 20.5q0 13 8.5 22
t20.5 9q13 0 21 -9t8 -22q0 -12 -8 -20.5t-21 -8.5z" />
    <glyph glyph-name="Udieresis" unicode="&#xdc;" 
d="M334 -12q-52 0 -93.5 14.5t-70 46t-44 81t-15.5 119.5v451h36v-449q0 -69 15.5 -113.5t41 -70t59.5 -35.5t71 -10t71 10t59.5 35.5t41 70t15.5 113.5v449h36v-451q0 -70 -15.5 -119.5t-44 -81t-70 -46t-93.5 -14.5zM251 796q-12 0 -20.5 8.5t-8.5 20.5q0 13 8.5 22
t20.5 9q13 0 21 -9t8 -22q0 -12 -8 -20.5t-21 -8.5zM417 796q-12 0 -20.5 8.5t-8.5 20.5q0 13 8.5 22t20.5 9q13 0 21 -9t8 -22q0 -12 -8 -20.5t-21 -8.5z" />
    <glyph glyph-name="aacute" unicode="&#xe1;" horiz-adv-x="527" 
d="M403 0v80q-30 -42 -72.5 -67t-89.5 -25q-75 0 -119 42.5t-44 123.5q0 42 14 72.5t37.5 50.5t55.5 29.5t68 9.5q41 0 78 -13t72 -36v76q0 45 -10.5 74t-27.5 45t-40 22t-47 6q-42 0 -83 -15.5t-71 -33.5l-11 31q29 17 72 34t96 17q27 0 55 -7t51 -25t37.5 -50t14.5 -83
v-358h-36zM241 21q28 0 52 9t44 23.5t36.5 32.5t29.5 36v111q-29 20 -67.5 35t-82.5 15q-26 0 -50.5 -8t-43.5 -23.5t-30.5 -40t-11.5 -57.5q0 -60 33.5 -96.5t90.5 -36.5zM256 576h-37l151 156h55z" />
    <glyph glyph-name="agrave" unicode="&#xe0;" horiz-adv-x="527" 
d="M403 0v80q-30 -42 -72.5 -67t-89.5 -25q-75 0 -119 42.5t-44 123.5q0 42 14 72.5t37.5 50.5t55.5 29.5t68 9.5q41 0 78 -13t72 -36v76q0 45 -10.5 74t-27.5 45t-40 22t-47 6q-42 0 -83 -15.5t-71 -33.5l-11 31q29 17 72 34t96 17q27 0 55 -7t51 -25t37.5 -50t14.5 -83
v-358h-36zM241 21q28 0 52 9t44 23.5t36.5 32.5t29.5 36v111q-29 20 -67.5 35t-82.5 15q-26 0 -50.5 -8t-43.5 -23.5t-30.5 -40t-11.5 -57.5q0 -60 33.5 -96.5t90.5 -36.5zM316 576l-169 156h55l151 -156h-37z" />
    <glyph glyph-name="acircumflex" unicode="&#xe2;" horiz-adv-x="527" 
d="M403 0v80q-30 -42 -72.5 -67t-89.5 -25q-75 0 -119 42.5t-44 123.5q0 42 14 72.5t37.5 50.5t55.5 29.5t68 9.5q41 0 78 -13t72 -36v76q0 45 -10.5 74t-27.5 45t-40 22t-47 6q-42 0 -83 -15.5t-71 -33.5l-11 31q29 17 72 34t96 17q27 0 55 -7t51 -25t37.5 -50t14.5 -83
v-358h-36zM241 21q28 0 52 9t44 23.5t36.5 32.5t29.5 36v111q-29 20 -67.5 35t-82.5 15q-26 0 -50.5 -8t-43.5 -23.5t-30.5 -40t-11.5 -57.5q0 -60 33.5 -96.5t90.5 -36.5zM112 576l151 156h32l151 -156h-37l-130 120l-130 -120h-37z" />
    <glyph glyph-name="adieresis" unicode="&#xe4;" horiz-adv-x="527" 
d="M403 0v80q-30 -42 -72.5 -67t-89.5 -25q-75 0 -119 42.5t-44 123.5q0 42 14 72.5t37.5 50.5t55.5 29.5t68 9.5q41 0 78 -13t72 -36v76q0 45 -10.5 74t-27.5 45t-40 22t-47 6q-42 0 -83 -15.5t-71 -33.5l-11 31q29 17 72 34t96 17q27 0 55 -7t51 -25t37.5 -50t14.5 -83
v-358h-36zM241 21q28 0 52 9t44 23.5t36.5 32.5t29.5 36v111q-29 20 -67.5 35t-82.5 15q-26 0 -50.5 -8t-43.5 -23.5t-30.5 -40t-11.5 -57.5q0 -60 33.5 -96.5t90.5 -36.5zM196 606q-12 0 -20.5 8.5t-8.5 20.5q0 13 8.5 22t20.5 9q13 0 21 -9t8 -22q0 -12 -8 -20.5t-21 -8.5
zM362 606q-12 0 -20.5 8.5t-8.5 20.5q0 13 8.5 22t20.5 9q13 0 21 -9t8 -22q0 -12 -8 -20.5t-21 -8.5z" />
    <glyph glyph-name="atilde" unicode="&#xe3;" horiz-adv-x="527" 
d="M403 0v80q-30 -42 -72.5 -67t-89.5 -25q-75 0 -119 42.5t-44 123.5q0 42 14 72.5t37.5 50.5t55.5 29.5t68 9.5q41 0 78 -13t72 -36v76q0 45 -10.5 74t-27.5 45t-40 22t-47 6q-42 0 -83 -15.5t-71 -33.5l-11 31q29 17 72 34t96 17q27 0 55 -7t51 -25t37.5 -50t14.5 -83
v-358h-36zM241 21q28 0 52 9t44 23.5t36.5 32.5t29.5 36v111q-29 20 -67.5 35t-82.5 15q-26 0 -50.5 -8t-43.5 -23.5t-30.5 -40t-11.5 -57.5q0 -60 33.5 -96.5t90.5 -36.5zM359 602q-25 0 -46 12.5t-41 28t-39 28t-40 12.5q-49 0 -52 -77h-27q0 48 21.5 79t64.5 31
q25 0 46 -12.5t41 -28t39 -28t40 -12.5q49 0 52 77h27q0 -48 -21.5 -79t-64.5 -31z" />
    <glyph glyph-name="aring" unicode="&#xe5;" horiz-adv-x="527" 
d="M403 0v80q-30 -42 -72.5 -67t-89.5 -25q-75 0 -119 42.5t-44 123.5q0 42 14 72.5t37.5 50.5t55.5 29.5t68 9.5q41 0 78 -13t72 -36v76q0 45 -10.5 74t-27.5 45t-40 22t-47 6q-42 0 -83 -15.5t-71 -33.5l-11 31q29 17 72 34t96 17q27 0 55 -7t51 -25t37.5 -50t14.5 -83
v-358h-36zM241 21q28 0 52 9t44 23.5t36.5 32.5t29.5 36v111q-29 20 -67.5 35t-82.5 15q-26 0 -50.5 -8t-43.5 -23.5t-30.5 -40t-11.5 -57.5q0 -60 33.5 -96.5t90.5 -36.5zM284 575q-24 0 -44.5 9t-36.5 24t-25 35.5t-9 43.5t9 43.5t25 36t36.5 24.5t44.5 9t44.5 -9
t36.5 -24.5t25 -36t9 -43.5t-9 -43.5t-25 -35.5t-36.5 -24t-44.5 -9zM283 606q34 0 58 23t24 58t-24 58.5t-58 23.5q-32 0 -56 -23.5t-24 -58.5q0 -17 6.5 -32t17.5 -26t25.5 -17t30.5 -6z" />
    <glyph glyph-name="ccedilla" unicode="&#xe7;" horiz-adv-x="483" 
d="M251 -234q-23 0 -41 7.5t-30 20.5l25 18q8 -6 18.5 -11.5t26.5 -5.5q31 0 47.5 17.5t16.5 43.5t-18 43t-47 17q-22 0 -38 -8l-10 12l49 68q-81 3 -129 72t-48 195q0 127 50.5 197.5t140.5 70.5q52 0 91 -27.5t58 -79.5l-36 -14q-14 41 -44 63t-69 22q-76 0 -114 -59
t-38 -173q0 -110 39.5 -170.5t105.5 -60.5q46 0 80 25.5t47 68.5l36 -13q-15 -50 -52.5 -80t-89.5 -35l-28 -49q25 0 43.5 -7.5t30.5 -19.5t18 -27t6 -30q0 -38 -25.5 -64.5t-71.5 -26.5z" />
    <glyph glyph-name="eacute" unicode="&#xe9;" horiz-adv-x="531" 
d="M112 245q4 -115 48 -168t121 -53q29 0 60.5 10t59.5 33l21 -26q-27 -23 -64.5 -38t-79.5 -15q-98 0 -151.5 72t-53.5 196q0 64 15.5 113.5t42.5 83.5t64.5 52t82.5 18q41 0 75 -15.5t58.5 -48t38 -83t13.5 -120.5v-11h-351zM278 490q-34 0 -63 -12.5t-51 -38t-35.5 -66
t-16.5 -95.5h313q0 64 -14.5 105.5t-36.5 65t-47.5 32.5t-48.5 9zM254 576h-37l151 156h55z" />
    <glyph glyph-name="egrave" unicode="&#xe8;" horiz-adv-x="531" 
d="M112 245q4 -115 48 -168t121 -53q29 0 60.5 10t59.5 33l21 -26q-27 -23 -64.5 -38t-79.5 -15q-98 0 -151.5 72t-53.5 196q0 64 15.5 113.5t42.5 83.5t64.5 52t82.5 18q41 0 75 -15.5t58.5 -48t38 -83t13.5 -120.5v-11h-351zM278 490q-34 0 -63 -12.5t-51 -38t-35.5 -66
t-16.5 -95.5h313q0 64 -14.5 105.5t-36.5 65t-47.5 32.5t-48.5 9zM296 576l-169 156h55l151 -156h-37z" />
    <glyph glyph-name="ecircumflex" unicode="&#xea;" horiz-adv-x="531" 
d="M112 245q4 -115 48 -168t121 -53q29 0 60.5 10t59.5 33l21 -26q-27 -23 -64.5 -38t-79.5 -15q-98 0 -151.5 72t-53.5 196q0 64 15.5 113.5t42.5 83.5t64.5 52t82.5 18q41 0 75 -15.5t58.5 -48t38 -83t13.5 -120.5v-11h-351zM278 490q-34 0 -63 -12.5t-51 -38t-35.5 -66
t-16.5 -95.5h313q0 64 -14.5 105.5t-36.5 65t-47.5 32.5t-48.5 9zM111 576l151 156h32l151 -156h-37l-130 120l-130 -120h-37z" />
    <glyph glyph-name="edieresis" unicode="&#xeb;" horiz-adv-x="531" 
d="M112 245q4 -115 48 -168t121 -53q29 0 60.5 10t59.5 33l21 -26q-27 -23 -64.5 -38t-79.5 -15q-98 0 -151.5 72t-53.5 196q0 64 15.5 113.5t42.5 83.5t64.5 52t82.5 18q41 0 75 -15.5t58.5 -48t38 -83t13.5 -120.5v-11h-351zM278 490q-34 0 -63 -12.5t-51 -38t-35.5 -66
t-16.5 -95.5h313q0 64 -14.5 105.5t-36.5 65t-47.5 32.5t-48.5 9zM195 606q-12 0 -20.5 8.5t-8.5 20.5q0 13 8.5 22t20.5 9q13 0 21 -9t8 -22q0 -12 -8 -20.5t-21 -8.5zM361 606q-12 0 -20.5 8.5t-8.5 20.5q0 13 8.5 22t20.5 9q13 0 21 -9t8 -22q0 -12 -8 -20.5t-21 -8.5z
" />
    <glyph glyph-name="iacute" unicode="&#xed;" horiz-adv-x="258" 
d="M111 0v511h36v-511h-36zM83 576h-37l151 156h55z" />
    <glyph glyph-name="igrave" unicode="&#xec;" horiz-adv-x="258" 
d="M111 0v511h36v-511h-36zM178 576l-169 156h55l151 -156h-37z" />
    <glyph glyph-name="icircumflex" unicode="&#xee;" horiz-adv-x="258" 
d="M111 0v511h36v-511h-36zM-38 576l151 156h32l151 -156h-37l-130 120l-130 -120h-37z" />
    <glyph glyph-name="idieresis" unicode="&#xef;" horiz-adv-x="258" 
d="M111 0v511h36v-511h-36zM46 606q-12 0 -20.5 8.5t-8.5 20.5q0 13 8.5 22t20.5 9q13 0 21 -9t8 -22q0 -12 -8 -20.5t-21 -8.5zM212 606q-12 0 -20.5 8.5t-8.5 20.5q0 13 8.5 22t20.5 9q13 0 21 -9t8 -22q0 -12 -8 -20.5t-21 -8.5z" />
    <glyph glyph-name="ntilde" unicode="&#xf1;" horiz-adv-x="562" 
d="M144 419q10 28 27.5 48t38 32.5t43 18t42.5 5.5q81 0 122.5 -51.5t41.5 -159.5v-312h-36v319q0 93 -36 131.5t-95 38.5q-32 0 -59 -10t-46.5 -32.5t-31 -59t-11.5 -90.5v-297h-36v511h36v-92zM369 602q-25 0 -46 12.5t-41 28t-39 28t-40 12.5q-49 0 -52 -77h-27
q0 48 21.5 79t64.5 31q25 0 46 -12.5t41 -28t39 -28t40 -12.5q49 0 52 77h27q0 -48 -21.5 -79t-64.5 -31z" />
    <glyph glyph-name="oacute" unicode="&#xf3;" horiz-adv-x="550" 
d="M275 24q78 0 120.5 61t42.5 171q0 109 -41.5 170t-121.5 61t-121.5 -59.5t-41.5 -172.5q0 -109 41.5 -170t121.5 -61zM275 523q91 0 146.5 -69.5t55.5 -197.5q0 -63 -14.5 -113t-41 -84.5t-64 -52.5t-82.5 -18q-91 0 -146.5 69.5t-55.5 197.5q0 63 14.5 112.5t41 84
t64 53t82.5 18.5zM261 576h-37l151 156h55z" />
    <glyph glyph-name="ograve" unicode="&#xf2;" horiz-adv-x="550" 
d="M275 24q78 0 120.5 61t42.5 171q0 109 -41.5 170t-121.5 61t-121.5 -59.5t-41.5 -172.5q0 -109 41.5 -170t121.5 -61zM275 523q91 0 146.5 -69.5t55.5 -197.5q0 -63 -14.5 -113t-41 -84.5t-64 -52.5t-82.5 -18q-91 0 -146.5 69.5t-55.5 197.5q0 63 14.5 112.5t41 84
t64 53t82.5 18.5zM289 576l-169 156h55l151 -156h-37z" />
    <glyph glyph-name="ocircumflex" unicode="&#xf4;" horiz-adv-x="550" 
d="M275 24q78 0 120.5 61t42.5 171q0 109 -41.5 170t-121.5 61t-121.5 -59.5t-41.5 -172.5q0 -109 41.5 -170t121.5 -61zM275 523q91 0 146.5 -69.5t55.5 -197.5q0 -63 -14.5 -113t-41 -84.5t-64 -52.5t-82.5 -18q-91 0 -146.5 69.5t-55.5 197.5q0 63 14.5 112.5t41 84
t64 53t82.5 18.5zM108 576l151 156h32l151 -156h-37l-130 120l-130 -120h-37z" />
    <glyph glyph-name="odieresis" unicode="&#xf6;" horiz-adv-x="550" 
d="M275 24q78 0 120.5 61t42.5 171q0 109 -41.5 170t-121.5 61t-121.5 -59.5t-41.5 -172.5q0 -109 41.5 -170t121.5 -61zM275 523q91 0 146.5 -69.5t55.5 -197.5q0 -63 -14.5 -113t-41 -84.5t-64 -52.5t-82.5 -18q-91 0 -146.5 69.5t-55.5 197.5q0 63 14.5 112.5t41 84
t64 53t82.5 18.5zM192 606q-12 0 -20.5 8.5t-8.5 20.5q0 13 8.5 22t20.5 9q13 0 21 -9t8 -22q0 -12 -8 -20.5t-21 -8.5zM358 606q-12 0 -20.5 8.5t-8.5 20.5q0 13 8.5 22t20.5 9q13 0 21 -9t8 -22q0 -12 -8 -20.5t-21 -8.5z" />
    <glyph glyph-name="otilde" unicode="&#xf5;" horiz-adv-x="550" 
d="M275 24q78 0 120.5 61t42.5 171q0 109 -41.5 170t-121.5 61t-121.5 -59.5t-41.5 -172.5q0 -109 41.5 -170t121.5 -61zM275 523q91 0 146.5 -69.5t55.5 -197.5q0 -63 -14.5 -113t-41 -84.5t-64 -52.5t-82.5 -18q-91 0 -146.5 69.5t-55.5 197.5q0 63 14.5 112.5t41 84
t64 53t82.5 18.5zM355 602q-25 0 -46 12.5t-41 28t-39 28t-40 12.5q-49 0 -52 -77h-27q0 48 21.5 79t64.5 31q25 0 46 -12.5t41 -28t39 -28t40 -12.5q49 0 52 77h27q0 -48 -21.5 -79t-64.5 -31z" />
    <glyph glyph-name="uacute" unicode="&#xfa;" horiz-adv-x="562" 
d="M418 0v86q-13 -28 -30.5 -47t-37 -30t-41 -16t-41.5 -5q-81 0 -123 51.5t-42 159.5v312h36v-320q0 -93 36 -131.5t95 -38.5q31 0 58.5 10t47 33t31 59.5t11.5 90.5v297h36v-511h-36zM251 576h-37l151 156h55z" />
    <glyph glyph-name="ugrave" unicode="&#xf9;" horiz-adv-x="562" 
d="M418 0v86q-13 -28 -30.5 -47t-37 -30t-41 -16t-41.5 -5q-81 0 -123 51.5t-42 159.5v312h36v-320q0 -93 36 -131.5t95 -38.5q31 0 58.5 10t47 33t31 59.5t11.5 90.5v297h36v-511h-36zM302 576l-169 156h55l151 -156h-37z" />
    <glyph glyph-name="ucircumflex" unicode="&#xfb;" horiz-adv-x="562" 
d="M418 0v86q-13 -28 -30.5 -47t-37 -30t-41 -16t-41.5 -5q-81 0 -123 51.5t-42 159.5v312h36v-320q0 -93 36 -131.5t95 -38.5q31 0 58.5 10t47 33t31 59.5t11.5 90.5v297h36v-511h-36zM108 576l151 156h32l151 -156h-37l-130 120l-130 -120h-37z" />
    <glyph glyph-name="udieresis" unicode="&#xfc;" horiz-adv-x="562" 
d="M418 0v86q-13 -28 -30.5 -47t-37 -30t-41 -16t-41.5 -5q-81 0 -123 51.5t-42 159.5v312h36v-320q0 -93 36 -131.5t95 -38.5q31 0 58.5 10t47 33t31 59.5t11.5 90.5v297h36v-511h-36zM192 606q-12 0 -20.5 8.5t-8.5 20.5q0 13 8.5 22t20.5 9q13 0 21 -9t8 -22
q0 -12 -8 -20.5t-21 -8.5zM358 606q-12 0 -20.5 8.5t-8.5 20.5q0 13 8.5 22t20.5 9q13 0 21 -9t8 -22q0 -12 -8 -20.5t-21 -8.5z" />
    <glyph glyph-name="dagger" unicode="&#x2020;" horiz-adv-x="566" 
d="M293 464l8 -126l-15 -479h-6l-15 479l8 126l-140 -9h-35v34h35l140 -9l-8 107v125h36v-125l-8 -107l140 9h35v-34h-35z" />
    <glyph glyph-name="degree" unicode="&#xb0;" horiz-adv-x="406" 
d="M203 482q-29 0 -53.5 10t-42.5 28t-28.5 42.5t-10.5 53.5t10.5 53.5t28.5 42.5t42.5 28t53.5 10q28 0 53 -10t43 -28t28.5 -42.5t10.5 -53.5t-10.5 -53.5t-28.5 -42.5t-43 -28t-53 -10zM203 515q44 0 72.5 29t28.5 72q0 44 -28.5 72.5t-72.5 28.5q-45 0 -73 -28.5
t-28 -72.5q0 -43 28 -72t73 -29z" />
    <glyph glyph-name="cent" unicode="&#xa2;" horiz-adv-x="517" 
d="M250 -12v94q-76 8 -120.5 76.5t-44.5 189.5q0 117 43.5 186.5t121.5 79.5v98h36v-96q48 -3 84.5 -30.5t54.5 -76.5l-36 -14q-14 41 -44 62.5t-69 21.5q-76 0 -114 -58.5t-38 -172.5q0 -110 39.5 -170t105.5 -60q46 0 80 25t47 68l36 -13q-16 -51 -54 -81t-92 -35v-94h-36
z" />
    <glyph glyph-name="sterling" unicode="&#xa3;" horiz-adv-x="610" 
d="M108 0v40q59 52 80.5 103.5t21.5 106.5q0 16 -2 31.5t-5 29.5h-95v33h86q-7 24 -16 46.5t-16.5 45t-12.5 44.5t-5 46q0 36 12.5 69.5t38 59.5t64 41.5t91.5 15.5q55 0 99.5 -14.5t76.5 -39.5l-15 -33q-23 20 -62 36t-99 16q-45 0 -76.5 -13.5t-52 -34.5t-30 -48t-9.5 -54
q0 -24 5.5 -46t13.5 -44.5t17 -45.5t16 -47h168v-33h-160q6 -26 6 -53q0 -71 -28 -127t-78 -98h400v-33h-434z" />
    <glyph glyph-name="section" unicode="&#xa7;" horiz-adv-x="538" 
d="M399 624q-18 16 -50.5 34t-86.5 18q-27 0 -51.5 -6.5t-43 -19.5t-29 -33t-10.5 -47q0 -28 10 -47t32 -34.5t56 -29.5l81 -32q28 -11 55 -23.5t47.5 -29.5t33 -40t12.5 -55t-20.5 -64t-64.5 -46q46 -23 65.5 -59.5t19.5 -76.5t-14 -69t-39.5 -47.5t-60.5 -27.5t-77 -9
q-65 0 -110.5 22.5t-70.5 48.5l28 26q10 -9 24 -20t32.5 -20t42.5 -15t54 -6q32 0 60 6t48.5 19.5t32 36t11.5 55.5q0 36 -17.5 59.5t-45.5 41t-63 30.5l-70 27q-30 12 -54 23.5t-41 26.5t-26.5 34t-9.5 46q0 45 30.5 74t75.5 37q-59 24 -82.5 61t-23.5 80q0 33 14 58.5
t37.5 43.5t55 27.5t66.5 9.5q31 0 57 -6t46.5 -15t36 -20t26.5 -21zM416 276q0 27 -14.5 47t-39 35.5t-58 28l-71.5 25.5q-49 -8 -77 -31.5t-28 -59.5q0 -32 29 -54t74 -39l61.5 -22.5t45.5 -18.5q33 12 55.5 34.5t22.5 54.5z" />
    <glyph glyph-name="bullet" unicode="&#x2022;" horiz-adv-x="422" 
d="M211 264q-37 0 -62.5 25.5t-25.5 61.5t25.5 61.5t62.5 25.5t62.5 -25.5t25.5 -61.5t-25.5 -61.5t-62.5 -25.5z" />
    <glyph glyph-name="paragraph" unicode="&#xb6;" horiz-adv-x="608" 
d="M457 -109v756h-107v-804l-36 -17v469q-74 0 -123.5 18t-79.5 46.5t-43 63.5t-13 68q0 36 11 70.5t35.5 61.5t65 43.5t100.5 16.5h226v-774zM314 647h-45q-50 0 -83.5 -13t-53.5 -35t-29 -49.5t-9 -57.5q0 -28 11 -56.5t36.5 -52t67.5 -38t105 -14.5v316z" />
    <glyph glyph-name="germandbls" unicode="&#xdf;" horiz-adv-x="572" 
d="M306 24q29 0 56.5 10.5t48.5 32t34 54.5t13 78q0 31 -9.5 60.5t-30.5 52.5t-55.5 37t-84.5 14h-4v33h4q65 0 104.5 33t39.5 105q0 67 -34.5 104.5t-104.5 37.5q-31 0 -57.5 -11t-46.5 -34t-31.5 -59t-11.5 -86v-662l-36 -18v680q0 62 16 105t42 70t59 39t66 12
q40 0 73 -13t56.5 -36t36 -56t12.5 -73q0 -22 -5 -46t-18.5 -45.5t-36 -37.5t-56.5 -23q39 -6 67.5 -24t47.5 -43.5t28 -55.5t9 -60q0 -51 -15 -90.5t-40.5 -66t-60.5 -40.5t-75 -14q-19 0 -34 2.5t-25 6.5l18 31q16 -4 41 -4z" />
    <glyph glyph-name="registered" unicode="&#xae;" horiz-adv-x="880" 
d="M440 -12q-77 0 -143 27.5t-115 76.5t-76.5 115t-27.5 143t27.5 143t76.5 115t115 76.5t143 27.5t143 -27.5t115 -76.5t76.5 -115t27.5 -143t-27.5 -143t-76.5 -115t-115 -76.5t-143 -27.5zM440 22q70 0 130 25t103.5 69t68 104t24.5 130t-24.5 130t-68 104t-103.5 69
t-130 25q-71 0 -130.5 -25t-103 -69t-68 -104t-24.5 -130t24.5 -130t68 -104t103 -69t130.5 -25zM599 438q0 -45 -27 -78.5t-84 -38.5l105 -184h-42l-102 182h-110v-182h-36v423h178q33 0 55.5 -12t36.5 -30t20 -39.5t6 -40.5zM472 355q25 0 42 7t27.5 18.5t15 26.5t4.5 31
q0 15 -4 30.5t-14 28t-27.5 20t-43.5 7.5h-133v-169h133z" />
    <glyph glyph-name="copyright" unicode="&#xa9;" horiz-adv-x="880" 
d="M440 -12q-77 0 -143 27.5t-115 76.5t-76.5 115t-27.5 143t27.5 143t76.5 115t115 76.5t143 27.5t143 -27.5t115 -76.5t76.5 -115t27.5 -143t-27.5 -143t-76.5 -115t-115 -76.5t-143 -27.5zM440 22q70 0 130 25t103.5 69t68 104t24.5 130t-24.5 130t-68 104t-103.5 69
t-130 25q-71 0 -130.5 -25t-103 -69t-68 -104t-24.5 -130t24.5 -130t68 -104t103 -69t130.5 -25zM446 138q-82 0 -124.5 55.5t-42.5 161.5q0 99 42.5 158.5t123.5 59.5q52 0 85.5 -23t51.5 -65l-34 -14q-13 28 -38.5 47.5t-64.5 19.5q-64 0 -96 -49t-32 -134
q0 -91 33 -136.5t96 -45.5q37 0 67.5 17t44.5 59l30 -12q-17 -48 -53.5 -73.5t-88.5 -25.5z" />
    <glyph glyph-name="trademark" unicode="&#x2122;" horiz-adv-x="792" 
d="M199 666v-388h-36v388h-120v34h275v-34h-119zM663 278v297l-129 -307l-129 307v-297h-36v422h22l143 -342l143 342h22v-422h-36z" />
    <glyph glyph-name="acute" unicode="&#xb4;" horiz-adv-x="341" 
d="M136 576h-37l151 156h55z" />
    <glyph glyph-name="dieresis" unicode="&#xa8;" horiz-adv-x="341" 
d="M89 606q-12 0 -20.5 8.5t-8.5 20.5q0 13 8.5 22t20.5 9q13 0 21 -9t8 -22q0 -12 -8 -20.5t-21 -8.5zM255 606q-12 0 -20.5 8.5t-8.5 20.5q0 13 8.5 22t20.5 9q13 0 21 -9t8 -22q0 -12 -8 -20.5t-21 -8.5z" />
    <glyph glyph-name="notequal" unicode="&#x2260;" horiz-adv-x="666" 
d="M300 229l-55 -106h-43l55 106h-159v36h177l80 154h-257v36h275l47 91h43l-47 -91h152v-36h-170l-80 -154h250v-36h-268z" />
    <glyph glyph-name="AE" unicode="&#xc6;" horiz-adv-x="859" 
d="M411 0v197h-249l-113 -197h-41l404 700h335v-33h-300v-288h193v-33h-193v-313h322v-33h-358zM411 227v407l-233 -407h233z" />
    <glyph glyph-name="Oslash" unicode="&#xd8;" horiz-adv-x="726" 
d="M561 616q40 -54 57.5 -124t17.5 -142q0 -65 -14.5 -129.5t-47 -116.5t-84.5 -84t-127 -32q-57 0 -100 18.5t-75 50.5l-46 -69h-41l64 96q-40 53 -57.5 123.5t-17.5 142.5q0 65 14.5 129.5t47 116.5t84.5 84t127 32q57 0 99.5 -18.5t74.5 -50.5l47 69h41zM363 24
q65 0 110 29.5t72.5 76.5t40 105t12.5 115q0 66 -13.5 127t-44.5 107l-332 -497q27 -29 65.5 -46t89.5 -17zM128 350q0 -66 13 -127t45 -108l331 497q-27 29 -65 46.5t-89 17.5q-65 0 -110 -29.5t-73 -76.5t-40 -105t-12 -115z" />
    <glyph glyph-name="infinity" unicode="&#x221e;" horiz-adv-x="1008" 
d="M737 143q-42 0 -76.5 14t-63 39.5t-51 59.5t-41.5 75q-20 -39 -43.5 -73t-52 -59.5t-62.5 -40.5t-75 -15q-44 0 -82 14t-66 41.5t-44.5 67.5t-16.5 91q0 52 16.5 92t44.5 67.5t66 42t82 14.5q41 0 75 -15.5t62.5 -41.5t51.5 -60.5t43 -72.5q19 41 41.5 76t50.5 60.5
t62 39.5t77 14q44 0 82 -14.5t66.5 -42t45 -67.5t16.5 -92q0 -51 -16 -91t-44.5 -67.5t-66.5 -41.5t-81 -14zM737 176q36 0 67 12t54 35.5t36 57t13 76.5t-13 77t-36.5 57.5t-55 36t-67.5 12.5q-39 0 -72 -16t-60 -41.5t-48.5 -58.5t-38.5 -67q17 -35 39 -67.5t49 -58
t60 -40.5t73 -15zM272 176q40 0 72.5 15t59.5 40.5t48.5 58t38.5 67.5q-17 34 -38.5 67t-48.5 58.5t-59.5 41.5t-72.5 16q-36 0 -67 -12.5t-54 -36t-36.5 -57.5t-13.5 -77t13.5 -76.5t36.5 -57t54 -35.5t67 -12z" />
    <glyph glyph-name="plusminus" unicode="&#xb1;" horiz-adv-x="666" 
d="M350 388v-184h-36v184h-216v36h216v184h36v-184h218v-36h-218zM98 0v36h470v-36h-470z" />
    <glyph glyph-name="lessequal" unicode="&#x2264;" horiz-adv-x="666" 
d="M568 156l-470 204v38l470 204v-41l-423 -182l423 -182v-41zM98 0v36h470v-36h-470z" />
    <glyph glyph-name="greaterequal" unicode="&#x2265;" horiz-adv-x="666" 
d="M98 0v36h470v-36h-470zM98 156v41l423 182l-423 182v41l470 -204v-38z" />
    <glyph glyph-name="yen" unicode="&#xa5;" horiz-adv-x="564" 
d="M315 309h154v-33h-169v-120h169v-33h-169v-123h-36v123h-181v33h181v120h-181v33h166l-213 391h39l207 -382l207 382h39z" />
    <glyph glyph-name="mu" unicode="&#xb5;" horiz-adv-x="562" 
d="M418 0v86q-20 -46 -58.5 -72t-91.5 -26q-43 0 -76 15t-53 47v-231l-36 -19v711h36v-320q0 -53 11.5 -86t30 -51.5t42 -25.5t47.5 -7q31 0 58 10t47 32.5t31.5 59.5t11.5 91v297h36v-511h-36z" />
    <glyph glyph-name="partialdiff" unicode="&#x2202;" horiz-adv-x="592" 
d="M251 -12q-42 0 -77.5 14t-61 40t-40 62.5t-14.5 80.5q0 55 18 101t48.5 79t71.5 51.5t88 18.5q81 0 129.5 -40.5t56.5 -111.5q2 29 2.5 45.5t0.5 25.5q0 78 -16.5 136t-47.5 97.5t-75.5 62t-99.5 30.5l8 32q133 -20 200 -107.5t67 -250.5q0 -74 -14 -140.5t-45 -116.5
t-80 -79.5t-119 -29.5zM251 24q43 0 79 15t61.5 42t40 66t14.5 87q0 79 -45 121t-117 42q-40 0 -74 -15.5t-59 -43.5t-39.5 -67t-14.5 -86q0 -36 11.5 -66t32 -51t49 -32.5t61.5 -11.5z" />
    <glyph glyph-name="summation" unicode="&#x2211;" horiz-adv-x="636" 
d="M75 -142v29l296 401l-282 381v29h461v-36h-408l275 -372l-290 -396h443v-36h-495z" />
    <glyph glyph-name="product" unicode="&#x220f;" horiz-adv-x="706" 
d="M555 -140v804h-404v-804h-36v840h476v-840h-36z" />
    <glyph glyph-name="pi" unicode="&#x3c0;" horiz-adv-x="652" 
d="M506 -12q-53 0 -73.5 33t-20.5 83v371h-201v-142q0 -69 -6.5 -123.5t-20.5 -97.5t-37.5 -75.5t-57.5 -56.5l-29 23q24 16 44.5 39t36.5 59.5t25 90.5t9 134v149h-97v36h499v-36h-129v-366q0 -40 12 -63t50 -23q23 0 42.5 8t32.5 16l-4 -38q-16 -10 -36.5 -15.5
t-38.5 -5.5z" />
    <glyph glyph-name="integral" unicode="&#x222b;" horiz-adv-x="378" 
d="M109 -140q-16 0 -32 4.5t-29 11.5v32q14 -6 27.5 -10.5t33.5 -4.5q35 0 48.5 19t13.5 61v630q0 109 98 109q16 0 32 -4.5t29 -11.5v-32q-14 6 -27.5 10.5t-33.5 4.5q-35 0 -48.5 -19t-13.5 -61v-630q0 -109 -98 -109z" />
    <glyph glyph-name="ordfeminine" unicode="&#xaa;" horiz-adv-x="458" 
d="M339 283v42q-24 -21 -59.5 -36.5t-73.5 -15.5q-64 0 -103.5 34.5t-39.5 100.5q0 36 13.5 62t36 43.5t51 25.5t57.5 8q33 0 64 -8.5t54 -21.5v37q0 70 -29.5 97t-88.5 27q-34 0 -62.5 -10t-50.5 -24l-10 32q23 15 57 25.5t66 10.5q36 0 64.5 -7.5t48.5 -24.5t30.5 -46.5
t10.5 -72.5v-278h-36zM206 306q45 0 78.5 17t54.5 37v121q-20 13 -52.5 23t-65.5 10q-21 0 -42.5 -6t-38.5 -18.5t-27.5 -33t-10.5 -48.5q0 -53 30 -77.5t74 -24.5z" />
    <glyph glyph-name="ordmasculine" unicode="&#xba;" horiz-adv-x="475" 
d="M237 272q-80 0 -127.5 57t-47.5 163q0 104 47.5 162t127.5 58q81 0 128.5 -58t47.5 -162q0 -106 -47.5 -163t-128.5 -57zM237 309q63 0 100 47.5t37 135.5q0 87 -37 135t-100 48q-62 0 -99 -48t-37 -135q0 -88 37 -135.5t99 -47.5z" />
    <glyph glyph-name="Omega" horiz-adv-x="744" 
d="M441 0v42q43 34 74.5 76t51.5 87t30 92t10 93q0 50 -12 101t-40 92t-73 67t-111 26q-65 0 -110 -26t-73 -67t-40.5 -92t-12.5 -101q0 -46 9.5 -93t29.5 -92t51.5 -87t75.5 -76v-42h-213v36h176q-77 57 -122.5 147.5t-45.5 206.5q0 56 14.5 113.5t47 104t85 75.5t128.5 29
q77 0 129.5 -29t85 -75.5t46.5 -104t14 -113.5q0 -116 -46 -206.5t-122 -147.5h176v-36h-213z" />
    <glyph glyph-name="ae" unicode="&#xe6;" horiz-adv-x="856" 
d="M442 245q4 -116 48 -168.5t121 -52.5q29 0 60.5 10t59.5 33l21 -26q-27 -23 -64.5 -38t-79.5 -15q-64 0 -109.5 31.5t-69.5 89.5q-42 -67 -93 -94t-95 -27q-75 0 -119 42.5t-44 123.5q0 42 14 72.5t37.5 50.5t55.5 29.5t68 9.5q41 0 78 -13t72 -36v76q0 45 -10.5 74
t-27.5 45t-40 22t-47 6q-42 0 -83 -15.5t-71 -33.5l-11 31q29 17 72 34t96 17q23 0 47.5 -5t46.5 -18.5t37.5 -38t20.5 -62.5q23 63 70 93.5t105 30.5q41 0 75 -15.5t58.5 -48t38 -83t13.5 -120.5v-11h-351zM241 21q57 0 101 36t74 88q-10 35 -13 84v4q-29 20 -67.5 35
t-82.5 15q-26 0 -50.5 -8t-43.5 -23.5t-30.5 -40t-11.5 -57.5q0 -60 33.5 -96.5t90.5 -36.5zM608 490q-34 0 -63 -12t-51 -37.5t-35.5 -65.5t-16.5 -97h313q0 66 -14.5 107t-36.5 64.5t-47.5 32t-48.5 8.5z" />
    <glyph glyph-name="oslash" unicode="&#xf8;" horiz-adv-x="550" 
d="M427 445q24 -34 37 -81.5t13 -107.5q0 -63 -14.5 -113t-41 -84.5t-64 -52.5t-82.5 -18q-78 0 -130 50l-35 -50h-42l54 78q-23 34 -36 81.5t-13 107.5q0 63 14.5 112.5t41 84t64 53t82.5 18.5q77 0 130 -51l35 51h42zM112 255q0 -99 33 -156l239 343q-42 45 -109 45
q-80 0 -121.5 -59.5t-41.5 -172.5zM275 24q78 0 120.5 61t42.5 171q0 48 -8 87.5t-25 68.5l-238 -343q40 -45 108 -45z" />
    <glyph glyph-name="questiondown" unicode="&#xbf;" horiz-adv-x="532" 
d="M294 356v-34q0 -45 -14 -77t-35 -58t-45 -48t-45 -45t-35 -50.5t-14 -63.5q0 -30 10 -56.5t30 -46t49 -30.5t67 -11q129 0 166 121l34 -15q-22 -69 -74.5 -105.5t-125.5 -36.5q-47 0 -83 14t-61 38.5t-37.5 57.5t-12.5 70q0 41 14 70.5t35 54t45 46t45 46t35 54.5t14 71
v34h38zM275 463q-13 0 -21 9t-8 22q0 12 8 20.5t21 8.5q12 0 20.5 -8.5t8.5 -20.5q0 -13 -8.5 -22t-20.5 -9z" />
    <glyph glyph-name="exclamdown" unicode="&#xa1;" horiz-adv-x="276" 
d="M143 319l14 -267v-252h-38v252l14 267h10zM138 523q12 0 20.5 -8.5t8.5 -20.5q0 -13 -8.5 -22t-20.5 -9q-13 0 -21 9t-8 22q0 12 8 20.5t21 8.5z" />
    <glyph glyph-name="logicalnot" unicode="&#xac;" horiz-adv-x="666" 
d="M532 176v251h-434v36h470v-287h-36z" />
    <glyph glyph-name="radical" unicode="&#x221a;" horiz-adv-x="564" 
d="M514 712l-248 -817h-46l-170 327h38l153 -292l235 782h38z" />
    <glyph glyph-name="florin" unicode="&#x192;" horiz-adv-x="336" 
d="M13 -182q64 5 94.5 34.5t30.5 96.5v529h-82v33h82v92q0 109 98 109q16 0 32 -4.5t29 -11.5v-32q-14 6 -27.5 10.5t-33.5 4.5q-35 0 -48.5 -19t-13.5 -61v-88h123v-33h-123v-527q0 -47 -11.5 -77t-31.5 -48.5t-46 -27t-54 -11.5z" />
    <glyph glyph-name="approxequal" unicode="&#x2248;" horiz-adv-x="666" 
d="M448 366q-35 0 -64.5 14.5t-56.5 32.5t-54 32.5t-57 14.5q-36 0 -56.5 -24.5t-22.5 -69.5h-37q0 24 7 47.5t21.5 42t36.5 29.5t53 11q35 0 64.5 -14.5t56.5 -32.5t54 -32.5t57 -14.5q36 0 56.5 25t22.5 69h37q0 -24 -7 -47.5t-21 -42t-36.5 -29.5t-53.5 -11zM448 190
q-35 0 -64.5 14.5t-56.5 32.5t-54 32.5t-57 14.5q-36 0 -56.5 -24.5t-22.5 -69.5h-37q0 24 7 47.5t21.5 42t36.5 29.5t53 11q35 0 64.5 -14.5t56.5 -32.5t54 -32.5t57 -14.5q36 0 56.5 25t22.5 69h37q0 -24 -7 -47.5t-21 -42t-36.5 -29.5t-53.5 -11z" />
    <glyph glyph-name="Delta" unicode="&#x2206;" 
d="M80 0l242 700h24l242 -700h-508zM334 629l-206 -593h412z" />
    <glyph glyph-name="guillemotleft" unicode="&#xab;" horiz-adv-x="471" 
d="M208 0l-152 256l152 255h42l-152 -255l152 -256h-42zM388 0l-152 256l152 255h42l-152 -255l152 -256h-42z" />
    <glyph glyph-name="guillemotright" unicode="&#xbb;" horiz-adv-x="471" 
d="M41 0l152 256l-152 255h42l152 -255l-152 -256h-42zM221 0l152 256l-152 255h42l152 -255l-152 -256h-42z" />
    <glyph glyph-name="ellipsis" unicode="&#x2026;" horiz-adv-x="826" 
d="M148 -12q-12 0 -20.5 8.5t-8.5 20.5q0 13 8.5 22t20.5 9q13 0 21 -9t8 -22q0 -12 -8 -20.5t-21 -8.5zM412 -12q-12 0 -20.5 8.5t-8.5 20.5q0 13 8.5 22t20.5 9q13 0 21 -9t8 -22q0 -12 -8 -20.5t-21 -8.5zM675 -12q-12 0 -20.5 8.5t-8.5 20.5q0 13 8.5 22t20.5 9
q13 0 21 -9t8 -22q0 -12 -8 -20.5t-21 -8.5z" />
    <glyph glyph-name="Agrave" unicode="&#xc0;" 
d="M552 0l-70 197h-297l-67 -197h-37l240 700h24l242 -700h-35zM473 227l-104 302l-6.5 20l-10 30.5l-10.5 33t-8 27.5l-8 -28t-11 -34l-11 -30.5t-6 -18.5l-104 -302h279zM385 766l-169 156h55l151 -156h-37z" />
    <glyph glyph-name="Atilde" unicode="&#xc3;" 
d="M552 0l-70 197h-297l-67 -197h-37l240 700h24l242 -700h-35zM473 227l-104 302l-6.5 20l-10 30.5l-10.5 33t-8 27.5l-8 -28t-11 -34l-11 -30.5t-6 -18.5l-104 -302h279zM413 792q-25 0 -46 12.5t-41 28t-39 28t-40 12.5q-49 0 -52 -77h-27q0 48 21.5 79t64.5 31
q25 0 46 -12.5t41 -28t39 -28t40 -12.5q49 0 52 77h27q0 -48 -21.5 -79t-64.5 -31z" />
    <glyph glyph-name="Otilde" unicode="&#xd5;" horiz-adv-x="726" 
d="M363 24q65 0 110 29.5t72.5 76.5t39.5 105t12 115q0 62 -12 121t-39.5 104.5t-72.5 73t-110 27.5t-110 -29.5t-72.5 -76.5t-39.5 -105t-12 -115q0 -62 12 -121t39.5 -104.5t72.5 -73t110 -27.5zM363 -12q-75 0 -127 32t-84.5 84t-47 116.5t-14.5 129.5t14.5 129.5
t47 116.5t84.5 84t127 32t127 -32t84.5 -84t47 -116.5t14.5 -129.5t-14.5 -129.5t-47 -116.5t-84.5 -84t-127 -32zM443 792q-25 0 -46 12.5t-41 28t-39 28t-40 12.5q-49 0 -52 -77h-27q0 48 21.5 79t64.5 31q25 0 46 -12.5t41 -28t39 -28t40 -12.5q49 0 52 77h27
q0 -48 -21.5 -79t-64.5 -31z" />
    <glyph glyph-name="OE" unicode="&#x152;" horiz-adv-x="925" 
d="M495 0v24q-18 -12 -51 -24t-76 -12q-77 0 -130 32t-86 83.5t-47.5 116t-14.5 130.5t15 131t48 116t86 83t129 32q43 0 75 -11.5t52 -23.5v23h318v-33h-282v-288h175v-33h-175v-313h304v-33h-340zM368 24q42 0 74.5 14t52.5 31v565q-26 20 -59.5 31t-67.5 11
q-67 0 -112.5 -29.5t-74 -76.5t-41 -105t-12.5 -116q0 -63 12.5 -121.5t41 -103.5t74 -72.5t112.5 -27.5z" />
    <glyph glyph-name="oe" unicode="&#x153;" horiz-adv-x="896" 
d="M477 245q4 -116 48 -168.5t121 -52.5q29 0 60.5 10t59.5 33l21 -26q-27 -23 -64.5 -38t-79.5 -15q-69 0 -117.5 37.5t-68.5 110.5q-20 -74 -69 -111t-113 -37q-91 0 -146.5 69.5t-55.5 197.5q0 63 14.5 112.5t41 84t64 53t82.5 18.5q65 0 114 -37t69 -112q21 75 71 112
t114 37q41 0 75 -15.5t58.5 -48t38 -83t13.5 -120.5v-11h-351zM275 24q76 0 119.5 59t43.5 173q0 112 -42.5 171.5t-120.5 59.5q-80 0 -121.5 -59.5t-41.5 -172.5q0 -109 41.5 -170t121.5 -61zM643 490q-34 0 -63 -12t-51 -37.5t-35.5 -65.5t-16.5 -97h313q0 66 -14.5 107
t-36.5 64.5t-47.5 32t-48.5 8.5z" />
    <glyph glyph-name="endash" unicode="&#x2013;" horiz-adv-x="531" 
d="M75 269v36h381v-36h-381z" />
    <glyph glyph-name="emdash" unicode="&#x2014;" horiz-adv-x="611" 
d="M13 269v36h585v-36h-585z" />
    <glyph glyph-name="quotedblleft" unicode="&#x201c;" horiz-adv-x="388" 
d="M135 709q-14 -20 -23.5 -51.5t-9.5 -59.5q0 -6 0.5 -9t0.5 -4q14 0 23 -8t9 -21q0 -14 -8.5 -22.5t-20.5 -8.5q-14 0 -23.5 10t-9.5 36q0 21 5 42.5t12.5 40t17 34t18.5 24.5zM311 709q-14 -20 -23.5 -51.5t-9.5 -59.5q0 -6 0.5 -9t0.5 -4q14 0 23 -8t9 -21
q0 -14 -8.5 -22.5t-20.5 -8.5q-14 0 -23.5 10t-9.5 36q0 21 5 42.5t12.5 40t17 34t18.5 24.5z" />
    <glyph glyph-name="quotedblright" unicode="&#x201d;" horiz-adv-x="388" 
d="M253 528q14 20 23.5 51.5t9.5 59.5q0 6 -0.5 9t-0.5 4q-14 0 -23 8t-9 21q0 14 8.5 22.5t20.5 8.5q14 0 23.5 -10t9.5 -36q0 -21 -5 -42.5t-12.5 -40t-17 -34t-18.5 -24.5zM77 528q14 20 23.5 51.5t9.5 59.5q0 6 -0.5 9t-0.5 4q-14 0 -23 8t-9 21q0 14 8.5 22.5t20.5 8.5
q14 0 23.5 -10t9.5 -36q0 -21 -5 -42.5t-12.5 -40t-17 -34t-18.5 -24.5z" />
    <glyph glyph-name="quoteleft" unicode="&#x2018;" horiz-adv-x="212" 
d="M135 709q-14 -20 -23.5 -51.5t-9.5 -59.5q0 -6 0.5 -9t0.5 -4q14 0 23 -8t9 -21q0 -14 -8.5 -22.5t-20.5 -8.5q-14 0 -23.5 10t-9.5 36q0 21 5 42.5t12.5 40t17 34t18.5 24.5z" />
    <glyph glyph-name="quoteright" unicode="&#x2019;" horiz-adv-x="212" 
d="M77 528q14 20 23.5 51.5t9.5 59.5q0 6 -0.5 9t-0.5 4q-14 0 -23 8t-9 21q0 14 8.5 22.5t20.5 8.5q14 0 23.5 -10t9.5 -36q0 -21 -5 -42.5t-12.5 -40t-17 -34t-18.5 -24.5z" />
    <glyph glyph-name="divide" unicode="&#xf7;" horiz-adv-x="666" 
d="M98 325v34h470v-34h-470zM330 520q-12 0 -20.5 8.5t-8.5 20.5q0 13 8.5 22t20.5 9q13 0 21 -9t8 -22q0 -12 -8 -20.5t-21 -8.5zM330 105q-12 0 -20.5 8.5t-8.5 20.5q0 13 8.5 22t20.5 9q13 0 21 -9t8 -22q0 -12 -8 -20.5t-21 -8.5z" />
    <glyph glyph-name="lozenge" unicode="&#x25ca;" horiz-adv-x="626" 
d="M296 -12l-202 362l202 362h36l202 -362l-202 -362h-36zM314 680l-183 -330l183 -330l183 330z" />
    <glyph glyph-name="ydieresis" unicode="&#xff;" horiz-adv-x="515" 
d="M237 12l-184 499h36l166 -452l166 452h36l-260 -705h-36zM169 606q-12 0 -20.5 8.5t-8.5 20.5q0 13 8.5 22t20.5 9q13 0 21 -9t8 -22q0 -12 -8 -20.5t-21 -8.5zM335 606q-12 0 -20.5 8.5t-8.5 20.5q0 13 8.5 22t20.5 9q13 0 21 -9t8 -22q0 -12 -8 -20.5t-21 -8.5z" />
    <glyph glyph-name="Ydieresis" unicode="&#x178;" horiz-adv-x="610" 
d="M287 0v277l-228 423h39l207 -386l207 386h39l-228 -423v-277h-36zM222 796q-12 0 -20.5 8.5t-8.5 20.5q0 13 8.5 22t20.5 9q13 0 21 -9t8 -22q0 -12 -8 -20.5t-21 -8.5zM388 796q-12 0 -20.5 8.5t-8.5 20.5q0 13 8.5 22t20.5 9q13 0 21 -9t8 -22q0 -12 -8 -20.5t-21 -8.5
z" />
    <glyph glyph-name="fraction" unicode="&#x2044;" horiz-adv-x="331" 
d="M-95 -12l478 724h43l-478 -724h-43z" />
    <glyph glyph-name="Euro" unicode="&#x20ac;" horiz-adv-x="596" 
d="M362 -12q-58 0 -99.5 21.5t-69.5 57.5t-44 82t-23 95h-63l14 33h44q-2 16 -2 31.5v31.5q0 17 1 34t3 35h-60l14 33h50q8 51 26 99.5t47.5 86.5t71.5 61t99 23q41 0 79 -10t68 -30l-14 -33q-26 17 -60.5 27t-72.5 10q-49 0 -84.5 -20t-60 -53t-39 -75t-21.5 -86h256
l-14 -33h-246q-2 -18 -3 -35t-1 -34q0 -32 3 -63h192l-13 -33h-175q6 -42 20 -82t37.5 -70.5t58 -49t81.5 -18.5q48 0 84.5 19.5t62.5 48.5l29 -20q-12 -16 -29.5 -31t-39.5 -27t-49 -19t-58 -7z" />
    <glyph glyph-name="guilsinglleft" unicode="&#x2039;" horiz-adv-x="291" 
d="M208 0l-152 256l152 255h42l-152 -255l152 -256h-42z" />
    <glyph glyph-name="guilsinglright" unicode="&#x203a;" horiz-adv-x="291" 
d="M41 0l152 256l-152 255h42l152 -255l-152 -256h-42z" />
    <glyph glyph-name="daggerdbl" unicode="&#x2021;" horiz-adv-x="566" 
d="M433 116h35v-34h-35l-140 9l8 -107v-125h-36v125l8 107l-140 -9h-35v34h35l140 -9l-8 126v105l8 126l-140 -9h-35v34h35l140 -9l-8 107v125h36v-125l-8 -107l140 9h35v-34h-35l-140 9l8 -126v-105l-8 -126z" />
    <glyph glyph-name="periodcentered" unicode="&#xb7;" horiz-adv-x="212" 
d="M106 320q-12 0 -20.5 8.5t-8.5 20.5q0 13 8.5 22t20.5 9q13 0 21 -9t8 -22q0 -12 -8 -20.5t-21 -8.5z" />
    <glyph glyph-name="quotesinglbase" unicode="&#x201a;" horiz-adv-x="212" 
d="M77 -138q14 20 23.5 51.5t9.5 59.5q0 4 -0.5 7t-0.5 6q-14 0 -23 8t-9 21q0 14 8.5 22.5t20.5 8.5q14 0 23.5 -10t9.5 -36q0 -21 -5 -42.5t-12.5 -40t-17 -34t-18.5 -24.5z" />
    <glyph glyph-name="quotedblbase" unicode="&#x201e;" horiz-adv-x="388" 
d="M253 -138q14 20 23.5 51.5t9.5 59.5q0 5 -0.5 8.5t-0.5 4.5q-14 0 -23 8t-9 21q0 14 8.5 22.5t20.5 8.5q14 0 23.5 -10t9.5 -36q0 -21 -5 -42.5t-12.5 -40t-17 -34t-18.5 -24.5zM77 -138q14 20 23.5 51.5t9.5 59.5q0 5 -0.5 8.5t-0.5 4.5q-14 0 -23 8t-9 21
q0 14 8.5 22.5t20.5 8.5q14 0 23.5 -10t9.5 -36q0 -21 -5 -42.5t-12.5 -40t-17 -34t-18.5 -24.5z" />
    <glyph glyph-name="perthousand" unicode="&#x2030;" horiz-adv-x="1277" 
d="M225 356q-42 0 -71 16t-47 41.5t-26 57t-8 63.5q0 29 7.5 60.5t25.5 57.5t47 43t72 17t72 -17t47 -43t25.5 -57.5t7.5 -60.5q0 -32 -8 -63.5t-26 -57t-47 -41.5t-71 -16zM225 392q31 0 53 12.5t35.5 33t19.5 45.5t6 51q0 23 -6 48t-19.5 46t-35 34.5t-53.5 13.5
t-53.5 -13.5t-35 -34.5t-19.5 -46t-6 -48q0 -26 6 -51t19.5 -45.5t35.5 -33t53 -12.5zM230 -12h-43l478 724h43zM670 -12q-42 0 -71 16t-47 41.5t-26 57t-8 63.5q0 29 7.5 60.5t25.5 57.5t47 43t72 17t72 -17t47 -43t25.5 -57.5t7.5 -60.5q0 -32 -8 -63.5t-26 -57t-47 -41.5
t-71 -16zM670 24q31 0 53 12.5t35.5 33t19.5 45.5t6 51q0 23 -6 48t-19.5 46t-35 34.5t-53.5 13.5t-53.5 -13.5t-35 -34.5t-19.5 -46t-6 -48q0 -26 6 -51t19.5 -45.5t35.5 -33t53 -12.5zM1062 -12q-42 0 -71 16t-47 41.5t-26 57t-8 63.5q0 29 7.5 60.5t25.5 57.5t47 43
t72 17t72 -17t47 -43t25.5 -57.5t7.5 -60.5q0 -32 -8 -63.5t-26 -57t-47 -41.5t-71 -16zM1062 24q31 0 53 12.5t35.5 33t19.5 45.5t6 51q0 23 -6 48t-19.5 46t-35 34.5t-53.5 13.5t-53.5 -13.5t-35 -34.5t-19.5 -46t-6 -48q0 -26 6 -51t19.5 -45.5t35.5 -33t53 -12.5z" />
    <glyph glyph-name="Acircumflex" unicode="&#xc2;" 
d="M552 0l-70 197h-297l-67 -197h-37l240 700h24l242 -700h-35zM473 227l-104 302l-6.5 20l-10 30.5l-10.5 33t-8 27.5l-8 -28t-11 -34l-11 -30.5t-6 -18.5l-104 -302h279zM166 766l151 156h32l151 -156h-37l-130 120l-130 -120h-37z" />
    <glyph glyph-name="Ecircumflex" unicode="&#xca;" horiz-adv-x="592" 
d="M115 0v700h365v-33h-329v-288h222v-33h-222v-313h351v-33h-387zM131 766l151 156h32l151 -156h-37l-130 120l-130 -120h-37z" />
    <glyph glyph-name="Aacute" unicode="&#xc1;" 
d="M552 0l-70 197h-297l-67 -197h-37l240 700h24l242 -700h-35zM473 227l-104 302l-6.5 20l-10 30.5l-10.5 33t-8 27.5l-8 -28t-11 -34l-11 -30.5t-6 -18.5l-104 -302h279zM279 766h-37l151 156h55z" />
    <glyph glyph-name="Edieresis" unicode="&#xcb;" horiz-adv-x="592" 
d="M115 0v700h365v-33h-329v-288h222v-33h-222v-313h351v-33h-387zM189 796q-12 0 -20.5 8.5t-8.5 20.5q0 13 8.5 22t20.5 9q13 0 21 -9t8 -22q0 -12 -8 -20.5t-21 -8.5zM355 796q-12 0 -20.5 8.5t-8.5 20.5q0 13 8.5 22t20.5 9q13 0 21 -9t8 -22q0 -12 -8 -20.5t-21 -8.5z
" />
    <glyph glyph-name="Egrave" unicode="&#xc8;" horiz-adv-x="592" 
d="M115 0v700h365v-33h-329v-288h222v-33h-222v-313h351v-33h-387zM307 766l-169 156h55l151 -156h-37z" />
    <glyph glyph-name="Iacute" unicode="&#xcd;" horiz-adv-x="266" 
d="M115 0v700h36v-700h-36zM76 766h-37l151 156h55z" />
    <glyph glyph-name="Icircumflex" unicode="&#xce;" horiz-adv-x="266" 
d="M115 0v700h36v-700h-36zM-35 766l151 156h32l151 -156h-37l-130 120l-130 -120h-37z" />
    <glyph glyph-name="Idieresis" unicode="&#xcf;" horiz-adv-x="266" 
d="M115 0v700h36v-700h-36zM49 796q-12 0 -20.5 8.5t-8.5 20.5q0 13 8.5 22t20.5 9q13 0 21 -9t8 -22q0 -12 -8 -20.5t-21 -8.5zM215 796q-12 0 -20.5 8.5t-8.5 20.5q0 13 8.5 22t20.5 9q13 0 21 -9t8 -22q0 -12 -8 -20.5t-21 -8.5z" />
    <glyph glyph-name="Igrave" unicode="&#xcc;" horiz-adv-x="266" 
d="M115 0v700h36v-700h-36zM187 766l-169 156h55l151 -156h-37z" />
    <glyph glyph-name="Oacute" unicode="&#xd3;" horiz-adv-x="726" 
d="M363 24q65 0 110 29.5t72.5 76.5t39.5 105t12 115q0 62 -12 121t-39.5 104.5t-72.5 73t-110 27.5t-110 -29.5t-72.5 -76.5t-39.5 -105t-12 -115q0 -62 12 -121t39.5 -104.5t72.5 -73t110 -27.5zM363 -12q-75 0 -127 32t-84.5 84t-47 116.5t-14.5 129.5t14.5 129.5
t47 116.5t84.5 84t127 32t127 -32t84.5 -84t47 -116.5t14.5 -129.5t-14.5 -129.5t-47 -116.5t-84.5 -84t-127 -32zM329 766h-37l151 156h55z" />
    <glyph glyph-name="Ocircumflex" unicode="&#xd4;" horiz-adv-x="726" 
d="M363 24q65 0 110 29.5t72.5 76.5t39.5 105t12 115q0 62 -12 121t-39.5 104.5t-72.5 73t-110 27.5t-110 -29.5t-72.5 -76.5t-39.5 -105t-12 -115q0 -62 12 -121t39.5 -104.5t72.5 -73t110 -27.5zM363 -12q-75 0 -127 32t-84.5 84t-47 116.5t-14.5 129.5t14.5 129.5
t47 116.5t84.5 84t127 32t127 -32t84.5 -84t47 -116.5t14.5 -129.5t-14.5 -129.5t-47 -116.5t-84.5 -84t-127 -32zM208 766l151 156h32l151 -156h-37l-130 120l-130 -120h-37z" />
    <glyph glyph-name="Ograve" unicode="&#xd2;" horiz-adv-x="726" 
d="M363 24q65 0 110 29.5t72.5 76.5t39.5 105t12 115q0 62 -12 121t-39.5 104.5t-72.5 73t-110 27.5t-110 -29.5t-72.5 -76.5t-39.5 -105t-12 -115q0 -62 12 -121t39.5 -104.5t72.5 -73t110 -27.5zM363 -12q-75 0 -127 32t-84.5 84t-47 116.5t-14.5 129.5t14.5 129.5
t47 116.5t84.5 84t127 32t127 -32t84.5 -84t47 -116.5t14.5 -129.5t-14.5 -129.5t-47 -116.5t-84.5 -84t-127 -32zM410 766l-169 156h55l151 -156h-37z" />
    <glyph glyph-name="Uacute" unicode="&#xda;" 
d="M334 -12q-52 0 -93.5 14.5t-70 46t-44 81t-15.5 119.5v451h36v-449q0 -69 15.5 -113.5t41 -70t59.5 -35.5t71 -10t71 10t59.5 35.5t41 70t15.5 113.5v449h36v-451q0 -70 -15.5 -119.5t-44 -81t-70 -46t-93.5 -14.5zM298 766h-37l151 156h55z" />
    <glyph glyph-name="Ucircumflex" unicode="&#xdb;" 
d="M334 -12q-52 0 -93.5 14.5t-70 46t-44 81t-15.5 119.5v451h36v-449q0 -69 15.5 -113.5t41 -70t59.5 -35.5t71 -10t71 10t59.5 35.5t41 70t15.5 113.5v449h36v-451q0 -70 -15.5 -119.5t-44 -81t-70 -46t-93.5 -14.5zM167 766l151 156h32l151 -156h-37l-130 120l-130 -120
h-37z" />
    <glyph glyph-name="Ugrave" unicode="&#xd9;" 
d="M334 -12q-52 0 -93.5 14.5t-70 46t-44 81t-15.5 119.5v451h36v-449q0 -69 15.5 -113.5t41 -70t59.5 -35.5t71 -10t71 10t59.5 35.5t41 70t15.5 113.5v449h36v-451q0 -70 -15.5 -119.5t-44 -81t-70 -46t-93.5 -14.5zM389 766l-169 156h55l151 -156h-37z" />
    <glyph glyph-name="dotlessi" unicode="&#x131;" horiz-adv-x="258" 
d="M111 0v511h36v-511h-36z" />
    <glyph glyph-name="circumflex" unicode="&#x2c6;" horiz-adv-x="341" 
d="M5 576l151 156h32l151 -156h-37l-130 120l-130 -120h-37z" />
    <glyph glyph-name="tilde" unicode="&#x2dc;" horiz-adv-x="341" 
d="M250 602q-25 0 -46 12.5t-41 28t-39 28t-40 12.5q-49 0 -52 -77h-27q0 48 21.5 79t64.5 31q25 0 46 -12.5t41 -28t39 -28t40 -12.5q49 0 52 77h27q0 -48 -21.5 -79t-64.5 -31z" />
    <glyph glyph-name="macron" unicode="&#xaf;" horiz-adv-x="341" 
d="M7 623v33h330v-33h-330z" />
    <glyph glyph-name="breve" unicode="&#x2d8;" horiz-adv-x="341" 
d="M172 581q-44 0 -76 12.5t-52.5 34.5t-30.5 51.5t-10 62.5h34q0 -32 10.5 -56t29 -40t43 -24t52.5 -8t52.5 8t43 24t29 40t10.5 56h34q0 -33 -10 -62.5t-30.5 -51.5t-52.5 -34.5t-76 -12.5z" />
    <glyph glyph-name="dotaccent" unicode="&#x2d9;" horiz-adv-x="341" 
d="M172 606q-12 0 -20.5 8.5t-8.5 20.5q0 13 8.5 22t20.5 9q13 0 21 -9t8 -22q0 -12 -8 -20.5t-21 -8.5z" />
    <glyph glyph-name="ring" unicode="&#x2da;" horiz-adv-x="341" 
d="M172 540q-24 0 -44.5 9t-36.5 24t-25 35.5t-9 43.5t9 43.5t25 36t36.5 24.5t44.5 9t44.5 -9t36.5 -24.5t25 -36t9 -43.5t-9 -43.5t-25 -35.5t-36.5 -24t-44.5 -9zM171 571q34 0 58 23t24 58t-24 58.5t-58 23.5q-32 0 -56 -23.5t-24 -58.5q0 -17 6.5 -32t17.5 -26
t25.5 -17t30.5 -6z" />
    <glyph glyph-name="cedilla" unicode="&#xb8;" horiz-adv-x="341" 
d="M176 -234q-23 0 -41 7.5t-30 20.5l25 18q8 -6 18.5 -11.5t26.5 -5.5q31 0 47.5 17.5t16.5 43.5t-18 43t-47 17q-22 0 -38 -8l-10 12l65 90h24l-40 -69q25 0 43.5 -7.5t30.5 -19.5t18 -27t6 -30q0 -38 -25.5 -64.5t-71.5 -26.5z" />
    <glyph glyph-name="hungarumlaut" unicode="&#x2dd;" horiz-adv-x="341" 
d="M124 576h-37l151 156h55zM322 576h-37l151 156h55z" />
    <glyph glyph-name="ogonek" unicode="&#x2db;" horiz-adv-x="341" 
d="M175 -234q-19 0 -36.5 5.5t-30.5 17.5t-21 30.5t-8 44.5q0 47 37.5 86.5t98.5 59.5h32q-134 -55 -134 -146q0 -38 19.5 -53.5t42.5 -15.5q26 0 41 11.5t23 20.5l24 -17q-14 -17 -35 -30.5t-53 -13.5z" />
    <glyph glyph-name="caron" unicode="&#x2c7;" horiz-adv-x="341" 
d="M188 576h-32l-151 156h37l130 -120l130 120h37z" />
    <glyph glyph-name="currency" unicode="&#xa4;" horiz-adv-x="641" 
d="M320 101q-84 0 -151 53l-70 -71l-29 28l72 71q-42 64 -42 151t42 151l-72 71l29 28l70 -71q67 53 151 53t151 -53l70 71l29 -28l-72 -71q42 -64 42 -151t-42 -151l72 -71l-29 -28l-70 71q-67 -53 -151 -53zM320 138q41 0 74.5 14.5t57 40.5t36.5 61.5t13 78.5t-13 78.5
t-36.5 61.5t-57 40.5t-74.5 14.5t-74.5 -14.5t-57 -40.5t-36.5 -61.5t-13 -78.5t13 -78.5t36.5 -61.5t57 -40.5t74.5 -14.5z" />
    <glyph glyph-name="uni00AD" unicode="&#xad;" horiz-adv-x="409" 
d="M93 280v36h223v-36h-223z" />
    <glyph glyph-name="Amacron" unicode="&#x100;" 
d="M552 0l-70 197h-297l-67 -197h-37l240 700h24l242 -700h-35zM473 227l-104 302l-6.5 20l-10 30.5l-10.5 33t-8 27.5l-8 -28t-11 -34l-11 -30.5t-6 -18.5l-104 -302h279zM168 813v33h330v-33h-330z" />
    <glyph glyph-name="amacron" unicode="&#x101;" horiz-adv-x="527" 
d="M403 0v80q-30 -42 -72.5 -67t-89.5 -25q-75 0 -119 42.5t-44 123.5q0 42 14 72.5t37.5 50.5t55.5 29.5t68 9.5q41 0 78 -13t72 -36v76q0 45 -10.5 74t-27.5 45t-40 22t-47 6q-42 0 -83 -15.5t-71 -33.5l-11 31q29 17 72 34t96 17q27 0 55 -7t51 -25t37.5 -50t14.5 -83
v-358h-36zM241 21q28 0 52 9t44 23.5t36.5 32.5t29.5 36v111q-29 20 -67.5 35t-82.5 15q-26 0 -50.5 -8t-43.5 -23.5t-30.5 -40t-11.5 -57.5q0 -60 33.5 -96.5t90.5 -36.5zM110 623v33h330v-33h-330z" />
    <glyph glyph-name="Abreve" unicode="&#x102;" 
d="M552 0l-70 197h-297l-67 -197h-37l240 700h24l242 -700h-35zM473 227l-104 302l-6.5 20l-10 30.5l-10.5 33t-8 27.5l-8 -28t-11 -34l-11 -30.5t-6 -18.5l-104 -302h279zM333 771q-44 0 -76 12.5t-52.5 34.5t-30.5 51.5t-10 62.5h34q0 -32 10.5 -56t29 -40t43 -24t52.5 -8
t52.5 8t43 24t29 40t10.5 56h34q0 -33 -10 -62.5t-30.5 -51.5t-52.5 -34.5t-76 -12.5z" />
    <glyph glyph-name="abreve" unicode="&#x103;" horiz-adv-x="527" 
d="M403 0v80q-30 -42 -72.5 -67t-89.5 -25q-75 0 -119 42.5t-44 123.5q0 42 14 72.5t37.5 50.5t55.5 29.5t68 9.5q41 0 78 -13t72 -36v76q0 45 -10.5 74t-27.5 45t-40 22t-47 6q-42 0 -83 -15.5t-71 -33.5l-11 31q29 17 72 34t96 17q27 0 55 -7t51 -25t37.5 -50t14.5 -83
v-358h-36zM241 21q28 0 52 9t44 23.5t36.5 32.5t29.5 36v111q-29 20 -67.5 35t-82.5 15q-26 0 -50.5 -8t-43.5 -23.5t-30.5 -40t-11.5 -57.5q0 -60 33.5 -96.5t90.5 -36.5zM275 581q-44 0 -76 12.5t-52.5 34.5t-30.5 51.5t-10 62.5h34q0 -32 10.5 -56t29 -40t43 -24t52.5 -8
t52.5 8t43 24t29 40t10.5 56h34q0 -33 -10 -62.5t-30.5 -51.5t-52.5 -34.5t-76 -12.5z" />
    <glyph glyph-name="Aogonek" unicode="&#x104;" 
d="M587 0q-72 -23 -102 -58.5t-30 -77.5q0 -38 19.5 -53.5t42.5 -15.5q26 0 41 11.5t23 20.5l24 -17q-14 -17 -35 -30.5t-53 -13.5q-19 0 -36.5 5.5t-30.5 17.5t-21 30.5t-8 44.5q0 44 32 80t97 59l-68 194h-297l-67 -197h-37l240 700h24zM473 227l-104 302l-6.5 20
l-10 30.5l-10.5 33t-8 27.5l-8 -28t-11 -34l-11 -30.5t-6 -18.5l-104 -302h279z" />
    <glyph glyph-name="aogonek" unicode="&#x105;" horiz-adv-x="527" 
d="M369 -234q-19 0 -36.5 5.5t-30.5 17.5t-21 30.5t-8 44.5q0 45 34.5 82.5t95.5 57.5v76q-30 -42 -72.5 -67t-89.5 -25q-75 0 -119 42.5t-44 123.5q0 42 14 72.5t37.5 50.5t55.5 29.5t68 9.5q41 0 78 -13t72 -36v76q0 45 -10.5 74t-27.5 45t-40 22t-47 6q-42 0 -83 -15.5
t-71 -33.5l-11 31q29 17 72 34t96 17q27 0 55 -7t51 -25t37.5 -50t14.5 -83v-358q-65 -23 -98.5 -56.5t-33.5 -79.5q0 -38 19.5 -53.5t42.5 -15.5q26 0 41 11.5t23 20.5l24 -17q-14 -17 -35 -30.5t-53 -13.5zM241 21q28 0 52 9t44 23.5t36.5 32.5t29.5 36v111
q-29 20 -67.5 35t-82.5 15q-26 0 -50.5 -8t-43.5 -23.5t-30.5 -40t-11.5 -57.5q0 -60 33.5 -96.5t90.5 -36.5z" />
    <glyph glyph-name="Cacute" unicode="&#x106;" horiz-adv-x="650" 
d="M361 -12q-73 0 -124.5 31t-84 81.5t-47.5 115.5t-15 134q0 70 16.5 135t49.5 115.5t84 81t120 30.5q44 0 76.5 -9.5t55.5 -25.5t39.5 -36.5t28.5 -41.5l-31 -18q-11 18 -24.5 35t-33 30.5t-47 21.5t-64.5 8q-59 0 -102.5 -27.5t-72 -72.5t-42.5 -104t-14 -122
q0 -62 12.5 -121t40.5 -104.5t72 -73t107 -27.5q35 0 63.5 9t50 23.5t37 33.5t25.5 39l33 -13q-11 -24 -29.5 -47t-44 -41t-59.5 -29t-76 -11zM332 766h-37l151 156h55z" />
    <glyph glyph-name="cacute" unicode="&#x107;" horiz-adv-x="483" 
d="M257 -12q-85 0 -134.5 69.5t-49.5 197.5q0 127 50.5 197.5t140.5 70.5q52 0 91 -27.5t58 -79.5l-36 -14q-14 41 -44 63t-69 22q-76 0 -114 -59t-38 -173q0 -110 39.5 -170.5t105.5 -60.5q46 0 80 25.5t47 68.5l36 -13q-17 -54 -60 -85.5t-103 -31.5zM209 576h-37l151 156
h55z" />
    <glyph glyph-name="Ccircumflex" unicode="&#x108;" horiz-adv-x="650" 
d="M361 -12q-73 0 -124.5 31t-84 81.5t-47.5 115.5t-15 134q0 70 16.5 135t49.5 115.5t84 81t120 30.5q44 0 76.5 -9.5t55.5 -25.5t39.5 -36.5t28.5 -41.5l-31 -18q-11 18 -24.5 35t-33 30.5t-47 21.5t-64.5 8q-59 0 -102.5 -27.5t-72 -72.5t-42.5 -104t-14 -122
q0 -62 12.5 -121t40.5 -104.5t72 -73t107 -27.5q35 0 63.5 9t50 23.5t37 33.5t25.5 39l33 -13q-11 -24 -29.5 -47t-44 -41t-59.5 -29t-76 -11zM196 766l151 156h32l151 -156h-37l-130 120l-130 -120h-37z" />
    <glyph glyph-name="ccircumflex" unicode="&#x109;" horiz-adv-x="483" 
d="M257 -12q-85 0 -134.5 69.5t-49.5 197.5q0 127 50.5 197.5t140.5 70.5q52 0 91 -27.5t58 -79.5l-36 -14q-14 41 -44 63t-69 22q-76 0 -114 -59t-38 -173q0 -110 39.5 -170.5t105.5 -60.5q46 0 80 25.5t47 68.5l36 -13q-17 -54 -60 -85.5t-103 -31.5zM93 576l151 156h32
l151 -156h-37l-130 120l-130 -120h-37z" />
    <glyph glyph-name="Cdotaccent" unicode="&#x10a;" horiz-adv-x="650" 
d="M361 -12q-73 0 -124.5 31t-84 81.5t-47.5 115.5t-15 134q0 70 16.5 135t49.5 115.5t84 81t120 30.5q44 0 76.5 -9.5t55.5 -25.5t39.5 -36.5t28.5 -41.5l-31 -18q-11 18 -24.5 35t-33 30.5t-47 21.5t-64.5 8q-59 0 -102.5 -27.5t-72 -72.5t-42.5 -104t-14 -122
q0 -62 12.5 -121t40.5 -104.5t72 -73t107 -27.5q35 0 63.5 9t50 23.5t37 33.5t25.5 39l33 -13q-11 -24 -29.5 -47t-44 -41t-59.5 -29t-76 -11zM363 796q-12 0 -20.5 8.5t-8.5 20.5q0 13 8.5 22t20.5 9q13 0 21 -9t8 -22q0 -12 -8 -20.5t-21 -8.5z" />
    <glyph glyph-name="cdotaccent" unicode="&#x10b;" horiz-adv-x="483" 
d="M257 -12q-85 0 -134.5 69.5t-49.5 197.5q0 127 50.5 197.5t140.5 70.5q52 0 91 -27.5t58 -79.5l-36 -14q-14 41 -44 63t-69 22q-76 0 -114 -59t-38 -173q0 -110 39.5 -170.5t105.5 -60.5q46 0 80 25.5t47 68.5l36 -13q-17 -54 -60 -85.5t-103 -31.5zM265 606
q-12 0 -20.5 8.5t-8.5 20.5q0 13 8.5 22t20.5 9q13 0 21 -9t8 -22q0 -12 -8 -20.5t-21 -8.5z" />
    <glyph glyph-name="Ccaron" unicode="&#x10c;" horiz-adv-x="650" 
d="M361 -12q-73 0 -124.5 31t-84 81.5t-47.5 115.5t-15 134q0 70 16.5 135t49.5 115.5t84 81t120 30.5q44 0 76.5 -9.5t55.5 -25.5t39.5 -36.5t28.5 -41.5l-31 -18q-11 18 -24.5 35t-33 30.5t-47 21.5t-64.5 8q-59 0 -102.5 -27.5t-72 -72.5t-42.5 -104t-14 -122
q0 -62 12.5 -121t40.5 -104.5t72 -73t107 -27.5q35 0 63.5 9t50 23.5t37 33.5t25.5 39l33 -13q-11 -24 -29.5 -47t-44 -41t-59.5 -29t-76 -11zM379 766h-32l-151 156h37l130 -120l130 120h37z" />
    <glyph glyph-name="ccaron" unicode="&#x10d;" horiz-adv-x="483" 
d="M257 -12q-85 0 -134.5 69.5t-49.5 197.5q0 127 50.5 197.5t140.5 70.5q52 0 91 -27.5t58 -79.5l-36 -14q-14 41 -44 63t-69 22q-76 0 -114 -59t-38 -173q0 -110 39.5 -170.5t105.5 -60.5q46 0 80 25.5t47 68.5l36 -13q-17 -54 -60 -85.5t-103 -31.5zM279 576h-32
l-151 156h37l130 -120l130 120h37z" />
    <glyph glyph-name="Dcaron" unicode="&#x10e;" horiz-adv-x="675" 
d="M115 700h160q87 0 146.5 -30.5t95.5 -80t52 -112t16 -127.5q0 -60 -14.5 -122.5t-50.5 -113t-96.5 -82.5t-152.5 -32h-156v700zM271 36q81 0 134 29t84.5 74t44 101t12.5 110q0 58 -14 114.5t-45.5 100.5t-83.5 71.5t-128 27.5h-124v-628h120zM311 766h-32l-151 156h37
l130 -120l130 120h37z" />
    <glyph glyph-name="dcaron" unicode="&#x10f;" horiz-adv-x="653" 
d="M267 -12q-45 0 -81 19t-61 54t-38.5 84.5t-13.5 110.5q0 127 52.5 197t149.5 70q28 0 50.5 -8t40 -20.5t31 -28t23.5 -30.5v268l36 18v-722h-36v73q-31 -45 -70 -65t-83 -20zM275 24q44 0 83 30.5t62 74.5v255q-9 15 -22.5 32.5t-31.5 33.5t-41 26.5t-50 10.5
q-79 0 -121 -60t-42 -171q0 -48 11.5 -90.5t32.5 -74t51 -49.5t68 -18zM610 712v-18q0 -72 -15 -124.5t-41 -85.5l-10 8q14 29 22 85.5t8 134.5h36z" />
    <glyph glyph-name="Dcroat" unicode="&#x110;" horiz-adv-x="675" 
d="M115 331h-70v36h70v333h160q87 0 146.5 -30.5t95.5 -80t52 -112t16 -127.5q0 -60 -14.5 -122.5t-50.5 -113t-96.5 -82.5t-152.5 -32h-156v331zM271 36q81 0 134 29t84.5 74t44 101t12.5 110q0 58 -14 114.5t-45.5 100.5t-83.5 71.5t-128 27.5h-124v-297h175v-36h-175
v-295h120z" />
    <glyph glyph-name="dcroat" unicode="&#x111;" horiz-adv-x="564" 
d="M456 568v-568h-36v73q-31 -45 -70 -65t-83 -20q-45 0 -81 19t-61 54t-38.5 84.5t-13.5 110.5q0 127 52.5 197t149.5 70q28 0 50.5 -8t40 -20.5t31 -28t23.5 -30.5v132h-144v33h144v103l36 18v-121h72v-33h-72zM275 25q44 0 83 30t62 74v255q-9 15 -22.5 32.5t-31.5 33
t-41 26t-50 10.5q-79 0 -121 -59.5t-42 -170.5q0 -48 11.5 -90t32.5 -73.5t51 -49.5t68 -18z" />
    <glyph glyph-name="Emacron" unicode="&#x112;" horiz-adv-x="592" 
d="M115 0v700h365v-33h-329v-288h222v-33h-222v-313h351v-33h-387zM137 813v33h330v-33h-330z" />
    <glyph glyph-name="emacron" unicode="&#x113;" horiz-adv-x="531" 
d="M112 245q4 -115 48 -168t121 -53q29 0 60.5 10t59.5 33l21 -26q-27 -23 -64.5 -38t-79.5 -15q-98 0 -151.5 72t-53.5 196q0 64 15.5 113.5t42.5 83.5t64.5 52t82.5 18q41 0 75 -15.5t58.5 -48t38 -83t13.5 -120.5v-11h-351zM278 490q-34 0 -63 -12.5t-51 -38t-35.5 -66
t-16.5 -95.5h313q0 64 -14.5 105.5t-36.5 65t-47.5 32.5t-48.5 9zM113 623v33h330v-33h-330z" />
    <glyph glyph-name="Ebreve" unicode="&#x114;" horiz-adv-x="592" 
d="M115 0v700h365v-33h-329v-288h222v-33h-222v-313h351v-33h-387zM307 771q-44 0 -76 12.5t-52.5 34.5t-30.5 51.5t-10 62.5h34q0 -32 10.5 -56t29 -40t43 -24t52.5 -8t52.5 8t43 24t29 40t10.5 56h34q0 -33 -10 -62.5t-30.5 -51.5t-52.5 -34.5t-76 -12.5z" />
    <glyph glyph-name="ebreve" unicode="&#x115;" horiz-adv-x="531" 
d="M112 245q4 -115 48 -168t121 -53q29 0 60.5 10t59.5 33l21 -26q-27 -23 -64.5 -38t-79.5 -15q-98 0 -151.5 72t-53.5 196q0 64 15.5 113.5t42.5 83.5t64.5 52t82.5 18q41 0 75 -15.5t58.5 -48t38 -83t13.5 -120.5v-11h-351zM278 490q-34 0 -63 -12.5t-51 -38t-35.5 -66
t-16.5 -95.5h313q0 64 -14.5 105.5t-36.5 65t-47.5 32.5t-48.5 9zM278 581q-44 0 -76 12.5t-52.5 34.5t-30.5 51.5t-10 62.5h34q0 -32 10.5 -56t29 -40t43 -24t52.5 -8t52.5 8t43 24t29 40t10.5 56h34q0 -33 -10 -62.5t-30.5 -51.5t-52.5 -34.5t-76 -12.5z" />
    <glyph glyph-name="Edotaccent" unicode="&#x116;" horiz-adv-x="592" 
d="M115 0v700h365v-33h-329v-288h222v-33h-222v-313h351v-33h-387zM307 796q-12 0 -20.5 8.5t-8.5 20.5q0 13 8.5 22t20.5 9q13 0 21 -9t8 -22q0 -12 -8 -20.5t-21 -8.5z" />
    <glyph glyph-name="edotaccent" unicode="&#x117;" horiz-adv-x="531" 
d="M112 245q4 -115 48 -168t121 -53q29 0 60.5 10t59.5 33l21 -26q-27 -23 -64.5 -38t-79.5 -15q-98 0 -151.5 72t-53.5 196q0 64 15.5 113.5t42.5 83.5t64.5 52t82.5 18q41 0 75 -15.5t58.5 -48t38 -83t13.5 -120.5v-11h-351zM278 490q-34 0 -63 -12.5t-51 -38t-35.5 -66
t-16.5 -95.5h313q0 64 -14.5 105.5t-36.5 65t-47.5 32.5t-48.5 9zM278 606q-12 0 -20.5 8.5t-8.5 20.5q0 13 8.5 22t20.5 9q13 0 21 -9t8 -22q0 -12 -8 -20.5t-21 -8.5z" />
    <glyph glyph-name="Eogonek" unicode="&#x118;" horiz-adv-x="592" 
d="M383 -234q-19 0 -36.5 5.5t-30.5 17.5t-21 30.5t-8 44.5q0 43 29.5 80.5t80.5 55.5h-282v700h365v-33h-329v-288h222v-33h-222v-313h351v-33h-29q-31 0 -58.5 -11.5t-48.5 -30t-33 -43t-12 -51.5q0 -38 19.5 -53.5t42.5 -15.5q26 0 41 11.5t23 20.5l24 -17
q-14 -17 -35 -30.5t-53 -13.5z" />
    <glyph glyph-name="eogonek" unicode="&#x119;" horiz-adv-x="531" 
d="M288 -234q-19 0 -36.5 5.5t-30.5 17.5t-21 30.5t-8 44.5q0 37 23 70t63 54q-98 0 -151.5 72t-53.5 196q0 64 15.5 113.5t42.5 83.5t64.5 52t82.5 18q41 0 75 -15.5t58.5 -48t38 -83t13.5 -120.5v-11h-351q4 -116 48 -168.5t121 -52.5q29 0 60.5 10t59.5 33l21 -26
q-20 -17 -43.5 -28.5t-49.5 -21.5q-52 -20 -77.5 -54t-25.5 -73q0 -38 19.5 -53.5t42.5 -15.5q26 0 41 11.5t23 20.5l24 -17q-14 -17 -35 -30.5t-53 -13.5zM278 490q-34 0 -63 -12t-51 -37.5t-35.5 -65.5t-16.5 -97h313q0 66 -14.5 107t-36.5 64.5t-47.5 32t-48.5 8.5z" />
    <glyph glyph-name="Ecaron" unicode="&#x11a;" horiz-adv-x="592" 
d="M115 0v700h365v-33h-329v-288h222v-33h-222v-313h351v-33h-387zM323 766h-32l-151 156h37l130 -120l130 120h37z" />
    <glyph glyph-name="ecaron" unicode="&#x11b;" horiz-adv-x="531" 
d="M112 245q4 -115 48 -168t121 -53q29 0 60.5 10t59.5 33l21 -26q-27 -23 -64.5 -38t-79.5 -15q-98 0 -151.5 72t-53.5 196q0 64 15.5 113.5t42.5 83.5t64.5 52t82.5 18q41 0 75 -15.5t58.5 -48t38 -83t13.5 -120.5v-11h-351zM278 490q-34 0 -63 -12.5t-51 -38t-35.5 -66
t-16.5 -95.5h313q0 64 -14.5 105.5t-36.5 65t-47.5 32.5t-48.5 9zM294 576h-32l-151 156h37l130 -120l130 120h37z" />
    <glyph glyph-name="Gcircumflex" unicode="&#x11c;" horiz-adv-x="691" 
d="M363 -12q-74 0 -125.5 31t-84.5 81.5t-48 115.5t-15 134q0 72 16 137.5t49.5 115.5t85 79.5t122.5 29.5q37 0 67 -8.5t53 -22t40.5 -31t30.5 -34.5l-32 -21q-23 32 -61 56.5t-98 24.5q-65 0 -109.5 -29.5t-72.5 -76.5t-40 -105t-12 -115q0 -63 13.5 -122t42 -104.5
t72.5 -72.5t106 -27q84 0 134 60.5t50 184.5v12h-147v34h185v-34q0 -78 -16.5 -133.5t-46.5 -91t-70.5 -52t-88.5 -16.5zM195 766l151 156h32l151 -156h-37l-130 120l-130 -120h-37z" />
    <glyph glyph-name="gcircumflex" unicode="&#x11d;" horiz-adv-x="566" 
d="M215 -181q113 6 160 46.5t47 115.5v103q-24 -50 -64.5 -73t-88.5 -23q-39 0 -74.5 17t-62.5 50.5t-43 83.5t-16 117q0 63 14.5 112.5t41 84t63 52.5t81.5 18q28 0 52 -7.5t43 -20t32.5 -28t21.5 -30.5v74h36v-534q0 -55 -19.5 -90.5t-51 -56.5t-71.5 -30.5t-82 -12.5z
M270 24q26 0 49.5 9t43 24.5t34.5 35.5t25 41v255q-26 48 -65.5 73t-83.5 25q-78 0 -119.5 -59.5t-41.5 -171.5q0 -56 12.5 -99t34 -72.5t50.5 -45t61 -15.5zM121 576l151 156h32l151 -156h-37l-130 120l-130 -120h-37z" />
    <glyph glyph-name="Gbreve" unicode="&#x11e;" horiz-adv-x="691" 
d="M363 -12q-74 0 -125.5 31t-84.5 81.5t-48 115.5t-15 134q0 72 16 137.5t49.5 115.5t85 79.5t122.5 29.5q37 0 67 -8.5t53 -22t40.5 -31t30.5 -34.5l-32 -21q-23 32 -61 56.5t-98 24.5q-65 0 -109.5 -29.5t-72.5 -76.5t-40 -105t-12 -115q0 -63 13.5 -122t42 -104.5
t72.5 -72.5t106 -27q84 0 134 60.5t50 184.5v12h-147v34h185v-34q0 -78 -16.5 -133.5t-46.5 -91t-70.5 -52t-88.5 -16.5zM362 771q-44 0 -76 12.5t-52.5 34.5t-30.5 51.5t-10 62.5h34q0 -32 10.5 -56t29 -40t43 -24t52.5 -8t52.5 8t43 24t29 40t10.5 56h34q0 -33 -10 -62.5
t-30.5 -51.5t-52.5 -34.5t-76 -12.5z" />
    <glyph glyph-name="gbreve" unicode="&#x11f;" horiz-adv-x="566" 
d="M215 -181q113 6 160 46.5t47 115.5v103q-24 -50 -64.5 -73t-88.5 -23q-39 0 -74.5 17t-62.5 50.5t-43 83.5t-16 117q0 63 14.5 112.5t41 84t63 52.5t81.5 18q28 0 52 -7.5t43 -20t32.5 -28t21.5 -30.5v74h36v-534q0 -55 -19.5 -90.5t-51 -56.5t-71.5 -30.5t-82 -12.5z
M270 24q26 0 49.5 9t43 24.5t34.5 35.5t25 41v255q-26 48 -65.5 73t-83.5 25q-78 0 -119.5 -59.5t-41.5 -171.5q0 -56 12.5 -99t34 -72.5t50.5 -45t61 -15.5zM288 581q-44 0 -76 12.5t-52.5 34.5t-30.5 51.5t-10 62.5h34q0 -32 10.5 -56t29 -40t43 -24t52.5 -8t52.5 8t43 24
t29 40t10.5 56h34q0 -33 -10 -62.5t-30.5 -51.5t-52.5 -34.5t-76 -12.5z" />
    <glyph glyph-name="Gdotaccent" unicode="&#x120;" horiz-adv-x="691" 
d="M363 -12q-74 0 -125.5 31t-84.5 81.5t-48 115.5t-15 134q0 72 16 137.5t49.5 115.5t85 79.5t122.5 29.5q37 0 67 -8.5t53 -22t40.5 -31t30.5 -34.5l-32 -21q-23 32 -61 56.5t-98 24.5q-65 0 -109.5 -29.5t-72.5 -76.5t-40 -105t-12 -115q0 -63 13.5 -122t42 -104.5
t72.5 -72.5t106 -27q84 0 134 60.5t50 184.5v12h-147v34h185v-34q0 -78 -16.5 -133.5t-46.5 -91t-70.5 -52t-88.5 -16.5zM360 796q-12 0 -20.5 8.5t-8.5 20.5q0 13 8.5 22t20.5 9q13 0 21 -9t8 -22q0 -12 -8 -20.5t-21 -8.5z" />
    <glyph glyph-name="gdotaccent" unicode="&#x121;" horiz-adv-x="566" 
d="M215 -181q113 6 160 46.5t47 115.5v103q-24 -50 -64.5 -73t-88.5 -23q-39 0 -74.5 17t-62.5 50.5t-43 83.5t-16 117q0 63 14.5 112.5t41 84t63 52.5t81.5 18q28 0 52 -7.5t43 -20t32.5 -28t21.5 -30.5v74h36v-534q0 -55 -19.5 -90.5t-51 -56.5t-71.5 -30.5t-82 -12.5z
M270 24q26 0 49.5 9t43 24.5t34.5 35.5t25 41v255q-26 48 -65.5 73t-83.5 25q-78 0 -119.5 -59.5t-41.5 -171.5q0 -56 12.5 -99t34 -72.5t50.5 -45t61 -15.5zM288 606q-12 0 -20.5 8.5t-8.5 20.5q0 13 8.5 22t20.5 9q13 0 21 -9t8 -22q0 -12 -8 -20.5t-21 -8.5z" />
    <glyph glyph-name="Gcommaaccent" unicode="&#x122;" horiz-adv-x="691" 
d="M363 -12q-74 0 -125.5 31t-84.5 81.5t-48 115.5t-15 134q0 72 16 137.5t49.5 115.5t85 79.5t122.5 29.5q37 0 67 -8.5t53 -22t40.5 -31t30.5 -34.5l-32 -21q-23 32 -61 56.5t-98 24.5q-65 0 -109.5 -29.5t-72.5 -76.5t-40 -105t-12 -115q0 -63 13.5 -122t42 -104.5
t72.5 -72.5t106 -27q84 0 134 60.5t50 184.5v12h-147v34h185v-34q0 -78 -16.5 -133.5t-46.5 -91t-70.5 -52t-88.5 -16.5zM324 -242q14 20 23.5 51.5t9.5 59.5q0 6 -0.5 9t-0.5 4q-14 0 -23 8t-9 21q0 14 8.5 22.5t20.5 8.5q14 0 23.5 -10t9.5 -36q0 -21 -5 -42.5t-12.5 -40
t-17 -34t-18.5 -24.5z" />
    <glyph glyph-name="gcommaaccent" unicode="&#x123;" horiz-adv-x="566" 
d="M215 -181q113 6 160 46.5t47 115.5v103q-24 -50 -64.5 -73t-88.5 -23q-39 0 -74.5 17t-62.5 50.5t-43 83.5t-16 117q0 63 14.5 112.5t41 84t63 52.5t81.5 18q28 0 52 -7.5t43 -20t32.5 -28t21.5 -30.5v74h36v-534q0 -55 -19.5 -90.5t-51 -56.5t-71.5 -30.5t-82 -12.5z
M270 24q26 0 49.5 9t43 24.5t34.5 35.5t25 41v255q-26 48 -65.5 73t-83.5 25q-78 0 -119.5 -59.5t-41.5 -171.5q0 -56 12.5 -99t34 -72.5t50.5 -45t61 -15.5zM285 603q-14 0 -23.5 10t-9.5 36q0 21 5 42.5t12.5 40t17 34t18.5 24.5l9 -3q-14 -20 -23.5 -51.5t-9.5 -59.5
q0 -6 0.5 -9t0.5 -4q14 0 23 -8t9 -21q0 -14 -8.5 -22.5t-20.5 -8.5z" />
    <glyph glyph-name="Hcircumflex" unicode="&#x124;" horiz-adv-x="678" 
d="M527 0v347h-376v-347h-36v700h36v-319h376v319h36v-700h-36zM170 766l151 156h32l151 -156h-37l-130 120l-130 -120h-37z" />
    <glyph glyph-name="hcircumflex" unicode="&#x125;" horiz-adv-x="562" 
d="M295 523q81 0 122.5 -51.5t41.5 -159.5v-312h-36v320q0 46 -9.5 78.5t-26.5 52.5t-41 29t-54 9q-32 0 -59 -10t-46.5 -32.5t-31 -59t-11.5 -90.5v-297h-36v704l36 18v-303q10 28 27.5 48t38.5 32.5t43 18t42 5.5zM125 765l151 156h32l151 -156h-37l-130 120l-130 -120
h-37z" />
    <glyph glyph-name="Hbar" unicode="&#x126;" horiz-adv-x="678" 
d="M527 0v347h-376v-347h-36v548h-83v34h83v118h36v-118h376v118h36v-118h83v-34h-83v-548h-36zM527 381v167h-376v-167h376z" />
    <glyph glyph-name="hbar" unicode="&#x127;" horiz-adv-x="562" 
d="M423 0v286q0 46 -9.5 78.5t-26.5 52.5t-41 29t-54 9q-32 0 -59 -10t-46.5 -32.5t-31 -59t-11.5 -90.5v-263h-36v549h-68v33h68v122l36 18v-140h153v-33h-153v-164q10 28 27.5 48t38.5 32.5t43 18t42 5.5q81 0 122.5 -51.5t41.5 -159.5v-278h-36z" />
    <glyph glyph-name="Itilde" unicode="&#x128;" horiz-adv-x="266" 
d="M115 0v700h36v-700h-36zM213 792q-25 0 -46 12.5t-41 28t-39 28t-40 12.5q-49 0 -52 -77h-27q0 48 21.5 79t64.5 31q25 0 46 -12.5t41 -28t39 -28t40 -12.5q49 0 52 77h27q0 -48 -21.5 -79t-64.5 -31z" />
    <glyph glyph-name="itilde" unicode="&#x129;" horiz-adv-x="258" 
d="M111 0v511h36v-511h-36zM209 602q-25 0 -46 12.5t-41 28t-39 28t-40 12.5q-49 0 -52 -77h-27q0 48 21.5 79t64.5 31q25 0 46 -12.5t41 -28t39 -28t40 -12.5q49 0 52 77h27q0 -48 -21.5 -79t-64.5 -31z" />
    <glyph glyph-name="Imacron" unicode="&#x12a;" horiz-adv-x="266" 
d="M115 0v700h36v-700h-36zM-32 813v33h330v-33h-330z" />
    <glyph glyph-name="imacron" unicode="&#x12b;" horiz-adv-x="258" 
d="M111 0v511h36v-511h-36zM-36 623v33h330v-33h-330z" />
    <glyph glyph-name="Ibreve" unicode="&#x12c;" horiz-adv-x="266" 
d="M115 0v700h36v-700h-36zM133 771q-44 0 -76 12.5t-52.5 34.5t-30.5 51.5t-10 62.5h34q0 -32 10.5 -56t29 -40t43 -24t52.5 -8t52.5 8t43 24t29 40t10.5 56h34q0 -33 -10 -62.5t-30.5 -51.5t-52.5 -34.5t-76 -12.5z" />
    <glyph glyph-name="ibreve" unicode="&#x12d;" horiz-adv-x="258" 
d="M111 0v511h36v-511h-36zM129 581q-44 0 -76 12.5t-52.5 34.5t-30.5 51.5t-10 62.5h34q0 -32 10.5 -56t29 -40t43 -24t52.5 -8t52.5 8t43 24t29 40t10.5 56h34q0 -33 -10 -62.5t-30.5 -51.5t-52.5 -34.5t-76 -12.5z" />
    <glyph glyph-name="Iogonek" unicode="&#x12e;" horiz-adv-x="266" 
d="M131 -234q-19 0 -36.5 5.5t-30.5 17.5t-21 30.5t-8 44.5q0 15 4.5 33.5t14 37t25 36.5t36.5 32v697h36v-700q-44 -26 -63 -64t-19 -72q0 -38 19.5 -53.5t42.5 -15.5q26 0 41 11.5t23 20.5l24 -17q-14 -17 -35 -30.5t-53 -13.5z" />
    <glyph glyph-name="iogonek" unicode="&#x12f;" horiz-adv-x="258" 
d="M127 -234q-19 0 -36.5 5.5t-30.5 17.5t-21 30.5t-8 44.5q0 15 4.5 33.5t14 37t25 36.5t36.5 32v508h36v-511q-44 -26 -63 -64t-19 -72q0 -38 19.5 -53.5t42.5 -15.5q26 0 41 11.5t23 20.5l24 -17q-14 -17 -35 -30.5t-53 -13.5zM129 633q-12 0 -20.5 8.5t-8.5 20.5
q0 13 8.5 22t20.5 9q13 0 21 -9t8 -22q0 -12 -8 -20.5t-21 -8.5z" />
    <glyph glyph-name="Idotaccent" unicode="&#x130;" horiz-adv-x="266" 
d="M115 0v700h36v-700h-36zM133 796q-12 0 -20.5 8.5t-8.5 20.5q0 13 8.5 22t20.5 9q13 0 21 -9t8 -22q0 -12 -8 -20.5t-21 -8.5z" />
    <glyph glyph-name="IJ" unicode="&#x132;" horiz-adv-x="762" 
d="M115 0v700h36v-700h-36zM445 -12q-76 0 -117.5 31.5t-64.5 87.5l30 16q20 -45 55 -73t97 -28q28 0 58 8.5t55 31t41 61.5t16 100v477h36v-475q0 -72 -19.5 -118t-49.5 -72.5t-66.5 -36.5t-70.5 -10z" />
    <glyph glyph-name="ij" unicode="&#x133;" horiz-adv-x="481" 
d="M111 0v511h36v-511h-36zM129 633q-12 0 -20.5 8.5t-8.5 20.5q0 13 8.5 22t20.5 9q13 0 21 -9t8 -22q0 -12 -8 -20.5t-21 -8.5zM346 633q-12 0 -20.5 8.5t-8.5 20.5q0 13 8.5 22t20.5 9q13 0 21 -9t8 -22q0 -12 -8 -20.5t-21 -8.5zM365 -49q0 -47 -11.5 -77t-31.5 -48.5
t-46 -27t-54 -11.5l-18 31q64 5 94.5 34.5t30.5 96.5v562h36v-560z" />
    <glyph glyph-name="Jcircumflex" unicode="&#x134;" horiz-adv-x="542" 
d="M225 -12q-76 0 -117.5 31.5t-64.5 87.5l30 16q20 -45 55 -73t97 -28q28 0 58 8.5t55 31t41 61.5t16 100v477h36v-475q0 -72 -19.5 -118t-49.5 -72.5t-66.5 -36.5t-70.5 -10zM232 766l151 156h32l151 -156h-37l-130 120l-130 -120h-37z" />
    <glyph glyph-name="jcircumflex" unicode="&#x135;" horiz-adv-x="264" 
d="M148 -49q0 -47 -11.5 -77t-31.5 -48.5t-46 -27t-54 -11.5l-18 31q64 5 94.5 34.5t30.5 96.5v562h36v-560zM-37 576l151 156h32l151 -156h-37l-130 120l-130 -120h-37z" />
    <glyph glyph-name="Kcommaaccent" unicode="&#x136;" horiz-adv-x="629" 
d="M519 0l-235 431l-133 -167v-264h-36v700h36v-383l304 383h43l-189 -238l252 -462h-42zM311 -242q14 20 23.5 51.5t9.5 59.5q0 6 -0.5 9t-0.5 4q-14 0 -23 8t-9 21q0 14 8.5 22.5t20.5 8.5q14 0 23.5 -10t9.5 -36q0 -21 -5 -42.5t-12.5 -40t-17 -34t-18.5 -24.5z" />
    <glyph glyph-name="kcommaaccent" unicode="&#x137;" horiz-adv-x="513" 
d="M279 371l191 -371h-41l-176 343l-109 -116v-227h-36v704l36 18v-450l218 239h45zM247 -242q14 20 23.5 51.5t9.5 59.5q0 6 -0.5 9t-0.5 4q-14 0 -23 8t-9 21q0 14 8.5 22.5t20.5 8.5q14 0 23.5 -10t9.5 -36q0 -21 -5 -42.5t-12.5 -40t-17 -34t-18.5 -24.5z" />
    <glyph glyph-name="kgreenlandic" unicode="&#x138;" horiz-adv-x="526" 
d="M443 0l-157 294l-142 -179v-115h-36v511h36v-342l267 342h46l-147 -187l173 -324h-40z" />
    <glyph glyph-name="Lacute" unicode="&#x139;" horiz-adv-x="541" 
d="M115 0v700h36v-667h347v-33h-383zM105 766h-37l151 156h55z" />
    <glyph glyph-name="lacute" unicode="&#x13a;" horiz-adv-x="252" 
d="M108 0v704l36 18v-722h-36zM79 756h-37l151 156h55z" />
    <glyph glyph-name="Lcommaaccent" unicode="&#x13b;" horiz-adv-x="541" 
d="M115 0v700h36v-667h347v-33h-383zM276 -242q14 20 23.5 51.5t9.5 59.5q0 6 -0.5 9t-0.5 4q-14 0 -23 8t-9 21q0 14 8.5 22.5t20.5 8.5q14 0 23.5 -10t9.5 -36q0 -21 -5 -42.5t-12.5 -40t-17 -34t-18.5 -24.5z" />
    <glyph glyph-name="lcommaaccent" unicode="&#x13c;" horiz-adv-x="252" 
d="M108 0v704l36 18v-722h-36zM101 -242q14 20 23.5 51.5t9.5 59.5q0 6 -0.5 9t-0.5 4q-14 0 -23 8t-9 21q0 14 8.5 22.5t20.5 8.5q14 0 23.5 -10t9.5 -36q0 -21 -5 -42.5t-12.5 -40t-17 -34t-18.5 -24.5z" />
    <glyph glyph-name="Lcaron" unicode="&#x13d;" horiz-adv-x="541" 
d="M115 0v700h36v-667h347v-33h-383zM149 766h-32l-151 156h37l130 -120l130 120h37z" />
    <glyph glyph-name="lcaron" unicode="&#x13e;" horiz-adv-x="366" 
d="M108 0v704l36 18v-722h-36zM323 712v-18q0 -72 -15 -124.5t-41 -85.5l-10 8q14 29 22 85.5t8 134.5h36z" />
    <glyph glyph-name="Ldot" unicode="&#x13f;" horiz-adv-x="541" 
d="M115 0v700h36v-667h347v-33h-383zM401 301q-12 0 -20.5 8.5t-8.5 20.5q0 13 8.5 22t20.5 9q13 0 21 -9t8 -22q0 -12 -8 -20.5t-21 -8.5z" />
    <glyph glyph-name="ldot" unicode="&#x140;" horiz-adv-x="344" 
d="M108 0v704l36 18v-722h-36zM287 267q-12 0 -20.5 8.5t-8.5 20.5q0 13 8.5 22t20.5 9q13 0 21 -9t8 -22q0 -12 -8 -20.5t-21 -8.5z" />
    <glyph glyph-name="Nacute" unicode="&#x143;" horiz-adv-x="691" 
d="M541 0l-390 631v-631h-36v700h35l390 -631v631h36v-700h-35zM319 766h-37l151 156h55z" />
    <glyph glyph-name="nacute" unicode="&#x144;" horiz-adv-x="562" 
d="M144 419q10 28 27.5 48t38 32.5t43 18t42.5 5.5q81 0 122.5 -51.5t41.5 -159.5v-312h-36v319q0 93 -36 131.5t-95 38.5q-32 0 -59 -10t-46.5 -32.5t-31 -59t-11.5 -90.5v-297h-36v511h36v-92zM236 576h-37l151 156h55z" />
    <glyph glyph-name="Ncommaaccent" unicode="&#x145;" horiz-adv-x="691" 
d="M541 0l-390 631v-631h-36v700h35l390 -631v631h36v-700h-35zM319 -242q14 20 23.5 51.5t9.5 59.5q0 6 -0.5 9t-0.5 4q-14 0 -23 8t-9 21q0 14 8.5 22.5t20.5 8.5q14 0 23.5 -10t9.5 -36q0 -21 -5 -42.5t-12.5 -40t-17 -34t-18.5 -24.5z" />
    <glyph glyph-name="ncommaaccent" unicode="&#x146;" horiz-adv-x="562" 
d="M144 419q10 28 27.5 48t38 32.5t43 18t42.5 5.5q81 0 122.5 -51.5t41.5 -159.5v-312h-36v319q0 93 -36 131.5t-95 38.5q-32 0 -59 -10t-46.5 -32.5t-31 -59t-11.5 -90.5v-297h-36v511h36v-92zM264 -242q14 20 23.5 51.5t9.5 59.5q0 6 -0.5 9t-0.5 4q-14 0 -23 8t-9 21
q0 14 8.5 22.5t20.5 8.5q14 0 23.5 -10t9.5 -36q0 -21 -5 -42.5t-12.5 -40t-17 -34t-18.5 -24.5z" />
    <glyph glyph-name="Ncaron" unicode="&#x147;" horiz-adv-x="691" 
d="M541 0l-390 631v-631h-36v700h35l390 -631v631h36v-700h-35zM371 766h-32l-151 156h37l130 -120l130 120h37z" />
    <glyph glyph-name="ncaron" unicode="&#x148;" horiz-adv-x="562" 
d="M144 419q10 28 27.5 48t38 32.5t43 18t42.5 5.5q81 0 122.5 -51.5t41.5 -159.5v-312h-36v319q0 93 -36 131.5t-95 38.5q-32 0 -59 -10t-46.5 -32.5t-31 -59t-11.5 -90.5v-297h-36v511h36v-92zM321 576h-32l-151 156h37l130 -120l130 120h37z" />
    <glyph glyph-name="napostrophe" unicode="&#x149;" horiz-adv-x="738" 
d="M320 419q10 28 27.5 48t38 32.5t43 18t42.5 5.5q81 0 122.5 -51.5t41.5 -159.5v-312h-36v319q0 93 -36 131.5t-95 38.5q-32 0 -59 -10t-46.5 -32.5t-31 -59t-11.5 -90.5v-297h-36v511h36v-92zM77 528q14 20 23.5 51.5t9.5 59.5q0 6 -0.5 9t-0.5 4q-14 0 -23 8t-9 21
q0 14 8.5 22.5t20.5 8.5q14 0 23.5 -10t9.5 -36q0 -21 -5 -42.5t-12.5 -40t-17 -34t-18.5 -24.5z" />
    <glyph glyph-name="Eng" unicode="&#x14a;" horiz-adv-x="691" 
d="M415 -213q64 5 94.5 34.5t30.5 96.5v83l-389 630v-631h-36v700h35l390 -631v631h36v-780q0 -47 -11.5 -77t-31.5 -48.5t-46 -27t-54 -11.5z" />
    <glyph glyph-name="eng" unicode="&#x14b;" horiz-adv-x="562" 
d="M298 -182q64 5 94.5 34.5t30.5 96.5v370q0 93 -36 131.5t-95 38.5q-32 0 -59 -10t-46.5 -32.5t-31 -59t-11.5 -90.5v-297h-36v511h36v-92q10 28 27.5 48t38 32.5t43 18t42.5 5.5q81 0 122.5 -51.5t41.5 -159.5v-361q0 -47 -11.5 -77t-31.5 -48.5t-46 -27t-54 -11.5z" />
    <glyph glyph-name="Omacron" unicode="&#x14c;" horiz-adv-x="726" 
d="M363 24q65 0 110 29.5t72.5 76.5t39.5 105t12 115q0 62 -12 121t-39.5 104.5t-72.5 73t-110 27.5t-110 -29.5t-72.5 -76.5t-39.5 -105t-12 -115q0 -62 12 -121t39.5 -104.5t72.5 -73t110 -27.5zM363 -12q-75 0 -127 32t-84.5 84t-47 116.5t-14.5 129.5t14.5 129.5
t47 116.5t84.5 84t127 32t127 -32t84.5 -84t47 -116.5t14.5 -129.5t-14.5 -129.5t-47 -116.5t-84.5 -84t-127 -32zM199 813v33h330v-33h-330z" />
    <glyph glyph-name="omacron" unicode="&#x14d;" horiz-adv-x="550" 
d="M275 24q78 0 120.5 61t42.5 171q0 109 -41.5 170t-121.5 61t-121.5 -59.5t-41.5 -172.5q0 -109 41.5 -170t121.5 -61zM275 523q91 0 146.5 -69.5t55.5 -197.5q0 -63 -14.5 -113t-41 -84.5t-64 -52.5t-82.5 -18q-91 0 -146.5 69.5t-55.5 197.5q0 63 14.5 112.5t41 84
t64 53t82.5 18.5zM110 623v33h330v-33h-330z" />
    <glyph glyph-name="Obreve" unicode="&#x14e;" horiz-adv-x="726" 
d="M363 24q65 0 110 29.5t72.5 76.5t39.5 105t12 115q0 62 -12 121t-39.5 104.5t-72.5 73t-110 27.5t-110 -29.5t-72.5 -76.5t-39.5 -105t-12 -115q0 -62 12 -121t39.5 -104.5t72.5 -73t110 -27.5zM363 -12q-75 0 -127 32t-84.5 84t-47 116.5t-14.5 129.5t14.5 129.5
t47 116.5t84.5 84t127 32t127 -32t84.5 -84t47 -116.5t14.5 -129.5t-14.5 -129.5t-47 -116.5t-84.5 -84t-127 -32zM363 771q-44 0 -76 12.5t-52.5 34.5t-30.5 51.5t-10 62.5h34q0 -32 10.5 -56t29 -40t43 -24t52.5 -8t52.5 8t43 24t29 40t10.5 56h34q0 -33 -10 -62.5
t-30.5 -51.5t-52.5 -34.5t-76 -12.5z" />
    <glyph glyph-name="obreve" unicode="&#x14f;" horiz-adv-x="550" 
d="M275 24q78 0 120.5 61t42.5 171q0 109 -41.5 170t-121.5 61t-121.5 -59.5t-41.5 -172.5q0 -109 41.5 -170t121.5 -61zM275 523q91 0 146.5 -69.5t55.5 -197.5q0 -63 -14.5 -113t-41 -84.5t-64 -52.5t-82.5 -18q-91 0 -146.5 69.5t-55.5 197.5q0 63 14.5 112.5t41 84
t64 53t82.5 18.5zM275 581q-44 0 -76 12.5t-52.5 34.5t-30.5 51.5t-10 62.5h34q0 -32 10.5 -56t29 -40t43 -24t52.5 -8t52.5 8t43 24t29 40t10.5 56h34q0 -33 -10 -62.5t-30.5 -51.5t-52.5 -34.5t-76 -12.5z" />
    <glyph glyph-name="Ohungarumlaut" unicode="&#x150;" horiz-adv-x="726" 
d="M363 24q65 0 110 29.5t72.5 76.5t39.5 105t12 115q0 62 -12 121t-39.5 104.5t-72.5 73t-110 27.5t-110 -29.5t-72.5 -76.5t-39.5 -105t-12 -115q0 -62 12 -121t39.5 -104.5t72.5 -73t110 -27.5zM363 -12q-75 0 -127 32t-84.5 84t-47 116.5t-14.5 129.5t14.5 129.5
t47 116.5t84.5 84t127 32t127 -32t84.5 -84t47 -116.5t14.5 -129.5t-14.5 -129.5t-47 -116.5t-84.5 -84t-127 -32zM246 766h-37l151 156h55zM444 766h-37l151 156h55z" />
    <glyph glyph-name="ohungarumlaut" unicode="&#x151;" horiz-adv-x="550" 
d="M275 24q78 0 120.5 61t42.5 171q0 109 -41.5 170t-121.5 61t-121.5 -59.5t-41.5 -172.5q0 -109 41.5 -170t121.5 -61zM275 523q91 0 146.5 -69.5t55.5 -197.5q0 -63 -14.5 -113t-41 -84.5t-64 -52.5t-82.5 -18q-91 0 -146.5 69.5t-55.5 197.5q0 63 14.5 112.5t41 84
t64 53t82.5 18.5zM157 576h-37l151 156h55zM355 576h-37l151 156h55z" />
    <glyph glyph-name="Racute" unicode="&#x154;" horiz-adv-x="654" 
d="M556 517q0 -35 -10.5 -67.5t-33 -58t-57 -42t-82.5 -20.5l161 -329h-40l-159 329h-184v-329h-36v700h240q57 0 95.5 -16t62 -42t33.5 -58.5t10 -66.5zM355 362q46 0 77.5 14t50.5 36t27 49.5t8 55.5q0 24 -7.5 50.5t-26 48.5t-50 36.5t-79.5 14.5h-204v-305h204zM269 766
h-37l151 156h55z" />
    <glyph glyph-name="racute" unicode="&#x155;" horiz-adv-x="390" 
d="M108 0v511h36v-109q24 63 64.5 92t85.5 29q25 0 42 -6.5t26 -14.5l-6 -36q-10 6 -27 11.5t-40 5.5t-48.5 -10.5t-47 -34t-35.5 -62t-14 -93.5v-283h-36zM184 576h-37l151 156h55z" />
    <glyph glyph-name="Rcommaaccent" unicode="&#x156;" horiz-adv-x="654" 
d="M556 517q0 -35 -10.5 -67.5t-33 -58t-57 -42t-82.5 -20.5l161 -329h-40l-159 329h-184v-329h-36v700h240q57 0 95.5 -16t62 -42t33.5 -58.5t10 -66.5zM355 362q46 0 77.5 14t50.5 36t27 49.5t8 55.5q0 24 -7.5 50.5t-26 48.5t-50 36.5t-79.5 14.5h-204v-305h204z
M277 -242q14 20 23.5 51.5t9.5 59.5q0 6 -0.5 9t-0.5 4q-14 0 -23 8t-9 21q0 14 8.5 22.5t20.5 8.5q14 0 23.5 -10t9.5 -36q0 -21 -5 -42.5t-12.5 -40t-17 -34t-18.5 -24.5z" />
    <glyph glyph-name="rcommaaccent" unicode="&#x157;" horiz-adv-x="390" 
d="M108 0v511h36v-109q24 63 64.5 92t85.5 29q25 0 42 -6.5t26 -14.5l-6 -36q-10 6 -27 11.5t-40 5.5t-48.5 -10.5t-47 -34t-35.5 -62t-14 -93.5v-283h-36zM96 -262q14 20 23.5 51.5t9.5 59.5q0 6 -0.5 9t-0.5 4q-14 0 -23 8t-9 21q0 14 8.5 22.5t20.5 8.5q14 0 23.5 -10
t9.5 -36q0 -21 -5 -42.5t-12.5 -40t-17 -34t-18.5 -24.5z" />
    <glyph glyph-name="Rcaron" unicode="&#x158;" horiz-adv-x="654" 
d="M556 517q0 -35 -10.5 -67.5t-33 -58t-57 -42t-82.5 -20.5l161 -329h-40l-159 329h-184v-329h-36v700h240q57 0 95.5 -16t62 -42t33.5 -58.5t10 -66.5zM355 362q46 0 77.5 14t50.5 36t27 49.5t8 55.5q0 24 -7.5 50.5t-26 48.5t-50 36.5t-79.5 14.5h-204v-305h204zM319 766
h-32l-151 156h37l130 -120l130 120h37z" />
    <glyph glyph-name="rcaron" unicode="&#x159;" horiz-adv-x="390" 
d="M108 0v511h36v-109q24 63 64.5 92t85.5 29q25 0 42 -6.5t26 -14.5l-6 -36q-10 6 -27 11.5t-40 5.5t-48.5 -10.5t-47 -34t-35.5 -62t-14 -93.5v-283h-36zM248 576h-32l-151 156h37l130 -120l130 120h37z" />
    <glyph glyph-name="Sacute" unicode="&#x15a;" horiz-adv-x="600" 
d="M439 586q-18 44 -55 67.5t-94 23.5q-70 0 -109 -32t-39 -88q0 -34 15 -58.5t39 -43.5t55 -33.5t63 -27.5q33 -14 67 -32t61.5 -44t45 -61.5t17.5 -83.5q0 -44 -15 -78.5t-42 -58t-64.5 -36t-82.5 -12.5q-40 0 -75 12t-63 32t-49 46.5t-33 56.5l38 12q25 -56 72.5 -90
t110.5 -34q75 0 120 38t45 113q0 36 -14 64.5t-37.5 51t-54 39.5t-63.5 30q-35 14 -69.5 30.5t-62.5 40t-45 54.5t-17 75q0 33 12.5 61t36.5 48.5t59 32t81 11.5q33 0 62 -8t53 -23t41 -36.5t26 -47.5zM258 766h-37l151 156h55z" />
    <glyph glyph-name="sacute" unicode="&#x15b;" horiz-adv-x="467" 
d="M348 437q-21 20 -50.5 36t-70.5 16q-54 0 -83 -25t-29 -67q0 -25 10 -42t27.5 -30t40 -23t47.5 -20q33 -13 61 -26.5t48.5 -31.5t32.5 -43t12 -61q0 -59 -39 -95.5t-114 -36.5q-53 0 -93 22.5t-68 54.5l28 24q23 -26 56.5 -46.5t75.5 -20.5q54 0 85.5 24t31.5 74
q0 27 -12 47t-31.5 36t-44.5 28t-52 22q-63 23 -101 55t-38 89q0 54 39.5 90t110.5 36q43 0 81.5 -17t65.5 -46zM203 576h-37l151 156h55z" />
    <glyph glyph-name="Scircumflex" unicode="&#x15c;" horiz-adv-x="600" 
d="M439 586q-18 44 -55 67.5t-94 23.5q-70 0 -109 -32t-39 -88q0 -34 15 -58.5t39 -43.5t55 -33.5t63 -27.5q33 -14 67 -32t61.5 -44t45 -61.5t17.5 -83.5q0 -44 -15 -78.5t-42 -58t-64.5 -36t-82.5 -12.5q-40 0 -75 12t-63 32t-49 46.5t-33 56.5l38 12q25 -56 72.5 -90
t110.5 -34q75 0 120 38t45 113q0 36 -14 64.5t-37.5 51t-54 39.5t-63.5 30q-35 14 -69.5 30.5t-62.5 40t-45 54.5t-17 75q0 33 12.5 61t36.5 48.5t59 32t81 11.5q33 0 62 -8t53 -23t41 -36.5t26 -47.5zM127 766l151 156h32l151 -156h-37l-130 120l-130 -120h-37z" />
    <glyph glyph-name="scircumflex" unicode="&#x15d;" horiz-adv-x="467" 
d="M348 437q-21 20 -50.5 36t-70.5 16q-54 0 -83 -25t-29 -67q0 -25 10 -42t27.5 -30t40 -23t47.5 -20q33 -13 61 -26.5t48.5 -31.5t32.5 -43t12 -61q0 -59 -39 -95.5t-114 -36.5q-53 0 -93 22.5t-68 54.5l28 24q23 -26 56.5 -46.5t75.5 -20.5q54 0 85.5 24t31.5 74
q0 27 -12 47t-31.5 36t-44.5 28t-52 22q-63 23 -101 55t-38 89q0 54 39.5 90t110.5 36q43 0 81.5 -17t65.5 -46zM66 576l151 156h32l151 -156h-37l-130 120l-130 -120h-37z" />
    <glyph glyph-name="Scedilla" unicode="&#x15e;" horiz-adv-x="600" 
d="M288 -234q-23 0 -41 7.5t-30 20.5l25 18q8 -6 18.5 -11.5t26.5 -5.5q31 0 47.5 17.5t16.5 43.5t-18 43t-47 17q-22 0 -38 -8l-10 12l49 69q-38 2 -70.5 14.5t-58.5 32t-45.5 45t-31.5 54.5l38 13q25 -56 72.5 -90t110.5 -34q75 0 119.5 37.5t44.5 112.5q0 36 -14 64.5
t-37 51t-53.5 39.5t-63.5 30q-35 14 -69.5 30.5t-62.5 40t-45 54.5t-17 75q0 33 12.5 61t36.5 48.5t59 32t81 11.5q33 0 62 -8t53 -23t41 -36.5t26 -47.5l-36 -12q-18 44 -55 67.5t-94 23.5q-70 0 -108.5 -31.5t-38.5 -87.5q0 -34 14.5 -58.5t38.5 -43.5t55 -33.5t63 -27.5
q33 -14 67 -32t61.5 -44t45 -61.5t17.5 -83.5q0 -43 -14 -76.5t-39.5 -56.5t-60.5 -36t-77 -15l-27 -48q25 0 43.5 -7.5t30.5 -19.5t18 -27t6 -30q0 -38 -25.5 -64.5t-71.5 -26.5z" />
    <glyph glyph-name="scedilla" unicode="&#x15f;" horiz-adv-x="467" 
d="M348 437q-21 20 -50.5 36t-70.5 16q-54 0 -83 -25t-29 -67q0 -25 10 -42t27.5 -30t40 -23t47.5 -20q33 -13 61 -26.5t48.5 -31.5t32.5 -43t12 -61q0 -58 -38 -94t-110 -38l-27 -47q25 0 43.5 -7.5t30.5 -19.5t18 -27t6 -30q0 -38 -25.5 -64.5t-71.5 -26.5q-23 0 -41 7.5
t-30 20.5l25 18q8 -6 18.5 -11.5t26.5 -5.5q31 0 47.5 17.5t16.5 43.5t-18 43t-47 17q-22 0 -38 -8l-10 12l50 69q-45 5 -80 26t-60 50l28 24q23 -26 56.5 -46.5t75.5 -20.5q54 0 85.5 24t31.5 74q0 27 -12 47t-31.5 36t-44.5 28t-52 22q-63 23 -101 55t-38 89q0 54 39.5 90
t110.5 36q43 0 81.5 -17t65.5 -46z" />
    <glyph glyph-name="uni0162" unicode="&#x162;" horiz-adv-x="567" 
d="M262 -234q-23 0 -41 7.5t-30 20.5l25 18q8 -6 18.5 -11.5t26.5 -5.5q31 0 47.5 17.5t16.5 43.5t-18 43t-47 17q-22 0 -38 -8l-10 12l58 80h-5v667h-192v33h421v-33h-193v-667h-6l-34 -59q25 0 43.5 -7.5t30.5 -19.5t18 -27t6 -30q0 -38 -25.5 -64.5t-71.5 -26.5z" />
    <glyph glyph-name="uni0163" unicode="&#x163;" horiz-adv-x="371" 
d="M195 -234q-23 0 -41 7.5t-30 20.5l25 18q8 -6 18.5 -11.5t26.5 -5.5q31 0 47.5 17.5t16.5 43.5t-18 43t-47 17q-22 0 -38 -8l-10 12l52 72q-35 10 -48.5 40t-13.5 72v374h-87v33h87v193l36 18v-211h130v-33h-130v-369q0 -40 12 -63t50 -23q23 0 42.5 8t32.5 16l-4 -38
q-16 -10 -36.5 -15.5t-38.5 -5.5h-8l-27 -47q25 0 43.5 -7.5t30.5 -19.5t18 -27t6 -30q0 -38 -25.5 -64.5t-71.5 -26.5z" />
    <glyph glyph-name="Tcaron" unicode="&#x164;" horiz-adv-x="567" 
d="M301 667v-667h-36v667h-192v33h421v-33h-193zM299 766h-32l-151 156h37l130 -120l130 120h37z" />
    <glyph glyph-name="tcaron" unicode="&#x165;" horiz-adv-x="371" 
d="M229 -12q-53 0 -73.5 33t-20.5 83v374h-87v33h87v193l36 18v-211h130v-33h-130v-369q0 -40 12 -63t50 -23q23 0 42.5 8t32.5 16l-4 -38q-16 -10 -36.5 -15.5t-38.5 -5.5zM323 840v-18q0 -72 -15 -124.5t-41 -85.5l-10 8q14 29 22 85.5t8 134.5h36z" />
    <glyph glyph-name="Tbar" unicode="&#x166;" horiz-adv-x="567" 
d="M301 667v-334h145v-33h-145v-300h-36v300h-146v33h146v334h-192v33h421v-33h-193z" />
    <glyph glyph-name="tbar" unicode="&#x167;" horiz-adv-x="371" 
d="M171 253v-144q0 -40 12 -63t50 -23q23 0 42.5 8t32.5 16l-4 -38q-16 -10 -36.5 -15.5t-38.5 -5.5q-53 0 -73.5 33t-20.5 83v149h-87v33h87v192h-87v33h87v193l36 18v-211h130v-33h-130v-192h130v-33h-130z" />
    <glyph glyph-name="Utilde" unicode="&#x168;" 
d="M334 -12q-52 0 -93.5 14.5t-70 46t-44 81t-15.5 119.5v451h36v-449q0 -69 15.5 -113.5t41 -70t59.5 -35.5t71 -10t71 10t59.5 35.5t41 70t15.5 113.5v449h36v-451q0 -70 -15.5 -119.5t-44 -81t-70 -46t-93.5 -14.5zM414 792q-25 0 -46 12.5t-41 28t-39 28t-40 12.5
q-49 0 -52 -77h-27q0 48 21.5 79t64.5 31q25 0 46 -12.5t41 -28t39 -28t40 -12.5q49 0 52 77h27q0 -48 -21.5 -79t-64.5 -31z" />
    <glyph glyph-name="utilde" unicode="&#x169;" horiz-adv-x="562" 
d="M418 0v86q-13 -28 -30.5 -47t-37 -30t-41 -16t-41.5 -5q-81 0 -123 51.5t-42 159.5v312h36v-320q0 -93 36 -131.5t95 -38.5q31 0 58.5 10t47 33t31 59.5t11.5 90.5v297h36v-511h-36zM358 602q-25 0 -46 12.5t-41 28t-39 28t-40 12.5q-49 0 -52 -77h-27q0 48 21.5 79
t64.5 31q25 0 46 -12.5t41 -28t39 -28t40 -12.5q49 0 52 77h27q0 -48 -21.5 -79t-64.5 -31z" />
    <glyph glyph-name="Umacron" unicode="&#x16a;" 
d="M334 -12q-52 0 -93.5 14.5t-70 46t-44 81t-15.5 119.5v451h36v-449q0 -69 15.5 -113.5t41 -70t59.5 -35.5t71 -10t71 10t59.5 35.5t41 70t15.5 113.5v449h36v-451q0 -70 -15.5 -119.5t-44 -81t-70 -46t-93.5 -14.5zM169 813v33h330v-33h-330z" />
    <glyph glyph-name="umacron" unicode="&#x16b;" horiz-adv-x="562" 
d="M418 0v86q-13 -28 -30.5 -47t-37 -30t-41 -16t-41.5 -5q-81 0 -123 51.5t-42 159.5v312h36v-320q0 -93 36 -131.5t95 -38.5q31 0 58.5 10t47 33t31 59.5t11.5 90.5v297h36v-511h-36zM113 623v33h330v-33h-330z" />
    <glyph glyph-name="Ubreve" unicode="&#x16c;" 
d="M334 -12q-52 0 -93.5 14.5t-70 46t-44 81t-15.5 119.5v451h36v-449q0 -69 15.5 -113.5t41 -70t59.5 -35.5t71 -10t71 10t59.5 35.5t41 70t15.5 113.5v449h36v-451q0 -70 -15.5 -119.5t-44 -81t-70 -46t-93.5 -14.5zM334 771q-44 0 -76 12.5t-52.5 34.5t-30.5 51.5
t-10 62.5h34q0 -32 10.5 -56t29 -40t43 -24t52.5 -8t52.5 8t43 24t29 40t10.5 56h34q0 -33 -10 -62.5t-30.5 -51.5t-52.5 -34.5t-76 -12.5z" />
    <glyph glyph-name="ubreve" unicode="&#x16d;" horiz-adv-x="562" 
d="M418 0v86q-13 -28 -30.5 -47t-37 -30t-41 -16t-41.5 -5q-81 0 -123 51.5t-42 159.5v312h36v-320q0 -93 36 -131.5t95 -38.5q31 0 58.5 10t47 33t31 59.5t11.5 90.5v297h36v-511h-36zM278 581q-44 0 -76 12.5t-52.5 34.5t-30.5 51.5t-10 62.5h34q0 -32 10.5 -56t29 -40
t43 -24t52.5 -8t52.5 8t43 24t29 40t10.5 56h34q0 -33 -10 -62.5t-30.5 -51.5t-52.5 -34.5t-76 -12.5z" />
    <glyph glyph-name="Uring" unicode="&#x16e;" 
d="M334 -12q-52 0 -93.5 14.5t-70 46t-44 81t-15.5 119.5v451h36v-449q0 -69 15.5 -113.5t41 -70t59.5 -35.5t71 -10t71 10t59.5 35.5t41 70t15.5 113.5v449h36v-451q0 -70 -15.5 -119.5t-44 -81t-70 -46t-93.5 -14.5zM334 730q-24 0 -44.5 9t-36.5 24t-25 35.5t-9 43.5
t9 43.5t25 36t36.5 24.5t44.5 9t44.5 -9t36.5 -24.5t25 -36t9 -43.5t-9 -43.5t-25 -35.5t-36.5 -24t-44.5 -9zM333 761q34 0 58 23t24 58t-24 58.5t-58 23.5q-32 0 -56 -23.5t-24 -58.5q0 -17 6.5 -32t17.5 -26t25.5 -17t30.5 -6z" />
    <glyph glyph-name="uring" unicode="&#x16f;" horiz-adv-x="562" 
d="M418 0v86q-13 -28 -30.5 -47t-37 -30t-41 -16t-41.5 -5q-81 0 -123 51.5t-42 159.5v312h36v-320q0 -93 36 -131.5t95 -38.5q31 0 58.5 10t47 33t31 59.5t11.5 90.5v297h36v-511h-36zM278 540q-24 0 -44.5 9t-36.5 24t-25 35.5t-9 43.5t9 43.5t25 36t36.5 24.5t44.5 9
t44.5 -9t36.5 -24.5t25 -36t9 -43.5t-9 -43.5t-25 -35.5t-36.5 -24t-44.5 -9zM277 571q34 0 58 23t24 58t-24 58.5t-58 23.5q-32 0 -56 -23.5t-24 -58.5q0 -17 6.5 -32t17.5 -26t25.5 -17t30.5 -6z" />
    <glyph glyph-name="Uhungarumlaut" unicode="&#x170;" 
d="M334 -12q-52 0 -93.5 14.5t-70 46t-44 81t-15.5 119.5v451h36v-449q0 -69 15.5 -113.5t41 -70t59.5 -35.5t71 -10t71 10t59.5 35.5t41 70t15.5 113.5v449h36v-451q0 -70 -15.5 -119.5t-44 -81t-70 -46t-93.5 -14.5zM211 766h-37l151 156h55zM409 766h-37l151 156h55z" />
    <glyph glyph-name="uhungarumlaut" unicode="&#x171;" horiz-adv-x="562" 
d="M418 0v86q-13 -28 -30.5 -47t-37 -30t-41 -16t-41.5 -5q-81 0 -123 51.5t-42 159.5v312h36v-320q0 -93 36 -131.5t95 -38.5q31 0 58.5 10t47 33t31 59.5t11.5 90.5v297h36v-511h-36zM162 576h-37l151 156h55zM360 576h-37l151 156h55z" />
    <glyph glyph-name="Uogonek" unicode="&#x172;" 
d="M358 -234q-19 0 -36.5 5.5t-30.5 17.5t-21 30.5t-8 44.5q0 37 23 69t64 55h-15q-52 0 -93.5 14.5t-70 46t-44 81t-15.5 119.5v451h36v-449q0 -69 15.5 -113.5t41 -70t59.5 -35.5t71 -10t71 10t59.5 35.5t41 70t15.5 113.5v449h36v-451q0 -59 -10.5 -102.5t-30 -74
t-48.5 -50t-65 -31.5q-54 -17 -80.5 -52t-26.5 -75q0 -38 19.5 -53.5t42.5 -15.5q26 0 41 11.5t23 20.5l24 -17q-14 -17 -35 -30.5t-53 -13.5z" />
    <glyph glyph-name="uogonek" unicode="&#x173;" horiz-adv-x="562" 
d="M403 -234q-19 0 -36.5 5.5t-30.5 17.5t-21 30.5t-8 44.5q0 23 9 44t24.5 38t35.5 31t42 23v86q-13 -28 -30.5 -47t-37 -30t-41 -16t-41.5 -5q-81 0 -123 51.5t-42 159.5v312h36v-320q0 -93 36 -131.5t95 -38.5q31 0 58.5 10t47 33t31 59.5t11.5 90.5v297h36v-511
q-113 -50 -113 -136q0 -38 19.5 -53.5t42.5 -15.5q26 0 41 11.5t23 20.5l24 -17q-14 -17 -35 -30.5t-53 -13.5z" />
    <glyph glyph-name="Wcircumflex" unicode="&#x174;" horiz-adv-x="842" 
d="M774 700l-170 -700h-30l-153 612l-153 -612h-30l-170 700h39l147 -610l152 610h30l152 -610l147 610h39zM261 766l151 156h32l151 -156h-37l-130 120l-130 -120h-37z" />
    <glyph glyph-name="wcircumflex" unicode="&#x175;" horiz-adv-x="708" 
d="M520 0h-26l-140 443l-140 -443h-26l-130 511h36l110 -443l137 443h26l137 -443l110 443h36zM186 576l151 156h32l151 -156h-37l-130 120l-130 -120h-37z" />
    <glyph glyph-name="Ycircumflex" unicode="&#x176;" horiz-adv-x="610" 
d="M287 0v277l-228 423h39l207 -386l207 386h39l-228 -423v-277h-36zM139 766l151 156h32l151 -156h-37l-130 120l-130 -120h-37z" />
    <glyph glyph-name="ycircumflex" unicode="&#x177;" horiz-adv-x="515" 
d="M237 12l-184 499h36l166 -452l166 452h36l-260 -705h-36zM85 576l151 156h32l151 -156h-37l-130 120l-130 -120h-37z" />
    <glyph glyph-name="Zacute" unicode="&#x179;" horiz-adv-x="605" 
d="M72 0v19l413 648h-390v33h438v-21l-409 -646h409v-33h-461zM271 766h-37l151 156h55z" />
    <glyph glyph-name="zacute" unicode="&#x17a;" horiz-adv-x="505" 
d="M73 0v22l306 456h-286v33h334v-21l-307 -457h306v-33h-353zM211 576h-37l151 156h55z" />
    <glyph glyph-name="Zdotaccent" unicode="&#x17b;" horiz-adv-x="605" 
d="M72 0v19l413 648h-390v33h438v-21l-409 -646h409v-33h-461zM307 796q-12 0 -20.5 8.5t-8.5 20.5q0 13 8.5 22t20.5 9q13 0 21 -9t8 -22q0 -12 -8 -20.5t-21 -8.5z" />
    <glyph glyph-name="zdotaccent" unicode="&#x17c;" horiz-adv-x="505" 
d="M73 0v22l306 456h-286v33h334v-21l-307 -457h306v-33h-353zM257 606q-12 0 -20.5 8.5t-8.5 20.5q0 13 8.5 22t20.5 9q13 0 21 -9t8 -22q0 -12 -8 -20.5t-21 -8.5z" />
    <glyph glyph-name="longs" unicode="&#x17f;" horiz-adv-x="310" 
d="M108 0v603q0 109 98 109q16 0 32 -4.5t29 -11.5v-32q-14 6 -27.5 10.5t-33.5 4.5q-35 0 -48.5 -19t-13.5 -61v-599h-36z" />
    <glyph glyph-name="uni01CD" unicode="&#x1cd;" 
d="M552 0l-70 197h-297l-67 -197h-37l240 700h24l242 -700h-35zM473 227l-104 302l-6.5 20l-10 30.5l-10.5 33t-8 27.5l-8 -28t-11 -34l-11 -30.5t-6 -18.5l-104 -302h279zM347 766h-32l-151 156h37l130 -120l130 120h37z" />
    <glyph glyph-name="uni01CE" unicode="&#x1ce;" horiz-adv-x="527" 
d="M403 0v80q-30 -42 -72.5 -67t-89.5 -25q-75 0 -119 42.5t-44 123.5q0 42 14 72.5t37.5 50.5t55.5 29.5t68 9.5q41 0 78 -13t72 -36v76q0 45 -10.5 74t-27.5 45t-40 22t-47 6q-42 0 -83 -15.5t-71 -33.5l-11 31q29 17 72 34t96 17q27 0 55 -7t51 -25t37.5 -50t14.5 -83
v-358h-36zM241 21q28 0 52 9t44 23.5t36.5 32.5t29.5 36v111q-29 20 -67.5 35t-82.5 15q-26 0 -50.5 -8t-43.5 -23.5t-30.5 -40t-11.5 -57.5q0 -60 33.5 -96.5t90.5 -36.5zM299 576h-32l-151 156h37l130 -120l130 120h37z" />
    <glyph glyph-name="uni01CF" unicode="&#x1cf;" horiz-adv-x="266" 
d="M115 0v700h36v-700h-36zM149 766h-32l-151 156h37l130 -120l130 120h37z" />
    <glyph glyph-name="uni01D0" unicode="&#x1d0;" horiz-adv-x="258" 
d="M111 0v511h36v-511h-36zM145 576h-32l-151 156h37l130 -120l130 120h37z" />
    <glyph glyph-name="uni01D1" unicode="&#x1d1;" horiz-adv-x="726" 
d="M363 24q65 0 110 29.5t72.5 76.5t39.5 105t12 115q0 62 -12 121t-39.5 104.5t-72.5 73t-110 27.5t-110 -29.5t-72.5 -76.5t-39.5 -105t-12 -115q0 -62 12 -121t39.5 -104.5t72.5 -73t110 -27.5zM363 -12q-75 0 -127 32t-84.5 84t-47 116.5t-14.5 129.5t14.5 129.5
t47 116.5t84.5 84t127 32t127 -32t84.5 -84t47 -116.5t14.5 -129.5t-14.5 -129.5t-47 -116.5t-84.5 -84t-127 -32zM379 766h-32l-151 156h37l130 -120l130 120h37z" />
    <glyph glyph-name="uni01D2" unicode="&#x1d2;" horiz-adv-x="550" 
d="M275 24q78 0 120.5 61t42.5 171q0 109 -41.5 170t-121.5 61t-121.5 -59.5t-41.5 -172.5q0 -109 41.5 -170t121.5 -61zM275 523q91 0 146.5 -69.5t55.5 -197.5q0 -63 -14.5 -113t-41 -84.5t-64 -52.5t-82.5 -18q-91 0 -146.5 69.5t-55.5 197.5q0 63 14.5 112.5t41 84
t64 53t82.5 18.5zM291 576h-32l-151 156h37l130 -120l130 120h37z" />
    <glyph glyph-name="uni01D3" unicode="&#x1d3;" 
d="M334 -12q-52 0 -93.5 14.5t-70 46t-44 81t-15.5 119.5v451h36v-449q0 -69 15.5 -113.5t41 -70t59.5 -35.5t71 -10t71 10t59.5 35.5t41 70t15.5 113.5v449h36v-451q0 -70 -15.5 -119.5t-44 -81t-70 -46t-93.5 -14.5zM350 766h-32l-151 156h37l130 -120l130 120h37z" />
    <glyph glyph-name="uni01D4" unicode="&#x1d4;" horiz-adv-x="562" 
d="M418 0v86q-13 -28 -30.5 -47t-37 -30t-41 -16t-41.5 -5q-81 0 -123 51.5t-42 159.5v312h36v-320q0 -93 36 -131.5t95 -38.5q31 0 58.5 10t47 33t31 59.5t11.5 90.5v297h36v-511h-36zM294 576h-32l-151 156h37l130 -120l130 120h37z" />
    <glyph glyph-name="AEacute" unicode="&#x1fc;" horiz-adv-x="859" 
d="M411 0v197h-249l-113 -197h-41l404 700h335v-33h-300v-288h193v-33h-193v-313h322v-33h-358zM411 227v407l-233 -407h233zM510 766h-37l151 156h55z" />
    <glyph glyph-name="aeacute" unicode="&#x1fd;" horiz-adv-x="856" 
d="M442 245q4 -116 48 -168.5t121 -52.5q29 0 60.5 10t59.5 33l21 -26q-27 -23 -64.5 -38t-79.5 -15q-64 0 -109.5 31.5t-69.5 89.5q-42 -67 -93 -94t-95 -27q-75 0 -119 42.5t-44 123.5q0 42 14 72.5t37.5 50.5t55.5 29.5t68 9.5q41 0 78 -13t72 -36v76q0 45 -10.5 74
t-27.5 45t-40 22t-47 6q-42 0 -83 -15.5t-71 -33.5l-11 31q29 17 72 34t96 17q23 0 47.5 -5t46.5 -18.5t37.5 -38t20.5 -62.5q23 63 70 93.5t105 30.5q41 0 75 -15.5t58.5 -48t38 -83t13.5 -120.5v-11h-351zM241 21q57 0 101 36t74 88q-10 35 -13 84v4q-29 20 -67.5 35
t-82.5 15q-26 0 -50.5 -8t-43.5 -23.5t-30.5 -40t-11.5 -57.5q0 -60 33.5 -96.5t90.5 -36.5zM608 490q-34 0 -63 -12t-51 -37.5t-35.5 -65.5t-16.5 -97h313q0 66 -14.5 107t-36.5 64.5t-47.5 32t-48.5 8.5zM407 576h-37l151 156h55z" />
    <glyph glyph-name="Oslashacute" unicode="&#x1fe;" horiz-adv-x="726" 
d="M561 616q40 -54 57.5 -124t17.5 -142q0 -65 -14.5 -129.5t-47 -116.5t-84.5 -84t-127 -32q-57 0 -100 18.5t-75 50.5l-46 -69h-41l64 96q-40 53 -57.5 123.5t-17.5 142.5q0 65 14.5 129.5t47 116.5t84.5 84t127 32q57 0 99.5 -18.5t74.5 -50.5l47 69h41zM363 24
q65 0 110 29.5t72.5 76.5t40 105t12.5 115q0 66 -13.5 127t-44.5 107l-332 -497q27 -29 65.5 -46t89.5 -17zM128 350q0 -66 13 -127t45 -108l331 497q-27 29 -65 46.5t-89 17.5q-65 0 -110 -29.5t-73 -76.5t-40 -105t-12 -115zM343 766h-37l151 156h55z" />
    <glyph glyph-name="oslashacute" unicode="&#x1ff;" horiz-adv-x="550" 
d="M427 445q24 -34 37 -81.5t13 -107.5q0 -63 -14.5 -113t-41 -84.5t-64 -52.5t-82.5 -18q-78 0 -130 50l-35 -50h-42l54 78q-23 34 -36 81.5t-13 107.5q0 63 14.5 112.5t41 84t64 53t82.5 18.5q77 0 130 -51l35 51h42zM112 255q0 -99 33 -156l239 343q-42 45 -109 45
q-80 0 -121.5 -59.5t-41.5 -172.5zM275 24q78 0 120.5 61t42.5 171q0 48 -8 87.5t-25 68.5l-238 -343q40 -45 108 -45zM261 576h-37l151 156h55z" />
    <glyph glyph-name="uni0218" unicode="&#x218;" horiz-adv-x="600" 
d="M439 586q-18 44 -55 67.5t-94 23.5q-70 0 -109 -32t-39 -88q0 -34 15 -58.5t39 -43.5t55 -33.5t63 -27.5q33 -14 67 -32t61.5 -44t45 -61.5t17.5 -83.5q0 -44 -15 -78.5t-42 -58t-64.5 -36t-82.5 -12.5q-40 0 -75 12t-63 32t-49 46.5t-33 56.5l38 12q25 -56 72.5 -90
t110.5 -34q75 0 120 38t45 113q0 36 -14 64.5t-37.5 51t-54 39.5t-63.5 30q-35 14 -69.5 30.5t-62.5 40t-45 54.5t-17 75q0 33 12.5 61t36.5 48.5t59 32t81 11.5q33 0 62 -8t53 -23t41 -36.5t26 -47.5zM269 -242q14 20 23.5 51.5t9.5 59.5q0 6 -0.5 9t-0.5 4q-14 0 -23 8
t-9 21q0 14 8.5 22.5t20.5 8.5q14 0 23.5 -10t9.5 -36q0 -21 -5 -42.5t-12.5 -40t-17 -34t-18.5 -24.5z" />
    <glyph glyph-name="uni0219" unicode="&#x219;" horiz-adv-x="467" 
d="M348 437q-21 20 -50.5 36t-70.5 16q-54 0 -83 -25t-29 -67q0 -25 10 -42t27.5 -30t40 -23t47.5 -20q33 -13 61 -26.5t48.5 -31.5t32.5 -43t12 -61q0 -59 -39 -95.5t-114 -36.5q-53 0 -93 22.5t-68 54.5l28 24q23 -26 56.5 -46.5t75.5 -20.5q54 0 85.5 24t31.5 74
q0 27 -12 47t-31.5 36t-44.5 28t-52 22q-63 23 -101 55t-38 89q0 54 39.5 90t110.5 36q43 0 81.5 -17t65.5 -46zM209 -242q14 20 23.5 51.5t9.5 59.5q0 6 -0.5 9t-0.5 4q-14 0 -23 8t-9 21q0 14 8.5 22.5t20.5 8.5q14 0 23.5 -10t9.5 -36q0 -21 -5 -42.5t-12.5 -40t-17 -34
t-18.5 -24.5z" />
    <glyph glyph-name="uni021A" unicode="&#x21a;" horiz-adv-x="567" 
d="M301 667v-667h-36v667h-192v33h421v-33h-193zM255 -242q14 20 23.5 51.5t9.5 59.5q0 6 -0.5 9t-0.5 4q-14 0 -23 8t-9 21q0 14 8.5 22.5t20.5 8.5q14 0 23.5 -10t9.5 -36q0 -21 -5 -42.5t-12.5 -40t-17 -34t-18.5 -24.5z" />
    <glyph glyph-name="uni021B" unicode="&#x21b;" horiz-adv-x="371" 
d="M229 -12q-53 0 -73.5 33t-20.5 83v374h-87v33h87v193l36 18v-211h130v-33h-130v-369q0 -40 12 -63t50 -23q23 0 42.5 8t32.5 16l-4 -38q-16 -10 -36.5 -15.5t-38.5 -5.5zM185 -242q14 20 23.5 51.5t9.5 59.5q0 6 -0.5 9t-0.5 4q-14 0 -23 8t-9 21q0 14 8.5 22.5t20.5 8.5
q14 0 23.5 -10t9.5 -36q0 -21 -5 -42.5t-12.5 -40t-17 -34t-18.5 -24.5z" />
    <glyph glyph-name="dotlessj" unicode="&#x237;" horiz-adv-x="264" 
d="M148 -49q0 -47 -11.5 -77t-31.5 -48.5t-46 -27t-54 -11.5l-18 31q64 5 94.5 34.5t30.5 96.5v562h36v-560z" />
    <glyph glyph-name="firsttonechinese" unicode="&#x2c9;" horiz-adv-x="341" 
d="M7 623v33h330v-33h-330z" />
    <glyph glyph-name="uni03BC" unicode="&#x3bc;" horiz-adv-x="562" 
d="M418 0v86q-20 -46 -58.5 -72t-91.5 -26q-43 0 -76 15t-53 47v-231l-36 -19v711h36v-320q0 -53 11.5 -86t30 -51.5t42 -25.5t47.5 -7q31 0 58 10t47 32.5t31.5 59.5t11.5 91v297h36v-511h-36z" />
    <glyph glyph-name="Wgrave" unicode="&#x1e80;" horiz-adv-x="842" 
d="M774 700l-170 -700h-30l-153 612l-153 -612h-30l-170 700h39l147 -610l152 610h30l152 -610l147 610h39zM443 766l-169 156h55l151 -156h-37z" />
    <glyph glyph-name="wgrave" unicode="&#x1e81;" horiz-adv-x="708" 
d="M520 0h-26l-140 443l-140 -443h-26l-130 511h36l110 -443l137 443h26l137 -443l110 443h36zM368 576l-169 156h55l151 -156h-37z" />
    <glyph glyph-name="Wacute" unicode="&#x1e82;" horiz-adv-x="842" 
d="M774 700l-170 -700h-30l-153 612l-153 -612h-30l-170 700h39l147 -610l152 610h30l152 -610l147 610h39zM412 766h-37l151 156h55z" />
    <glyph glyph-name="wacute" unicode="&#x1e83;" horiz-adv-x="708" 
d="M520 0h-26l-140 443l-140 -443h-26l-130 511h36l110 -443l137 443h26l137 -443l110 443h36zM337 576h-37l151 156h55z" />
    <glyph glyph-name="Wdieresis" unicode="&#x1e84;" horiz-adv-x="842" 
d="M774 700l-170 -700h-30l-153 612l-153 -612h-30l-170 700h39l147 -610l152 610h30l152 -610l147 610h39zM345 796q-12 0 -20.5 8.5t-8.5 20.5q0 13 8.5 22t20.5 9q13 0 21 -9t8 -22q0 -12 -8 -20.5t-21 -8.5zM511 796q-12 0 -20.5 8.5t-8.5 20.5q0 13 8.5 22t20.5 9
q13 0 21 -9t8 -22q0 -12 -8 -20.5t-21 -8.5z" />
    <glyph glyph-name="wdieresis" unicode="&#x1e85;" horiz-adv-x="708" 
d="M520 0h-26l-140 443l-140 -443h-26l-130 511h36l110 -443l137 443h26l137 -443l110 443h36zM270 606q-12 0 -20.5 8.5t-8.5 20.5q0 13 8.5 22t20.5 9q13 0 21 -9t8 -22q0 -12 -8 -20.5t-21 -8.5zM436 606q-12 0 -20.5 8.5t-8.5 20.5q0 13 8.5 22t20.5 9q13 0 21 -9t8 -22
q0 -12 -8 -20.5t-21 -8.5z" />
    <glyph glyph-name="Ygrave" unicode="&#x1ef2;" horiz-adv-x="610" 
d="M287 0v277l-228 423h39l207 -386l207 386h39l-228 -423v-277h-36zM325 766l-169 156h55l151 -156h-37z" />
    <glyph glyph-name="ygrave" unicode="&#x1ef3;" horiz-adv-x="515" 
d="M237 12l-184 499h36l166 -452l166 452h36l-260 -705h-36zM272 576l-169 156h55l151 -156h-37z" />
    <glyph glyph-name="afii00208" unicode="&#x2015;" horiz-adv-x="611" 
d="M13 269v36h585v-36h-585z" />
    <glyph glyph-name="quotereversed" unicode="&#x201b;" horiz-adv-x="212" 
d="M126 525q-9 9 -18.5 24.5t-17 34t-12.5 40t-5 42.5q0 26 9.5 36t23.5 10q12 0 20.5 -8.5t8.5 -22.5q0 -13 -9 -21t-23 -8q0 -3 -0.5 -6t-0.5 -7q0 -28 9.5 -59.5t23.5 -51.5z" />
    <glyph glyph-name="minute" unicode="&#x2032;" horiz-adv-x="201" 
d="M88 730h45l-29 -305h-36z" />
    <glyph glyph-name="second" unicode="&#x2033;" horiz-adv-x="366" 
d="M88 730h45l-29 -305h-36zM253 730h45l-29 -305h-36z" />
    <glyph glyph-name="nsuperior" unicode="&#x207f;" horiz-adv-x="465" 
d="M339 283v235q0 46 -6.5 77t-19 49.5t-31 26.5t-42.5 8q-46 0 -77 -37.5t-31 -119.5v-239h-37v419h37v-72q15 38 44.5 60t67.5 22q31 0 55.5 -10t41 -33t25.5 -59.5t9 -90.5v-236h-36z" />
    <glyph glyph-name="afii08941" unicode="&#x20a4;" horiz-adv-x="595" 
d="M248 251q-2 -69 -30 -123t-76 -95h400v-33h-434v40q57 49 78.5 100.5t23.5 110.5h-102v33h100q-2 24 -8.5 46t-14.5 44h-77v33h64q-11 29 -19.5 58t-8.5 61q0 36 12.5 69.5t38 59.5t64 41.5t91.5 15.5q55 0 99.5 -14.5t76.5 -39.5l-15 -33q-23 20 -62 36t-99 16
q-45 0 -76.5 -13.5t-52 -34.5t-30 -48t-9.5 -54q0 -32 9 -61t21 -59h190v-33h-177q8 -21 13.5 -43.5t7.5 -46.5h156v-33h-154z" />
    <glyph glyph-name="afii61248" unicode="&#x2105;" horiz-adv-x="963" 
d="M223 272q-74 0 -117.5 57t-43.5 163q0 104 43.5 162t117.5 58q46 0 80.5 -22.5t54.5 -64.5l-36 -14q-32 64 -99 64q-56 0 -89 -48t-33 -135q0 -88 33 -135.5t89 -47.5q70 0 102 71l37 -14q-20 -46 -55.5 -70t-83.5 -24zM725 -12q-80 0 -127.5 57t-47.5 163
q0 104 47.5 162t127.5 58q81 0 128.5 -58t47.5 -162q0 -106 -47.5 -163t-128.5 -57zM725 25q63 0 100 47.5t37 135.5q0 87 -37 135t-100 48q-62 0 -99 -48t-37 -135q0 -88 37 -135.5t99 -47.5zM206 -12l478 724h43l-478 -724h-43z" />
    <glyph glyph-name="afii61289" unicode="&#x2113;" horiz-adv-x="459" 
d="M258 -12q-38 0 -62.5 22t-24.5 81v185q-6 -4 -17 -10t-21.5 -11l-19 -9l-10.5 -5l-10 23q20 9 38.5 19t39.5 25v224q0 51 8 85.5t22 55.5t33.5 30t42.5 9q20 0 38 -8.5t32 -25.5t22.5 -43t8.5 -61q0 -54 -17.5 -97.5t-43.5 -77.5t-55.5 -59.5t-54.5 -44.5v-199
q0 -45 15 -60t38 -15t44.5 11t35.5 25l11 -25q-17 -17 -41 -30.5t-52 -13.5zM277 679q-17 0 -30 -7t-22 -24.5t-13.5 -47.5t-4.5 -77v-192q76 59 105.5 116.5t29.5 122.5q0 22 -4.5 41.5t-12.5 34.5t-20 24t-28 9z" />
    <glyph glyph-name="afii61352" unicode="&#x2116;" horiz-adv-x="1156" 
d="M715 140v36h331v-36h-331zM541 0l-390 631v-631h-36v700h35l390 -631v631h36v-700h-35zM880 272q-80 0 -127.5 57t-47.5 163q0 104 47.5 162t127.5 58q81 0 128.5 -58t47.5 -162q0 -106 -47.5 -163t-128.5 -57zM880 309q63 0 100 47.5t37 135.5q0 87 -37 135t-100 48
q-62 0 -99 -48t-37 -135q0 -88 37 -135.5t99 -47.5z" />
    <glyph glyph-name="Ohm" unicode="&#x2126;" horiz-adv-x="744" 
d="M441 0v42q43 34 74.5 76t51.5 87t30 92t10 93q0 50 -12 101t-40 92t-73 67t-111 26q-65 0 -110 -26t-73 -67t-40.5 -92t-12.5 -101q0 -46 9.5 -93t29.5 -92t51.5 -87t75.5 -76v-42h-213v36h176q-77 57 -122.5 147.5t-45.5 206.5q0 56 14.5 113.5t47 104t85 75.5t128.5 29
q77 0 129.5 -29t85 -75.5t46.5 -104t14 -113.5q0 -116 -46 -206.5t-122 -147.5h176v-36h-213z" />
    <glyph glyph-name="estimated" unicode="&#x212e;" horiz-adv-x="816" 
d="M413 -12q-71 0 -133.5 25.5t-109.5 72.5t-74.5 114t-27.5 150q0 92 29 160.5t77.5 114t111.5 68t130 22.5q64 0 122.5 -23t103.5 -69t73.5 -114t32.5 -159h-535v-251q40 -38 93.5 -56.5t106.5 -18.5q48 0 86.5 10.5t70 30.5t57 47.5t48.5 62.5l31 -19q-26 -38 -54.5 -69
t-64 -53t-78 -34t-96.5 -12zM608 604q-32 31 -81 53t-111 22q-61 0 -115 -19.5t-88 -51.5v-222h395v218z" />
    <glyph glyph-name="onethird" unicode="&#x2153;" horiz-adv-x="724" 
d="M30 -12l478 724h43l-478 -724h-43zM97 283v334h-56v22q38 2 51.5 18t18.5 48h24v-422h-38zM430 94q16 -33 40 -51.5t66 -18.5q43 0 70.5 22t27.5 63q0 38 -22.5 63.5t-65.5 25.5h-31v36h21q37 0 59 25.5t22 57.5t-19.5 54t-59.5 22q-35 0 -57.5 -17.5t-36.5 -46.5l-34 14
q17 40 50 63t78 23q51 0 84 -29t33 -83q0 -30 -16 -58t-47 -40q36 -8 58 -36.5t22 -73.5q0 -28 -11 -50.5t-29.5 -38t-43 -24t-52.5 -8.5q-54 0 -88 25.5t-53 67.5z" />
    <glyph glyph-name="twothirds" unicode="&#x2154;" horiz-adv-x="881" 
d="M187 -12l478 724h43l-478 -724h-43zM52 614q11 40 44 69t86 29q56 0 91 -32t35 -89q0 -55 -26.5 -87.5t-79.5 -63.5q-51 -29 -75 -56.5t-32 -60.5h211v-40h-254q0 37 11.5 65.5t29.5 51t42 40t50 33.5q42 25 63.5 50.5t21.5 67.5q0 15 -5 30t-15.5 27t-27.5 20t-40 8
q-43 0 -65 -21t-32 -54zM587 94q16 -33 40 -51.5t66 -18.5q43 0 70.5 22t27.5 63q0 38 -22.5 63.5t-65.5 25.5h-31v36h21q37 0 59 25.5t22 57.5t-19.5 54t-59.5 22q-35 0 -57.5 -17.5t-36.5 -46.5l-34 14q17 40 50 63t78 23q51 0 84 -29t33 -83q0 -30 -16 -58t-47 -40
q36 -8 58 -36.5t22 -73.5q0 -28 -11 -50.5t-29.5 -38t-43 -24t-52.5 -8.5q-54 0 -88 25.5t-53 67.5z" />
    <glyph glyph-name="oneeighth" unicode="&#x215b;" horiz-adv-x="716" 
d="M30 -12l478 724h43l-478 -724h-43zM97 283v334h-56v22q38 2 51.5 18t18.5 48h24v-422h-38zM524 -12q-58 0 -94 35.5t-36 90.5q0 47 22.5 76t55.5 41q-27 11 -43 35.5t-16 53.5q0 48 31.5 78.5t79.5 30.5t79.5 -30.5t31.5 -78.5q0 -29 -16 -53.5t-43 -35.5
q33 -12 55.5 -41t22.5 -76q0 -55 -36 -90.5t-94 -35.5zM524 23q38 0 65 24t27 72q0 37 -25 65t-67 28t-67 -28t-25 -65q0 -48 27 -72t65 -24zM524 246q35 0 55 20.5t20 52.5q0 34 -20 54.5t-55 20.5t-55 -20.5t-20 -54.5q0 -32 20 -52.5t55 -20.5z" />
    <glyph glyph-name="threeeighths" unicode="&#x215c;" horiz-adv-x="861" 
d="M173 -12l478 724h43l-478 -724h-43zM79 377q16 -33 40 -51.5t66 -18.5q43 0 70.5 22t27.5 63q0 38 -22.5 63.5t-65.5 25.5h-31v36h21q37 0 59 25.5t22 57.5t-19.5 54t-59.5 22q-35 0 -57.5 -17.5t-36.5 -46.5l-34 14q17 40 50 63t78 23q51 0 84 -29t33 -83q0 -30 -16 -58
t-47 -40q36 -8 58 -36.5t22 -73.5q0 -28 -11 -50.5t-29.5 -38t-43 -24t-52.5 -8.5q-54 0 -88 25.5t-53 67.5zM668 -12q-58 0 -94 35.5t-36 90.5q0 47 22.5 76t55.5 41q-27 11 -43 35.5t-16 53.5q0 48 31.5 78.5t79.5 30.5t79.5 -30.5t31.5 -78.5q0 -29 -16 -53.5t-43 -35.5
q33 -12 55.5 -41t22.5 -76q0 -55 -36 -90.5t-94 -35.5zM668 23q38 0 65 24t27 72q0 37 -25 65t-67 28t-67 -28t-25 -65q0 -48 27 -72t65 -24zM668 246q35 0 55 20.5t20 52.5q0 34 -20 54.5t-55 20.5t-55 -20.5t-20 -54.5q0 -32 20 -52.5t55 -20.5z" />
    <glyph glyph-name="fiveeighths" unicode="&#x215d;" horiz-adv-x="844" 
d="M157 -12l478 724h43l-478 -724h-43zM68 346q18 -16 44 -28t53 -12q53 0 80.5 30.5t27.5 75.5q0 43 -23.5 72.5t-68.5 29.5q-38 0 -61.5 -14t-37.5 -29l-27 8l34 221h192v-38h-165l-22 -145q21 17 44 24.5t45 7.5q58 0 93 -37.5t35 -99.5q0 -30 -10.5 -56t-29.5 -45
t-46 -29.5t-60 -10.5q-41 0 -72.5 15t-47.5 31zM651 -12q-58 0 -94 35.5t-36 90.5q0 47 22.5 76t55.5 41q-27 11 -43 35.5t-16 53.5q0 48 31.5 78.5t79.5 30.5t79.5 -30.5t31.5 -78.5q0 -29 -16 -53.5t-43 -35.5q33 -12 55.5 -41t22.5 -76q0 -55 -36 -90.5t-94 -35.5z
M651 23q38 0 65 24t27 72q0 37 -25 65t-67 28t-67 -28t-25 -65q0 -48 27 -72t65 -24zM651 246q35 0 55 20.5t20 52.5q0 34 -20 54.5t-55 20.5t-55 -20.5t-20 -54.5q0 -32 20 -52.5t55 -20.5z" />
    <glyph glyph-name="seveneighths" unicode="&#x215e;" horiz-adv-x="753" 
d="M65 -12l478 724h43l-478 -724h-43zM112 283q1 63 11.5 117t28.5 100.5t42.5 87t52.5 76.5h-215v36h250v-45q-38 -43 -62.5 -91.5t-39.5 -97t-21.5 -96t-7.5 -87.5h-39zM561 -12q-58 0 -94 35.5t-36 90.5q0 47 22.5 76t55.5 41q-27 11 -43 35.5t-16 53.5q0 48 31.5 78.5
t79.5 30.5t79.5 -30.5t31.5 -78.5q0 -29 -16 -53.5t-43 -35.5q33 -12 55.5 -41t22.5 -76q0 -55 -36 -90.5t-94 -35.5zM561 23q38 0 65 24t27 72q0 37 -25 65t-67 28t-67 -28t-25 -65q0 -48 27 -72t65 -24zM561 246q35 0 55 20.5t20 52.5q0 34 -20 54.5t-55 20.5t-55 -20.5
t-20 -54.5q0 -32 20 -52.5t55 -20.5z" />
    <glyph glyph-name="divisionslash" unicode="&#x2215;" horiz-adv-x="331" 
d="M-95 -12l478 724h43l-478 -724h-43z" />
    <glyph glyph-name="bulletoperator" unicode="&#x2219;" horiz-adv-x="212" 
d="M106 320q-12 0 -20.5 8.5t-8.5 20.5q0 13 8.5 22t20.5 9q13 0 21 -9t8 -22q0 -12 -8 -20.5t-21 -8.5z" />
    <glyph glyph-name="dottedcircle" unicode="&#x25cc;" horiz-adv-x="680" 
d="M73 359q0 14 9 22.5t23 8.5t22 -8.5t8 -22.5t-8 -22t-22 -8t-23 8t-9 22zM545 359q0 14 8 22.5t22 8.5q13 0 22.5 -8.5t9.5 -22.5t-9.5 -22t-22.5 -8q-14 0 -22 8t-8 22zM310 124q0 14 8 22.5t22 8.5t22 -8.5t8 -22.5t-8 -22.5t-22 -8.5t-22 8.5t-8 22.5zM310 594
q0 14 8 23t22 9t22 -9t8 -23t-8 -22t-22 -8t-22 8t-8 22zM476 526q0 14 8 22t22 8t22.5 -8t8.5 -22t-8.5 -22.5t-22.5 -8.5t-22 8.5t-8 22.5zM143 526q0 14 8.5 22t22.5 8t22 -8t8 -22t-8 -22.5t-22 -8.5t-22.5 8.5t-8.5 22.5zM476 193q0 14 8 22.5t22 8.5t22.5 -8.5
t8.5 -22.5t-8.5 -22t-22.5 -8t-22 8t-8 22zM143 193q0 14 8.5 22.5t22.5 8.5t22 -8.5t8 -22.5t-8 -22t-22 -8t-22.5 8t-8.5 22zM92 269q0 14 8.5 22.5t22.5 8.5q13 0 21.5 -8.5t8.5 -22.5t-8.5 -22.5t-21.5 -8.5q-14 0 -22.5 9t-8.5 22zM527 449q0 13 8.5 22.5t21.5 9.5
q14 0 22.5 -9.5t8.5 -22.5t-8.5 -21.5t-22.5 -8.5q-13 0 -21.5 8.5t-8.5 21.5zM400 142q0 14 8.5 22.5t21.5 8.5q14 0 22.5 -8.5t8.5 -22.5t-8.5 -22.5t-22.5 -8.5q-13 0 -21.5 8.5t-8.5 22.5zM219 576q0 14 8.5 23t22.5 9q13 0 21.5 -9t8.5 -23q0 -13 -8.5 -21.5
t-21.5 -8.5q-14 0 -22.5 8.5t-8.5 21.5zM399 576q0 14 9 22.5t21 8.5q14 0 23 -8.5t9 -22.5q0 -13 -9 -21.5t-23 -8.5t-22 8.5t-8 21.5zM92 449q0 14 8.5 22.5t22.5 8.5t22.5 -8.5t8.5 -22.5q0 -13 -9.5 -22t-21.5 -9q-14 0 -22.5 9t-8.5 22zM526 270q0 13 9 21.5t22 8.5
q14 0 22.5 -8.5t8.5 -21.5q0 -14 -8.5 -22.5t-22.5 -8.5t-22.5 8.5t-8.5 22.5zM219 143q0 13 9 21.5t23 8.5q13 0 21.5 -8.5t8.5 -21.5q0 -14 -9.5 -23t-20.5 -9q-14 0 -23 9t-9 23z" />
    <glyph glyph-name="zero.denominator" unicode="&#xe10a;" horiz-adv-x="395" 
d="M197 -7q-39 0 -64.5 19.5t-41 51t-21.5 70.5t-6 77q0 36 6 74.5t21 70.5t41 52.5t65 20.5t65 -19.5t41.5 -51t21.5 -70.5t6 -77q0 -36 -6 -75t-21 -70.5t-41 -52t-66 -20.5zM197 29q30 0 48.5 18t29 45t14.5 59t4 60q0 31 -4 63.5t-14.5 58.5t-29.5 43t-48 17
q-30 0 -48.5 -18t-29 -45t-14 -59t-3.5 -60q0 -32 4 -64t14.5 -58.5t29 -43t47.5 -16.5z" />
    <glyph glyph-name="one.denominator" unicode="&#xe10b;" horiz-adv-x="204" 
d="M87 0v334h-56v22q38 2 51.5 18t18.5 48h24v-422h-38z" />
    <glyph glyph-name="two.denominator" unicode="&#xe10c;" horiz-adv-x="373" 
d="M52 331q11 40 44 69t86 29q56 0 91 -32t35 -89q0 -55 -26.5 -87.5t-79.5 -63.5q-51 -29 -75 -56.5t-32 -60.5h211v-40h-254q0 37 11.5 65.5t29.5 51t42 40t50 33.5q42 25 63.5 50.5t21.5 67.5q0 15 -5 30t-15.5 27t-27.5 20t-40 8q-43 0 -65 -21t-32 -54z" />
    <glyph glyph-name="three.denominator" unicode="&#xe10d;" horiz-adv-x="386" 
d="M80 94q16 -33 40 -51.5t66 -18.5q43 0 70.5 22t27.5 63q0 38 -22.5 63.5t-65.5 25.5h-31v36h21q37 0 59 25.5t22 57.5t-19.5 54t-59.5 22q-35 0 -57.5 -17.5t-36.5 -46.5l-34 14q17 40 50 63t78 23q51 0 84 -29t33 -83q0 -30 -16 -58t-47 -40q36 -8 58 -36.5t22 -73.5
q0 -28 -11 -50.5t-29.5 -38t-43 -24t-52.5 -8.5q-54 0 -88 25.5t-53 67.5z" />
    <glyph glyph-name="four.denominator" unicode="&#xe10e;" horiz-adv-x="389" 
d="M245 0v117h-212v20l219 286h31v-270h56v-36h-56v-117h-38zM245 153v207l-159 -207h159z" />
    <glyph glyph-name="five.denominator" unicode="&#xe10f;" horiz-adv-x="374" 
d="M77 63q18 -16 44 -28t53 -12q53 0 80.5 30.5t27.5 75.5q0 43 -23.5 72.5t-68.5 29.5q-38 0 -61.5 -14t-37.5 -29l-27 8l34 221h192v-38h-165l-22 -145q21 17 44 24.5t45 7.5q58 0 93 -37.5t35 -99.5q0 -30 -10.5 -56t-29.5 -45t-46 -29.5t-60 -10.5q-41 0 -72.5 15
t-47.5 31z" />
    <glyph glyph-name="six.denominator" unicode="&#xe110;" horiz-adv-x="372" 
d="M195 -12q-66 0 -99.5 42t-33.5 108q0 55 15 101t41.5 83t63.5 63.5t81 41.5v-29q-24 -9 -48 -25.5t-45 -39.5t-37 -54.5t-25 -70.5q14 21 39.5 33t54.5 12q30 0 52.5 -10.5t37.5 -29t23 -43t8 -52.5q0 -26 -9 -49.5t-25.5 -41.5t-40.5 -28.5t-53 -10.5zM195 24
q39 0 64.5 25t25.5 67q0 48 -23.5 74.5t-64.5 26.5q-42 0 -68.5 -29t-26.5 -71q0 -45 25.5 -69t67.5 -24z" />
    <glyph glyph-name="seven.denominator" unicode="&#xe111;" horiz-adv-x="319" 
d="M112 0q1 63 11.5 117t28.5 100.5t42.5 87t52.5 76.5h-215v36h250v-45q-38 -43 -62.5 -91.5t-39.5 -97t-21.5 -96t-7.5 -87.5h-39z" />
    <glyph glyph-name="eight.denominator" unicode="&#xe112;" horiz-adv-x="388" 
d="M194 -12q-58 0 -94 35.5t-36 90.5q0 47 22.5 76t55.5 41q-27 11 -43 35.5t-16 53.5q0 48 31.5 78.5t79.5 30.5t79.5 -30.5t31.5 -78.5q0 -29 -16 -53.5t-43 -35.5q33 -12 55.5 -41t22.5 -76q0 -55 -36 -90.5t-94 -35.5zM194 23q38 0 65 24t27 72q0 37 -25 65t-67 28
t-67 -28t-25 -65q0 -48 27 -72t65 -24zM194 246q35 0 55 20.5t20 52.5q0 34 -20 54.5t-55 20.5t-55 -20.5t-20 -54.5q0 -32 20 -52.5t55 -20.5z" />
    <glyph glyph-name="nine.denominator" unicode="&#xe113;" horiz-adv-x="372" 
d="M182 429q33 0 57 -12.5t39.5 -34t23.5 -50.5t8 -62q0 -50 -15.5 -95.5t-43 -83t-64 -64t-78.5 -37.5v35q24 8 48.5 24t45.5 39.5t37 53t22 64.5q-16 -20 -37.5 -31.5t-53.5 -11.5q-27 0 -49 11t-37 29t-23 41.5t-8 48.5q0 28 9 52.5t26 43t40.5 29.5t52.5 11zM182 393
q-38 0 -64 -27.5t-26 -72.5q0 -42 23.5 -68t58.5 -26q45 0 70.5 27.5t25.5 70.5q0 45 -25 70.5t-63 25.5z" />
    <glyph glyph-name="zero.numerator" unicode="&#xe11e;" horiz-adv-x="395" 
d="M197 276q-39 0 -64.5 19.5t-41 51t-21.5 70.5t-6 77q0 36 6 74.5t21 70.5t41 52.5t65 20.5t65 -19.5t41.5 -51t21.5 -70.5t6 -77q0 -36 -6 -75t-21 -70.5t-41 -52t-66 -20.5zM197 312q30 0 48.5 18t29 45t14.5 59t4 60q0 31 -4 63.5t-14.5 58.5t-29.5 43t-48 17
q-30 0 -48.5 -18t-29 -45t-14 -59t-3.5 -60q0 -32 4 -64t14.5 -58.5t29 -43t47.5 -16.5z" />
    <glyph glyph-name="one.numerator" unicode="&#xe11f;" horiz-adv-x="204" 
d="M87 283v334h-56v22q38 2 51.5 18t18.5 48h24v-422h-38z" />
    <glyph glyph-name="two.numerator" unicode="&#xe120;" horiz-adv-x="373" 
d="M52 614q11 40 44 69t86 29q56 0 91 -32t35 -89q0 -55 -26.5 -87.5t-79.5 -63.5q-51 -29 -75 -56.5t-32 -60.5h211v-40h-254q0 37 11.5 65.5t29.5 51t42 40t50 33.5q42 25 63.5 50.5t21.5 67.5q0 15 -5 30t-15.5 27t-27.5 20t-40 8q-43 0 -65 -21t-32 -54z" />
    <glyph glyph-name="three.numerator" unicode="&#xe121;" horiz-adv-x="386" 
d="M80 377q16 -33 40 -51.5t66 -18.5q43 0 70.5 22t27.5 63q0 38 -22.5 63.5t-65.5 25.5h-31v36h21q37 0 59 25.5t22 57.5t-19.5 54t-59.5 22q-35 0 -57.5 -17.5t-36.5 -46.5l-34 14q17 40 50 63t78 23q51 0 84 -29t33 -83q0 -30 -16 -58t-47 -40q36 -8 58 -36.5t22 -73.5
q0 -28 -11 -50.5t-29.5 -38t-43 -24t-52.5 -8.5q-54 0 -88 25.5t-53 67.5z" />
    <glyph glyph-name="four.numerator" unicode="&#xe122;" horiz-adv-x="389" 
d="M245 283v117h-212v20l219 286h31v-270h56v-36h-56v-117h-38zM245 436v207l-159 -207h159z" />
    <glyph glyph-name="five.numerator" unicode="&#xe123;" horiz-adv-x="374" 
d="M77 346q18 -16 44 -28t53 -12q53 0 80.5 30.5t27.5 75.5q0 43 -23.5 72.5t-68.5 29.5q-38 0 -61.5 -14t-37.5 -29l-27 8l34 221h192v-38h-165l-22 -145q21 17 44 24.5t45 7.5q58 0 93 -37.5t35 -99.5q0 -30 -10.5 -56t-29.5 -45t-46 -29.5t-60 -10.5q-41 0 -72.5 15
t-47.5 31z" />
    <glyph glyph-name="six.numerator" unicode="&#xe124;" horiz-adv-x="372" 
d="M195 271q-66 0 -99.5 42t-33.5 108q0 55 15 101t41.5 83t63.5 63.5t81 41.5v-29q-24 -9 -48 -25.5t-45 -39.5t-37 -54.5t-25 -70.5q14 21 39.5 33t54.5 12q30 0 52.5 -10.5t37.5 -29t23 -43t8 -52.5q0 -26 -9 -49.5t-25.5 -41.5t-40.5 -28.5t-53 -10.5zM195 307
q39 0 64.5 25t25.5 67q0 48 -23.5 74.5t-64.5 26.5q-42 0 -68.5 -29t-26.5 -71q0 -45 25.5 -69t67.5 -24z" />
    <glyph glyph-name="seven.numerator" unicode="&#xe125;" horiz-adv-x="319" 
d="M112 283q1 63 11.5 117t28.5 100.5t42.5 87t52.5 76.5h-215v36h250v-45q-38 -43 -62.5 -91.5t-39.5 -97t-21.5 -96t-7.5 -87.5h-39z" />
    <glyph glyph-name="eight.numerator" unicode="&#xe126;" horiz-adv-x="388" 
d="M194 271q-58 0 -94 35.5t-36 90.5q0 47 22.5 76t55.5 41q-27 11 -43 35.5t-16 53.5q0 48 31.5 78.5t79.5 30.5t79.5 -30.5t31.5 -78.5q0 -29 -16 -53.5t-43 -35.5q33 -12 55.5 -41t22.5 -76q0 -55 -36 -90.5t-94 -35.5zM194 306q38 0 65 24t27 72q0 37 -25 65t-67 28
t-67 -28t-25 -65q0 -48 27 -72t65 -24zM194 529q35 0 55 20.5t20 52.5q0 34 -20 54.5t-55 20.5t-55 -20.5t-20 -54.5q0 -32 20 -52.5t55 -20.5z" />
    <glyph glyph-name="nine.numerator" unicode="&#xe127;" horiz-adv-x="372" 
d="M182 712q33 0 57 -12.5t39.5 -34t23.5 -50.5t8 -62q0 -50 -15.5 -95.5t-43 -83t-64 -64t-78.5 -37.5v35q24 8 48.5 24t45.5 39.5t37 53t22 64.5q-16 -20 -37.5 -31.5t-53.5 -11.5q-27 0 -49 11t-37 29t-23 41.5t-8 48.5q0 28 9 52.5t26 43t40.5 29.5t52.5 11zM182 676
q-38 0 -64 -27.5t-26 -72.5q0 -42 23.5 -68t58.5 -26q45 0 70.5 27.5t25.5 70.5q0 45 -25 70.5t-63 25.5z" />
    <glyph glyph-name="undercommaaccent" unicode="&#xf005;" horiz-adv-x="341" 
d="M144 -242q14 20 23.5 51.5t9.5 59.5q0 6 -0.5 9t-0.5 4q-14 0 -23 8t-9 21q0 14 8.5 22.5t20.5 8.5q14 0 23.5 -10t9.5 -36q0 -21 -5 -42.5t-12.5 -40t-17 -34t-18.5 -24.5z" />
    <glyph glyph-name="commaaccent" unicode="&#xf6c3;" horiz-adv-x="341" 
d="M186 730v-18q0 -72 -15 -124.5t-41 -85.5l-10 8q14 29 22 85.5t8 134.5h36z" />
    <glyph glyph-name="mugreek" horiz-adv-x="562" 
d="M418 0v86q-20 -46 -58.5 -72t-91.5 -26q-43 0 -76 15t-53 47v-231l-36 -19v711h36v-320q0 -53 11.5 -86t30 -51.5t42 -25.5t47.5 -7q31 0 58 10t47 32.5t31.5 59.5t11.5 91v297h36v-511h-36z" />
    <glyph glyph-name="nonbreakingspace" horiz-adv-x="230" 
 />
    <glyph glyph-name="i.dot" horiz-adv-x="258" 
d="M111 0v511h36v-511h-36zM129 633q-12 0 -20.5 8.5t-8.5 20.5q0 13 8.5 22t20.5 9q13 0 21 -9t8 -22q0 -12 -8 -20.5t-21 -8.5z" />
    <glyph glyph-name="Eth" unicode="&#xd0;" horiz-adv-x="675" 
d="M115 331h-70v36h70v333h160q87 0 146.5 -30.5t95.5 -80t52 -112t16 -127.5q0 -60 -14.5 -122.5t-50.5 -113t-96.5 -82.5t-152.5 -32h-156v331zM271 36q81 0 134 29t84.5 74t44 101t12.5 110q0 58 -14 114.5t-45.5 100.5t-83.5 71.5t-128 27.5h-124v-297h175v-36h-175
v-295h120z" />
    </font>
</defs>
</svg>
