<?xml version="1.0" standalone="no"?>
<!DOCTYPE svg PUBLIC "-//W3C//DTD SVG 1.1//EN" "http://www.w3.org/Graphics/SVG/1.1/DTD/svg11.dtd" >
<svg>
<metadata>
Created by FontForge 20090622 at Fri Oct  7 10:18:02 2016
 By deploy user
Copyright (c) 2014 by Red Hat, Inc. All rights reserved.
</metadata>
<defs>
<font id="Overpass-Light" horiz-adv-x="560" >
  <font-face 
    font-family="Overpass"
    font-weight="300"
    font-stretch="normal"
    units-per-em="1000"
    panose-1="2 11 3 6 3 2 3 2 2 4"
    ascent="750"
    descent="-250"
    x-height="511"
    cap-height="700"
    bbox="-111 -264 1211 955"
    underline-thickness="20"
    underline-position="-113"
    unicode-range="U+0020-U+FB02"
  />
<missing-glyph horiz-adv-x="230" 
 />
    <glyph glyph-name="fi" unicode="fi" horiz-adv-x="586" 
d="M177 448v-448h-70v448h-82v63h82v87q0 31 9 53t24 35.5t34 19.5t39 6q29 0 49.5 -7.5t37.5 -16.5v-61q-16 8 -33.5 14t-39.5 6q-18 0 -28.5 -5.5t-15 -14t-5.5 -19.5t-1 -21v-76h123v-63h-123zM425 0v511h70v-511h-70zM460 616q-20 0 -33 13t-13 33t13 34t33 14t33 -14
t13 -34t-13 -33t-33 -13z" />
    <glyph glyph-name="fl" unicode="fl" horiz-adv-x="590" 
d="M177 448v-448h-70v448h-82v63h82v87q0 31 9 53t24 35.5t34 19.5t39 6q29 0 49.5 -7.5t37.5 -16.5v-61q-16 8 -33.5 14t-39.5 6q-18 0 -28.5 -5.5t-15 -14t-5.5 -19.5t-1 -21v-76h123v-63h-123zM425 0v688l70 34v-722h-70z" />
    <glyph glyph-name=".notdef" horiz-adv-x="230" 
 />
    <glyph glyph-name="Eth" unicode="&#xd0;" horiz-adv-x="678" 
d="M105 318h-70v62h70v320h186q89 0 149.5 -30.5t98 -80t53.5 -112t16 -127.5q0 -60 -14.5 -122.5t-51.5 -113t-99 -82.5t-156 -32h-182v318zM292 63q70 0 117 25.5t75 67t39.5 92.5t11.5 102q0 54 -13 106t-41 92t-72 64.5t-106 24.5h-128v-257h155v-62h-155v-255h117z" />
    <glyph glyph-name="eth" unicode="&#xf0;" horiz-adv-x="548" 
d="M339 638q69 -54 111.5 -145.5t42.5 -223.5q0 -133 -56.5 -207t-162.5 -74q-50 0 -90.5 17.5t-69 48.5t-44 74t-15.5 93q0 53 16.5 96.5t46 74t69.5 47.5t87 17q31 0 55 -7.5t42 -20t30.5 -28t20.5 -31.5q-8 66 -38 125.5t-84 101.5l-66 -70l-33 34l58 63
q-26 14 -57.5 23.5t-67.5 12.5v53q43 -4 86 -15.5t78 -31.5l57 62l35 -35zM274 393q-30 0 -57 -13t-46.5 -35.5t-31 -54.5t-11.5 -69q0 -36 11.5 -67.5t31.5 -54t46.5 -35.5t56.5 -13t57 13t46.5 35.5t31 53.5t11.5 67t-11 68t-30.5 55t-46.5 36.5t-58 13.5z" />
    <glyph glyph-name="Lslash" unicode="&#x141;" horiz-adv-x="562" 
d="M105 0v272l-75 -55v76l75 56v351h70v-291l108 82v-77l-108 -84v-263h347v-67h-417z" />
    <glyph glyph-name="lslash" unicode="&#x142;" horiz-adv-x="261" 
d="M96 0v276l-66 -52v59l66 52v353l70 34v-335l65 50v-59l-65 -50v-328h-70z" />
    <glyph glyph-name="Scaron" unicode="&#x160;" horiz-adv-x="594" 
d="M420 579q-13 28 -46.5 49t-86.5 21q-62 0 -96.5 -27t-34.5 -72q0 -28 13.5 -48.5t36 -37t51.5 -29.5t60 -25q36 -14 72 -33t65 -46t47 -63.5t18 -85.5q0 -47 -16.5 -83t-45.5 -60.5t-70 -37.5t-89 -13q-44 0 -82 11.5t-68 31t-51.5 45t-31.5 54.5l66 24
q21 -46 64.5 -74.5t103.5 -28.5q69 0 108.5 33t39.5 96q0 32 -13 57.5t-35 45t-50.5 34t-59.5 26.5q-37 14 -73.5 31.5t-66 42t-47.5 56.5t-18 76q0 33 14 63t40.5 52t64.5 35t87 13q77 0 129 -31.5t66 -79.5zM331 766h-80l-141 156h65l116 -101l116 101h65z" />
    <glyph glyph-name="scaron" unicode="&#x161;" horiz-adv-x="463" 
d="M345 406q-20 20 -50 37.5t-72 17.5q-45 0 -71 -18t-26 -49q0 -20 10 -34t26 -25.5t37 -20.5l44 -18q28 -11 57.5 -24.5t52.5 -32.5t38 -45.5t15 -65.5q0 -64 -46 -102t-126 -38q-52 0 -98 25.5t-78 63.5l49 43q23 -28 58 -49t75 -21q42 0 71 19t29 55q0 23 -11 40.5
t-29 30.5t-41 23.5t-46 19.5q-30 12 -58 26t-49 32t-33.5 41.5t-12.5 55.5q0 29 12.5 53t34 41t52 26.5t66.5 9.5q52 0 93.5 -20.5t72.5 -57.5zM267 576h-80l-141 156h65l116 -101l116 101h65z" />
    <glyph glyph-name="Yacute" unicode="&#xdd;" horiz-adv-x="616" 
d="M274 0v275l-229 425h77l186 -360l191 360h72l-227 -422v-278h-70zM288 766h-71l142 156h107z" />
    <glyph glyph-name="yacute" unicode="&#xfd;" horiz-adv-x="511" 
d="M217 16l-187 495h71l146 -412l149 412h75l-261 -705h-69zM197 576h-71l142 156h107z" />
    <glyph glyph-name="Thorn" unicode="&#xde;" horiz-adv-x="622" 
d="M105 0v700h70v-139h186q63 0 105 -17.5t68 -46.5t37 -66t11 -76q0 -35 -12 -71.5t-38 -66t-68 -48.5t-103 -19h-186v-150h-70zM367 213q41 0 69.5 13t46 33t25 45.5t7.5 50.5q0 22 -6.5 47t-23.5 46.5t-45.5 35.5t-72.5 14h-192v-285h192z" />
    <glyph glyph-name="thorn" unicode="&#xfe;" horiz-adv-x="566" 
d="M300 -12q-54 0 -86 19t-54 45v-220l-70 -35v881l70 34v-247q26 23 57 40.5t83 17.5q49 0 88 -19t66.5 -54t42 -84.5t14.5 -109.5q0 -64 -15.5 -113.5t-43.5 -84t-67 -52.5t-85 -18zM292 51q71 0 108.5 53.5t37.5 151.5q0 94 -39 149t-107 55q-42 0 -76.5 -20.5
t-55.5 -58.5v-251q26 -34 58 -56.5t74 -22.5z" />
    <glyph glyph-name="Zcaron" unicode="&#x17d;" horiz-adv-x="637" 
d="M70 0v49l408 585h-385v66h474v-51l-403 -583h403v-66h-497zM394 766h-80l-141 156h65l116 -101l116 101h65z" />
    <glyph glyph-name="zcaron" unicode="&#x17e;" horiz-adv-x="499" 
d="M70 0v43l261 405h-241v63h334v-42l-263 -406h262v-63h-353zM285 576h-80l-141 156h65l116 -101l116 101h65z" />
    <glyph glyph-name="onehalf" unicode="&#xbd;" horiz-adv-x="723" 
d="M14 -12l478 724h69l-478 -724h-69zM82 283v324h-47v43q28 0 43 15t23 40h42v-422h-61zM394 329q11 43 46.5 71.5t96.5 28.5q57 0 95 -33t38 -91q0 -54 -29 -88.5t-88 -70.5q-39 -24 -61.5 -44t-33.5 -47h211v-55h-276q0 40 10.5 68.5t30 51.5t46.5 42.5l60 41.5
q32 21 50 44t18 62q0 10 -4 22.5t-13.5 22.5t-24.5 17t-37 7q-69 0 -84 -71z" />
    <glyph glyph-name="onequarter" unicode="&#xbc;" horiz-adv-x="674" 
d="M14 -12l478 724h69l-478 -724h-69zM82 283v324h-47v43q28 0 43 15t23 40h42v-422h-61zM522 0v108h-210v30l224 285h47v-260h52v-55h-52v-108h-61zM522 163v172l-129 -172h129z" />
    <glyph glyph-name="onesuperior" unicode="&#xb9;" horiz-adv-x="200" 
d="M72 444v324h-47v43q28 0 43 15t23 40h41v-422h-60z" />
    <glyph glyph-name="threequarters" unicode="&#xbe;" horiz-adv-x="818" 
d="M157 -12l478 724h69l-478 -724h-69zM89 397q15 -36 39 -56t58 -20q38 0 58.5 21t20.5 53q0 14 -5 28t-14 25t-22 18t-29 7h-34v50h22q35 0 50 21.5t15 48.5q0 26 -16.5 47.5t-51.5 21.5q-29 0 -51 -18.5t-34 -45.5l-53 18q17 41 54.5 68.5t87.5 27.5q56 0 92 -29.5
t36 -83.5q0 -27 -15 -53.5t-42 -38.5q32 -11 53 -37.5t21 -66.5q0 -63 -40 -97.5t-103 -34.5q-57 0 -95 28.5t-57 74.5zM665 0v108h-210v30l224 285h47v-260h52v-55h-52v-108h-61zM665 163v172l-129 -172h129z" />
    <glyph glyph-name="threesuperior" unicode="&#xb3;" horiz-adv-x="367" 
d="M89 560q15 -36 39 -56t58 -20q38 0 58.5 20.5t20.5 52.5q0 29 -18.5 53t-51.5 24h-34v50h22q35 0 50 21.5t15 48.5q0 26 -16.5 47.5t-51.5 21.5q-29 0 -51 -18.5t-34 -45.5l-53 18q17 41 54.5 68.5t87.5 27.5q56 0 92 -29.5t36 -83.5q0 -27 -15 -53.5t-42 -38.5
q32 -11 53 -37t21 -66q0 -63 -40 -97t-103 -34q-57 0 -95 28.5t-57 74.5z" />
    <glyph glyph-name="twosuperior" unicode="&#xb2;" horiz-adv-x="370" 
d="M41 773q11 43 46.5 71.5t96.5 28.5q57 0 95 -33t38 -91q0 -54 -29 -88.5t-88 -70.5q-39 -24 -61.5 -45t-33.5 -48h211v-53h-276q0 40 10.5 68.5t30 51.5t46.5 42.5l60 41.5q32 21 50 44t18 62q0 10 -4 22t-13.5 22.5t-24.5 17t-37 6.5q-69 0 -84 -70z" />
    <glyph glyph-name="brokenbar" unicode="&#xa6;" horiz-adv-x="270" 
d="M100 393v327h70v-327h-70zM100 -120v325h70v-325h-70z" />
    <glyph glyph-name="minus" unicode="&#x2212;" horiz-adv-x="660" 
d="M95 308v68h470v-68h-470z" />
    <glyph glyph-name="multiply" unicode="&#xd7;" horiz-adv-x="660" 
d="M331 293l-171 -172l-52 50l174 173l-173 170l49 48l171 -171l171 172l50 -51l-172 -170l171 -173l-47 -47z" />
    <glyph glyph-name="space" unicode=" " horiz-adv-x="230" 
 />
    <glyph glyph-name="exclam" unicode="!" horiz-adv-x="270" 
d="M131 193l-30 302v217h72v-217l-31 -302h-11zM135 -14q-27 0 -45 19.5t-18 43.5t18 43.5t45 19.5t45 -19.5t18 -43.5t-18 -43.5t-45 -19.5z" />
    <glyph glyph-name="quotedbl" unicode="&#x22;" horiz-adv-x="385" 
d="M60 700h87l-18 -267h-53zM237 700h88l-18 -267h-53z" />
    <glyph glyph-name="numbersign" unicode="#" horiz-adv-x="685" 
d="M149 0l31 204h-123l12 63h120l27 178h-115l10 61h114l30 194h68l-29 -194h142l30 194h68l-30 -194h124l-10 -61h-123l-28 -178h117l-10 -63h-116l-31 -204h-68l31 204h-142l-31 -204h-68zM257 267h142l28 178h-142z" />
    <glyph glyph-name="dollar" unicode="$" horiz-adv-x="592" 
d="M420 579q-13 28 -46.5 48t-86.5 20q-62 0 -96 -26t-34 -71q0 -27 13.5 -48t35.5 -37.5t51 -29.5t60 -25q36 -14 72 -32.5t65 -45.5t47 -63.5t18 -86.5q0 -43 -14 -77t-38.5 -58t-59.5 -38.5t-77 -18.5v-88h-71v89q-74 9 -124.5 48.5t-69.5 90.5l66 24q21 -46 64.5 -73.5
t103.5 -27.5q69 0 108 32t39 95q0 31 -13 56.5t-35 45t-50 34.5t-59 27q-37 14 -73.5 31.5t-66 41.5t-47.5 56.5t-18 76.5q0 30 11.5 57.5t34 49t55 36t74.5 18.5v79h71v-80q61 -8 101.5 -37t53.5 -71z" />
    <glyph glyph-name="percent" unicode="%" horiz-adv-x="889" 
d="M216 356q-43 0 -73 16t-48.5 41.5t-27 57t-8.5 63.5q0 28 8 59.5t27 57.5t48.5 43.5t73.5 17.5q43 0 73 -16t48.5 -41.5t27 -57t8.5 -63.5q0 -29 -8 -60.5t-26.5 -57.5t-48.5 -43t-74 -17zM216 414q23 0 40.5 9.5t29 26t17 38.5t5.5 46q0 54 -23 87t-69 33
q-24 0 -41.5 -9.5t-28.5 -26t-16.5 -38.5t-5.5 -46q0 -52 22 -86t70 -34zM241 -12h-72l478 724h72zM672 -12q-43 0 -73 16t-48.5 41.5t-27 57t-8.5 63.5q0 28 8 59.5t27 57.5t48.5 43.5t73.5 17.5q43 0 73 -16t48.5 -41.5t27 -57t8.5 -63.5q0 -29 -8 -60.5t-26.5 -57.5
t-48.5 -43t-74 -17zM672 46q23 0 40.5 9.5t29 26t17 38.5t5.5 46q0 54 -23 87t-69 33q-24 0 -41.5 -9.5t-28.5 -26t-16.5 -38.5t-5.5 -46q0 -52 22 -86t70 -34z" />
    <glyph glyph-name="ampersand" unicode="&#x26;" horiz-adv-x="653" 
d="M546 0l-77 91q-47 -51 -107 -77t-120 -26q-44 0 -80 13.5t-61.5 38t-39.5 59t-14 77.5q0 38 12 68.5t34.5 57t53 49t68.5 43.5q-23 28 -39.5 51t-27.5 43t-16 38.5t-5 38.5q0 34 13 61.5t35 46.5t52 29t65 10q34 0 63 -11t50 -31t33 -47t12 -60q0 -56 -37 -98.5
t-101 -81.5l152 -182q17 35 25.5 67t10.5 51h66q-3 -35 -14.5 -78.5t-41.5 -93.5l123 -147h-87zM256 51q43 0 88 24t81 68l-172 205q-69 -42 -104.5 -80t-35.5 -86q0 -60 40 -95.5t103 -35.5zM193 564q0 -27 21.5 -58.5t60.5 -78.5q109 64 109 129q0 44 -28 69t-68 25
q-43 0 -69 -23.5t-26 -62.5z" />
    <glyph glyph-name="quotesingle" unicode="'" horiz-adv-x="207" 
d="M60 700h87l-18 -267h-53z" />
    <glyph glyph-name="parenleft" unicode="(" horiz-adv-x="340" 
d="M207 -130q-23 30 -45 68.5t-39 89t-27.5 113.5t-10.5 143q0 79 11.5 145t30 118.5t42.5 93.5t49 71h67q-13 -16 -35 -53.5t-43.5 -92.5t-37 -126.5t-15.5 -155.5q0 -86 14.5 -155t34.5 -121.5t40 -87t31 -50.5h-67z" />
    <glyph glyph-name="parenright" unicode=")" horiz-adv-x="340" 
d="M66 -130q11 16 31 50.5t40 87t34.5 121.5t14.5 155q0 84 -15.5 155.5t-37 126.5t-43.5 92.5t-35 53.5h67q25 -30 49 -71t42.5 -93.5t30 -118.5t11.5 -145q0 -80 -10.5 -143t-27.5 -113.5t-39 -89t-45 -68.5h-67z" />
    <glyph glyph-name="asterisk" unicode="*" horiz-adv-x="535" 
d="M298 393l-32 80l-31 -80l-66 -92l-56 43l64 88l58 56l-75 5l-102 34l23 66l97 -32l71 -49l-16 83v112h69v-112l-18 -83l71 49l99 32l23 -66l-104 -34l-77 -5l62 -56l63 -88l-55 -43z" />
    <glyph glyph-name="plus" unicode="+" horiz-adv-x="660" 
d="M365 308v-200h-72v200h-198v68h198v202h72v-202h200v-68h-200z" />
    <glyph glyph-name="comma" unicode="," horiz-adv-x="226" 
d="M73 -136q7 6 15.5 16.5t16 25.5t13 34t5.5 41q-32 0 -52.5 17.5t-20.5 44.5q0 31 18 48.5t43 17.5q13 0 26 -5t23 -15t16.5 -26t6.5 -38q0 -57 -26 -99.5t-65 -66.5z" />
    <glyph glyph-name="hyphen" unicode="-" horiz-adv-x="403" 
d="M90 264v68h223v-68h-223z" />
    <glyph glyph-name="period" unicode="." horiz-adv-x="226" 
d="M113 -14q-27 0 -45 19.5t-18 43.5t18 43.5t45 19.5t45 -19.5t18 -43.5t-18 -43.5t-45 -19.5z" />
    <glyph glyph-name="slash" unicode="/" horiz-adv-x="486" 
d="M0 -130l393 842h68l-393 -842h-68z" />
    <glyph glyph-name="zero" unicode="0" horiz-adv-x="620" 
d="M310 -12q-69 0 -115 32t-73.5 83.5t-39.5 116t-12 130.5q0 36 4 77.5t14.5 81.5t28 77t44.5 65t63.5 44.5t85.5 16.5q69 0 115 -32.5t73.5 -84.5t39.5 -116.5t12 -128.5q0 -37 -4.5 -78t-15 -81.5t-28 -77t-44.5 -64.5t-63.5 -44.5t-84.5 -16.5zM310 51q52 0 84.5 28.5
t50.5 72.5t24 97t6 101q0 54 -7 107.5t-26 96t-51 69t-81 26.5q-53 0 -85.5 -29t-50.5 -73t-24.5 -96.5t-6.5 -100.5q0 -55 7 -108.5t26 -96t51.5 -68.5t82.5 -26z" />
    <glyph glyph-name="one" unicode="1" horiz-adv-x="334" 
d="M159 0v573h-119v40q53 0 90 18.5t54 68.5h45v-700h-70z" />
    <glyph glyph-name="two" unicode="2" horiz-adv-x="600" 
d="M71 0q0 66 19 113.5t49 83.5t68 63l76 53l63 43.5t53.5 45.5t37.5 51.5t14 61.5q0 57 -39.5 95.5t-112.5 38.5q-71 0 -107 -31.5t-49 -81.5l-62 28q8 31 27 58t48 47t66.5 31.5t82.5 11.5q104 0 161.5 -53.5t57.5 -143.5q0 -48 -18.5 -85t-48 -67.5t-66.5 -56l-75 -49.5
l-58 -39.5t-51.5 -42t-39.5 -49t-22 -59.5h385v-67h-459z" />
    <glyph glyph-name="three" unicode="3" horiz-adv-x="590" 
d="M282 -12q-51 0 -89 12.5t-65.5 35t-46 52t-31.5 64.5l65 27q26 -65 65.5 -95.5t101.5 -30.5q33 0 63 8.5t52.5 25.5t35.5 42.5t13 60.5q0 65 -40 103.5t-116 38.5h-47v64h37q63 0 100.5 34.5t37.5 92.5q0 29 -10.5 52t-28.5 39t-41.5 24.5t-48.5 8.5q-33 0 -58.5 -10
t-44.5 -26t-31.5 -35t-20.5 -37l-65 25q11 28 29.5 54.5t45.5 47.5t62.5 33.5t79.5 12.5q43 0 80.5 -13t65.5 -36t43.5 -56.5t15.5 -73.5q0 -47 -23.5 -88.5t-65.5 -64.5q55 -22 86.5 -70.5t31.5 -117.5q0 -44 -19 -81.5t-52 -64.5t-76 -42.5t-91 -15.5z" />
    <glyph glyph-name="four" unicode="4" horiz-adv-x="587" 
d="M370 0v189h-340v37l368 474h42v-451h106v-60h-106v-189h-70zM370 249v330l-249 -330h249z" />
    <glyph glyph-name="five" unicode="5" horiz-adv-x="628" 
d="M111 128q17 -17 36 -31.5t41.5 -25.5t50 -17t62.5 -6q39 0 72.5 14t58 37t38.5 54t14 65t-11.5 65t-32 53.5t-49.5 36t-64 13.5q-32 0 -58.5 -6.5t-48 -16t-37.5 -21.5t-26 -23l-59 18l57 363h356v-63h-300l-40 -244q32 29 74.5 44t86.5 15q46 0 87.5 -16.5t72 -46
t48.5 -71t18 -91.5q0 -44 -17 -87t-49.5 -76.5t-80 -54.5t-107.5 -21q-42 0 -79 8t-67 20.5t-52.5 28.5t-35.5 32z" />
    <glyph glyph-name="six" unicode="6" horiz-adv-x="586" 
d="M292 -12q-57 0 -100.5 21t-73 57.5t-44 86t-14.5 106.5q0 75 27.5 147.5t75.5 134t113.5 107t141.5 64.5v-55q-50 -15 -95.5 -45t-82 -69t-61.5 -83.5t-33 -89.5q26 31 67.5 47.5t95.5 16.5q43 0 81 -18.5t66 -48.5t44 -68.5t16 -78.5q0 -49 -18 -91.5t-48.5 -73.5
t-71 -49t-86.5 -18zM289 372q-35 0 -64.5 -12t-50.5 -33.5t-33 -51.5t-12 -65q0 -34 12.5 -63t34 -50.5t50.5 -33.5t63 -12q36 0 65.5 12t50.5 33.5t32.5 50.5t11.5 63q0 35 -11 65t-32 51.5t-50.5 33.5t-66.5 12z" />
    <glyph glyph-name="seven" unicode="7" horiz-adv-x="499" 
d="M164 0q1 82 10.5 162t34 159t65.5 158.5t105 160.5h-339v60h419v-46q-73 -84 -117 -172.5t-68 -174t-32 -164.5t-8 -143h-70z" />
    <glyph glyph-name="eight" unicode="8" horiz-adv-x="598" 
d="M299 51q33 0 61.5 10.5t49.5 30.5t33 49t12 66q0 31 -11 59t-31.5 49.5t-49.5 34t-64 12.5t-64 -12.5t-49.5 -34t-31.5 -49.5t-11 -59q0 -37 12 -66t33 -49t49.5 -30.5t61.5 -10.5zM299 712q42 0 78.5 -14.5t62.5 -39.5t41 -58t15 -69q0 -45 -22.5 -84.5t-70.5 -59.5
q56 -21 90.5 -72.5t34.5 -117.5q0 -44 -17 -82.5t-48 -66.5t-73 -44t-91 -16q-50 0 -91.5 16t-72.5 44t-48 66.5t-17 82.5q0 33 9 63t25.5 54.5t39.5 43.5t50 29q-45 20 -68.5 59.5t-23.5 84.5q0 36 15 69t41 58t62.5 39.5t78.5 14.5zM299 408q58 0 92 32t34 82q0 59 -36 93
t-90 34t-90 -34t-36 -93q0 -50 34 -82t92 -32z" />
    <glyph glyph-name="nine" unicode="9" horiz-adv-x="586" 
d="M292 712q57 0 99 -21t69.5 -57.5t41.5 -86t14 -106.5q0 -75 -25.5 -148t-71 -134.5t-108.5 -106.5t-139 -64v55q51 15 95 45.5t78.5 70.5t57 86t28.5 91q-26 -33 -68.5 -50.5t-97.5 -17.5q-43 0 -80.5 17t-65 46.5t-43.5 68t-16 80.5q0 49 18 91.5t49.5 73.5t73.5 49
t91 18zM287 324q35 0 64.5 12.5t50.5 34.5t33 52t12 65q0 34 -12.5 63t-34 51t-50.5 34.5t-63 12.5q-36 0 -65.5 -12.5t-50.5 -34.5t-32.5 -51t-11.5 -63q0 -35 11 -65t32 -52t50.5 -34.5t66.5 -12.5z" />
    <glyph glyph-name="colon" unicode=":" horiz-adv-x="226" 
d="M113 -14q-27 0 -45 19.5t-18 43.5t18 43.5t45 19.5t45 -19.5t18 -43.5t-18 -43.5t-45 -19.5zM113 357q-27 0 -45 19.5t-18 43.5t18 43.5t45 19.5t45 -19.5t18 -43.5t-18 -43.5t-45 -19.5z" />
    <glyph glyph-name="semicolon" unicode=";" horiz-adv-x="226" 
d="M113 357q-27 0 -45 19.5t-18 43.5t18 43.5t45 19.5t45 -19.5t18 -43.5t-18 -43.5t-45 -19.5zM73 -136q14 12 29.5 42.5t15.5 75.5q-28 0 -48 17t-20 44q0 31 18 48.5t43 17.5q13 0 26 -5t23 -15t16.5 -26t6.5 -38q0 -57 -26 -99.5t-65 -66.5z" />
    <glyph glyph-name="less" unicode="&#x3c;" horiz-adv-x="660" 
d="M565 120l-470 189v66l470 190v-67l-393 -155l393 -155v-68z" />
    <glyph glyph-name="equal" unicode="=" horiz-adv-x="660" 
d="M95 229v67h470v-67h-470zM95 388v67h470v-67h-470z" />
    <glyph glyph-name="greater" unicode="&#x3e;" horiz-adv-x="660" 
d="M565 309l-470 -189v66l393 157l-393 155v67l470 -190v-66z" />
    <glyph glyph-name="question" unicode="?" horiz-adv-x="526" 
d="M216 190q0 49 14 83.5t35 60t45 46t45 42t35 47t14 61.5q0 48 -35.5 82.5t-103.5 34.5q-63 0 -103 -29.5t-52 -84.5l-64 29q22 69 80 109.5t139 40.5q51 0 90.5 -14.5t66 -39.5t40.5 -58.5t14 -71.5q0 -45 -14 -75.5t-35 -53.5t-45 -43t-45 -42.5t-35 -52t-14 -71.5h-72z
M250 -14q-27 0 -45 19.5t-18 43.5t18 43.5t45 19.5t45 -19.5t18 -43.5t-18 -43.5t-45 -19.5z" />
    <glyph glyph-name="at" unicode="@" horiz-adv-x="799" 
d="M399 -12q-72 0 -136 23t-111 67.5t-74.5 109t-27.5 147.5t30 152.5t80.5 119.5t117 77.5t140.5 27.5q73 0 134 -21.5t104.5 -61t68 -94.5t24.5 -122q0 -55 -13 -101.5t-35 -80t-52 -52.5t-64 -19q-42 0 -65.5 20.5t-30.5 55.5q-21 -39 -53 -62t-74 -23q-31 0 -58 13
t-46.5 35.5t-30.5 54t-11 68.5q0 36 13 73t37.5 67t59 48.5t77.5 18.5q44 0 73.5 -24.5t37.5 -71.5l14 83h63l-40 -232q-1 -5 -1 -9.5v-8.5q0 -24 12 -37.5t33 -13.5t38 15t29.5 42t19.5 64t7 81q0 58 -21 101.5t-57.5 72.5t-85.5 44t-104 15q-72 0 -128.5 -24t-95.5 -66
t-60 -100t-21 -126q0 -59 19.5 -110.5t56 -90t90 -61t121.5 -22.5q36 0 76 5t67 14l-15 -66q-27 -8 -61.5 -11.5t-70.5 -3.5zM408 468q-29 0 -51 -12t-37.5 -32t-23.5 -46.5t-8 -56.5q0 -51 25 -80t68 -29q26 0 47.5 11.5t37 32t24 47t8.5 56.5q0 50 -27 79.5t-63 29.5z" />
    <glyph glyph-name="A" unicode="A" horiz-adv-x="662" 
d="M531 0l-64 181h-273l-61 -181h-73l243 700h54l245 -700h-71zM446 243l-96 280q-5 13 -11.5 33t-8.5 30q-3 -10 -8.5 -30t-10.5 -33l-96 -280h231z" />
    <glyph glyph-name="B" unicode="B" horiz-adv-x="646" 
d="M105 700h232q61 0 102.5 -16t66 -41.5t35 -58.5t10.5 -67q0 -54 -30 -91.5t-80 -56.5q57 -14 96 -57.5t39 -115.5q0 -36 -10.5 -71t-36.5 -62.5t-69 -45t-107 -17.5h-248v700zM365 63q43 0 71.5 11t45 28.5t23 40.5t6.5 47q0 28 -8 53.5t-28 45.5t-54.5 32t-88.5 12h-157
v-270h190zM320 394q83 0 124.5 34t41.5 91q0 21 -6 42.5t-21.5 38t-43.5 27t-72 10.5h-168v-243h145z" />
    <glyph glyph-name="C" unicode="C" horiz-adv-x="644" 
d="M360 -12q-78 0 -133 31t-90 81.5t-51 115.5t-16 134q0 72 17 137.5t52.5 115.5t90 79.5t130.5 29.5q47 0 81.5 -9.5t59.5 -25.5t42.5 -36.5t30.5 -41.5l-62 -36q-12 17 -25.5 32.5t-31.5 27.5t-41.5 19t-53.5 7q-60 0 -101.5 -27t-67 -70t-37 -96.5t-11.5 -105.5
q0 -58 12.5 -112t38.5 -95.5t67.5 -66.5t98.5 -25q63 0 100.5 24.5t61.5 64.5l62 -24q-12 -24 -31.5 -47t-47 -41t-64 -29t-81.5 -11z" />
    <glyph glyph-name="D" unicode="D" horiz-adv-x="678" 
d="M105 700h186q89 0 149.5 -30.5t98 -80t53.5 -112t16 -127.5q0 -60 -14.5 -122.5t-51.5 -113t-99 -82.5t-156 -32h-182v700zM292 63q70 0 117 25.5t75 67t39.5 92.5t11.5 102q0 54 -13 106t-41 92t-72 64.5t-106 24.5h-128v-574h117z" />
    <glyph glyph-name="E" unicode="E" horiz-adv-x="596" 
d="M105 0v700h399v-67h-329v-238h222v-66h-222v-262h351v-67h-421z" />
    <glyph glyph-name="F" unicode="F" horiz-adv-x="564" 
d="M105 0v700h409v-67h-339v-238h229v-66h-229v-329h-70z" />
    <glyph glyph-name="G" unicode="G" horiz-adv-x="685" 
d="M360 -12q-78 0 -133 31t-90 81.5t-51 115.5t-16 134q0 72 17 137.5t52.5 115.5t90 79.5t130.5 29.5q47 0 81.5 -9.5t59.5 -25.5t42.5 -36.5t30.5 -41.5l-62 -36q-12 17 -25.5 32.5t-31.5 27.5t-41.5 19t-53.5 7q-60 0 -101.5 -27t-67 -70t-37 -96.5t-11.5 -105.5
q0 -58 12.5 -112t38.5 -95.5t67.5 -66.5t98.5 -25q77 0 121.5 47t44.5 127v42h-129v62h203v-77q0 -65 -18.5 -114t-51 -82.5t-76 -50.5t-94.5 -17z" />
    <glyph glyph-name="H" unicode="H" horiz-adv-x="692" 
d="M517 0v331h-342v-331h-70v700h70v-303h342v303h70v-700h-70z" />
    <glyph glyph-name="I" unicode="I" horiz-adv-x="280" 
d="M105 0v700h70v-700h-70z" />
    <glyph glyph-name="J" unicode="J" horiz-adv-x="526" 
d="M212 -12q-76 0 -117.5 31.5t-64.5 87.5l55 30q11 -21 21 -37t23.5 -27t33.5 -16.5t52 -5.5q24 0 48.5 6.5t44 24t31.5 47t12 75.5v496h70v-475q0 -72 -20 -118t-50.5 -72.5t-67.5 -36.5t-71 -10z" />
    <glyph glyph-name="K" unicode="K" horiz-adv-x="643" 
d="M509 0l-220 403l-114 -142v-261h-70v700h70v-348l277 348h76l-191 -238l251 -462h-79z" />
    <glyph glyph-name="L" unicode="L" horiz-adv-x="562" 
d="M105 0v700h70v-633h347v-67h-417z" />
    <glyph glyph-name="M" unicode="M" horiz-adv-x="802" 
d="M627 0v518l-234 -530l-218 527v-515h-70v700h60l234 -545l237 545h61v-700h-70z" />
    <glyph glyph-name="N" unicode="N" horiz-adv-x="705" 
d="M529 0l-354 569v-569h-70v700h71l354 -577v577h70v-700h-71z" />
    <glyph glyph-name="O" unicode="O" horiz-adv-x="720" 
d="M360 51q60 0 101.5 27t67 70t37 96.5t11.5 105.5q0 57 -11.5 111t-37 95.5t-67 67t-101.5 25.5t-101.5 -27t-67 -70t-37 -96.5t-11.5 -105.5q0 -57 11.5 -111t37 -95.5t67 -67t101.5 -25.5zM360 -12q-81 0 -136.5 32t-89.5 84t-49 116.5t-15 129.5t15 129.5t49 116.5
t89.5 84t136.5 32t136.5 -32t89.5 -84t49 -116.5t15 -129.5t-15 -129.5t-49 -116.5t-89.5 -84t-136.5 -32z" />
    <glyph glyph-name="P" unicode="P" horiz-adv-x="622" 
d="M105 0v700h256q63 0 105 -18t68 -47t37 -66t11 -75q0 -35 -12 -71.5t-38 -66t-68.5 -48.5t-102.5 -19h-186v-289h-70zM367 352q41 0 69.5 13t46 33t25 45.5t7.5 50.5q0 23 -6.5 48t-23.5 46t-45.5 35t-72.5 14h-192v-285h192z" />
    <glyph glyph-name="Q" unicode="Q" horiz-adv-x="720" 
d="M360 -12q-81 0 -136.5 32t-89.5 84t-49 116.5t-15 129.5t15 129.5t49 116.5t89.5 84t136.5 32t136.5 -32t89.5 -84t49 -116.5t15 -129.5q0 -41 -5.5 -82t-18 -79t-32.5 -72t-48 -60l58 -86l-48 -36l-58 86q-29 -16 -62.5 -24.5t-75.5 -8.5zM360 51q57 0 100 26l-47 70
l50 36l44 -66q38 45 54 107.5t16 125.5q0 57 -11.5 111t-37 95.5t-67 67t-101.5 25.5t-101.5 -27t-67 -70t-37 -96.5t-11.5 -105.5q0 -57 11.5 -111t37 -95.5t67 -67t101.5 -25.5z" />
    <glyph glyph-name="R" unicode="R" horiz-adv-x="658" 
d="M578 508q0 -32 -9 -63t-29.5 -57.5t-53.5 -45.5t-81 -26l155 -316h-77l-150 313h-158v-313h-70v700h257q62 0 103.5 -17t66.5 -44t35.5 -61.5t10.5 -69.5zM364 376q41 0 69 11.5t45.5 29.5t25 41t7.5 47q0 21 -7 44t-23.5 42.5t-45 32.5t-71.5 13h-189v-261h189z" />
    <glyph glyph-name="S" unicode="S" horiz-adv-x="594" 
d="M420 579q-13 28 -46.5 49t-86.5 21q-62 0 -96.5 -27t-34.5 -72q0 -28 13.5 -48.5t36 -37t51.5 -29.5t60 -25q36 -14 72 -33t65 -46t47 -63.5t18 -85.5q0 -47 -16.5 -83t-45.5 -60.5t-70 -37.5t-89 -13q-44 0 -82 11.5t-68 31t-51.5 45t-31.5 54.5l66 24
q21 -46 64.5 -74.5t103.5 -28.5q69 0 108.5 33t39.5 96q0 32 -13 57.5t-35 45t-50.5 34t-59.5 26.5q-37 14 -73.5 31.5t-66 42t-47.5 56.5t-18 76q0 33 14 63t40.5 52t64.5 35t87 13q77 0 129 -31.5t66 -79.5z" />
    <glyph glyph-name="T" unicode="T" horiz-adv-x="575" 
d="M322 633v-633h-70v633h-192v67h455v-67h-193z" />
    <glyph glyph-name="U" unicode="U" horiz-adv-x="680" 
d="M340 -12q-56 0 -100.5 15t-75.5 48t-47.5 84.5t-16.5 124.5v440h70v-440q0 -63 14 -103.5t37.5 -64t54 -32.5t64.5 -9t64.5 9t54 32.5t37.5 64t14 103.5v440h70v-440q0 -73 -16.5 -124.5t-47.5 -84.5t-75.5 -48t-100.5 -15z" />
    <glyph glyph-name="V" unicode="V" horiz-adv-x="640" 
d="M346 0h-51l-240 700h74l195 -585l186 585h75z" />
    <glyph glyph-name="W" unicode="W" horiz-adv-x="827" 
d="M772 700l-152 -700h-44l-168 562l-170 -562h-48l-135 700h74l97 -549l157 549h52l151 -537l113 537h73z" />
    <glyph glyph-name="X" unicode="X" horiz-adv-x="562" 
d="M444 0l-167 304l-159 -304h-74l201 361l-186 339h76l147 -270l144 270h73l-185 -328l205 -372h-75z" />
    <glyph glyph-name="Y" unicode="Y" horiz-adv-x="616" 
d="M274 0v275l-229 425h77l186 -360l191 360h72l-227 -422v-278h-70z" />
    <glyph glyph-name="Z" unicode="Z" horiz-adv-x="637" 
d="M70 0v49l408 585h-385v66h474v-51l-403 -583h403v-66h-497z" />
    <glyph glyph-name="bracketleft" unicode="[" horiz-adv-x="379" 
d="M115 -130v842h209v-63h-139v-716h139v-63h-209z" />
    <glyph glyph-name="backslash" unicode="\" horiz-adv-x="486" 
d="M393 -130l-393 842h68l393 -842h-68z" />
    <glyph glyph-name="bracketright" unicode="]" horiz-adv-x="379" 
d="M264 -130h-209v63h139v716h-139v63h209v-842z" />
    <glyph glyph-name="asciicircum" unicode="^" horiz-adv-x="660" 
d="M488 362l-158 263l-158 -263h-72l191 350h76l193 -350h-72z" />
    <glyph glyph-name="underscore" unicode="_" horiz-adv-x="530" 
d="M10 -177v77h510v-77h-510z" />
    <glyph glyph-name="grave" unicode="`" horiz-adv-x="335" 
d="M185 576l-178 156h107l142 -156h-71z" />
    <glyph glyph-name="a" unicode="a" horiz-adv-x="519" 
d="M384 0v50q-31 -28 -69.5 -45t-80.5 -17q-77 0 -125.5 43.5t-48.5 129.5q0 44 15.5 76t41 52.5t59.5 30.5t70 10q32 0 66 -8t72 -28v43q0 39 -9.5 63t-25 38t-36 19t-41.5 5q-19 0 -40 -5t-41 -13t-38.5 -17.5t-32.5 -19.5l-20 60q31 20 78.5 38t100.5 18q27 0 57 -7.5
t55 -27t41.5 -54t16.5 -88.5v-346h-65zM241 49q23 0 44 7t39 18t33 25.5t27 28.5v99q-25 17 -61.5 29.5t-69.5 12.5q-26 0 -49 -6.5t-40.5 -20t-28 -33.5t-10.5 -48q0 -51 30 -81.5t86 -30.5z" />
    <glyph glyph-name="b" unicode="b" horiz-adv-x="562" 
d="M302 -12q-27 0 -48 5t-37.5 13.5t-30.5 18.5t-26 21v-46h-70v687l70 35v-261q25 27 61.5 44.5t74.5 17.5q48 0 87 -18t66.5 -52.5t42.5 -84t15 -112.5q0 -131 -54 -199.5t-151 -68.5zM291 51q72 0 107.5 55t35.5 150q0 99 -35.5 151.5t-107.5 52.5q-24 0 -44.5 -7.5
t-37.5 -19t-29.5 -25.5t-19.5 -26v-251q21 -36 57 -58t74 -22z" />
    <glyph glyph-name="c" unicode="c" horiz-adv-x="481" 
d="M257 -12q-93 0 -147.5 69.5t-54.5 197.5q0 127 55.5 197.5t154.5 70.5q57 0 100 -27.5t64 -79.5l-64 -25q-12 29 -36.5 49t-66.5 20q-36 0 -61 -14.5t-41.5 -41t-24 -64.5t-7.5 -85q0 -97 32 -150.5t100 -53.5q42 0 71 21t42 57l63 -24q-18 -54 -65.5 -85.5t-113.5 -31.5
z" />
    <glyph glyph-name="d" unicode="d" horiz-adv-x="562" 
d="M266 -12q-49 0 -88 19t-66.5 54t-42 84.5t-14.5 110.5q0 127 56.5 197t154.5 70q48 0 80.5 -14.5t55.5 -33.5v212l70 35v-722h-70v44q-23 -23 -55.5 -39.5t-80.5 -16.5zM274 51q38 0 72.5 21t55.5 59v255q-8 13 -20 26t-27.5 23.5t-36 17.5t-44.5 7q-71 0 -108.5 -52.5
t-37.5 -151.5q0 -43 10 -80.5t29 -65t46 -43.5t61 -16z" />
    <glyph glyph-name="e" unicode="e" horiz-adv-x="529" 
d="M129 227q9 -78 47 -126t104 -48q28 0 57 9t58 31l38 -47q-30 -25 -70.5 -41.5t-85.5 -16.5q-52 0 -93 21.5t-69.5 58.5t-44 85.5t-15.5 102.5q0 64 16.5 113.5t45.5 83.5t70 52t90 18q41 0 77.5 -14.5t64.5 -44.5t44 -77t16 -111v-20t-2 -29h-348zM277 460
q-62 0 -103.5 -41t-46.5 -129h281q0 52 -13 85t-32.5 52t-42.5 26t-43 7z" />
    <glyph glyph-name="f" unicode="f" horiz-adv-x="330" 
d="M182 448v-448h-70v448h-82v63h82v87q0 31 9 53t24 35.5t34 19.5t39 6q29 0 49.5 -7.5t37.5 -16.5v-61q-16 8 -33.5 14t-39.5 6q-18 0 -28.5 -5.5t-15 -14t-5.5 -19.5t-1 -21v-76h123v-63h-123z" />
    <glyph glyph-name="g" unicode="g" horiz-adv-x="564" 
d="M202 -158q62 3 101.5 15.5t62 31t30.5 42t8 49.5v78q-22 -32 -54.5 -51t-85.5 -19q-41 0 -79 17t-67 50.5t-46 83.5t-17 117q0 63 15.5 112.5t44 84t67.5 52.5t86 18q29 0 51.5 -6.5t39 -16t28 -20t17.5 -17.5v48h70v-503q0 -63 -20 -104.5t-53 -67t-76.5 -36.5
t-90.5 -13zM280 51q32 0 67.5 22.5t56.5 62.5v246q-11 19 -26.5 33.5t-32.5 24.5t-34 15t-31 5q-76 0 -114 -52.5t-38 -151.5q0 -49 11.5 -87t32 -64.5t48 -40t60.5 -13.5z" />
    <glyph glyph-name="h" unicode="h" 
d="M292 523q94 0 138.5 -56.5t44.5 -183.5v-283h-70v312q0 81 -34 114.5t-85 33.5q-27 0 -50 -7t-40 -24t-26.5 -45t-9.5 -70v-314h-70v689l70 33v-268q23 35 57 52t75 17z" />
    <glyph glyph-name="i" unicode="i" horiz-adv-x="252" 
d="M91 0v511h70v-511h-70zM126 616q-20 0 -33 13t-13 33t13 34t33 14t33 -14t13 -34t-13 -33t-33 -13z" />
    <glyph glyph-name="j" unicode="j" horiz-adv-x="258" 
d="M162 -32q0 -51 -14 -85t-36.5 -54.5t-51 -30t-58.5 -11.5l-32 55q36 3 60 12t37.5 22t19 29.5t5.5 34.5v571h70v-543zM127 616q-20 0 -33 13t-13 33t13 34t33 14t33 -14t13 -34t-13 -33t-33 -13z" />
    <glyph glyph-name="k" unicode="k" horiz-adv-x="511" 
d="M294 375l192 -375h-77l-164 324l-85 -91v-233h-70v688l70 34v-406l181 195h81z" />
    <glyph glyph-name="l" unicode="l" horiz-adv-x="260" 
d="M95 0v688l70 34v-722h-70z" />
    <glyph glyph-name="m" unicode="m" horiz-adv-x="843" 
d="M583 523q37 0 69 -13t55.5 -36.5t37 -57.5t13.5 -76v-340h-70v313q0 24 -4 50t-15.5 47.5t-33.5 35.5t-58 14q-29 0 -51 -12t-37 -32t-22.5 -46.5t-7.5 -56.5v-313h-70v313q0 24 -4 50t-15.5 47.5t-33.5 35.5t-58 14q-30 0 -52 -10.5t-36.5 -29.5t-22 -44t-7.5 -55v-321
h-70v511h70v-50q53 62 139 62q41 0 78.5 -20.5t59.5 -57.5q21 32 58.5 55t87.5 23z" />
    <glyph glyph-name="n" unicode="n" 
d="M160 455q24 35 57.5 51.5t74.5 16.5q94 0 138.5 -56.5t44.5 -183.5v-283h-70v312q0 81 -34 114.5t-85 33.5q-27 0 -50 -7t-40 -24t-26.5 -45t-9.5 -70v-314h-70v511h70v-56z" />
    <glyph glyph-name="o" unicode="o" horiz-adv-x="548" 
d="M274 51q70 0 108 54t38 151q0 96 -37 150t-109 54t-109 -52.5t-37 -152.5q0 -96 37 -150t109 -54zM274 523q49 0 89.5 -18t69 -52t44.5 -83.5t16 -113.5q0 -63 -16 -113t-44.5 -84.5t-69 -52.5t-89.5 -18t-89.5 18t-69 52t-44.5 83.5t-16 113.5q0 63 16 112.5t44.5 84
t69 53t89.5 18.5z" />
    <glyph glyph-name="p" unicode="p" horiz-adv-x="566" 
d="M300 -12q-54 0 -86 19t-54 45v-220l-70 -35v714h70v-46q25 23 56.5 40.5t83.5 17.5q49 0 88 -19t66.5 -54t42 -84.5t14.5 -109.5q0 -64 -15.5 -114t-43.5 -84t-67 -52t-85 -18zM292 51q70 0 108 52.5t38 152.5q0 94 -38.5 149t-107.5 55q-42 0 -76.5 -20.5t-55.5 -58.5
v-251q26 -34 58 -56.5t74 -22.5z" />
    <glyph glyph-name="q" unicode="q" horiz-adv-x="564" 
d="M268 -12q-98 0 -155.5 69.5t-57.5 197.5q0 60 14 109.5t40.5 85t64.5 54.5t87 19q25 0 46 -5.5t38 -13.5t31.5 -18.5l27.5 -20.5v46h70v-679l-70 -32v252q-26 -29 -57 -46.5t-79 -17.5zM271 51q24 0 44 8t36.5 20t29.5 26.5l23 26.5v249q-23 42 -59 60.5t-74 18.5
q-34 0 -60.5 -16t-45 -44t-28 -65t-9.5 -80q0 -100 36.5 -152t106.5 -52z" />
    <glyph glyph-name="r" unicode="r" horiz-adv-x="386" 
d="M90 0v511h70v-72q28 42 65 63t72 21q38 0 64 -21l-11 -68q-10 6 -25.5 12.5t-40.5 6.5q-17 0 -38.5 -8t-40.5 -27t-32 -50.5t-13 -78.5v-289h-70z" />
    <glyph glyph-name="s" unicode="s" horiz-adv-x="463" 
d="M345 406q-20 20 -50 37.5t-72 17.5q-45 0 -71 -18t-26 -49q0 -20 10 -34t26 -25.5t37 -20.5l44 -18q28 -11 57.5 -24.5t52.5 -32.5t38 -45.5t15 -65.5q0 -64 -46 -102t-126 -38q-52 0 -98 25.5t-78 63.5l49 43q23 -28 58 -49t75 -21q42 0 71 19t29 55q0 23 -11 40.5
t-29 30.5t-41 23.5t-46 19.5q-30 12 -58 26t-49 32t-33.5 41.5t-12.5 55.5q0 29 12.5 53t34 41t52 26.5t66.5 9.5q52 0 93.5 -20.5t72.5 -57.5z" />
    <glyph glyph-name="t" unicode="t" horiz-adv-x="369" 
d="M218 -12q-55 0 -78 33.5t-23 83.5v343h-87v63h87v176l70 35v-211h130v-63h-130v-313q0 -17 1.5 -31.5t7.5 -25.5t17 -17.5t29 -6.5q26 0 44.5 10t32.5 20l-8 -73q-20 -11 -42 -17t-51 -6z" />
    <glyph glyph-name="u" unicode="u" 
d="M400 0v49q-27 -35 -57 -48t-70 -13q-99 0 -143.5 56t-44.5 182v285h70v-312q0 -80 33.5 -114t84.5 -34q27 0 50 7t40.5 24t27 45t9.5 70v314h70v-511h-70z" />
    <glyph glyph-name="v" unicode="v" horiz-adv-x="503" 
d="M276 0h-49l-187 511h72l142 -399l139 399h70z" />
    <glyph glyph-name="w" unicode="w" horiz-adv-x="704" 
d="M538 0h-63l-124 375l-121 -375h-64l-126 511h70l96 -421l122 421h48l124 -426l94 426h70z" />
    <glyph glyph-name="x" unicode="x" horiz-adv-x="502" 
d="M291 265l171 -265h-80l-135 209l-132 -209h-75l172 262l-160 249h80l126 -195l116 195h74z" />
    <glyph glyph-name="y" unicode="y" horiz-adv-x="511" 
d="M217 16l-187 495h71l146 -412l149 412h75l-261 -705h-69z" />
    <glyph glyph-name="z" unicode="z" horiz-adv-x="499" 
d="M70 0v43l261 405h-241v63h334v-42l-263 -406h262v-63h-353z" />
    <glyph glyph-name="braceleft" unicode="{" horiz-adv-x="378" 
d="M108 289q26 -2 46 -8t34 -22.5t21.5 -45t7.5 -75.5v-56q0 -72 28.5 -111.5t87.5 -41.5v-59q-84 2 -136 59t-52 172v51q0 49 -20.5 80t-55.5 31h-4v57h4q35 0 55.5 30t20.5 81v50q0 115 52 172t136 59v-59q-59 -2 -87.5 -41.5t-28.5 -111.5v-56q0 -44 -7.5 -72.5
t-21.5 -45t-34 -24t-46 -9.5v-4z" />
    <glyph glyph-name="bar" unicode="|" horiz-adv-x="270" 
d="M100 -205v1010h70v-1010h-70z" />
    <glyph glyph-name="braceright" unicode="}" horiz-adv-x="378" 
d="M270 293q-26 2 -46 8t-34 22.5t-21.5 45t-7.5 75.5v56q0 72 -28.5 111.5t-87.5 41.5v59q84 -2 136 -59t52 -172v-51q0 -49 20.5 -80t55.5 -31h4v-57h-4q-35 0 -55.5 -30t-20.5 -81v-50q0 -115 -52 -172t-136 -59v59q59 2 87.5 41.5t28.5 111.5v56q0 44 7.5 72.5t21.5 45
t34 24t46 9.5v4z" />
    <glyph glyph-name="asciitilde" unicode="~" horiz-adv-x="660" 
d="M439 277q-31 0 -60.5 10t-57 21.5t-54.5 21.5t-52 10q-33 0 -54.5 -17t-23.5 -46h-40q0 25 6.5 48.5t21.5 41.5t38.5 29t57.5 11q32 0 62 -10t58 -21.5l54 -21.5t50 -10q33 0 54.5 17.5t23.5 45.5h40q0 -26 -7 -49.5t-22 -41.5t-38.5 -28.5t-56.5 -10.5z" />
    <glyph glyph-name="Adieresis" unicode="&#xc4;" horiz-adv-x="662" 
d="M531 0l-64 181h-273l-61 -181h-73l243 700h54l245 -700h-71zM446 243l-96 280q-5 13 -11.5 33t-8.5 30q-3 -10 -8.5 -30t-10.5 -33l-96 -280h231zM247 796q-20 0 -33.5 13.5t-13.5 33.5t13.5 33.5t33.5 13.5t33.5 -13.5t13.5 -33.5t-13.5 -33.5t-33.5 -13.5zM413 796
q-20 0 -33.5 13.5t-13.5 33.5t13.5 33.5t33.5 13.5t33.5 -13.5t13.5 -33.5t-13.5 -33.5t-33.5 -13.5z" />
    <glyph glyph-name="Aring" unicode="&#xc5;" horiz-adv-x="662" 
d="M467 181h-273l-61 -181h-73l224 645q-28 14 -46.5 41t-18.5 62q0 23 9 43.5t24.5 35.5t36.5 23.5t44 8.5t44 -8.5t36.5 -23.5t25 -35.5t9.5 -43.5q0 -35 -20 -63t-51 -42l225 -643h-71zM215 243h231l-116 337zM333 687q24 0 40 17.5t16 43.5t-16 42.5t-40 16.5
q-23 0 -39 -16.5t-16 -42.5t16 -43.5t39 -17.5z" />
    <glyph glyph-name="Ccedilla" unicode="&#xc7;" horiz-adv-x="644" 
d="M344 -234q-29 0 -51 7.5t-37 20.5l46 30q6 -8 14 -9t22 -1q21 0 37 14.5t16 36.5q0 19 -19 33.5t-42 14.5q-25 0 -36 -5l-12 15l52 66q-71 5 -121 37.5t-82 82.5t-46.5 112.5t-14.5 128.5q0 72 17 137.5t52.5 115.5t90 79.5t130.5 29.5q47 0 81.5 -9.5t59.5 -25.5
t42.5 -36.5t30.5 -41.5l-62 -36q-12 17 -25.5 32.5t-31.5 27.5t-41.5 19.5t-53.5 7.5q-60 0 -101.5 -27.5t-67 -70.5t-37 -96.5t-11.5 -105.5q0 -58 12.5 -112t38.5 -95.5t67.5 -66.5t98.5 -25q63 0 100.5 24.5t61.5 64.5l62 -24q-12 -23 -30 -45t-43.5 -39.5t-58.5 -29
t-74 -13.5l-26 -44q29 0 49 -7t32.5 -18.5t18 -26t5.5 -29.5q0 -44 -32.5 -71t-80.5 -27z" />
    <glyph glyph-name="Eacute" unicode="&#xc9;" horiz-adv-x="596" 
d="M105 0v700h399v-67h-329v-238h222v-66h-222v-262h351v-67h-421zM272 766h-71l142 156h107z" />
    <glyph glyph-name="Ntilde" unicode="&#xd1;" horiz-adv-x="705" 
d="M529 0l-354 569v-569h-70v700h71l354 -577v577h70v-700h-71zM432 792q-27 0 -49 8t-41.5 17l-37.5 17t-37 8t-32 -11.5t-15 -34.5h-39q0 53 22.5 81.5t70.5 28.5q27 0 49 -8t41.5 -17.5l37.5 -17.5t37 -8t32 12t15 35h38q0 -53 -22 -81.5t-70 -28.5z" />
    <glyph glyph-name="Odieresis" unicode="&#xd6;" horiz-adv-x="720" 
d="M360 51q60 0 101.5 27t67 70t37 96.5t11.5 105.5q0 57 -11.5 111t-37 95.5t-67 67t-101.5 25.5t-101.5 -27t-67 -70t-37 -96.5t-11.5 -105.5q0 -57 11.5 -111t37 -95.5t67 -67t101.5 -25.5zM360 -12q-81 0 -136.5 32t-89.5 84t-49 116.5t-15 129.5t15 129.5t49 116.5
t89.5 84t136.5 32t136.5 -32t89.5 -84t49 -116.5t15 -129.5t-15 -129.5t-49 -116.5t-89.5 -84t-136.5 -32zM277 796q-20 0 -33.5 13.5t-13.5 33.5t13.5 33.5t33.5 13.5t33.5 -13.5t13.5 -33.5t-13.5 -33.5t-33.5 -13.5zM443 796q-20 0 -33.5 13.5t-13.5 33.5t13.5 33.5
t33.5 13.5t33.5 -13.5t13.5 -33.5t-13.5 -33.5t-33.5 -13.5z" />
    <glyph glyph-name="Udieresis" unicode="&#xdc;" horiz-adv-x="680" 
d="M340 -12q-56 0 -100.5 15t-75.5 48t-47.5 84.5t-16.5 124.5v440h70v-440q0 -63 14 -103.5t37.5 -64t54 -32.5t64.5 -9t64.5 9t54 32.5t37.5 64t14 103.5v440h70v-440q0 -73 -16.5 -124.5t-47.5 -84.5t-75.5 -48t-100.5 -15zM257 796q-20 0 -33.5 13.5t-13.5 33.5
t13.5 33.5t33.5 13.5t33.5 -13.5t13.5 -33.5t-13.5 -33.5t-33.5 -13.5zM423 796q-20 0 -33.5 13.5t-13.5 33.5t13.5 33.5t33.5 13.5t33.5 -13.5t13.5 -33.5t-13.5 -33.5t-33.5 -13.5z" />
    <glyph glyph-name="aacute" unicode="&#xe1;" horiz-adv-x="519" 
d="M384 0v50q-31 -28 -69.5 -45t-80.5 -17q-77 0 -125.5 43.5t-48.5 129.5q0 44 15.5 76t41 52.5t59.5 30.5t70 10q32 0 66 -8t72 -28v43q0 39 -9.5 63t-25 38t-36 19t-41.5 5q-19 0 -40 -5t-41 -13t-38.5 -17.5t-32.5 -19.5l-20 60q31 20 78.5 38t100.5 18q27 0 57 -7.5
t55 -27t41.5 -54t16.5 -88.5v-346h-65zM241 49q23 0 44 7t39 18t33 25.5t27 28.5v99q-25 17 -61.5 29.5t-69.5 12.5q-26 0 -49 -6.5t-40.5 -20t-28 -33.5t-10.5 -48q0 -51 30 -81.5t86 -30.5zM252 576h-71l142 156h107z" />
    <glyph glyph-name="agrave" unicode="&#xe0;" horiz-adv-x="519" 
d="M384 0v50q-31 -28 -69.5 -45t-80.5 -17q-77 0 -125.5 43.5t-48.5 129.5q0 44 15.5 76t41 52.5t59.5 30.5t70 10q32 0 66 -8t72 -28v43q0 39 -9.5 63t-25 38t-36 19t-41.5 5q-19 0 -40 -5t-41 -13t-38.5 -17.5t-32.5 -19.5l-20 60q31 20 78.5 38t100.5 18q27 0 57 -7.5
t55 -27t41.5 -54t16.5 -88.5v-346h-65zM241 49q23 0 44 7t39 18t33 25.5t27 28.5v99q-25 17 -61.5 29.5t-69.5 12.5q-26 0 -49 -6.5t-40.5 -20t-28 -33.5t-10.5 -48q0 -51 30 -81.5t86 -30.5zM307 576l-178 156h107l142 -156h-71z" />
    <glyph glyph-name="acircumflex" unicode="&#xe2;" horiz-adv-x="519" 
d="M384 0v50q-31 -28 -69.5 -45t-80.5 -17q-77 0 -125.5 43.5t-48.5 129.5q0 44 15.5 76t41 52.5t59.5 30.5t70 10q32 0 66 -8t72 -28v43q0 39 -9.5 63t-25 38t-36 19t-41.5 5q-19 0 -40 -5t-41 -13t-38.5 -17.5t-32.5 -19.5l-20 60q31 20 78.5 38t100.5 18q27 0 57 -7.5
t55 -27t41.5 -54t16.5 -88.5v-346h-65zM241 49q23 0 44 7t39 18t33 25.5t27 28.5v99q-25 17 -61.5 29.5t-69.5 12.5q-26 0 -49 -6.5t-40.5 -20t-28 -33.5t-10.5 -48q0 -51 30 -81.5t86 -30.5zM396 576l-116 101l-116 -101h-65l141 156h80l141 -156h-65z" />
    <glyph glyph-name="adieresis" unicode="&#xe4;" horiz-adv-x="519" 
d="M384 0v50q-31 -28 -69.5 -45t-80.5 -17q-77 0 -125.5 43.5t-48.5 129.5q0 44 15.5 76t41 52.5t59.5 30.5t70 10q32 0 66 -8t72 -28v43q0 39 -9.5 63t-25 38t-36 19t-41.5 5q-19 0 -40 -5t-41 -13t-38.5 -17.5t-32.5 -19.5l-20 60q31 20 78.5 38t100.5 18q27 0 57 -7.5
t55 -27t41.5 -54t16.5 -88.5v-346h-65zM241 49q23 0 44 7t39 18t33 25.5t27 28.5v99q-25 17 -61.5 29.5t-69.5 12.5q-26 0 -49 -6.5t-40.5 -20t-28 -33.5t-10.5 -48q0 -51 30 -81.5t86 -30.5zM197 606q-20 0 -33.5 13.5t-13.5 33.5t13.5 33.5t33.5 13.5t33.5 -13.5
t13.5 -33.5t-13.5 -33.5t-33.5 -13.5zM363 606q-20 0 -33.5 13.5t-13.5 33.5t13.5 33.5t33.5 13.5t33.5 -13.5t13.5 -33.5t-13.5 -33.5t-33.5 -13.5z" />
    <glyph glyph-name="atilde" unicode="&#xe3;" horiz-adv-x="519" 
d="M384 0v50q-31 -28 -69.5 -45t-80.5 -17q-77 0 -125.5 43.5t-48.5 129.5q0 44 15.5 76t41 52.5t59.5 30.5t70 10q32 0 66 -8t72 -28v43q0 39 -9.5 63t-25 38t-36 19t-41.5 5q-19 0 -40 -5t-41 -13t-38.5 -17.5t-32.5 -19.5l-20 60q31 20 78.5 38t100.5 18q27 0 57 -7.5
t55 -27t41.5 -54t16.5 -88.5v-346h-65zM241 49q23 0 44 7t39 18t33 25.5t27 28.5v99q-25 17 -61.5 29.5t-69.5 12.5q-26 0 -49 -6.5t-40.5 -20t-28 -33.5t-10.5 -48q0 -51 30 -81.5t86 -30.5zM360 602q-27 0 -49 8t-41.5 17l-37.5 17t-37 8t-32 -11.5t-15 -34.5h-39
q0 53 22.5 81.5t70.5 28.5q27 0 49 -8t41.5 -17.5l37.5 -17.5t37 -8t32 12t15 35h38q0 -53 -22 -81.5t-70 -28.5z" />
    <glyph glyph-name="aring" unicode="&#xe5;" horiz-adv-x="519" 
d="M384 0v50q-31 -28 -69.5 -45t-80.5 -17q-77 0 -125.5 43.5t-48.5 129.5q0 44 15.5 76t41 52.5t59.5 30.5t70 10q32 0 66 -8t72 -28v43q0 39 -9.5 63t-25 38t-36 19t-41.5 5q-19 0 -40 -5t-41 -13t-38.5 -17.5t-32.5 -19.5l-20 60q31 20 78.5 38t100.5 18q27 0 57 -7.5
t55 -27t41.5 -54t16.5 -88.5v-346h-65zM241 49q23 0 44 7t39 18t33 25.5t27 28.5v99q-25 17 -61.5 29.5t-69.5 12.5q-26 0 -49 -6.5t-40.5 -20t-28 -33.5t-10.5 -48q0 -51 30 -81.5t86 -30.5zM280 575q-23 0 -44 9t-37 24.5t-25 36.5t-9 44t9 43.5t25 35.5t37 23.5t44 8.5
t44 -8.5t36.5 -23.5t25 -35.5t9.5 -43.5t-9.5 -44t-25 -36.5t-36.5 -24.5t-44 -9zM280 627q24 0 40 17.5t16 44.5t-16 43t-40 16q-23 0 -39.5 -16t-16.5 -43t16.5 -44.5t39.5 -17.5z" />
    <glyph glyph-name="ccedilla" unicode="&#xe7;" horiz-adv-x="481" 
d="M254 -234q-29 0 -51 7.5t-37 20.5l46 30q6 -8 14 -9t22 -1q21 0 37.5 14.5t16.5 36.5q0 19 -19.5 33.5t-42.5 14.5q-25 0 -36 -5l-12 15l51 66q-87 5 -137.5 73.5t-50.5 192.5q0 127 55.5 197.5t154.5 70.5q57 0 100 -27.5t64 -79.5l-64 -25q-12 29 -36.5 49t-66.5 20
q-36 0 -61 -14.5t-41.5 -41t-24 -64.5t-7.5 -85q0 -97 32 -150.5t100 -53.5q42 0 71 21t42 57l63 -24q-16 -48 -54.5 -77.5t-92.5 -37.5l-27 -45q29 0 49 -7t32 -18.5t17 -26t5 -29.5q0 -44 -31.5 -71t-79.5 -27z" />
    <glyph glyph-name="eacute" unicode="&#xe9;" horiz-adv-x="529" 
d="M129 227q9 -78 47 -126t104 -48q28 0 57 9t58 31l38 -47q-30 -25 -70.5 -41.5t-85.5 -16.5q-52 0 -93 21.5t-69.5 58.5t-44 85.5t-15.5 102.5q0 64 16.5 113.5t45.5 83.5t70 52t90 18q41 0 77.5 -14.5t64.5 -44.5t44 -77t16 -111v-20t-2 -29h-348zM277 460
q-62 0 -103.5 -41t-46.5 -129h281q0 52 -13 85t-32.5 52t-42.5 26t-43 7zM240 576h-71l142 156h107z" />
    <glyph glyph-name="egrave" unicode="&#xe8;" horiz-adv-x="529" 
d="M129 227q9 -78 47 -126t104 -48q28 0 57 9t58 31l38 -47q-30 -25 -70.5 -41.5t-85.5 -16.5q-52 0 -93 21.5t-69.5 58.5t-44 85.5t-15.5 102.5q0 64 16.5 113.5t45.5 83.5t70 52t90 18q41 0 77.5 -14.5t64.5 -44.5t44 -77t16 -111v-20t-2 -29h-348zM277 460
q-62 0 -103.5 -41t-46.5 -129h281q0 52 -13 85t-32.5 52t-42.5 26t-43 7zM306 576l-178 156h107l142 -156h-71z" />
    <glyph glyph-name="ecircumflex" unicode="&#xea;" horiz-adv-x="529" 
d="M129 227q9 -78 47 -126t104 -48q28 0 57 9t58 31l38 -47q-30 -25 -70.5 -41.5t-85.5 -16.5q-52 0 -93 21.5t-69.5 58.5t-44 85.5t-15.5 102.5q0 64 16.5 113.5t45.5 83.5t70 52t90 18q41 0 77.5 -14.5t64.5 -44.5t44 -77t16 -111v-20t-2 -29h-348zM277 460
q-62 0 -103.5 -41t-46.5 -129h281q0 52 -13 85t-32.5 52t-42.5 26t-43 7zM393 576l-116 101l-116 -101h-65l141 156h80l141 -156h-65z" />
    <glyph glyph-name="edieresis" unicode="&#xeb;" horiz-adv-x="529" 
d="M129 227q9 -78 47 -126t104 -48q28 0 57 9t58 31l38 -47q-30 -25 -70.5 -41.5t-85.5 -16.5q-52 0 -93 21.5t-69.5 58.5t-44 85.5t-15.5 102.5q0 64 16.5 113.5t45.5 83.5t70 52t90 18q41 0 77.5 -14.5t64.5 -44.5t44 -77t16 -111v-20t-2 -29h-348zM277 460
q-62 0 -103.5 -41t-46.5 -129h281q0 52 -13 85t-32.5 52t-42.5 26t-43 7zM194 606q-20 0 -33.5 13.5t-13.5 33.5t13.5 33.5t33.5 13.5t33.5 -13.5t13.5 -33.5t-13.5 -33.5t-33.5 -13.5zM360 606q-20 0 -33.5 13.5t-13.5 33.5t13.5 33.5t33.5 13.5t33.5 -13.5t13.5 -33.5
t-13.5 -33.5t-33.5 -13.5z" />
    <glyph glyph-name="iacute" unicode="&#xed;" horiz-adv-x="252" 
d="M91 0v511h70v-511h-70zM97 576h-71l142 156h107z" />
    <glyph glyph-name="igrave" unicode="&#xec;" horiz-adv-x="252" 
d="M91 0v511h70v-511h-70zM156 576l-178 156h107l142 -156h-71z" />
    <glyph glyph-name="icircumflex" unicode="&#xee;" horiz-adv-x="252" 
d="M91 0v511h70v-511h-70zM242 576l-116 101l-116 -101h-65l141 156h80l141 -156h-65z" />
    <glyph glyph-name="idieresis" unicode="&#xef;" horiz-adv-x="252" 
d="M91 0v511h70v-511h-70zM43 606q-20 0 -33.5 13.5t-13.5 33.5t13.5 33.5t33.5 13.5t33.5 -13.5t13.5 -33.5t-13.5 -33.5t-33.5 -13.5zM209 606q-20 0 -33.5 13.5t-13.5 33.5t13.5 33.5t33.5 13.5t33.5 -13.5t13.5 -33.5t-13.5 -33.5t-33.5 -13.5z" />
    <glyph glyph-name="ntilde" unicode="&#xf1;" 
d="M160 455q24 35 57.5 51.5t74.5 16.5q94 0 138.5 -56.5t44.5 -183.5v-283h-70v312q0 81 -34 114.5t-85 33.5q-27 0 -50 -7t-40 -24t-26.5 -45t-9.5 -70v-314h-70v511h70v-56zM368 602q-27 0 -49 8t-41.5 17l-37.5 17t-37 8t-32 -11.5t-15 -34.5h-39q0 53 22.5 81.5
t70.5 28.5q27 0 49 -8t41.5 -17.5l37.5 -17.5t37 -8t32 12t15 35h38q0 -53 -22 -81.5t-70 -28.5z" />
    <glyph glyph-name="oacute" unicode="&#xf3;" horiz-adv-x="548" 
d="M274 51q70 0 108 54t38 151q0 96 -37 150t-109 54t-109 -52.5t-37 -152.5q0 -96 37 -150t109 -54zM274 523q49 0 89.5 -18t69 -52t44.5 -83.5t16 -113.5q0 -63 -16 -113t-44.5 -84.5t-69 -52.5t-89.5 -18t-89.5 18t-69 52t-44.5 83.5t-16 113.5q0 63 16 112.5t44.5 84
t69 53t89.5 18.5zM247 576h-71l142 156h107z" />
    <glyph glyph-name="ograve" unicode="&#xf2;" horiz-adv-x="548" 
d="M274 51q70 0 108 54t38 151q0 96 -37 150t-109 54t-109 -52.5t-37 -152.5q0 -96 37 -150t109 -54zM274 523q49 0 89.5 -18t69 -52t44.5 -83.5t16 -113.5q0 -63 -16 -113t-44.5 -84.5t-69 -52.5t-89.5 -18t-89.5 18t-69 52t-44.5 83.5t-16 113.5q0 63 16 112.5t44.5 84
t69 53t89.5 18.5zM304 576l-178 156h107l142 -156h-71z" />
    <glyph glyph-name="ocircumflex" unicode="&#xf4;" horiz-adv-x="548" 
d="M274 51q70 0 108 54t38 151q0 96 -37 150t-109 54t-109 -52.5t-37 -152.5q0 -96 37 -150t109 -54zM274 523q49 0 89.5 -18t69 -52t44.5 -83.5t16 -113.5q0 -63 -16 -113t-44.5 -84.5t-69 -52.5t-89.5 -18t-89.5 18t-69 52t-44.5 83.5t-16 113.5q0 63 16 112.5t44.5 84
t69 53t89.5 18.5zM390 576l-116 101l-116 -101h-65l141 156h80l141 -156h-65z" />
    <glyph glyph-name="odieresis" unicode="&#xf6;" horiz-adv-x="548" 
d="M274 51q70 0 108 54t38 151q0 96 -37 150t-109 54t-109 -52.5t-37 -152.5q0 -96 37 -150t109 -54zM274 523q49 0 89.5 -18t69 -52t44.5 -83.5t16 -113.5q0 -63 -16 -113t-44.5 -84.5t-69 -52.5t-89.5 -18t-89.5 18t-69 52t-44.5 83.5t-16 113.5q0 63 16 112.5t44.5 84
t69 53t89.5 18.5zM191 606q-20 0 -33.5 13.5t-13.5 33.5t13.5 33.5t33.5 13.5t33.5 -13.5t13.5 -33.5t-13.5 -33.5t-33.5 -13.5zM357 606q-20 0 -33.5 13.5t-13.5 33.5t13.5 33.5t33.5 13.5t33.5 -13.5t13.5 -33.5t-13.5 -33.5t-33.5 -13.5z" />
    <glyph glyph-name="otilde" unicode="&#xf5;" horiz-adv-x="548" 
d="M274 51q70 0 108 54t38 151q0 96 -37 150t-109 54t-109 -52.5t-37 -152.5q0 -96 37 -150t109 -54zM274 523q49 0 89.5 -18t69 -52t44.5 -83.5t16 -113.5q0 -63 -16 -113t-44.5 -84.5t-69 -52.5t-89.5 -18t-89.5 18t-69 52t-44.5 83.5t-16 113.5q0 63 16 112.5t44.5 84
t69 53t89.5 18.5zM354 602q-27 0 -49 8t-41.5 17l-37.5 17t-37 8t-32 -11.5t-15 -34.5h-39q0 53 22.5 81.5t70.5 28.5q27 0 49 -8t41.5 -17.5l37.5 -17.5t37 -8t32 12t15 35h38q0 -53 -22 -81.5t-70 -28.5z" />
    <glyph glyph-name="uacute" unicode="&#xfa;" 
d="M400 0v49q-27 -35 -57 -48t-70 -13q-99 0 -143.5 56t-44.5 182v285h70v-312q0 -80 33.5 -114t84.5 -34q27 0 50 7t40.5 24t27 45t9.5 70v314h70v-511h-70zM237 576h-71l142 156h107z" />
    <glyph glyph-name="ugrave" unicode="&#xf9;" 
d="M400 0v49q-27 -35 -57 -48t-70 -13q-99 0 -143.5 56t-44.5 182v285h70v-312q0 -80 33.5 -114t84.5 -34q27 0 50 7t40.5 24t27 45t9.5 70v314h70v-511h-70zM312 576l-178 156h107l142 -156h-71z" />
    <glyph glyph-name="ucircumflex" unicode="&#xfb;" 
d="M400 0v49q-27 -35 -57 -48t-70 -13q-99 0 -143.5 56t-44.5 182v285h70v-312q0 -80 33.5 -114t84.5 -34q27 0 50 7t40.5 24t27 45t9.5 70v314h70v-511h-70zM390 576l-116 101l-116 -101h-65l141 156h80l141 -156h-65z" />
    <glyph glyph-name="udieresis" unicode="&#xfc;" 
d="M400 0v49q-27 -35 -57 -48t-70 -13q-99 0 -143.5 56t-44.5 182v285h70v-312q0 -80 33.5 -114t84.5 -34q27 0 50 7t40.5 24t27 45t9.5 70v314h70v-511h-70zM191 606q-20 0 -33.5 13.5t-13.5 33.5t13.5 33.5t33.5 13.5t33.5 -13.5t13.5 -33.5t-13.5 -33.5t-33.5 -13.5z
M357 606q-20 0 -33.5 13.5t-13.5 33.5t13.5 33.5t33.5 13.5t33.5 -13.5t13.5 -33.5t-13.5 -33.5t-33.5 -13.5z" />
    <glyph glyph-name="dagger" unicode="&#x2020;" 
d="M302 457l13 -119l-31 -479h-5l-36 479l11 119l-139 -19h-35v68h35l136 -20l-8 101v125h72v-125l-10 -101l138 20h37v-68h-37z" />
    <glyph glyph-name="degree" unicode="&#xb0;" horiz-adv-x="418" 
d="M210 519q41 0 67 28t26 70q0 45 -26 72t-67 27q-40 0 -68 -27t-28 -72q0 -42 28 -70t68 -28zM210 450q-36 0 -67 12.5t-54 35t-36 53t-13 66.5t13 66.5t36 52.5t54 34.5t67 12.5q35 0 66 -12.5t53.5 -34.5t35.5 -52.5t13 -66.5t-13 -66.5t-35.5 -53t-53.5 -35t-66 -12.5z
" />
    <glyph glyph-name="cent" unicode="&#xa2;" horiz-adv-x="511" 
d="M230 -12v97q-77 16 -121 84t-44 181q0 112 43.5 178.5t121.5 83.5v100h69v-97q52 -5 88.5 -30t55.5 -77l-68 -26q-11 29 -35 47.5t-60 18.5q-72 0 -107 -52t-35 -146q0 -95 34 -147t103 -52q38 0 65.5 20.5t38.5 56.5l67 -24q-33 -112 -147 -121v-95h-69z" />
    <glyph glyph-name="sterling" unicode="&#xa3;" horiz-adv-x="604" 
d="M95 0v79q27 12 45 37t28.5 54.5t14.5 60.5t4 55v14h-97v57h81q-8 16 -17 31.5t-16 33.5t-11.5 41.5t-4.5 55.5q0 37 13.5 72t41 62t70 43t100.5 16q66 0 113 -18t85 -47l-27 -64q-11 9 -25.5 19.5t-35 20t-47.5 16t-63 6.5q-39 0 -67.5 -11.5t-46.5 -29.5t-26.5 -40.5
t-8.5 -45.5q0 -29 7 -52t16 -42.5t17.5 -35.5t11.5 -31h164v-57h-151v-11q0 -128 -106 -224h402v-65h-464z" />
    <glyph glyph-name="section" unicode="&#xa7;" horiz-adv-x="543" 
d="M404 590q-8 8 -19 17t-27 17t-38 13t-52 5q-54 0 -85 -19.5t-31 -59.5q0 -22 13 -38.5t35.5 -30t53.5 -26l66 -25.5q31 -12 59.5 -24.5t50.5 -31t35 -44.5t13 -64q0 -37 -15 -64t-48 -42q34 -25 48.5 -57.5t14.5 -74.5q0 -78 -54.5 -119.5t-148.5 -41.5q-38 0 -71.5 7.5
t-60.5 19.5t-46.5 27.5t-31.5 31.5l53 47q7 -9 20 -20t32 -21t44.5 -17t57.5 -7q60 0 96.5 19.5t36.5 70.5q0 30 -19.5 51.5t-48 37t-60.5 27t-58 22.5q-29 12 -54.5 24.5t-45 29t-31 38t-11.5 53.5q0 41 21.5 69t53.5 39q-36 20 -55.5 55.5t-19.5 83.5q0 34 15.5 61
t41.5 45.5t60.5 28t73.5 9.5q38 0 68.5 -7.5t54 -19t40 -25.5t27.5 -27zM405 276q0 23 -13.5 40t-36.5 30.5t-53.5 25t-65.5 23.5q-39 -6 -61.5 -25.5t-22.5 -48.5q0 -24 18 -40.5t46.5 -29t63.5 -23.5t70 -24q26 11 40.5 28t14.5 44z" />
    <glyph glyph-name="bullet" unicode="&#x2022;" horiz-adv-x="416" 
d="M207 223q-29 0 -53 10t-41.5 27t-27.5 40t-10 50t10 50.5t27.5 41t41.5 27.5t53 10q28 0 52.5 -10t42.5 -27.5t28.5 -41t10.5 -50.5t-10.5 -50t-28.5 -40t-42.5 -27t-52.5 -10z" />
    <glyph glyph-name="paragraph" unicode="&#xb6;" horiz-adv-x="633" 
d="M467 -134v764h-102v-798l-71 -32v478q-74 0 -123.5 19.5t-79.5 50.5t-43 69t-13 74q0 39 11.5 76.5t38.5 67t70.5 47.5t107.5 18h275v-802z" />
    <glyph glyph-name="germandbls" unicode="&#xdf;" horiz-adv-x="566" 
d="M303 51q23 0 47 9t43.5 27.5t32 47.5t12.5 70q0 27 -8.5 52.5t-27.5 46t-50.5 32.5t-76.5 12h-4v63h4q57 0 92 26.5t35 88.5q0 57 -31 90t-93 33q-26 0 -49.5 -9.5t-41 -30t-27.5 -52t-10 -76.5v-648l-70 -36v681q0 64 17.5 108.5t45.5 72.5t63.5 40.5t70.5 12.5
q44 0 80.5 -13t62.5 -37t40.5 -58t14.5 -75q0 -48 -22.5 -88t-72.5 -56q65 -23 98 -69.5t33 -106.5q0 -50 -16 -91t-44 -70t-66.5 -44.5t-83.5 -15.5q-23 0 -44 4.5t-35 11.5l33 54q19 -7 48 -7z" />
    <glyph glyph-name="registered" unicode="&#xae;" horiz-adv-x="874" 
d="M437 -12q-77 0 -143 27.5t-115 76.5t-76.5 115t-27.5 143t27.5 143t76.5 115t115 76.5t143 27.5t143 -27.5t115 -76.5t76.5 -115t27.5 -143t-27.5 -143t-76.5 -115t-115 -76.5t-143 -27.5zM437 42q66 0 121.5 23.5t96 65t63 97.5t22.5 122t-22.5 122t-63 97t-96 64.5
t-121.5 23.5t-121.5 -23.5t-96.5 -64.5t-64 -97t-23 -122t23 -122t64 -97.5t96.5 -65t121.5 -23.5zM608 438q0 -45 -27.5 -82.5t-77.5 -45.5l102 -173h-72l-95 172h-88v-172h-65v423h207q31 0 53.5 -12t36 -30t20 -39.5t6.5 -40.5zM494 365q23 0 37 21t14 50q0 10 -3 21.5
t-9.5 21t-16 15.5t-22.5 6h-144v-135h144z" />
    <glyph glyph-name="copyright" unicode="&#xa9;" horiz-adv-x="874" 
d="M437 -12q-77 0 -143 27.5t-115 76.5t-76.5 115t-27.5 143t27.5 143t76.5 115t115 76.5t143 27.5t143 -27.5t115 -76.5t76.5 -115t27.5 -143t-27.5 -143t-76.5 -115t-115 -76.5t-143 -27.5zM437 42q66 0 121.5 23.5t96 65t63 97.5t22.5 122t-22.5 122t-63 97t-96 64.5
t-121.5 23.5t-121.5 -23.5t-96.5 -64.5t-64 -97t-23 -122t23 -122t64 -97.5t96.5 -65t121.5 -23.5zM443 138q-85 0 -133.5 55.5t-48.5 161.5q0 100 49.5 159t140.5 59q54 0 91.5 -29t56.5 -81l-63 -26q-10 29 -33 50t-61 21q-33 0 -55 -10.5t-34.5 -30.5t-18 -48t-5.5 -64
q0 -78 24.5 -116t91.5 -38q35 0 63 18t37 63l57 -23q-17 -59 -59 -90t-100 -31z" />
    <glyph glyph-name="trademark" unicode="&#x2122;" horiz-adv-x="786" 
d="M206 648v-370h-56v370h-115v52h285v-52h-114zM645 278v249l-113 -265l-115 267v-251h-56v422h45l125 -301l125 301h45v-422h-56z" />
    <glyph glyph-name="acute" unicode="&#xb4;" horiz-adv-x="335" 
d="M150 576h-71l142 156h107z" />
    <glyph glyph-name="dieresis" unicode="&#xa8;" horiz-adv-x="335" 
d="M86 606q-20 0 -33.5 13.5t-13.5 33.5t13.5 33.5t33.5 13.5t33.5 -13.5t13.5 -33.5t-13.5 -33.5t-33.5 -13.5zM252 606q-20 0 -33.5 13.5t-13.5 33.5t13.5 33.5t33.5 13.5t33.5 -13.5t13.5 -33.5t-13.5 -33.5t-33.5 -13.5z" />
    <glyph glyph-name="notequal" unicode="&#x2260;" horiz-adv-x="660" 
d="M315 227l-50 -104h-72l50 104h-133v72h173l45 87h-218v72h255l46 88h71l-46 -88h139v-72h-176l-46 -87h222v-72h-260z" />
    <glyph glyph-name="AE" unicode="&#xc6;" horiz-adv-x="859" 
d="M425 0v181h-259l-103 -181h-79l407 700h376v-67h-272v-238h185v-66h-185v-262h294v-67h-364zM425 243v397l-224 -397h224z" />
    <glyph glyph-name="Oslash" unicode="&#xd8;" horiz-adv-x="720" 
d="M573 614q42 -53 59.5 -123t17.5 -141q0 -65 -15 -129.5t-49 -116.5t-89.5 -84t-136.5 -32q-54 0 -96 14.5t-74 39.5l-36 -54h-72l65 98q-42 53 -59.5 122.5t-17.5 141.5q0 65 15 129.5t49 116.5t89.5 84t136.5 32q53 0 94.5 -14.5t73.5 -39.5l36 54h74zM360 51
q60 0 101.5 27t67 70t37 96.5t11.5 105.5q0 56 -10.5 108t-35.5 94l-303 -454q24 -22 57 -34.5t75 -12.5zM143 350q0 -56 10.5 -108t34.5 -94l303 454q-25 22 -57 34.5t-74 12.5q-60 0 -101.5 -27t-67 -70t-37 -96.5t-11.5 -105.5z" />
    <glyph glyph-name="infinity" unicode="&#x221e;" horiz-adv-x="1015" 
d="M740 128q-46 0 -82 13t-64 36t-49.5 54.5t-37.5 69.5q-17 -36 -39 -67.5t-50 -55t-63 -37t-80 -13.5q-47 0 -88 15t-71.5 44.5t-48 72t-17.5 97.5t17.5 98.5t48 72.5t71.5 44.5t88 15.5q45 0 80 -14t63 -38t50 -56t39 -68q17 38 38 70.5t48.5 56t63 36.5t81.5 13
q48 0 89 -15.5t72 -44.5t48.5 -72.5t17.5 -98.5t-17.5 -97.5t-48 -72t-71.5 -44.5t-88 -15zM732 191q34 0 63.5 11t51.5 32.5t34 52.5t12 70t-12 70.5t-34 53t-51.5 33t-63.5 11.5q-35 0 -64.5 -14.5t-54 -38t-44.5 -54t-36 -61.5q16 -32 36 -62t44.5 -53t54 -37t64.5 -14z
M283 191q35 0 64 14t53 37t44 53t36 62q-16 31 -36 61.5t-44 54t-53 38t-64 14.5t-64.5 -11.5t-51 -33t-34 -53t-12.5 -70.5t12.5 -70t34 -52.5t51 -32.5t64.5 -11z" />
    <glyph glyph-name="plusminus" unicode="&#xb1;" horiz-adv-x="660" 
d="M365 373v-168h-72v168h-198v67h198v168h72v-168h200v-67h-200zM95 0v67h470v-67h-470z" />
    <glyph glyph-name="lessequal" unicode="&#x2264;" horiz-adv-x="660" 
d="M563 192l-468 169v70l468 171v-80l-378 -125l378 -127v-78zM95 0v67h470v-67h-470z" />
    <glyph glyph-name="greaterequal" unicode="&#x2265;" horiz-adv-x="660" 
d="M95 192v78l378 127l-378 125v80l468 -171v-70zM95 0v67h470v-67h-470z" />
    <glyph glyph-name="yen" unicode="&#xa5;" horiz-adv-x="558" 
d="M311 309h155v-60h-152v-66h152v-60h-152v-123h-70v123h-164v60h164v66h-164v60h166l-216 391h78l170 -324l178 324h72z" />
    <glyph glyph-name="mu" unicode="&#xb5;" horiz-adv-x="565" 
d="M405 0v51q-38 -39 -74.5 -51t-65.5 -12q-36 0 -60 12.5t-45 48.5v-215l-70 -34v711h70v-312q0 -47 8 -76t23.5 -45t37.5 -21.5t50 -5.5q27 0 50 7t40 24t26.5 45t9.5 70v314h70v-511h-70z" />
    <glyph glyph-name="partialdiff" unicode="&#x2202;" horiz-adv-x="596" 
d="M254 -12q-48 0 -86.5 15t-65.5 41t-42 62t-15 77q0 59 20 106t53 79.5t75.5 49.5t87.5 17q36 0 63.5 -8t48.5 -22t37 -33.5t29 -41.5q3 27 3 51q0 70 -19.5 120t-52 81.5t-75 47t-88.5 17.5l16 65q76 -9 130 -37.5t88 -76t49.5 -114t15.5 -151.5q0 -68 -14.5 -130
t-47 -110t-84.5 -76.5t-126 -28.5zM250 56q86 0 134.5 46t48.5 124q0 72 -38.5 105.5t-110.5 33.5q-78 0 -123 -42t-45 -117q0 -71 38 -110.5t96 -39.5z" />
    <glyph glyph-name="summation" unicode="&#x2211;" horiz-adv-x="630" 
d="M60 -142v59l271 371l-257 351v59h486v-68h-393l251 -340l-266 -363h428v-69h-520z" />
    <glyph glyph-name="product" unicode="&#x220f;" horiz-adv-x="722" 
d="M545 -140v770h-369v-770h-71v840h512v-840h-72z" />
    <glyph glyph-name="pi" unicode="&#x3c0;" horiz-adv-x="679" 
d="M513 -12q-53 0 -77 33.5t-24 83.5v331h-167v-63q0 -70 -4.5 -132t-18 -112.5t-38.5 -88.5t-66 -60l-61 47q23 14 45 33t39 52.5t27 85.5t10 132v106h-100v75h535v-75h-130v-299q0 -17 1.5 -32t7 -26t16.5 -18t30 -7q20 0 39.5 8t37.5 22l-8 -73q-20 -11 -41.5 -17
t-52.5 -6z" />
    <glyph glyph-name="integral" unicode="&#x222b;" horiz-adv-x="437" 
d="M148 -140q-35 0 -56.5 7t-36.5 15v52q14 -5 32 -9.5t41 -4.5q18 0 29 5t17 13.5t7.5 19t1.5 21.5v619q0 31 8 53t22.5 35.5t33.5 19.5t41 6q34 0 55.5 -7.5t38.5 -16.5v-52l-33 10.5t-40 5.5q-18 0 -29 -5.5t-17 -14t-7.5 -19.5t-1.5 -22v-617q0 -32 -8 -54t-22.5 -35.5
t-34 -19t-41.5 -5.5z" />
    <glyph glyph-name="ordfeminine" unicode="&#xaa;" horiz-adv-x="462" 
d="M324 283v30q-10 -8 -24 -15t-30 -12.5t-33 -9t-33 -3.5q-68 0 -111 36t-43 107q0 36 15 62t39 43.5t53.5 26t58.5 8.5q25 0 55 -6.5t53 -16.5v14q0 59 -23.5 81t-77.5 22q-38 0 -67 -10t-49 -26l-18 59q23 17 59.5 28t84.5 11q27 0 55 -4.5t51.5 -20.5t38 -47t14.5 -83
v-274h-68zM212 332q30 0 62 14.5t50 31.5v92q-21 11 -50 18.5t-51 7.5q-19 0 -37 -4.5t-32.5 -14t-23 -25t-8.5 -36.5q0 -39 24.5 -61.5t65.5 -22.5z" />
    <glyph glyph-name="ordmasculine" unicode="&#xba;" horiz-adv-x="469" 
d="M234 272q-87 0 -138 57t-51 163q0 104 51 162t138 58q88 0 139 -58t51 -162q0 -106 -51 -163t-139 -57zM234 337q60 0 90 40t30 115t-30 115t-90 40q-55 0 -87 -40t-32 -115t32 -115t87 -40z" />
    <glyph glyph-name="Omega" horiz-adv-x="738" 
d="M438 0v71q33 37 58 71t41.5 70.5t24.5 79.5t8 97q0 47 -10.5 93.5t-34.5 83.5t-62.5 60t-94.5 23t-94.5 -23t-62.5 -60t-34.5 -84t-10.5 -94q0 -54 8.5 -96.5t25 -79.5t41.5 -70.5t58 -70.5v-71h-214v63h169q-78 50 -119.5 130.5t-41.5 196.5q0 56 14.5 113.5t47 104
t85 75.5t128.5 29q77 0 129.5 -29t85 -75.5t46.5 -104t14 -113.5q0 -116 -41.5 -196.5t-119.5 -130.5h171v-63h-215z" />
    <glyph glyph-name="ae" unicode="&#xe6;" horiz-adv-x="849" 
d="M596 -12q-58 0 -104 28t-74 75q-18 -27 -40.5 -46.5t-47 -32t-49.5 -18.5t-47 -6q-77 0 -125.5 43.5t-48.5 129.5q0 43 15 75t40.5 53t59 31t71.5 10q32 0 66 -8t72 -28v43q0 68 -29.5 96.5t-82.5 28.5q-19 0 -40 -5t-41 -13t-38.5 -17.5t-32.5 -19.5l-20 60q31 20 79 38
t100 18q55 0 92.5 -21t56.5 -58q35 44 79.5 61.5t88.5 17.5q45 0 82.5 -16t64 -47t41.5 -77.5t15 -106.5v-20t-2 -29h-348q10 -85 50 -129.5t100 -44.5q28 0 57.5 9t58.5 31l38 -47q-27 -22 -67 -40t-90 -18zM597 460q-62 0 -103.5 -41t-46.5 -129h281q0 52 -13 85t-33 52
t-43 26t-42 7zM241 49q23 0 44 7t39 18t33 25.5t27 28.5v99q-25 17 -61.5 29.5t-69.5 12.5q-26 0 -49 -6.5t-40.5 -20t-28 -33.5t-10.5 -48q0 -51 30 -81.5t86 -30.5z" />
    <glyph glyph-name="oslash" unicode="&#xf8;" horiz-adv-x="548" 
d="M439 446q26 -34 40 -82t14 -108q0 -63 -15.5 -113t-44 -84.5t-69 -52.5t-89.5 -18q-75 0 -127 39l-28 -39h-65l54 78q-54 69 -54 189q0 63 16 112.5t45 84t69.5 53t89.5 18.5q71 0 124 -38l27 38h66zM275 51q70 0 107.5 54t37.5 151q0 76 -25 128l-209 -302
q36 -31 89 -31zM128 255q0 -78 24 -127l209 302q-36 30 -86 30q-72 0 -109.5 -52.5t-37.5 -152.5z" />
    <glyph glyph-name="questiondown" unicode="&#xbf;" horiz-adv-x="526" 
d="M309 320q0 -49 -14 -82t-35 -57t-45 -42.5t-45 -38.5t-35 -45.5t-14 -63.5q0 -56 35.5 -92t102.5 -36q76 0 118 42t42 117h72q0 -50 -17 -91t-48 -70t-73.5 -45t-93.5 -16t-90 14.5t-65.5 40t-40 60.5t-13.5 76q0 40 14 68.5t34.5 51.5t45 42.5t45.5 42.5t35 52.5
t14 71.5h71zM276 398q-27 0 -44.5 18t-17.5 43q0 24 17.5 44t44.5 20q13 0 25 -5.5t21 -14.5t14.5 -20.5t5.5 -23.5q0 -25 -20 -43t-46 -18z" />
    <glyph glyph-name="exclamdown" unicode="&#xa1;" horiz-adv-x="265" 
d="M139 316l30 -302v-214h-72v214l31 302h11zM135 523q27 0 45 -19.5t18 -43.5t-18 -43.5t-45 -19.5t-45 19.5t-18 43.5t18 43.5t45 19.5z" />
    <glyph glyph-name="logicalnot" unicode="&#xac;" horiz-adv-x="660" 
d="M493 176v220h-398v67h470v-287h-72z" />
    <glyph glyph-name="radical" unicode="&#x221a;" horiz-adv-x="558" 
d="M513 700l-212 -700h-71l-170 327h70l130 -250l179 623h74z" />
    <glyph glyph-name="florin" unicode="&#x192;" horiz-adv-x="368" 
d="M18 -158q36 3 60 12t37.5 22t19 29.5t5.5 34.5v508h-82v63h82v87q0 31 9 53t24 35.5t34 19.5t39 6q29 0 50 -7.5t37 -16.5v-61q-14 8 -32 14t-41 6q-18 0 -28 -5t-15 -13.5t-6 -19.5t-1 -22v-76h123v-63h-123v-480q0 -51 -14 -85t-36.5 -54.5t-51 -30t-58.5 -11.5z" />
    <glyph glyph-name="approxequal" unicode="&#x2248;" horiz-adv-x="660" 
d="M439 367q-31 0 -60.5 10t-57 21.5t-54.5 21.5t-52 10q-33 0 -54.5 -17.5t-23.5 -45.5h-40q0 25 6.5 48.5t21.5 41t38.5 28t57.5 10.5q32 0 62 -10t58 -21.5l54 -21.5t50 -10q33 0 54.5 18t23.5 45h40q0 -26 -7 -49t-22 -40.5t-38.5 -28t-56.5 -10.5zM439 190
q-31 0 -60.5 10t-57 21.5t-54.5 21.5t-52 10q-33 0 -54.5 -17t-23.5 -46h-40q0 25 6.5 48.5t21.5 41.5t38.5 29t57.5 11q32 0 62 -10t58 -21.5l54 -21.5t50 -10q33 0 54.5 17.5t23.5 45.5h40q0 -26 -7 -49.5t-22 -41.5t-38.5 -28.5t-56.5 -10.5z" />
    <glyph glyph-name="Delta" unicode="&#x2206;" horiz-adv-x="662" 
d="M60 0l243 700h54l245 -700h-542zM330 579l-175 -514h353z" />
    <glyph glyph-name="guillemotleft" unicode="&#xab;" horiz-adv-x="506" 
d="M197 0l-152 256l152 255h78l-152 -255l152 -256h-78zM396 0l-152 256l152 255h80l-152 -255l152 -256h-80z" />
    <glyph glyph-name="guillemotright" unicode="&#xbb;" horiz-adv-x="506" 
d="M229 0l152 256l-152 255h80l152 -255l-152 -256h-80zM30 0l152 256l-152 255h78l152 -255l-152 -256h-78z" />
    <glyph glyph-name="ellipsis" unicode="&#x2026;" horiz-adv-x="949" 
d="M168 -14q-27 0 -45 19.5t-18 43.5t18 43.5t45 19.5t45 -19.5t18 -43.5t-18 -43.5t-45 -19.5zM474 -14q-27 0 -45 19.5t-18 43.5t18 43.5t45 19.5t45 -19.5t18 -43.5t-18 -43.5t-45 -19.5zM781 -14q-27 0 -45 19.5t-18 43.5t18 43.5t45 19.5t45 -19.5t18 -43.5t-18 -43.5
t-45 -19.5z" />
    <glyph glyph-name="Agrave" unicode="&#xc0;" horiz-adv-x="662" 
d="M531 0l-64 181h-273l-61 -181h-73l243 700h54l245 -700h-71zM446 243l-96 280q-5 13 -11.5 33t-8.5 30q-3 -10 -8.5 -30t-10.5 -33l-96 -280h231zM363 766l-178 156h107l142 -156h-71z" />
    <glyph glyph-name="Atilde" unicode="&#xc3;" horiz-adv-x="662" 
d="M531 0l-64 181h-273l-61 -181h-73l243 700h54l245 -700h-71zM446 243l-96 280q-5 13 -11.5 33t-8.5 30q-3 -10 -8.5 -30t-10.5 -33l-96 -280h231zM410 792q-27 0 -49 8t-41.5 17l-37.5 17t-37 8t-32 -11.5t-15 -34.5h-39q0 53 22.5 81.5t70.5 28.5q27 0 49 -8t41.5 -17.5
l37.5 -17.5t37 -8t32 12t15 35h38q0 -53 -22 -81.5t-70 -28.5z" />
    <glyph glyph-name="Otilde" unicode="&#xd5;" horiz-adv-x="720" 
d="M360 51q60 0 101.5 27t67 70t37 96.5t11.5 105.5q0 57 -11.5 111t-37 95.5t-67 67t-101.5 25.5t-101.5 -27t-67 -70t-37 -96.5t-11.5 -105.5q0 -57 11.5 -111t37 -95.5t67 -67t101.5 -25.5zM360 -12q-81 0 -136.5 32t-89.5 84t-49 116.5t-15 129.5t15 129.5t49 116.5
t89.5 84t136.5 32t136.5 -32t89.5 -84t49 -116.5t15 -129.5t-15 -129.5t-49 -116.5t-89.5 -84t-136.5 -32zM440 792q-27 0 -49 8t-41.5 17l-37.5 17t-37 8t-32 -11.5t-15 -34.5h-39q0 53 22.5 81.5t70.5 28.5q27 0 49 -8t41.5 -17.5l37.5 -17.5t37 -8t32 12t15 35h38
q0 -53 -22 -81.5t-70 -28.5z" />
    <glyph glyph-name="OE" unicode="&#x152;" horiz-adv-x="909" 
d="M450 0q-41 -12 -90 -12q-81 0 -136.5 32t-89.5 83.5t-49 116t-15 130.5t15 131t49.5 116t89.5 83t136 32q27 0 48 -3t41 -9h368v-67h-272v-238h185v-66h-185v-262h294v-67h-389zM360 51q34 0 62 9t53 25v530q-49 34 -115 34q-60 0 -101.5 -27t-67 -70t-37 -96.5
t-11.5 -105.5q0 -58 11.5 -112t37 -95.5t67 -66.5t101.5 -25z" />
    <glyph glyph-name="oe" unicode="&#x153;" horiz-adv-x="894" 
d="M641 -12q-63 0 -108.5 31t-72.5 81q-27 -51 -73 -81.5t-112 -30.5q-100 0 -160 69.5t-60 197.5q0 63 15.5 112.5t44.5 84t69.5 53t90.5 18.5q65 0 109.5 -28t73.5 -78q29 53 76.5 79.5t106.5 26.5q41 0 78 -14.5t64.5 -44.5t44 -77t16.5 -111v-20t-2 -29h-348
q9 -78 47 -126t103 -48q29 0 58 9t58 31l38 -47q-29 -24 -70 -41t-87 -17zM275 51q69 0 107 54t38 151q0 96 -37 150t-108 54q-72 0 -109.5 -52.5t-37.5 -152.5q0 -96 37.5 -150t109.5 -54zM641 460q-61 0 -102.5 -41t-46.5 -129h281q0 52 -13 85t-32.5 52t-42.5 26t-44 7z
" />
    <glyph glyph-name="endash" unicode="&#x2013;" horiz-adv-x="525" 
d="M65 257v60h395v-60h-395z" />
    <glyph glyph-name="emdash" unicode="&#x2014;" horiz-adv-x="605" 
d="M10 257v60h585v-60h-585z" />
    <glyph glyph-name="quotedblleft" unicode="&#x201c;" horiz-adv-x="422" 
d="M153 707q-7 -6 -15.5 -16.5t-16 -25.5t-13 -34t-5.5 -41q32 0 52.5 -17.5t20.5 -44.5q0 -31 -18 -48.5t-43 -17.5q-13 0 -26 5t-23 15t-16.5 26t-6.5 38q0 57 26 99.5t65 66.5zM349 707q-7 -6 -15.5 -16.5t-16 -25.5t-13 -34t-5.5 -41q32 0 52.5 -17.5t20.5 -44.5
q0 -31 -18 -48.5t-43 -17.5q-13 0 -26 5t-23 15t-16.5 26t-6.5 38q0 57 26 99.5t65 66.5z" />
    <glyph glyph-name="quotedblright" unicode="&#x201d;" horiz-adv-x="422" 
d="M73 467q7 6 15.5 16.5t16 25.5t13 34t5.5 41q-32 0 -52.5 17.5t-20.5 44.5q0 31 18 48.5t43 17.5q13 0 26 -5t23 -15t16.5 -26t6.5 -38q0 -57 -26 -99.5t-65 -66.5zM269 467q7 6 15.5 16.5t16 25.5t13 34t5.5 41q-32 0 -52.5 17.5t-20.5 44.5q0 31 18 48.5t43 17.5
q13 0 26 -5t23 -15t16.5 -26t6.5 -38q0 -57 -26 -99.5t-65 -66.5z" />
    <glyph glyph-name="quoteleft" unicode="&#x2018;" horiz-adv-x="226" 
d="M153 707q-7 -6 -15.5 -16.5t-16 -25.5t-13 -34t-5.5 -41q32 0 52.5 -17.5t20.5 -44.5q0 -31 -18 -48.5t-43 -17.5q-13 0 -26 5t-23 15t-16.5 26t-6.5 38q0 57 26 99.5t65 66.5z" />
    <glyph glyph-name="quoteright" unicode="&#x2019;" horiz-adv-x="226" 
d="M73 467q7 6 15.5 16.5t16 25.5t13 34t5.5 41q-32 0 -52.5 17.5t-20.5 44.5q0 31 18 48.5t43 17.5q13 0 26 -5t23 -15t16.5 -26t6.5 -38q0 -57 -26 -99.5t-65 -66.5z" />
    <glyph glyph-name="divide" unicode="&#xf7;" horiz-adv-x="660" 
d="M95 308v68h470v-68h-470zM327 501q-21 0 -34.5 14t-13.5 34q0 19 13.5 34t34.5 15q22 0 36.5 -15t14.5 -34q0 -20 -14.5 -34t-36.5 -14zM327 88q-21 0 -34.5 13t-13.5 33t13.5 34.5t34.5 14.5q22 0 36.5 -14.5t14.5 -34.5t-14.5 -33t-36.5 -13z" />
    <glyph glyph-name="lozenge" unicode="&#x25ca;" horiz-adv-x="620" 
d="M273 -12l-202 362l202 362h76l202 -362l-202 -362h-76zM311 665l-174 -315l174 -315l174 315z" />
    <glyph glyph-name="ydieresis" unicode="&#xff;" horiz-adv-x="511" 
d="M217 16l-187 495h71l146 -412l149 412h75l-261 -705h-69zM164 606q-20 0 -33.5 13.5t-13.5 33.5t13.5 33.5t33.5 13.5t33.5 -13.5t13.5 -33.5t-13.5 -33.5t-33.5 -13.5zM330 606q-20 0 -33.5 13.5t-13.5 33.5t13.5 33.5t33.5 13.5t33.5 -13.5t13.5 -33.5t-13.5 -33.5
t-33.5 -13.5z" />
    <glyph glyph-name="Ydieresis" unicode="&#x178;" horiz-adv-x="616" 
d="M274 0v275l-229 425h77l186 -360l191 360h72l-227 -422v-278h-70zM225 796q-20 0 -33.5 13.5t-13.5 33.5t13.5 33.5t33.5 13.5t33.5 -13.5t13.5 -33.5t-13.5 -33.5t-33.5 -13.5zM391 796q-20 0 -33.5 13.5t-13.5 33.5t13.5 33.5t33.5 13.5t33.5 -13.5t13.5 -33.5
t-13.5 -33.5t-33.5 -13.5z" />
    <glyph glyph-name="fraction" unicode="&#x2044;" horiz-adv-x="325" 
d="M-111 -12l478 724h69l-478 -724h-69z" />
    <glyph glyph-name="Euro" unicode="&#x20ac;" horiz-adv-x="608" 
d="M369 -12q-59 0 -102.5 18.5t-74 51.5t-48.5 77.5t-27 96.5h-72l27 58h38q-2 14 -2 28.5v29.5v24t1 24h-64l27 58h45q9 51 28.5 97.5t51.5 82t77 57t106 21.5q46 0 87.5 -12t76.5 -35l-27 -64q-25 21 -60 33.5t-79 12.5t-76 -16t-54 -42.5t-35 -61.5t-20 -73h263l-24 -58
h-247q-2 -17 -2 -33.5v-31.5v-20t2 -21h203l-24 -58h-170q7 -34 21 -66.5t35 -57.5t50 -40t67 -15q49 0 85 20t60 52l56 -35q-12 -19 -30.5 -37t-43.5 -32.5t-56.5 -23.5t-68.5 -9z" />
    <glyph glyph-name="guilsinglleft" unicode="&#x2039;" horiz-adv-x="305" 
d="M197 0l-152 256l152 255h78l-152 -255l152 -256h-78z" />
    <glyph glyph-name="guilsinglright" unicode="&#x203a;" horiz-adv-x="305" 
d="M30 0l152 256l-152 255h78l152 -255l-152 -256h-78z" />
    <glyph glyph-name="daggerdbl" unicode="&#x2021;" 
d="M443 133h37v-70h-37l-138 22l10 -101v-125h-72v125l8 101l-136 -22h-35v70h35l139 -21l-11 120v106l11 119l-139 -19h-35v68h35l136 -20l-8 101v125h72v-125l-10 -101l138 20h37v-68h-37l-141 19l13 -119v-106l-13 -120z" />
    <glyph glyph-name="periodcentered" unicode="&#xb7;" horiz-adv-x="226" 
d="M113 286q-27 0 -45 19.5t-18 43.5t18 43.5t45 19.5t45 -19.5t18 -43.5t-18 -43.5t-45 -19.5z" />
    <glyph glyph-name="quotesinglbase" unicode="&#x201a;" horiz-adv-x="226" 
d="M73 -136q7 6 15.5 16.5t16 25.5t13 34t5.5 41q-32 0 -52.5 17.5t-20.5 44.5q0 31 18 48.5t43 17.5q13 0 26 -5t23 -15t16.5 -26t6.5 -38q0 -57 -26 -99.5t-65 -66.5z" />
    <glyph glyph-name="quotedblbase" unicode="&#x201e;" horiz-adv-x="422" 
d="M73 -136q7 6 15.5 16.5t16 25.5t13 34t5.5 41q-32 0 -52.5 17.5t-20.5 44.5q0 31 18 48.5t43 17.5q13 0 26 -5t23 -15t16.5 -26t6.5 -38q0 -57 -26 -99.5t-65 -66.5zM269 -136q7 6 15.5 16.5t16 25.5t13 34t5.5 41q-32 0 -52.5 17.5t-20.5 44.5q0 31 18 48.5t43 17.5
q13 0 26 -5t23 -15t16.5 -26t6.5 -38q0 -57 -26 -99.5t-65 -66.5z" />
    <glyph glyph-name="perthousand" unicode="&#x2030;" horiz-adv-x="1271" 
d="M216 356q-43 0 -73 16t-48.5 41.5t-27 57t-8.5 63.5q0 28 8 59.5t27 57.5t48.5 43.5t73.5 17.5q43 0 73 -16t48.5 -41.5t27 -57t8.5 -63.5q0 -29 -8 -60.5t-26.5 -57.5t-48.5 -43t-74 -17zM216 414q23 0 40.5 9.5t29 26t17 38.5t5.5 46q0 54 -23 87t-69 33
q-24 0 -41.5 -9.5t-28.5 -26t-16.5 -38.5t-5.5 -46q0 -52 22 -86t70 -34zM241 -12h-72l478 724h72zM672 -12q-43 0 -73 16t-48.5 41.5t-27 57t-8.5 63.5q0 28 8 59.5t27 57.5t48.5 43.5t73.5 17.5q43 0 73 -16t48.5 -41.5t27 -57t8.5 -63.5q0 -29 -8 -60.5t-26.5 -57.5
t-48.5 -43t-74 -17zM672 46q23 0 40.5 9.5t29 26t17 38.5t5.5 46q0 54 -23 87t-69 33q-24 0 -41.5 -9.5t-28.5 -26t-16.5 -38.5t-5.5 -46q0 -52 22 -86t70 -34zM1054 -12q-43 0 -73 16t-48.5 41.5t-27 57t-8.5 63.5q0 28 8 59.5t27 57.5t48.5 43.5t73.5 17.5q43 0 73 -16
t48.5 -41.5t27 -57t8.5 -63.5q0 -29 -8 -60.5t-26.5 -57.5t-48.5 -43t-74 -17zM1054 46q23 0 40.5 9.5t29 26t17 38.5t5.5 46q0 54 -23 87t-69 33q-24 0 -41.5 -9.5t-28.5 -26t-16.5 -38.5t-5.5 -46q0 -52 22 -86t70 -34z" />
    <glyph glyph-name="Acircumflex" unicode="&#xc2;" horiz-adv-x="662" 
d="M531 0l-64 181h-273l-61 -181h-73l243 700h54l245 -700h-71zM446 243l-96 280q-5 13 -11.5 33t-8.5 30q-3 -10 -8.5 -30t-10.5 -33l-96 -280h231zM446 766l-116 101l-116 -101h-65l141 156h80l141 -156h-65z" />
    <glyph glyph-name="Ecircumflex" unicode="&#xca;" horiz-adv-x="596" 
d="M105 0v700h399v-67h-329v-238h222v-66h-222v-262h351v-67h-421zM421 766l-116 101l-116 -101h-65l141 156h80l141 -156h-65z" />
    <glyph glyph-name="Aacute" unicode="&#xc1;" horiz-adv-x="662" 
d="M531 0l-64 181h-273l-61 -181h-73l243 700h54l245 -700h-71zM446 243l-96 280q-5 13 -11.5 33t-8.5 30q-3 -10 -8.5 -30t-10.5 -33l-96 -280h231zM293 766h-71l142 156h107z" />
    <glyph glyph-name="Edieresis" unicode="&#xcb;" horiz-adv-x="596" 
d="M105 0v700h399v-67h-329v-238h222v-66h-222v-262h351v-67h-421zM196 796q-20 0 -33.5 13.5t-13.5 33.5t13.5 33.5t33.5 13.5t33.5 -13.5t13.5 -33.5t-13.5 -33.5t-33.5 -13.5zM362 796q-20 0 -33.5 13.5t-13.5 33.5t13.5 33.5t33.5 13.5t33.5 -13.5t13.5 -33.5
t-13.5 -33.5t-33.5 -13.5z" />
    <glyph glyph-name="Egrave" unicode="&#xc8;" horiz-adv-x="596" 
d="M105 0v700h399v-67h-329v-238h222v-66h-222v-262h351v-67h-421zM295 766l-178 156h107l142 -156h-71z" />
    <glyph glyph-name="Iacute" unicode="&#xcd;" horiz-adv-x="280" 
d="M105 0v700h70v-700h-70zM100 766h-71l142 156h107z" />
    <glyph glyph-name="Icircumflex" unicode="&#xce;" horiz-adv-x="280" 
d="M105 0v700h70v-700h-70zM255 766l-116 101l-116 -101h-65l141 156h80l141 -156h-65z" />
    <glyph glyph-name="Idieresis" unicode="&#xcf;" horiz-adv-x="280" 
d="M105 0v700h70v-700h-70zM56 796q-20 0 -33.5 13.5t-13.5 33.5t13.5 33.5t33.5 13.5t33.5 -13.5t13.5 -33.5t-13.5 -33.5t-33.5 -13.5zM222 796q-20 0 -33.5 13.5t-13.5 33.5t13.5 33.5t33.5 13.5t33.5 -13.5t13.5 -33.5t-13.5 -33.5t-33.5 -13.5z" />
    <glyph glyph-name="Igrave" unicode="&#xcc;" horiz-adv-x="280" 
d="M105 0v700h70v-700h-70zM175 766l-178 156h107l142 -156h-71z" />
    <glyph glyph-name="Oacute" unicode="&#xd3;" horiz-adv-x="720" 
d="M360 51q60 0 101.5 27t67 70t37 96.5t11.5 105.5q0 57 -11.5 111t-37 95.5t-67 67t-101.5 25.5t-101.5 -27t-67 -70t-37 -96.5t-11.5 -105.5q0 -57 11.5 -111t37 -95.5t67 -67t101.5 -25.5zM360 -12q-81 0 -136.5 32t-89.5 84t-49 116.5t-15 129.5t15 129.5t49 116.5
t89.5 84t136.5 32t136.5 -32t89.5 -84t49 -116.5t15 -129.5t-15 -129.5t-49 -116.5t-89.5 -84t-136.5 -32zM343 766h-71l142 156h107z" />
    <glyph glyph-name="Ocircumflex" unicode="&#xd4;" horiz-adv-x="720" 
d="M360 51q60 0 101.5 27t67 70t37 96.5t11.5 105.5q0 57 -11.5 111t-37 95.5t-67 67t-101.5 25.5t-101.5 -27t-67 -70t-37 -96.5t-11.5 -105.5q0 -57 11.5 -111t37 -95.5t67 -67t101.5 -25.5zM360 -12q-81 0 -136.5 32t-89.5 84t-49 116.5t-15 129.5t15 129.5t49 116.5
t89.5 84t136.5 32t136.5 -32t89.5 -84t49 -116.5t15 -129.5t-15 -129.5t-49 -116.5t-89.5 -84t-136.5 -32zM488 766l-116 101l-116 -101h-65l141 156h80l141 -156h-65z" />
    <glyph glyph-name="Ograve" unicode="&#xd2;" horiz-adv-x="720" 
d="M360 51q60 0 101.5 27t67 70t37 96.5t11.5 105.5q0 57 -11.5 111t-37 95.5t-67 67t-101.5 25.5t-101.5 -27t-67 -70t-37 -96.5t-11.5 -105.5q0 -57 11.5 -111t37 -95.5t67 -67t101.5 -25.5zM360 -12q-81 0 -136.5 32t-89.5 84t-49 116.5t-15 129.5t15 129.5t49 116.5
t89.5 84t136.5 32t136.5 -32t89.5 -84t49 -116.5t15 -129.5t-15 -129.5t-49 -116.5t-89.5 -84t-136.5 -32zM388 766l-178 156h107l142 -156h-71z" />
    <glyph glyph-name="Uacute" unicode="&#xda;" horiz-adv-x="680" 
d="M340 -12q-56 0 -100.5 15t-75.5 48t-47.5 84.5t-16.5 124.5v440h70v-440q0 -63 14 -103.5t37.5 -64t54 -32.5t64.5 -9t64.5 9t54 32.5t37.5 64t14 103.5v440h70v-440q0 -73 -16.5 -124.5t-47.5 -84.5t-75.5 -48t-100.5 -15zM321 766h-71l142 156h107z" />
    <glyph glyph-name="Ucircumflex" unicode="&#xdb;" horiz-adv-x="680" 
d="M340 -12q-56 0 -100.5 15t-75.5 48t-47.5 84.5t-16.5 124.5v440h70v-440q0 -63 14 -103.5t37.5 -64t54 -32.5t64.5 -9t64.5 9t54 32.5t37.5 64t14 103.5v440h70v-440q0 -73 -16.5 -124.5t-47.5 -84.5t-75.5 -48t-100.5 -15zM456 766l-116 101l-116 -101h-65l141 156h80
l141 -156h-65z" />
    <glyph glyph-name="Ugrave" unicode="&#xd9;" horiz-adv-x="680" 
d="M340 -12q-56 0 -100.5 15t-75.5 48t-47.5 84.5t-16.5 124.5v440h70v-440q0 -63 14 -103.5t37.5 -64t54 -32.5t64.5 -9t64.5 9t54 32.5t37.5 64t14 103.5v440h70v-440q0 -73 -16.5 -124.5t-47.5 -84.5t-75.5 -48t-100.5 -15zM376 766l-178 156h107l142 -156h-71z" />
    <glyph glyph-name="dotlessi" unicode="&#x131;" horiz-adv-x="252" 
d="M91 0v511h70v-511h-70z" />
    <glyph glyph-name="circumflex" unicode="&#x2c6;" horiz-adv-x="335" 
d="M285 576l-116 101l-116 -101h-65l141 156h80l141 -156h-65z" />
    <glyph glyph-name="tilde" unicode="&#x2dc;" horiz-adv-x="335" 
d="M247 602q-27 0 -49 8t-41.5 17l-37.5 17t-37 8t-32 -11.5t-15 -34.5h-39q0 53 22.5 81.5t70.5 28.5q27 0 49 -8t41.5 -17.5l37.5 -17.5t37 -8t32 12t15 35h38q0 -53 -22 -81.5t-70 -28.5z" />
    <glyph glyph-name="macron" unicode="&#xaf;" horiz-adv-x="335" 
d="M4 609v61h330v-61h-330z" />
    <glyph glyph-name="breve" unicode="&#x2d8;" horiz-adv-x="335" 
d="M169 581q-47 0 -80.5 12.5t-55.5 34.5t-32.5 51.5t-10.5 62.5h68q0 -48 32.5 -73.5t78.5 -25.5q47 0 79 25.5t32 73.5h68q0 -33 -10.5 -62.5t-32 -51.5t-55.5 -34.5t-81 -12.5z" />
    <glyph glyph-name="dotaccent" unicode="&#x2d9;" horiz-adv-x="335" 
d="M169 606q-20 0 -33.5 13.5t-13.5 33.5t13.5 33.5t33.5 13.5t33.5 -13.5t13.5 -33.5t-13.5 -33.5t-33.5 -13.5z" />
    <glyph glyph-name="ring" unicode="&#x2da;" horiz-adv-x="335" 
d="M169 540q-23 0 -44 9t-37 24.5t-25 36.5t-9 44t9 43.5t25 35.5t37 23.5t44 8.5t44 -8.5t36.5 -23.5t25 -35.5t9.5 -43.5t-9.5 -44t-25 -36.5t-36.5 -24.5t-44 -9zM169 592q24 0 40 17.5t16 44.5t-16 43t-40 16q-23 0 -39.5 -16t-16.5 -43t16.5 -44.5t39.5 -17.5z" />
    <glyph glyph-name="cedilla" unicode="&#xb8;" horiz-adv-x="335" 
d="M173 -234q-29 0 -51 7.5t-37 20.5l46 30q6 -8 14 -9t22 -1q21 0 37 14.5t16 36.5q0 19 -19 33.5t-42 14.5q-25 0 -36 -5l-12 15l68 87h41l-39 -65q29 0 49 -7t32.5 -18.5t18 -26t5.5 -29.5q0 -44 -32.5 -71t-80.5 -27z" />
    <glyph glyph-name="hungarumlaut" unicode="&#x2dd;" horiz-adv-x="335" 
d="M140 576h-71l142 156h107zM338 576h-71l142 156h107z" />
    <glyph glyph-name="ogonek" unicode="&#x2db;" horiz-adv-x="335" 
d="M172 -234q-22 0 -41.5 6t-34.5 18.5t-24 31t-9 42.5q0 50 36.5 87.5t100.5 58.5h56q-68 -28 -100 -63.5t-32 -73.5q0 -31 17 -44t37 -13q21 0 34 7.5t21 15.5l39 -29q-15 -17 -39.5 -30.5t-60.5 -13.5z" />
    <glyph glyph-name="caron" unicode="&#x2c7;" horiz-adv-x="335" 
d="M209 576h-80l-141 156h65l116 -101l116 101h65z" />
    <glyph glyph-name="currency" unicode="&#xa4;" horiz-adv-x="635" 
d="M317 86q-90 0 -148 46l-65 -66l-53 54l68 68q-19 29 -28 65.5t-9 79.5q0 42 8.5 78t27.5 68l-67 67l50 52l66 -65q29 22 67 35t83 13t82.5 -12.5t66.5 -34.5l65 64l53 -55l-65 -65q35 -61 35 -145q0 -88 -39 -148l69 -68l-50 -51l-67 67q-59 -47 -150 -47zM317 153
q37 0 68 13.5t52.5 37.5t33.5 57t12 72t-12 72t-33.5 57t-52.5 38t-68 14t-67 -14t-51.5 -38t-33.5 -57t-12 -72t12 -72t33.5 -57t51.5 -37.5t67 -13.5z" />
    <glyph glyph-name="uni00AD" unicode="&#xad;" horiz-adv-x="403" 
d="M90 264v68h223v-68h-223z" />
    <glyph glyph-name="Amacron" unicode="&#x100;" horiz-adv-x="662" 
d="M531 0l-64 181h-273l-61 -181h-73l243 700h54l245 -700h-71zM446 243l-96 280q-5 13 -11.5 33t-8.5 30q-3 -10 -8.5 -30t-10.5 -33l-96 -280h231zM165 799v61h330v-61h-330z" />
    <glyph glyph-name="amacron" unicode="&#x101;" horiz-adv-x="519" 
d="M384 0v50q-31 -28 -69.5 -45t-80.5 -17q-77 0 -125.5 43.5t-48.5 129.5q0 44 15.5 76t41 52.5t59.5 30.5t70 10q32 0 66 -8t72 -28v43q0 39 -9.5 63t-25 38t-36 19t-41.5 5q-19 0 -40 -5t-41 -13t-38.5 -17.5t-32.5 -19.5l-20 60q31 20 78.5 38t100.5 18q27 0 57 -7.5
t55 -27t41.5 -54t16.5 -88.5v-346h-65zM241 49q23 0 44 7t39 18t33 25.5t27 28.5v99q-25 17 -61.5 29.5t-69.5 12.5q-26 0 -49 -6.5t-40.5 -20t-28 -33.5t-10.5 -48q0 -51 30 -81.5t86 -30.5zM106 609v61h330v-61h-330z" />
    <glyph glyph-name="Abreve" unicode="&#x102;" horiz-adv-x="662" 
d="M531 0l-64 181h-273l-61 -181h-73l243 700h54l245 -700h-71zM446 243l-96 280q-5 13 -11.5 33t-8.5 30q-3 -10 -8.5 -30t-10.5 -33l-96 -280h231zM330 771q-47 0 -80.5 12.5t-55.5 34.5t-32.5 51.5t-10.5 62.5h68q0 -48 32.5 -73.5t78.5 -25.5q47 0 79 25.5t32 73.5h68
q0 -33 -10.5 -62.5t-32 -51.5t-55.5 -34.5t-81 -12.5z" />
    <glyph glyph-name="abreve" unicode="&#x103;" horiz-adv-x="519" 
d="M384 0v50q-31 -28 -69.5 -45t-80.5 -17q-77 0 -125.5 43.5t-48.5 129.5q0 44 15.5 76t41 52.5t59.5 30.5t70 10q32 0 66 -8t72 -28v43q0 39 -9.5 63t-25 38t-36 19t-41.5 5q-19 0 -40 -5t-41 -13t-38.5 -17.5t-32.5 -19.5l-20 60q31 20 78.5 38t100.5 18q27 0 57 -7.5
t55 -27t41.5 -54t16.5 -88.5v-346h-65zM241 49q23 0 44 7t39 18t33 25.5t27 28.5v99q-25 17 -61.5 29.5t-69.5 12.5q-26 0 -49 -6.5t-40.5 -20t-28 -33.5t-10.5 -48q0 -51 30 -81.5t86 -30.5zM271 581q-47 0 -80.5 12.5t-55.5 34.5t-32.5 51.5t-10.5 62.5h68
q0 -48 32.5 -73.5t78.5 -25.5q47 0 79 25.5t32 73.5h68q0 -33 -10.5 -62.5t-32 -51.5t-55.5 -34.5t-81 -12.5z" />
    <glyph glyph-name="Aogonek" unicode="&#x104;" horiz-adv-x="662" 
d="M520 -234q-22 0 -41.5 6t-34.5 18.5t-24 31t-9 42.5q0 45 29.5 80t90.5 56l-64 181h-273l-61 -181h-73l243 700h54l245 -700q-37 -13 -62 -28t-40 -31.5t-21.5 -33.5t-6.5 -34q0 -31 17 -44t37 -13q21 0 34 7.5t21 15.5l39 -29q-15 -17 -39.5 -30.5t-60.5 -13.5zM215 243
h231l-116 337z" />
    <glyph glyph-name="aogonek" unicode="&#x105;" horiz-adv-x="519" 
d="M381 -234q-22 0 -41.5 6t-34.5 18.5t-24 31t-9 42.5q0 48 31.5 81.5t80.5 54.5v50q-31 -28 -69.5 -45t-80.5 -17q-77 0 -125.5 43.5t-48.5 129.5q0 44 15.5 76t41 52.5t59.5 30.5t70 10q32 0 66 -8t72 -28v43q0 39 -9.5 63t-25 38t-36 19t-41.5 5q-19 0 -40 -5t-41 -13
t-38.5 -17.5t-32.5 -19.5l-20 60q31 20 78.5 38t100.5 18q27 0 57 -7.5t55 -27t41.5 -54t16.5 -88.5v-346q-34 -14 -56 -30.5t-35.5 -33t-19 -33t-5.5 -30.5q0 -31 17 -44t37 -13q21 0 34 7.5t21 15.5l39 -29q-15 -17 -39.5 -30.5t-60.5 -13.5zM241 49q23 0 44 7t39 18
t33 25.5t27 28.5v99q-25 17 -61.5 29.5t-69.5 12.5q-26 0 -49 -6.5t-40.5 -20t-28 -33.5t-10.5 -48q0 -51 30 -81.5t86 -30.5z" />
    <glyph glyph-name="Cacute" unicode="&#x106;" horiz-adv-x="644" 
d="M360 -12q-78 0 -133 31t-90 81.5t-51 115.5t-16 134q0 72 17 137.5t52.5 115.5t90 79.5t130.5 29.5q47 0 81.5 -9.5t59.5 -25.5t42.5 -36.5t30.5 -41.5l-62 -36q-12 17 -25.5 32.5t-31.5 27.5t-41.5 19t-53.5 7q-60 0 -101.5 -27t-67 -70t-37 -96.5t-11.5 -105.5
q0 -58 12.5 -112t38.5 -95.5t67.5 -66.5t98.5 -25q63 0 100.5 24.5t61.5 64.5l62 -24q-12 -24 -31.5 -47t-47 -41t-64 -29t-81.5 -11zM346 766h-71l142 156h107z" />
    <glyph glyph-name="cacute" unicode="&#x107;" horiz-adv-x="481" 
d="M257 -12q-93 0 -147.5 69.5t-54.5 197.5q0 127 55.5 197.5t154.5 70.5q57 0 100 -27.5t64 -79.5l-64 -25q-12 29 -36.5 49t-66.5 20q-36 0 -61 -14.5t-41.5 -41t-24 -64.5t-7.5 -85q0 -97 32 -150.5t100 -53.5q42 0 71 21t42 57l63 -24q-18 -54 -65.5 -85.5t-113.5 -31.5
zM215 576h-71l142 156h107z" />
    <glyph glyph-name="Ccircumflex" unicode="&#x108;" horiz-adv-x="644" 
d="M360 -12q-78 0 -133 31t-90 81.5t-51 115.5t-16 134q0 72 17 137.5t52.5 115.5t90 79.5t130.5 29.5q47 0 81.5 -9.5t59.5 -25.5t42.5 -36.5t30.5 -41.5l-62 -36q-12 17 -25.5 32.5t-31.5 27.5t-41.5 19t-53.5 7q-60 0 -101.5 -27t-67 -70t-37 -96.5t-11.5 -105.5
q0 -58 12.5 -112t38.5 -95.5t67.5 -66.5t98.5 -25q63 0 100.5 24.5t61.5 64.5l62 -24q-12 -24 -31.5 -47t-47 -41t-64 -29t-81.5 -11zM481 766l-116 101l-116 -101h-65l141 156h80l141 -156h-65z" />
    <glyph glyph-name="ccircumflex" unicode="&#x109;" horiz-adv-x="481" 
d="M257 -12q-93 0 -147.5 69.5t-54.5 197.5q0 127 55.5 197.5t154.5 70.5q57 0 100 -27.5t64 -79.5l-64 -25q-12 29 -36.5 49t-66.5 20q-36 0 -61 -14.5t-41.5 -41t-24 -64.5t-7.5 -85q0 -97 32 -150.5t100 -53.5q42 0 71 21t42 57l63 -24q-18 -54 -65.5 -85.5t-113.5 -31.5
zM370 576l-116 101l-116 -101h-65l141 156h80l141 -156h-65z" />
    <glyph glyph-name="Cdotaccent" unicode="&#x10a;" horiz-adv-x="644" 
d="M360 -12q-78 0 -133 31t-90 81.5t-51 115.5t-16 134q0 72 17 137.5t52.5 115.5t90 79.5t130.5 29.5q47 0 81.5 -9.5t59.5 -25.5t42.5 -36.5t30.5 -41.5l-62 -36q-12 17 -25.5 32.5t-31.5 27.5t-41.5 19t-53.5 7q-60 0 -101.5 -27t-67 -70t-37 -96.5t-11.5 -105.5
q0 -58 12.5 -112t38.5 -95.5t67.5 -66.5t98.5 -25q63 0 100.5 24.5t61.5 64.5l62 -24q-12 -24 -31.5 -47t-47 -41t-64 -29t-81.5 -11zM360 796q-20 0 -33.5 13.5t-13.5 33.5t13.5 33.5t33.5 13.5t33.5 -13.5t13.5 -33.5t-13.5 -33.5t-33.5 -13.5z" />
    <glyph glyph-name="cdotaccent" unicode="&#x10b;" horiz-adv-x="481" 
d="M257 -12q-93 0 -147.5 69.5t-54.5 197.5q0 127 55.5 197.5t154.5 70.5q57 0 100 -27.5t64 -79.5l-64 -25q-12 29 -36.5 49t-66.5 20q-36 0 -61 -14.5t-41.5 -41t-24 -64.5t-7.5 -85q0 -97 32 -150.5t100 -53.5q42 0 71 21t42 57l63 -24q-18 -54 -65.5 -85.5t-113.5 -31.5
zM259 606q-20 0 -33.5 13.5t-13.5 33.5t13.5 33.5t33.5 13.5t33.5 -13.5t13.5 -33.5t-13.5 -33.5t-33.5 -13.5z" />
    <glyph glyph-name="Ccaron" unicode="&#x10c;" horiz-adv-x="644" 
d="M360 -12q-78 0 -133 31t-90 81.5t-51 115.5t-16 134q0 72 17 137.5t52.5 115.5t90 79.5t130.5 29.5q47 0 81.5 -9.5t59.5 -25.5t42.5 -36.5t30.5 -41.5l-62 -36q-12 17 -25.5 32.5t-31.5 27.5t-41.5 19t-53.5 7q-60 0 -101.5 -27t-67 -70t-37 -96.5t-11.5 -105.5
q0 -58 12.5 -112t38.5 -95.5t67.5 -66.5t98.5 -25q63 0 100.5 24.5t61.5 64.5l62 -24q-12 -24 -31.5 -47t-47 -41t-64 -29t-81.5 -11zM405 766h-80l-141 156h65l116 -101l116 101h65z" />
    <glyph glyph-name="ccaron" unicode="&#x10d;" horiz-adv-x="481" 
d="M257 -12q-93 0 -147.5 69.5t-54.5 197.5q0 127 55.5 197.5t154.5 70.5q57 0 100 -27.5t64 -79.5l-64 -25q-12 29 -36.5 49t-66.5 20q-36 0 -61 -14.5t-41.5 -41t-24 -64.5t-7.5 -85q0 -97 32 -150.5t100 -53.5q42 0 71 21t42 57l63 -24q-18 -54 -65.5 -85.5t-113.5 -31.5
zM306 576h-80l-141 156h65l116 -101l116 101h65z" />
    <glyph glyph-name="Dcaron" unicode="&#x10e;" horiz-adv-x="678" 
d="M105 700h186q89 0 149.5 -30.5t98 -80t53.5 -112t16 -127.5q0 -60 -14.5 -122.5t-51.5 -113t-99 -82.5t-156 -32h-182v700zM292 63q70 0 117 25.5t75 67t39.5 92.5t11.5 102q0 54 -13 106t-41 92t-72 64.5t-106 24.5h-128v-574h117zM338 766h-80l-141 156h65l116 -101
l116 101h65z" />
    <glyph glyph-name="dcaron" unicode="&#x10f;" horiz-adv-x="690" 
d="M266 -12q-49 0 -88 19t-66.5 54t-42 84.5t-14.5 110.5q0 127 56.5 197t154.5 70q48 0 80.5 -14.5t55.5 -33.5v212l70 35v-722h-70v44q-23 -23 -55.5 -39.5t-80.5 -16.5zM274 51q38 0 72.5 21t55.5 59v255q-8 13 -20 26t-27.5 23.5t-36 17.5t-44.5 7q-71 0 -108.5 -52.5
t-37.5 -151.5q0 -43 10 -80.5t29 -65t46 -43.5t61 -16zM658 712v-8q0 -61 -15.5 -116.5t-64.5 -103.5l-20 14q7 15 12.5 39.5t9.5 54t6 61t2 59.5h70z" />
    <glyph glyph-name="Dcroat" unicode="&#x110;" horiz-adv-x="678" 
d="M105 318h-70v62h70v320h186q89 0 149.5 -30.5t98 -80t53.5 -112t16 -127.5q0 -60 -14.5 -122.5t-51.5 -113t-99 -82.5t-156 -32h-182v318zM292 63q70 0 117 25.5t75 67t39.5 92.5t11.5 102q0 54 -13 106t-41 92t-72 64.5t-106 24.5h-128v-257h155v-62h-155v-255h117z" />
    <glyph glyph-name="dcroat" unicode="&#x111;" horiz-adv-x="562" 
d="M472 553v-553h-70v44q-26 -25 -57 -40.5t-79 -15.5q-49 0 -88 18.5t-66.5 52t-42 79.5t-14.5 102q0 118 56.5 183.5t154.5 65.5q48 0 80.5 -14.5t55.5 -33.5v112h-142v63h142v71l70 35v-106h65v-63h-65zM274 51q38 0 72.5 21t55.5 59v221q-8 13 -20 26t-27.5 23.5
t-36 17.5t-44.5 7q-71 0 -108.5 -48t-37.5 -138q0 -37 10 -71t29 -60.5t46 -42t61 -15.5z" />
    <glyph glyph-name="Emacron" unicode="&#x112;" horiz-adv-x="596" 
d="M105 0v700h399v-67h-329v-238h222v-66h-222v-262h351v-67h-421zM144 799v61h330v-61h-330z" />
    <glyph glyph-name="emacron" unicode="&#x113;" horiz-adv-x="529" 
d="M129 227q9 -78 47 -126t104 -48q28 0 57 9t58 31l38 -47q-30 -25 -70.5 -41.5t-85.5 -16.5q-52 0 -93 21.5t-69.5 58.5t-44 85.5t-15.5 102.5q0 64 16.5 113.5t45.5 83.5t70 52t90 18q41 0 77.5 -14.5t64.5 -44.5t44 -77t16 -111v-20t-2 -29h-348zM277 460
q-62 0 -103.5 -41t-46.5 -129h281q0 52 -13 85t-32.5 52t-42.5 26t-43 7zM112 609v61h330v-61h-330z" />
    <glyph glyph-name="Ebreve" unicode="&#x114;" horiz-adv-x="596" 
d="M105 0v700h399v-67h-329v-238h222v-66h-222v-262h351v-67h-421zM314 771q-47 0 -80.5 12.5t-55.5 34.5t-32.5 51.5t-10.5 62.5h68q0 -48 32.5 -73.5t78.5 -25.5q47 0 79 25.5t32 73.5h68q0 -33 -10.5 -62.5t-32 -51.5t-55.5 -34.5t-81 -12.5z" />
    <glyph glyph-name="ebreve" unicode="&#x115;" horiz-adv-x="529" 
d="M129 227q9 -78 47 -126t104 -48q28 0 57 9t58 31l38 -47q-30 -25 -70.5 -41.5t-85.5 -16.5q-52 0 -93 21.5t-69.5 58.5t-44 85.5t-15.5 102.5q0 64 16.5 113.5t45.5 83.5t70 52t90 18q41 0 77.5 -14.5t64.5 -44.5t44 -77t16 -111v-20t-2 -29h-348zM277 460
q-62 0 -103.5 -41t-46.5 -129h281q0 52 -13 85t-32.5 52t-42.5 26t-43 7zM277 581q-47 0 -80.5 12.5t-55.5 34.5t-32.5 51.5t-10.5 62.5h68q0 -48 32.5 -73.5t78.5 -25.5q47 0 79 25.5t32 73.5h68q0 -33 -10.5 -62.5t-32 -51.5t-55.5 -34.5t-81 -12.5z" />
    <glyph glyph-name="Edotaccent" unicode="&#x116;" horiz-adv-x="596" 
d="M105 0v700h399v-67h-329v-238h222v-66h-222v-262h351v-67h-421zM314 796q-20 0 -33.5 13.5t-13.5 33.5t13.5 33.5t33.5 13.5t33.5 -13.5t13.5 -33.5t-13.5 -33.5t-33.5 -13.5z" />
    <glyph glyph-name="edotaccent" unicode="&#x117;" horiz-adv-x="529" 
d="M129 227q9 -78 47 -126t104 -48q28 0 57 9t58 31l38 -47q-30 -25 -70.5 -41.5t-85.5 -16.5q-52 0 -93 21.5t-69.5 58.5t-44 85.5t-15.5 102.5q0 64 16.5 113.5t45.5 83.5t70 52t90 18q41 0 77.5 -14.5t64.5 -44.5t44 -77t16 -111v-20t-2 -29h-348zM277 460
q-62 0 -103.5 -41t-46.5 -129h281q0 52 -13 85t-32.5 52t-42.5 26t-43 7zM277 606q-20 0 -33.5 13.5t-13.5 33.5t13.5 33.5t33.5 13.5t33.5 -13.5t13.5 -33.5t-13.5 -33.5t-33.5 -13.5z" />
    <glyph glyph-name="Eogonek" unicode="&#x118;" horiz-adv-x="596" 
d="M490 0q-27 0 -53 -11t-46.5 -29t-33 -41t-12.5 -46q0 -31 17 -44t37 -13q21 0 34 7.5t21 15.5l39 -29q-15 -17 -39.5 -30.5t-60.5 -13.5q-22 0 -41.5 6t-34.5 18.5t-24 31t-9 42.5q0 45 29 79.5t81 56.5h-289v700h399v-67h-329v-238h222v-66h-222v-262h351v-67h-36z" />
    <glyph glyph-name="eogonek" unicode="&#x119;" horiz-adv-x="529" 
d="M291 -234q-22 0 -41.5 6t-34.5 18.5t-24 31t-9 42.5q0 39 22 70.5t63 53.5q-50 2 -89 24.5t-66.5 59t-42 84t-14.5 100.5q0 64 16.5 113.5t45.5 83.5t70 52t90 18q41 0 77.5 -14.5t64.5 -44.5t44 -77t16 -111v-20t-2 -29h-348q9 -78 47 -126t104 -48q28 0 57 9t58 31
l38 -47q-23 -20 -55.5 -36t-62.5 -35t-51 -43t-21 -59q0 -31 17 -44t37 -13q21 0 34 7.5t21 15.5l39 -29q-15 -17 -39.5 -30.5t-60.5 -13.5zM277 460q-62 0 -103.5 -41t-46.5 -129h281q0 52 -13 85t-32.5 52t-42.5 26t-43 7z" />
    <glyph glyph-name="Ecaron" unicode="&#x11a;" horiz-adv-x="596" 
d="M105 0v700h399v-67h-329v-238h222v-66h-222v-262h351v-67h-421zM354 766h-80l-141 156h65l116 -101l116 101h65z" />
    <glyph glyph-name="ecaron" unicode="&#x11b;" horiz-adv-x="529" 
d="M129 227q9 -78 47 -126t104 -48q28 0 57 9t58 31l38 -47q-30 -25 -70.5 -41.5t-85.5 -16.5q-52 0 -93 21.5t-69.5 58.5t-44 85.5t-15.5 102.5q0 64 16.5 113.5t45.5 83.5t70 52t90 18q41 0 77.5 -14.5t64.5 -44.5t44 -77t16 -111v-20t-2 -29h-348zM277 460
q-62 0 -103.5 -41t-46.5 -129h281q0 52 -13 85t-32.5 52t-42.5 26t-43 7zM317 576h-80l-141 156h65l116 -101l116 101h65z" />
    <glyph glyph-name="Gcircumflex" unicode="&#x11c;" horiz-adv-x="685" 
d="M360 -12q-78 0 -133 31t-90 81.5t-51 115.5t-16 134q0 72 17 137.5t52.5 115.5t90 79.5t130.5 29.5q47 0 81.5 -9.5t59.5 -25.5t42.5 -36.5t30.5 -41.5l-62 -36q-12 17 -25.5 32.5t-31.5 27.5t-41.5 19t-53.5 7q-60 0 -101.5 -27t-67 -70t-37 -96.5t-11.5 -105.5
q0 -58 12.5 -112t38.5 -95.5t67.5 -66.5t98.5 -25q77 0 121.5 47t44.5 127v42h-129v62h203v-77q0 -65 -18.5 -114t-51 -82.5t-76 -50.5t-94.5 -17zM465 766l-116 101l-116 -101h-65l141 156h80l141 -156h-65z" />
    <glyph glyph-name="gcircumflex" unicode="&#x11d;" horiz-adv-x="564" 
d="M202 -158q62 3 101.5 15.5t62 31t30.5 42t8 49.5v78q-22 -32 -54.5 -51t-85.5 -19q-41 0 -79 17t-67 50.5t-46 83.5t-17 117q0 63 15.5 112.5t44 84t67.5 52.5t86 18q29 0 51.5 -6.5t39 -16t28 -20t17.5 -17.5v48h70v-503q0 -63 -20 -104.5t-53 -67t-76.5 -36.5
t-90.5 -13zM280 51q32 0 67.5 22.5t56.5 62.5v246q-11 19 -26.5 33.5t-32.5 24.5t-34 15t-31 5q-76 0 -114 -52.5t-38 -151.5q0 -49 11.5 -87t32 -64.5t48 -40t60.5 -13.5zM403 576l-116 101l-116 -101h-65l141 156h80l141 -156h-65z" />
    <glyph glyph-name="Gbreve" unicode="&#x11e;" horiz-adv-x="685" 
d="M360 -12q-78 0 -133 31t-90 81.5t-51 115.5t-16 134q0 72 17 137.5t52.5 115.5t90 79.5t130.5 29.5q47 0 81.5 -9.5t59.5 -25.5t42.5 -36.5t30.5 -41.5l-62 -36q-12 17 -25.5 32.5t-31.5 27.5t-41.5 19t-53.5 7q-60 0 -101.5 -27t-67 -70t-37 -96.5t-11.5 -105.5
q0 -58 12.5 -112t38.5 -95.5t67.5 -66.5t98.5 -25q77 0 121.5 47t44.5 127v42h-129v62h203v-77q0 -65 -18.5 -114t-51 -82.5t-76 -50.5t-94.5 -17zM349 771q-47 0 -80.5 12.5t-55.5 34.5t-32.5 51.5t-10.5 62.5h68q0 -48 32.5 -73.5t78.5 -25.5q47 0 79 25.5t32 73.5h68
q0 -33 -10.5 -62.5t-32 -51.5t-55.5 -34.5t-81 -12.5z" />
    <glyph glyph-name="gbreve" unicode="&#x11f;" horiz-adv-x="564" 
d="M202 -158q62 3 101.5 15.5t62 31t30.5 42t8 49.5v78q-22 -32 -54.5 -51t-85.5 -19q-41 0 -79 17t-67 50.5t-46 83.5t-17 117q0 63 15.5 112.5t44 84t67.5 52.5t86 18q29 0 51.5 -6.5t39 -16t28 -20t17.5 -17.5v48h70v-503q0 -63 -20 -104.5t-53 -67t-76.5 -36.5
t-90.5 -13zM280 51q32 0 67.5 22.5t56.5 62.5v246q-11 19 -26.5 33.5t-32.5 24.5t-34 15t-31 5q-76 0 -114 -52.5t-38 -151.5q0 -49 11.5 -87t32 -64.5t48 -40t60.5 -13.5zM287 581q-47 0 -80.5 12.5t-55.5 34.5t-32.5 51.5t-10.5 62.5h68q0 -48 32.5 -73.5t78.5 -25.5
q47 0 79 25.5t32 73.5h68q0 -33 -10.5 -62.5t-32 -51.5t-55.5 -34.5t-81 -12.5z" />
    <glyph glyph-name="Gdotaccent" unicode="&#x120;" horiz-adv-x="685" 
d="M360 -12q-78 0 -133 31t-90 81.5t-51 115.5t-16 134q0 72 17 137.5t52.5 115.5t90 79.5t130.5 29.5q47 0 81.5 -9.5t59.5 -25.5t42.5 -36.5t30.5 -41.5l-62 -36q-12 17 -25.5 32.5t-31.5 27.5t-41.5 19t-53.5 7q-60 0 -101.5 -27t-67 -70t-37 -96.5t-11.5 -105.5
q0 -58 12.5 -112t38.5 -95.5t67.5 -66.5t98.5 -25q77 0 121.5 47t44.5 127v42h-129v62h203v-77q0 -65 -18.5 -114t-51 -82.5t-76 -50.5t-94.5 -17zM347 796q-20 0 -33.5 13.5t-13.5 33.5t13.5 33.5t33.5 13.5t33.5 -13.5t13.5 -33.5t-13.5 -33.5t-33.5 -13.5z" />
    <glyph glyph-name="gdotaccent" unicode="&#x121;" horiz-adv-x="564" 
d="M202 -158q62 3 101.5 15.5t62 31t30.5 42t8 49.5v78q-22 -32 -54.5 -51t-85.5 -19q-41 0 -79 17t-67 50.5t-46 83.5t-17 117q0 63 15.5 112.5t44 84t67.5 52.5t86 18q29 0 51.5 -6.5t39 -16t28 -20t17.5 -17.5v48h70v-503q0 -63 -20 -104.5t-53 -67t-76.5 -36.5
t-90.5 -13zM280 51q32 0 67.5 22.5t56.5 62.5v246q-11 19 -26.5 33.5t-32.5 24.5t-34 15t-31 5q-76 0 -114 -52.5t-38 -151.5q0 -49 11.5 -87t32 -64.5t48 -40t60.5 -13.5zM287 606q-20 0 -33.5 13.5t-13.5 33.5t13.5 33.5t33.5 13.5t33.5 -13.5t13.5 -33.5t-13.5 -33.5
t-33.5 -13.5z" />
    <glyph glyph-name="Gcommaaccent" unicode="&#x122;" horiz-adv-x="685" 
d="M360 -12q-78 0 -133 31t-90 81.5t-51 115.5t-16 134q0 72 17 137.5t52.5 115.5t90 79.5t130.5 29.5q47 0 81.5 -9.5t59.5 -25.5t42.5 -36.5t30.5 -41.5l-62 -36q-12 17 -25.5 32.5t-31.5 27.5t-41.5 19t-53.5 7q-60 0 -101.5 -27t-67 -70t-37 -96.5t-11.5 -105.5
q0 -58 12.5 -112t38.5 -95.5t67.5 -66.5t98.5 -25q77 0 121.5 47t44.5 127v42h-129v62h203v-77q0 -65 -18.5 -114t-51 -82.5t-76 -50.5t-94.5 -17zM313 -239q7 5 21.5 24.5t17.5 49.5q-29 0 -41.5 16.5t-12.5 37.5q0 24 16 38.5t36 14.5t37 -16t17 -43q0 -40 -17.5 -72
t-55.5 -55z" />
    <glyph glyph-name="gcommaaccent" unicode="&#x123;" horiz-adv-x="564" 
d="M286 603q-20 0 -37 16t-17 43q0 40 17.5 72t55.5 55l18 -5q-7 -5 -21.5 -24.5t-17.5 -49.5q29 0 41.5 -16.5t12.5 -37.5q0 -24 -16 -38.5t-36 -14.5zM202 -158q62 3 101.5 15.5t62 31t30.5 42t8 49.5v78q-22 -32 -54.5 -51t-85.5 -19q-41 0 -79 17t-67 50.5t-46 83.5
t-17 117q0 63 15.5 112.5t44 84t67.5 52.5t86 18q29 0 51.5 -6.5t39 -16t28 -20t17.5 -17.5v48h70v-503q0 -63 -20 -104.5t-53 -67t-76.5 -36.5t-90.5 -13zM280 51q32 0 67.5 22.5t56.5 62.5v246q-11 19 -26.5 33.5t-32.5 24.5t-34 15t-31 5q-76 0 -114 -52.5t-38 -151.5
q0 -49 11.5 -87t32 -64.5t48 -40t60.5 -13.5z" />
    <glyph glyph-name="Hcircumflex" unicode="&#x124;" horiz-adv-x="692" 
d="M517 0v331h-342v-331h-70v700h70v-303h342v303h70v-700h-70zM460 766l-116 101l-116 -101h-65l141 156h80l141 -156h-65z" />
    <glyph glyph-name="hcircumflex" unicode="&#x125;" 
d="M292 523q94 0 138.5 -56.5t44.5 -183.5v-283h-70v312q0 81 -34 114.5t-85 33.5q-27 0 -50 -7t-40 -24t-26.5 -45t-9.5 -70v-314h-70v689l70 33v-268q23 35 57 52t75 17zM407 765l-116 101l-116 -101h-65l141 156h80l141 -156h-65z" />
    <glyph glyph-name="Hbar" unicode="&#x126;" horiz-adv-x="692" 
d="M517 0v331h-342v-331h-70v532h-90v66h90v102h70v-102h342v102h70v-102h90v-66h-90v-532h-70zM517 397v135h-342v-135h342z" />
    <glyph glyph-name="hbar" unicode="&#x127;" 
d="M405 0v278q0 81 -33.5 114.5t-84.5 33.5q-27 0 -50 -7t-40.5 -24t-27 -45t-9.5 -70v-280h-70v553h-65v63h65v73l70 33v-106h156v-63h-156v-133q23 35 57.5 52t75.5 17q94 0 138 -56.5t44 -183.5v-249h-70z" />
    <glyph glyph-name="Itilde" unicode="&#x128;" horiz-adv-x="280" 
d="M105 0v700h70v-700h-70zM220 792q-27 0 -49 8t-41.5 17l-37.5 17t-37 8t-32 -11.5t-15 -34.5h-39q0 53 22.5 81.5t70.5 28.5q27 0 49 -8t41.5 -17.5l37.5 -17.5t37 -8t32 12t15 35h38q0 -53 -22 -81.5t-70 -28.5z" />
    <glyph glyph-name="itilde" unicode="&#x129;" horiz-adv-x="252" 
d="M91 0v511h70v-511h-70zM206 602q-27 0 -49 8t-41.5 17l-37.5 17t-37 8t-32 -11.5t-15 -34.5h-39q0 53 22.5 81.5t70.5 28.5q27 0 49 -8t41.5 -17.5l37.5 -17.5t37 -8t32 12t15 35h38q0 -53 -22 -81.5t-70 -28.5z" />
    <glyph glyph-name="Imacron" unicode="&#x12a;" horiz-adv-x="280" 
d="M105 0v700h70v-700h-70zM-25 799v61h330v-61h-330z" />
    <glyph glyph-name="imacron" unicode="&#x12b;" horiz-adv-x="252" 
d="M91 0v511h70v-511h-70zM-39 609v61h330v-61h-330z" />
    <glyph glyph-name="Ibreve" unicode="&#x12c;" horiz-adv-x="280" 
d="M105 0v700h70v-700h-70zM140 771q-47 0 -80.5 12.5t-55.5 34.5t-32.5 51.5t-10.5 62.5h68q0 -48 32.5 -73.5t78.5 -25.5q47 0 79 25.5t32 73.5h68q0 -33 -10.5 -62.5t-32 -51.5t-55.5 -34.5t-81 -12.5z" />
    <glyph glyph-name="ibreve" unicode="&#x12d;" horiz-adv-x="252" 
d="M91 0v511h70v-511h-70zM126 581q-47 0 -80.5 12.5t-55.5 34.5t-32.5 51.5t-10.5 62.5h68q0 -48 32.5 -73.5t78.5 -25.5q47 0 79 25.5t32 73.5h68q0 -33 -10.5 -62.5t-32 -51.5t-55.5 -34.5t-81 -12.5z" />
    <glyph glyph-name="Iogonek" unicode="&#x12e;" horiz-adv-x="280" 
d="M101 -234q-22 0 -41.5 6t-34.5 18.5t-24 31t-9 42.5q0 50 32.5 83.5t80.5 52.5v700h70v-700q-60 -20 -91 -54.5t-31 -72.5q0 -31 17 -44t37 -13q21 0 34 7.5t21 15.5l39 -29q-15 -17 -39.5 -30.5t-60.5 -13.5z" />
    <glyph glyph-name="iogonek" unicode="&#x12f;" horiz-adv-x="252" 
d="M88 -234q-22 0 -41.5 6t-34.5 18.5t-24 31t-9 42.5q0 50 32 83.5t80 52.5v511h71v-511q-60 -20 -91 -54.5t-31 -72.5q0 -31 17 -44t37 -13q21 0 34 7.5t21 15.5l39 -29q-15 -17 -39.5 -30.5t-60.5 -13.5zM126 616q-20 0 -33 13t-13 33t13 34t33 14t33.5 -14t13.5 -34
t-13.5 -33t-33.5 -13z" />
    <glyph glyph-name="Idotaccent" unicode="&#x130;" horiz-adv-x="280" 
d="M105 0v700h70v-700h-70zM140 796q-20 0 -33.5 13.5t-13.5 33.5t13.5 33.5t33.5 13.5t33.5 -13.5t13.5 -33.5t-13.5 -33.5t-33.5 -13.5z" />
    <glyph glyph-name="IJ" unicode="&#x132;" horiz-adv-x="805" 
d="M105 0v700h70v-700h-70zM491 -12q-76 0 -117.5 31.5t-64.5 87.5l55 30q11 -21 21 -37t23.5 -27t33.5 -16.5t52 -5.5q24 0 48.5 6.5t44 24t31.5 47t12 75.5v496h70v-475q0 -72 -20 -118t-50.5 -72.5t-67.5 -36.5t-71 -10z" />
    <glyph glyph-name="ij" unicode="&#x133;" horiz-adv-x="510" 
d="M91 0v511h70v-511h-70zM126 616q-20 0 -33 13t-13 33t13 34t33 14t33 -14t13 -34t-13 -33t-33 -13zM413 -32q0 -51 -14 -85t-36.5 -54.5t-51 -30t-58.5 -11.5l-32 55q36 3 60 12t37.5 22t19 29.5t5.5 34.5v571h70v-543zM378 616q-20 0 -33 13t-13 33t13 34t33 14t33 -14
t13 -34t-13 -33t-33 -13z" />
    <glyph glyph-name="Jcircumflex" unicode="&#x134;" horiz-adv-x="536" 
d="M222 -12q-76 0 -117.5 31.5t-64.5 87.5l55 30q11 -21 21 -37t23.5 -27t33.5 -16.5t52 -5.5q24 0 48.5 6.5t44 24t31.5 47t12 75.5v496h70v-475q0 -72 -20 -118t-50.5 -72.5t-67.5 -36.5t-71 -10zM512 766l-116 101l-116 -101h-65l141 156h80l141 -156h-65z" />
    <glyph glyph-name="jcircumflex" unicode="&#x135;" horiz-adv-x="258" 
d="M162 -32q0 -51 -14 -85t-36.5 -54.5t-51 -30t-58.5 -11.5l-32 55q36 3 60 12t37.5 22t19 29.5t5.5 34.5v571h70v-543zM243 576l-116 101l-116 -101h-65l141 156h80l141 -156h-65z" />
    <glyph glyph-name="Kcommaaccent" unicode="&#x136;" horiz-adv-x="643" 
d="M509 0l-220 403l-114 -142v-261h-70v700h70v-348l277 348h76l-191 -238l251 -462h-79zM297 -239q7 5 21.5 24.5t17.5 49.5q-29 0 -41.5 16.5t-12.5 37.5q0 24 16 38.5t36 14.5t37 -16t17 -43q0 -40 -17.5 -72t-55.5 -55z" />
    <glyph glyph-name="kcommaaccent" unicode="&#x137;" horiz-adv-x="511" 
d="M294 375l192 -375h-77l-164 324l-85 -91v-233h-70v688l70 34v-406l181 195h81zM238 -239q7 5 21.5 24.5t17.5 49.5q-29 0 -41.5 16.5t-12.5 37.5q0 24 16 38.5t36 14.5t37 -16t17 -43q0 -40 -17.5 -72t-55.5 -55z" />
    <glyph glyph-name="kgreenlandic" unicode="&#x138;" horiz-adv-x="522" 
d="M422 0l-143 264l-119 -149v-115h-70v511h70v-303l238 303h78l-149 -188l175 -323h-80z" />
    <glyph glyph-name="Lacute" unicode="&#x139;" horiz-adv-x="562" 
d="M105 0v700h70v-633h347v-67h-417zM129 766h-71l142 156h107z" />
    <glyph glyph-name="lacute" unicode="&#x13a;" horiz-adv-x="260" 
d="M95 0v688l70 34v-722h-70zM95 756h-71l142 156h107z" />
    <glyph glyph-name="Lcommaaccent" unicode="&#x13b;" horiz-adv-x="562" 
d="M105 0v700h70v-633h347v-67h-417zM275 -239q7 5 21.5 24.5t17.5 49.5q-29 0 -41.5 16.5t-12.5 37.5q0 24 16 38.5t36 14.5t37 -16t17 -43q0 -40 -17.5 -72t-55.5 -55z" />
    <glyph glyph-name="lcommaaccent" unicode="&#x13c;" horiz-adv-x="260" 
d="M95 0v688l70 34v-722h-70zM92 -239q7 5 21.5 24.5t17.5 49.5q-29 0 -41.5 16.5t-12.5 37.5q0 24 16 38.5t36 14.5t37 -16t17 -43q0 -40 -17.5 -72t-55.5 -55z" />
    <glyph glyph-name="Lcaron" unicode="&#x13d;" horiz-adv-x="562" 
d="M105 0v700h70v-633h347v-67h-417zM180 766h-80l-141 156h65l116 -101l116 101h65z" />
    <glyph glyph-name="lcaron" unicode="&#x13e;" horiz-adv-x="403" 
d="M95 0v688l70 34v-722h-70zM371 712v-8q0 -61 -15.5 -116.5t-64.5 -103.5l-20 14q7 15 12.5 39.5t9.5 54t6 61t2 59.5h70z" />
    <glyph glyph-name="Ldot" unicode="&#x13f;" horiz-adv-x="562" 
d="M105 0v700h70v-633h347v-67h-417zM408 301q-20 0 -33.5 13.5t-13.5 33.5t13.5 33.5t33.5 13.5t33.5 -13.5t13.5 -33.5t-13.5 -33.5t-33.5 -13.5z" />
    <glyph glyph-name="ldot" unicode="&#x140;" horiz-adv-x="340" 
d="M95 0v688l70 34v-722h-70zM286 267q-20 0 -33.5 13.5t-13.5 33.5t13.5 33.5t33.5 13.5t33.5 -13.5t13.5 -33.5t-13.5 -33.5t-33.5 -13.5z" />
    <glyph glyph-name="Nacute" unicode="&#x143;" horiz-adv-x="705" 
d="M529 0l-354 569v-569h-70v700h71l354 -577v577h70v-700h-71zM343 766h-71l142 156h107z" />
    <glyph glyph-name="nacute" unicode="&#x144;" 
d="M160 455q24 35 57.5 51.5t74.5 16.5q94 0 138.5 -56.5t44.5 -183.5v-283h-70v312q0 81 -34 114.5t-85 33.5q-27 0 -50 -7t-40 -24t-26.5 -45t-9.5 -70v-314h-70v511h70v-56zM252 576h-71l142 156h107z" />
    <glyph glyph-name="Ncommaaccent" unicode="&#x145;" horiz-adv-x="705" 
d="M529 0l-354 569v-569h-70v700h71l354 -577v577h70v-700h-71zM318 -239q7 5 21.5 24.5t17.5 49.5q-29 0 -41.5 16.5t-12.5 37.5q0 24 16 38.5t36 14.5t37 -16t17 -43q0 -40 -17.5 -72t-55.5 -55z" />
    <glyph glyph-name="ncommaaccent" unicode="&#x146;" 
d="M160 455q24 35 57.5 51.5t74.5 16.5q94 0 138.5 -56.5t44.5 -183.5v-283h-70v312q0 81 -34 114.5t-85 33.5q-27 0 -50 -7t-40 -24t-26.5 -45t-9.5 -70v-314h-70v511h70v-56zM255 -239q7 5 21.5 24.5t17.5 49.5q-29 0 -41.5 16.5t-12.5 37.5q0 24 16 38.5t36 14.5t37 -16
t17 -43q0 -40 -17.5 -72t-55.5 -55z" />
    <glyph glyph-name="Ncaron" unicode="&#x147;" horiz-adv-x="705" 
d="M529 0l-354 569v-569h-70v700h71l354 -577v577h70v-700h-71zM402 766h-80l-141 156h65l116 -101l116 101h65z" />
    <glyph glyph-name="ncaron" unicode="&#x148;" 
d="M160 455q24 35 57.5 51.5t74.5 16.5q94 0 138.5 -56.5t44.5 -183.5v-283h-70v312q0 81 -34 114.5t-85 33.5q-27 0 -50 -7t-40 -24t-26.5 -45t-9.5 -70v-314h-70v511h70v-56zM344 576h-80l-141 156h65l116 -101l116 101h65z" />
    <glyph glyph-name="napostrophe" unicode="&#x149;" horiz-adv-x="756" 
d="M356 455q24 35 57.5 51.5t74.5 16.5q94 0 138.5 -56.5t44.5 -183.5v-283h-70v312q0 81 -34 114.5t-85 33.5q-27 0 -50 -7t-40 -24t-26.5 -45t-9.5 -70v-314h-70v511h70v-56zM73 467q7 6 15.5 16.5t16 25.5t13 34t5.5 41q-32 0 -52.5 17.5t-20.5 44.5q0 31 18 48.5
t43 17.5q13 0 26 -5t23 -15t16.5 -26t6.5 -38q0 -57 -26 -99.5t-65 -66.5z" />
    <glyph glyph-name="Eng" unicode="&#x14a;" horiz-adv-x="705" 
d="M407 -189q37 3 60.5 16t37.5 31t19.5 39.5t5.5 42.5v59l-355 570v-569h-70v700h71l354 -577v577h70v-746q0 -80 -36.5 -133t-124.5 -65z" />
    <glyph glyph-name="eng" unicode="&#x14b;" 
d="M283 -158q36 3 60 12t37.5 22t19 29.5t5.5 34.5v372q0 40 -9 68.5t-25 46t-37.5 25.5t-46.5 8q-27 0 -50.5 -7t-40.5 -24t-26.5 -45t-9.5 -70v-314h-70v511h70v-56q24 35 57.5 51.5t75.5 16.5q93 0 137.5 -56.5t44.5 -183.5v-315q0 -51 -14 -85t-36.5 -54.5t-51 -30
t-58.5 -11.5z" />
    <glyph glyph-name="Omacron" unicode="&#x14c;" horiz-adv-x="720" 
d="M360 51q60 0 101.5 27t67 70t37 96.5t11.5 105.5q0 57 -11.5 111t-37 95.5t-67 67t-101.5 25.5t-101.5 -27t-67 -70t-37 -96.5t-11.5 -105.5q0 -57 11.5 -111t37 -95.5t67 -67t101.5 -25.5zM360 -12q-81 0 -136.5 32t-89.5 84t-49 116.5t-15 129.5t15 129.5t49 116.5
t89.5 84t136.5 32t136.5 -32t89.5 -84t49 -116.5t15 -129.5t-15 -129.5t-49 -116.5t-89.5 -84t-136.5 -32zM196 799v61h330v-61h-330z" />
    <glyph glyph-name="omacron" unicode="&#x14d;" horiz-adv-x="548" 
d="M274 51q70 0 108 54t38 151q0 96 -37 150t-109 54t-109 -52.5t-37 -152.5q0 -96 37 -150t109 -54zM274 523q49 0 89.5 -18t69 -52t44.5 -83.5t16 -113.5q0 -63 -16 -113t-44.5 -84.5t-69 -52.5t-89.5 -18t-89.5 18t-69 52t-44.5 83.5t-16 113.5q0 63 16 112.5t44.5 84
t69 53t89.5 18.5zM109 609v61h330v-61h-330z" />
    <glyph glyph-name="Obreve" unicode="&#x14e;" horiz-adv-x="720" 
d="M360 51q60 0 101.5 27t67 70t37 96.5t11.5 105.5q0 57 -11.5 111t-37 95.5t-67 67t-101.5 25.5t-101.5 -27t-67 -70t-37 -96.5t-11.5 -105.5q0 -57 11.5 -111t37 -95.5t67 -67t101.5 -25.5zM360 -12q-81 0 -136.5 32t-89.5 84t-49 116.5t-15 129.5t15 129.5t49 116.5
t89.5 84t136.5 32t136.5 -32t89.5 -84t49 -116.5t15 -129.5t-15 -129.5t-49 -116.5t-89.5 -84t-136.5 -32zM360 771q-47 0 -80.5 12.5t-55.5 34.5t-32.5 51.5t-10.5 62.5h68q0 -48 32.5 -73.5t78.5 -25.5q47 0 79 25.5t32 73.5h68q0 -33 -10.5 -62.5t-32 -51.5t-55.5 -34.5
t-81 -12.5z" />
    <glyph glyph-name="obreve" unicode="&#x14f;" horiz-adv-x="548" 
d="M274 51q70 0 108 54t38 151q0 96 -37 150t-109 54t-109 -52.5t-37 -152.5q0 -96 37 -150t109 -54zM274 523q49 0 89.5 -18t69 -52t44.5 -83.5t16 -113.5q0 -63 -16 -113t-44.5 -84.5t-69 -52.5t-89.5 -18t-89.5 18t-69 52t-44.5 83.5t-16 113.5q0 63 16 112.5t44.5 84
t69 53t89.5 18.5zM274 581q-47 0 -80.5 12.5t-55.5 34.5t-32.5 51.5t-10.5 62.5h68q0 -48 32.5 -73.5t78.5 -25.5q47 0 79 25.5t32 73.5h68q0 -33 -10.5 -62.5t-32 -51.5t-55.5 -34.5t-81 -12.5z" />
    <glyph glyph-name="Ohungarumlaut" unicode="&#x150;" horiz-adv-x="720" 
d="M360 51q60 0 101.5 27t67 70t37 96.5t11.5 105.5q0 57 -11.5 111t-37 95.5t-67 67t-101.5 25.5t-101.5 -27t-67 -70t-37 -96.5t-11.5 -105.5q0 -57 11.5 -111t37 -95.5t67 -67t101.5 -25.5zM360 -12q-81 0 -136.5 32t-89.5 84t-49 116.5t-15 129.5t15 129.5t49 116.5
t89.5 84t136.5 32t136.5 -32t89.5 -84t49 -116.5t15 -129.5t-15 -129.5t-49 -116.5t-89.5 -84t-136.5 -32zM262 766h-71l142 156h107zM460 766h-71l142 156h107z" />
    <glyph glyph-name="ohungarumlaut" unicode="&#x151;" horiz-adv-x="548" 
d="M274 51q70 0 108 54t38 151q0 96 -37 150t-109 54t-109 -52.5t-37 -152.5q0 -96 37 -150t109 -54zM274 523q49 0 89.5 -18t69 -52t44.5 -83.5t16 -113.5q0 -63 -16 -113t-44.5 -84.5t-69 -52.5t-89.5 -18t-89.5 18t-69 52t-44.5 83.5t-16 113.5q0 63 16 112.5t44.5 84
t69 53t89.5 18.5zM175 576h-71l142 156h107zM373 576h-71l142 156h107z" />
    <glyph glyph-name="Racute" unicode="&#x154;" horiz-adv-x="658" 
d="M578 508q0 -32 -9 -63t-29.5 -57.5t-53.5 -45.5t-81 -26l155 -316h-77l-150 313h-158v-313h-70v700h257q62 0 103.5 -17t66.5 -44t35.5 -61.5t10.5 -69.5zM364 376q41 0 69 11.5t45.5 29.5t25 41t7.5 47q0 21 -7 44t-23.5 42.5t-45 32.5t-71.5 13h-189v-261h189zM293 766
h-71l142 156h107z" />
    <glyph glyph-name="racute" unicode="&#x155;" horiz-adv-x="386" 
d="M90 0v511h70v-72q28 42 65 63t72 21q38 0 64 -21l-11 -68q-10 6 -25.5 12.5t-40.5 6.5q-17 0 -38.5 -8t-40.5 -27t-32 -50.5t-13 -78.5v-289h-70zM200 576h-71l142 156h107z" />
    <glyph glyph-name="Rcommaaccent" unicode="&#x156;" horiz-adv-x="658" 
d="M578 508q0 -32 -9 -63t-29.5 -57.5t-53.5 -45.5t-81 -26l155 -316h-77l-150 313h-158v-313h-70v700h257q62 0 103.5 -17t66.5 -44t35.5 -61.5t10.5 -69.5zM364 376q41 0 69 11.5t45.5 29.5t25 41t7.5 47q0 21 -7 44t-23.5 42.5t-45 32.5t-71.5 13h-189v-261h189z
M266 -239q7 5 21.5 24.5t17.5 49.5q-29 0 -41.5 16.5t-12.5 37.5q0 24 16 38.5t36 14.5t37 -16t17 -43q0 -40 -17.5 -72t-55.5 -55z" />
    <glyph glyph-name="rcommaaccent" unicode="&#x157;" horiz-adv-x="386" 
d="M90 0v511h70v-72q28 42 65 63t72 21q38 0 64 -21l-11 -68q-10 6 -25.5 12.5t-40.5 6.5q-17 0 -38.5 -8t-40.5 -27t-32 -50.5t-13 -78.5v-289h-70zM90 -259q7 5 21.5 24.5t17.5 49.5q-29 0 -41.5 16.5t-12.5 37.5q0 24 16 38.5t36 14.5t37 -16t17 -43q0 -40 -17.5 -72
t-55.5 -55z" />
    <glyph glyph-name="Rcaron" unicode="&#x158;" horiz-adv-x="658" 
d="M578 508q0 -32 -9 -63t-29.5 -57.5t-53.5 -45.5t-81 -26l155 -316h-77l-150 313h-158v-313h-70v700h257q62 0 103.5 -17t66.5 -44t35.5 -61.5t10.5 -69.5zM364 376q41 0 69 11.5t45.5 29.5t25 41t7.5 47q0 21 -7 44t-23.5 42.5t-45 32.5t-71.5 13h-189v-261h189zM350 766
h-80l-141 156h65l116 -101l116 101h65z" />
    <glyph glyph-name="rcaron" unicode="&#x159;" horiz-adv-x="386" 
d="M90 0v511h70v-72q28 42 65 63t72 21q38 0 64 -21l-11 -68q-10 6 -25.5 12.5t-40.5 6.5q-17 0 -38.5 -8t-40.5 -27t-32 -50.5t-13 -78.5v-289h-70zM271 576h-80l-141 156h65l116 -101l116 101h65z" />
    <glyph glyph-name="Sacute" unicode="&#x15a;" horiz-adv-x="594" 
d="M420 579q-13 28 -46.5 49t-86.5 21q-62 0 -96.5 -27t-34.5 -72q0 -28 13.5 -48.5t36 -37t51.5 -29.5t60 -25q36 -14 72 -33t65 -46t47 -63.5t18 -85.5q0 -47 -16.5 -83t-45.5 -60.5t-70 -37.5t-89 -13q-44 0 -82 11.5t-68 31t-51.5 45t-31.5 54.5l66 24
q21 -46 64.5 -74.5t103.5 -28.5q69 0 108.5 33t39.5 96q0 32 -13 57.5t-35 45t-50.5 34t-59.5 26.5q-37 14 -73.5 31.5t-66 42t-47.5 56.5t-18 76q0 33 14 63t40.5 52t64.5 35t87 13q77 0 129 -31.5t66 -79.5zM272 766h-71l142 156h107z" />
    <glyph glyph-name="sacute" unicode="&#x15b;" horiz-adv-x="463" 
d="M345 406q-20 20 -50 37.5t-72 17.5q-45 0 -71 -18t-26 -49q0 -20 10 -34t26 -25.5t37 -20.5l44 -18q28 -11 57.5 -24.5t52.5 -32.5t38 -45.5t15 -65.5q0 -64 -46 -102t-126 -38q-52 0 -98 25.5t-78 63.5l49 43q23 -28 58 -49t75 -21q42 0 71 19t29 55q0 23 -11 40.5
t-29 30.5t-41 23.5t-46 19.5q-30 12 -58 26t-49 32t-33.5 41.5t-12.5 55.5q0 29 12.5 53t34 41t52 26.5t66.5 9.5q52 0 93.5 -20.5t72.5 -57.5zM199 576h-71l142 156h107z" />
    <glyph glyph-name="Scircumflex" unicode="&#x15c;" horiz-adv-x="594" 
d="M420 579q-13 28 -46.5 49t-86.5 21q-62 0 -96.5 -27t-34.5 -72q0 -28 13.5 -48.5t36 -37t51.5 -29.5t60 -25q36 -14 72 -33t65 -46t47 -63.5t18 -85.5q0 -47 -16.5 -83t-45.5 -60.5t-70 -37.5t-89 -13q-44 0 -82 11.5t-68 31t-51.5 45t-31.5 54.5l66 24
q21 -46 64.5 -74.5t103.5 -28.5q69 0 108.5 33t39.5 96q0 32 -13 57.5t-35 45t-50.5 34t-59.5 26.5q-37 14 -73.5 31.5t-66 42t-47.5 56.5t-18 76q0 33 14 63t40.5 52t64.5 35t87 13q77 0 129 -31.5t66 -79.5zM407 766l-116 101l-116 -101h-65l141 156h80l141 -156h-65z" />
    <glyph glyph-name="scircumflex" unicode="&#x15d;" horiz-adv-x="463" 
d="M345 406q-20 20 -50 37.5t-72 17.5q-45 0 -71 -18t-26 -49q0 -20 10 -34t26 -25.5t37 -20.5l44 -18q28 -11 57.5 -24.5t52.5 -32.5t38 -45.5t15 -65.5q0 -64 -46 -102t-126 -38q-52 0 -98 25.5t-78 63.5l49 43q23 -28 58 -49t75 -21q42 0 71 19t29 55q0 23 -11 40.5
t-29 30.5t-41 23.5t-46 19.5q-30 12 -58 26t-49 32t-33.5 41.5t-12.5 55.5q0 29 12.5 53t34 41t52 26.5t66.5 9.5q52 0 93.5 -20.5t72.5 -57.5zM347 576l-116 101l-116 -101h-65l141 156h80l141 -156h-65z" />
    <glyph glyph-name="Scedilla" unicode="&#x15e;" horiz-adv-x="594" 
d="M293 -234q-29 0 -51 7.5t-37 20.5l46 30q6 -8 14 -9t22 -1q21 0 37 14.5t16 36.5q0 19 -19 33.5t-42 14.5q-25 0 -36 -5l-12 15l51 66q-41 2 -76.5 14t-63.5 31t-47.5 44t-29.5 52l66 24q21 -46 64.5 -73.5t103.5 -27.5q69 0 108 32t39 95q0 31 -13 56.5t-35 45t-50 34.5
t-59 27q-37 14 -73.5 31.5t-66 41.5t-47.5 56.5t-18 76.5q0 33 14 63t40.5 52t64.5 35t87 13q77 0 129 -31.5t66 -79.5l-65 -22q-13 28 -46.5 48t-86.5 20q-62 0 -96 -26t-34 -71q0 -27 13.5 -48t35.5 -37.5t51 -29.5t60 -25q36 -14 72 -32.5t65 -45.5t47 -63.5t18 -86.5
q0 -43 -14 -77t-39.5 -58.5t-60.5 -39t-78 -18.5l-26 -44q29 0 49 -7t32.5 -18.5t18 -26t5.5 -29.5q0 -44 -32.5 -71t-80.5 -27z" />
    <glyph glyph-name="scedilla" unicode="&#x15f;" horiz-adv-x="463" 
d="M214 -234q-29 0 -51 7.5t-37 20.5l46 30q6 -8 14 -9t22 -1q21 0 37 14.5t16 36.5q0 19 -19 33.5t-42 14.5q-25 0 -36 -5l-12 15l52 68q-43 7 -80.5 30t-65.5 56l49 43q23 -28 58 -49t75 -21q42 0 71 19t29 55q0 23 -11 40.5t-29 30.5t-41 23.5t-46 19.5q-30 12 -58 26
t-49 32t-33.5 41.5t-12.5 55.5q0 29 12.5 53t34 41t52 26.5t66.5 9.5q52 0 93.5 -20.5t72.5 -57.5l-46 -39q-20 20 -50 37.5t-72 17.5q-45 0 -71 -18t-26 -49q0 -20 10 -34t26 -25.5t37 -20.5l44 -18q28 -11 57.5 -24.5t52.5 -32.5t38 -45.5t15 -65.5q0 -61 -42.5 -98.5
t-115.5 -40.5l-26 -44q29 0 49 -7t32.5 -18.5t18 -26t5.5 -29.5q0 -44 -32.5 -71t-80.5 -27z" />
    <glyph glyph-name="uni0162" unicode="&#x162;" horiz-adv-x="575" 
d="M266 -234q-29 0 -51 7.5t-37 20.5l46 30q6 -8 14 -9t22 -1q21 0 37 14.5t16 36.5q0 19 -19 33.5t-42 14.5q-25 0 -36 -5l-12 15l62 77h-14v635h-192v65h455v-65h-193v-635h-14l-34 -55q29 0 49 -7t32.5 -18.5t18 -26t5.5 -29.5q0 -44 -32.5 -71t-80.5 -27z" />
    <glyph glyph-name="uni0163" unicode="&#x163;" horiz-adv-x="369" 
d="M173 -234q-29 0 -51 7.5t-37 20.5l46 30q6 -8 14 -9t22 -1q21 0 37 14.5t16 36.5q0 19 -19 33.5t-42 14.5q-25 0 -36 -5l-12 15l58 75q-27 13 -39.5 41t-12.5 66v343h-87v63h87v176l70 35v-211h130v-63h-130v-313q0 -17 1.5 -31.5t7.5 -25.5t17 -17.5t29 -6.5
q26 0 44.5 10t32.5 20l-8 -73q-20 -11 -42 -17t-51 -6q-8 0 -11 1l-26 -44q29 0 49 -7t32.5 -18.5t18 -26t5.5 -29.5q0 -44 -32.5 -71t-80.5 -27z" />
    <glyph glyph-name="Tcaron" unicode="&#x164;" horiz-adv-x="575" 
d="M322 633v-633h-70v633h-192v67h455v-67h-193zM327 766h-80l-141 156h65l116 -101l116 101h65z" />
    <glyph glyph-name="tcaron" unicode="&#x165;" horiz-adv-x="419" 
d="M218 -12q-55 0 -78 33.5t-23 83.5v343h-87v63h87v176l70 35v-211h130v-63h-130v-313q0 -17 1.5 -31.5t7.5 -25.5t17 -17.5t29 -6.5q26 0 44.5 10t32.5 20l-8 -73q-20 -11 -42 -17t-51 -6zM376 840v-8q0 -61 -15.5 -116.5t-64.5 -103.5l-20 14q7 15 12.5 39.5t9.5 54t6 61
t2 59.5h70z" />
    <glyph glyph-name="Tbar" unicode="&#x166;" horiz-adv-x="575" 
d="M322 633v-283h128v-67h-128v-283h-70v283h-129v67h129v283h-192v67h455v-67h-193z" />
    <glyph glyph-name="tbar" unicode="&#x167;" horiz-adv-x="399" 
d="M207 238v-103q0 -17 1.5 -31.5t7.5 -25.5t17 -17.5t29 -6.5q26 0 44.5 10t32.5 20l-8 -73q-20 -11 -42 -17t-51 -6q-55 0 -78 33.5t-23 83.5v133h-87v63h87v147h-87v63h87v176l70 35v-211h130v-63h-130v-147h130v-63h-130z" />
    <glyph glyph-name="Utilde" unicode="&#x168;" horiz-adv-x="680" 
d="M340 -12q-56 0 -100.5 15t-75.5 48t-47.5 84.5t-16.5 124.5v440h70v-440q0 -63 14 -103.5t37.5 -64t54 -32.5t64.5 -9t64.5 9t54 32.5t37.5 64t14 103.5v440h70v-440q0 -73 -16.5 -124.5t-47.5 -84.5t-75.5 -48t-100.5 -15zM420 792q-27 0 -49 8t-41.5 17l-37.5 17t-37 8
t-32 -11.5t-15 -34.5h-39q0 53 22.5 81.5t70.5 28.5q27 0 49 -8t41.5 -17.5l37.5 -17.5t37 -8t32 12t15 35h38q0 -53 -22 -81.5t-70 -28.5z" />
    <glyph glyph-name="utilde" unicode="&#x169;" 
d="M400 0v49q-27 -35 -57 -48t-70 -13q-99 0 -143.5 56t-44.5 182v285h70v-312q0 -80 33.5 -114t84.5 -34q27 0 50 7t40.5 24t27 45t9.5 70v314h70v-511h-70zM357 602q-27 0 -49 8t-41.5 17l-37.5 17t-37 8t-32 -11.5t-15 -34.5h-39q0 53 22.5 81.5t70.5 28.5q27 0 49 -8
t41.5 -17.5l37.5 -17.5t37 -8t32 12t15 35h38q0 -53 -22 -81.5t-70 -28.5z" />
    <glyph glyph-name="Umacron" unicode="&#x16a;" horiz-adv-x="680" 
d="M340 -12q-56 0 -100.5 15t-75.5 48t-47.5 84.5t-16.5 124.5v440h70v-440q0 -63 14 -103.5t37.5 -64t54 -32.5t64.5 -9t64.5 9t54 32.5t37.5 64t14 103.5v440h70v-440q0 -73 -16.5 -124.5t-47.5 -84.5t-75.5 -48t-100.5 -15zM175 799v61h330v-61h-330z" />
    <glyph glyph-name="umacron" unicode="&#x16b;" 
d="M400 0v49q-27 -35 -57 -48t-70 -13q-99 0 -143.5 56t-44.5 182v285h70v-312q0 -80 33.5 -114t84.5 -34q27 0 50 7t40.5 24t27 45t9.5 70v314h70v-511h-70zM112 609v61h330v-61h-330z" />
    <glyph glyph-name="Ubreve" unicode="&#x16c;" horiz-adv-x="680" 
d="M340 -12q-56 0 -100.5 15t-75.5 48t-47.5 84.5t-16.5 124.5v440h70v-440q0 -63 14 -103.5t37.5 -64t54 -32.5t64.5 -9t64.5 9t54 32.5t37.5 64t14 103.5v440h70v-440q0 -73 -16.5 -124.5t-47.5 -84.5t-75.5 -48t-100.5 -15zM340 771q-47 0 -80.5 12.5t-55.5 34.5
t-32.5 51.5t-10.5 62.5h68q0 -48 32.5 -73.5t78.5 -25.5q47 0 79 25.5t32 73.5h68q0 -33 -10.5 -62.5t-32 -51.5t-55.5 -34.5t-81 -12.5z" />
    <glyph glyph-name="ubreve" unicode="&#x16d;" 
d="M400 0v49q-27 -35 -57 -48t-70 -13q-99 0 -143.5 56t-44.5 182v285h70v-312q0 -80 33.5 -114t84.5 -34q27 0 50 7t40.5 24t27 45t9.5 70v314h70v-511h-70zM277 581q-47 0 -80.5 12.5t-55.5 34.5t-32.5 51.5t-10.5 62.5h68q0 -48 32.5 -73.5t78.5 -25.5q47 0 79 25.5
t32 73.5h68q0 -33 -10.5 -62.5t-32 -51.5t-55.5 -34.5t-81 -12.5z" />
    <glyph glyph-name="Uring" unicode="&#x16e;" horiz-adv-x="680" 
d="M340 -12q-56 0 -100.5 15t-75.5 48t-47.5 84.5t-16.5 124.5v440h70v-440q0 -63 14 -103.5t37.5 -64t54 -32.5t64.5 -9t64.5 9t54 32.5t37.5 64t14 103.5v440h70v-440q0 -73 -16.5 -124.5t-47.5 -84.5t-75.5 -48t-100.5 -15zM340 730q-23 0 -44 9t-37 24.5t-25 36.5t-9 44
t9 43.5t25 35.5t37 23.5t44 8.5t44 -8.5t36.5 -23.5t25 -35.5t9.5 -43.5t-9.5 -44t-25 -36.5t-36.5 -24.5t-44 -9zM340 782q24 0 40 17.5t16 44.5t-16 43t-40 16q-23 0 -39.5 -16t-16.5 -43t16.5 -44.5t39.5 -17.5z" />
    <glyph glyph-name="uring" unicode="&#x16f;" 
d="M400 0v49q-27 -35 -57 -48t-70 -13q-99 0 -143.5 56t-44.5 182v285h70v-312q0 -80 33.5 -114t84.5 -34q27 0 50 7t40.5 24t27 45t9.5 70v314h70v-511h-70zM277 540q-23 0 -44 9t-37 24.5t-25 36.5t-9 44t9 43.5t25 35.5t37 23.5t44 8.5t44 -8.5t36.5 -23.5t25 -35.5
t9.5 -43.5t-9.5 -44t-25 -36.5t-36.5 -24.5t-44 -9zM277 592q24 0 40 17.5t16 44.5t-16 43t-40 16q-23 0 -39.5 -16t-16.5 -43t16.5 -44.5t39.5 -17.5z" />
    <glyph glyph-name="Uhungarumlaut" unicode="&#x170;" horiz-adv-x="680" 
d="M340 -12q-56 0 -100.5 15t-75.5 48t-47.5 84.5t-16.5 124.5v440h70v-440q0 -63 14 -103.5t37.5 -64t54 -32.5t64.5 -9t64.5 9t54 32.5t37.5 64t14 103.5v440h70v-440q0 -73 -16.5 -124.5t-47.5 -84.5t-75.5 -48t-100.5 -15zM236 766h-71l142 156h107zM434 766h-71
l142 156h107z" />
    <glyph glyph-name="uhungarumlaut" unicode="&#x171;" 
d="M400 0v49q-27 -35 -57 -48t-70 -13q-99 0 -143.5 56t-44.5 182v285h70v-312q0 -80 33.5 -114t84.5 -34q27 0 50 7t40.5 24t27 45t9.5 70v314h70v-511h-70zM180 576h-71l142 156h107zM378 576h-71l142 156h107z" />
    <glyph glyph-name="Uogonek" unicode="&#x172;" horiz-adv-x="680" 
d="M366 -234q-22 0 -41.5 6t-34.5 18.5t-24 31t-9 42.5q0 39 23.5 70.5t62.5 53.5q-116 0 -179.5 63t-63.5 209v440h70v-440q0 -62 13 -102t36.5 -64t55 -33.5t68.5 -9.5q31 0 61 8.5t53.5 32t38 64t14.5 104.5v440h70v-440q0 -58 -9.5 -100t-26.5 -72t-40.5 -49.5
t-51.5 -32.5q-65 -29 -99.5 -58.5t-34.5 -74.5q0 -31 17 -44t37 -13q21 0 34 7.5t21 15.5l39 -29q-15 -17 -39.5 -30.5t-60.5 -13.5z" />
    <glyph glyph-name="uogonek" unicode="&#x173;" 
d="M393 -234q-22 0 -41.5 6t-34.5 18.5t-24 31t-9 42.5q0 50 32.5 83t83.5 53v49q-27 -35 -57 -48t-70 -13q-99 0 -143.5 56t-44.5 182v285h70v-312q0 -80 33.5 -114t84.5 -34q27 0 50 7t40.5 24t27 45t9.5 70v314h70v-511q-67 -20 -96 -54.5t-29 -72.5q0 -31 17 -44t37 -13
q21 0 34 7.5t21 15.5l39 -29q-15 -17 -39.5 -30.5t-60.5 -13.5z" />
    <glyph glyph-name="Wcircumflex" unicode="&#x174;" horiz-adv-x="827" 
d="M772 700l-152 -700h-44l-168 562l-170 -562h-48l-135 700h74l97 -549l157 549h52l151 -537l113 537h73zM524 766l-116 101l-116 -101h-65l141 156h80l141 -156h-65z" />
    <glyph glyph-name="wcircumflex" unicode="&#x175;" horiz-adv-x="704" 
d="M538 0h-63l-124 375l-121 -375h-64l-126 511h70l96 -421l122 421h48l124 -426l94 426h70zM467 576l-116 101l-116 -101h-65l141 156h80l141 -156h-65z" />
    <glyph glyph-name="Ycircumflex" unicode="&#x176;" horiz-adv-x="616" 
d="M274 0v275l-229 425h77l186 -360l191 360h72l-227 -422v-278h-70zM425 766l-116 101l-116 -101h-65l141 156h80l141 -156h-65z" />
    <glyph glyph-name="ycircumflex" unicode="&#x177;" horiz-adv-x="511" 
d="M217 16l-187 495h71l146 -412l149 412h75l-261 -705h-69zM363 576l-116 101l-116 -101h-65l141 156h80l141 -156h-65z" />
    <glyph glyph-name="Zacute" unicode="&#x179;" horiz-adv-x="637" 
d="M70 0v49l408 585h-385v66h474v-51l-403 -583h403v-66h-497zM310 766h-71l142 156h107z" />
    <glyph glyph-name="zacute" unicode="&#x17a;" horiz-adv-x="499" 
d="M70 0v43l261 405h-241v63h334v-42l-263 -406h262v-63h-353zM225 576h-71l142 156h107z" />
    <glyph glyph-name="Zdotaccent" unicode="&#x17b;" horiz-adv-x="637" 
d="M70 0v49l408 585h-385v66h474v-51l-403 -583h403v-66h-497zM329 796q-20 0 -33.5 13.5t-13.5 33.5t13.5 33.5t33.5 13.5t33.5 -13.5t13.5 -33.5t-13.5 -33.5t-33.5 -13.5z" />
    <glyph glyph-name="zdotaccent" unicode="&#x17c;" horiz-adv-x="499" 
d="M70 0v43l261 405h-241v63h334v-42l-263 -406h262v-63h-353zM254 606q-20 0 -33.5 13.5t-13.5 33.5t13.5 33.5t33.5 13.5t33.5 -13.5t13.5 -33.5t-13.5 -33.5t-33.5 -13.5z" />
    <glyph glyph-name="longs" unicode="&#x17f;" horiz-adv-x="308" 
d="M95 0v598q0 31 9 53t24 35.5t34 19.5t39 6q28 0 49.5 -7.5t37.5 -16.5v-61q-14 8 -33 14t-40 6q-34 0 -42 -17.5t-8 -42.5v-587h-70z" />
    <glyph glyph-name="uni01CD" unicode="&#x1cd;" horiz-adv-x="662" 
d="M531 0l-64 181h-273l-61 -181h-73l243 700h54l245 -700h-71zM446 243l-96 280q-5 13 -11.5 33t-8.5 30q-3 -10 -8.5 -30t-10.5 -33l-96 -280h231zM368 766h-80l-141 156h65l116 -101l116 101h65z" />
    <glyph glyph-name="uni01CE" unicode="&#x1ce;" horiz-adv-x="519" 
d="M384 0v50q-31 -28 -69.5 -45t-80.5 -17q-77 0 -125.5 43.5t-48.5 129.5q0 44 15.5 76t41 52.5t59.5 30.5t70 10q32 0 66 -8t72 -28v43q0 39 -9.5 63t-25 38t-36 19t-41.5 5q-19 0 -40 -5t-41 -13t-38.5 -17.5t-32.5 -19.5l-20 60q31 20 78.5 38t100.5 18q27 0 57 -7.5
t55 -27t41.5 -54t16.5 -88.5v-346h-65zM241 49q23 0 44 7t39 18t33 25.5t27 28.5v99q-25 17 -61.5 29.5t-69.5 12.5q-26 0 -49 -6.5t-40.5 -20t-28 -33.5t-10.5 -48q0 -51 30 -81.5t86 -30.5zM319 576h-80l-141 156h65l116 -101l116 101h65z" />
    <glyph glyph-name="uni01CF" unicode="&#x1cf;" horiz-adv-x="280" 
d="M105 0v700h70v-700h-70zM180 766h-80l-141 156h65l116 -101l116 101h65z" />
    <glyph glyph-name="uni01D0" unicode="&#x1d0;" horiz-adv-x="252" 
d="M91 0v511h70v-511h-70zM166 576h-80l-141 156h65l116 -101l116 101h65z" />
    <glyph glyph-name="uni01D1" unicode="&#x1d1;" horiz-adv-x="720" 
d="M360 51q60 0 101.5 27t67 70t37 96.5t11.5 105.5q0 57 -11.5 111t-37 95.5t-67 67t-101.5 25.5t-101.5 -27t-67 -70t-37 -96.5t-11.5 -105.5q0 -57 11.5 -111t37 -95.5t67 -67t101.5 -25.5zM360 -12q-81 0 -136.5 32t-89.5 84t-49 116.5t-15 129.5t15 129.5t49 116.5
t89.5 84t136.5 32t136.5 -32t89.5 -84t49 -116.5t15 -129.5t-15 -129.5t-49 -116.5t-89.5 -84t-136.5 -32zM400 766h-80l-141 156h65l116 -101l116 101h65z" />
    <glyph glyph-name="uni01D2" unicode="&#x1d2;" horiz-adv-x="548" 
d="M274 51q70 0 108 54t38 151q0 96 -37 150t-109 54t-109 -52.5t-37 -152.5q0 -96 37 -150t109 -54zM274 523q49 0 89.5 -18t69 -52t44.5 -83.5t16 -113.5q0 -63 -16 -113t-44.5 -84.5t-69 -52.5t-89.5 -18t-89.5 18t-69 52t-44.5 83.5t-16 113.5q0 63 16 112.5t44.5 84
t69 53t89.5 18.5zM314 576h-80l-141 156h65l116 -101l116 101h65z" />
    <glyph glyph-name="uni01D3" unicode="&#x1d3;" horiz-adv-x="680" 
d="M340 -12q-56 0 -100.5 15t-75.5 48t-47.5 84.5t-16.5 124.5v440h70v-440q0 -63 14 -103.5t37.5 -64t54 -32.5t64.5 -9t64.5 9t54 32.5t37.5 64t14 103.5v440h70v-440q0 -73 -16.5 -124.5t-47.5 -84.5t-75.5 -48t-100.5 -15zM380 766h-80l-141 156h65l116 -101l116 101h65
z" />
    <glyph glyph-name="uni01D4" unicode="&#x1d4;" 
d="M400 0v49q-27 -35 -57 -48t-70 -13q-99 0 -143.5 56t-44.5 182v285h70v-312q0 -80 33.5 -114t84.5 -34q27 0 50 7t40.5 24t27 45t9.5 70v314h70v-511h-70zM317 576h-80l-141 156h65l116 -101l116 101h65z" />
    <glyph glyph-name="AEacute" unicode="&#x1fc;" horiz-adv-x="859" 
d="M425 0v181h-259l-103 -181h-79l407 700h376v-67h-272v-238h185v-66h-185v-262h294v-67h-364zM425 243v397l-224 -397h224zM530 766h-71l142 156h107z" />
    <glyph glyph-name="aeacute" unicode="&#x1fd;" horiz-adv-x="849" 
d="M596 -12q-58 0 -104 28t-74 75q-18 -27 -40.5 -46.5t-47 -32t-49.5 -18.5t-47 -6q-77 0 -125.5 43.5t-48.5 129.5q0 43 15 75t40.5 53t59 31t71.5 10q32 0 66 -8t72 -28v43q0 68 -29.5 96.5t-82.5 28.5q-19 0 -40 -5t-41 -13t-38.5 -17.5t-32.5 -19.5l-20 60q31 20 79 38
t100 18q55 0 92.5 -21t56.5 -58q35 44 79.5 61.5t88.5 17.5q45 0 82.5 -16t64 -47t41.5 -77.5t15 -106.5v-20t-2 -29h-348q10 -85 50 -129.5t100 -44.5q28 0 57.5 9t58.5 31l38 -47q-27 -22 -67 -40t-90 -18zM597 460q-62 0 -103.5 -41t-46.5 -129h281q0 52 -13 85t-33 52
t-43 26t-42 7zM241 49q23 0 44 7t39 18t33 25.5t27 28.5v99q-25 17 -61.5 29.5t-69.5 12.5q-26 0 -49 -6.5t-40.5 -20t-28 -33.5t-10.5 -48q0 -51 30 -81.5t86 -30.5zM420 576h-71l142 156h107z" />
    <glyph glyph-name="Oslashacute" unicode="&#x1fe;" horiz-adv-x="720" 
d="M573 614q42 -53 59.5 -123t17.5 -141q0 -65 -15 -129.5t-49 -116.5t-89.5 -84t-136.5 -32q-54 0 -96 14.5t-74 39.5l-36 -54h-72l65 98q-42 53 -59.5 122.5t-17.5 141.5q0 65 15 129.5t49 116.5t89.5 84t136.5 32q53 0 94.5 -14.5t73.5 -39.5l36 54h74zM360 51
q60 0 101.5 27t67 70t37 96.5t11.5 105.5q0 56 -10.5 108t-35.5 94l-303 -454q24 -22 57 -34.5t75 -12.5zM143 350q0 -56 10.5 -108t34.5 -94l303 454q-25 22 -57 34.5t-74 12.5q-60 0 -101.5 -27t-67 -70t-37 -96.5t-11.5 -105.5zM343 766h-71l142 156h107z" />
    <glyph glyph-name="oslashacute" unicode="&#x1ff;" horiz-adv-x="548" 
d="M439 446q26 -34 40 -82t14 -108q0 -63 -15.5 -113t-44 -84.5t-69 -52.5t-89.5 -18q-75 0 -127 39l-28 -39h-65l54 78q-54 69 -54 189q0 63 16 112.5t45 84t69.5 53t89.5 18.5q71 0 124 -38l27 38h66zM275 51q70 0 107.5 54t37.5 151q0 76 -25 128l-209 -302
q36 -31 89 -31zM128 255q0 -78 24 -127l209 302q-36 30 -86 30q-72 0 -109.5 -52.5t-37.5 -152.5zM248 576h-71l142 156h107z" />
    <glyph glyph-name="uni0218" unicode="&#x218;" horiz-adv-x="594" 
d="M420 579q-13 28 -46.5 49t-86.5 21q-62 0 -96.5 -27t-34.5 -72q0 -28 13.5 -48.5t36 -37t51.5 -29.5t60 -25q36 -14 72 -33t65 -46t47 -63.5t18 -85.5q0 -47 -16.5 -83t-45.5 -60.5t-70 -37.5t-89 -13q-44 0 -82 11.5t-68 31t-51.5 45t-31.5 54.5l66 24
q21 -46 64.5 -74.5t103.5 -28.5q69 0 108.5 33t39.5 96q0 32 -13 57.5t-35 45t-50.5 34t-59.5 26.5q-37 14 -73.5 31.5t-66 42t-47.5 56.5t-18 76q0 33 14 63t40.5 52t64.5 35t87 13q77 0 129 -31.5t66 -79.5zM258 -239q7 5 21.5 24.5t17.5 49.5q-29 0 -41.5 16.5
t-12.5 37.5q0 24 16 38.5t36 14.5t37 -16t17 -43q0 -40 -17.5 -72t-55.5 -55z" />
    <glyph glyph-name="uni0219" unicode="&#x219;" horiz-adv-x="463" 
d="M345 406q-20 20 -50 37.5t-72 17.5q-45 0 -71 -18t-26 -49q0 -20 10 -34t26 -25.5t37 -20.5l44 -18q28 -11 57.5 -24.5t52.5 -32.5t38 -45.5t15 -65.5q0 -64 -46 -102t-126 -38q-52 0 -98 25.5t-78 63.5l49 43q23 -28 58 -49t75 -21q42 0 71 19t29 55q0 23 -11 40.5
t-29 30.5t-41 23.5t-46 19.5q-30 12 -58 26t-49 32t-33.5 41.5t-12.5 55.5q0 29 12.5 53t34 41t52 26.5t66.5 9.5q52 0 93.5 -20.5t72.5 -57.5zM185 -239q7 5 21.5 24.5t17.5 49.5q-29 0 -41.5 16.5t-12.5 37.5q0 24 16 38.5t36 14.5t37 -16t17 -43q0 -40 -17.5 -72
t-55.5 -55z" />
    <glyph glyph-name="uni021A" unicode="&#x21a;" horiz-adv-x="575" 
d="M322 633v-633h-70v633h-192v67h455v-67h-193zM251 -239q7 5 21.5 24.5t17.5 49.5q-29 0 -41.5 16.5t-12.5 37.5q0 24 16 38.5t36 14.5t37 -16t17 -43q0 -40 -17.5 -72t-55.5 -55z" />
    <glyph glyph-name="uni021B" unicode="&#x21b;" horiz-adv-x="369" 
d="M218 -12q-55 0 -78 33.5t-23 83.5v343h-87v63h87v176l70 35v-211h130v-63h-130v-313q0 -17 1.5 -31.5t7.5 -25.5t17 -17.5t29 -6.5q26 0 44.5 10t32.5 20l-8 -73q-20 -11 -42 -17t-51 -6zM166 -239q7 5 21.5 24.5t17.5 49.5q-29 0 -41.5 16.5t-12.5 37.5q0 24 16 38.5
t36 14.5t37 -16t17 -43q0 -40 -17.5 -72t-55.5 -55z" />
    <glyph glyph-name="dotlessj" unicode="&#x237;" horiz-adv-x="258" 
d="M162 -32q0 -51 -14 -85t-36.5 -54.5t-51 -30t-58.5 -11.5l-32 55q36 3 60 12t37.5 22t19 29.5t5.5 34.5v571h70v-543z" />
    <glyph glyph-name="firsttonechinese" unicode="&#x2c9;" horiz-adv-x="335" 
d="M4 609v61h330v-61h-330z" />
    <glyph glyph-name="uni03BC" unicode="&#x3bc;" horiz-adv-x="565" 
d="M405 0v51q-38 -39 -74.5 -51t-65.5 -12q-36 0 -60 12.5t-45 48.5v-215l-70 -34v711h70v-312q0 -47 8 -76t23.5 -45t37.5 -21.5t50 -5.5q27 0 50 7t40 24t26.5 45t9.5 70v314h70v-511h-70z" />
    <glyph glyph-name="Wgrave" unicode="&#x1e80;" horiz-adv-x="827" 
d="M772 700l-152 -700h-44l-168 562l-170 -562h-48l-135 700h74l97 -549l157 549h52l151 -537l113 537h73zM444 766l-178 156h107l142 -156h-71z" />
    <glyph glyph-name="wgrave" unicode="&#x1e81;" horiz-adv-x="704" 
d="M538 0h-63l-124 375l-121 -375h-64l-126 511h70l96 -421l122 421h48l124 -426l94 426h70zM387 576l-178 156h107l142 -156h-71z" />
    <glyph glyph-name="Wacute" unicode="&#x1e82;" horiz-adv-x="827" 
d="M772 700l-152 -700h-44l-168 562l-170 -562h-48l-135 700h74l97 -549l157 549h52l151 -537l113 537h73zM369 766h-71l142 156h107z" />
    <glyph glyph-name="wacute" unicode="&#x1e83;" horiz-adv-x="704" 
d="M538 0h-63l-124 375l-121 -375h-64l-126 511h70l96 -421l122 421h48l124 -426l94 426h70zM312 576h-71l142 156h107z" />
    <glyph glyph-name="Wdieresis" unicode="&#x1e84;" horiz-adv-x="827" 
d="M772 700l-152 -700h-44l-168 562l-170 -562h-48l-135 700h74l97 -549l157 549h52l151 -537l113 537h73zM325 796q-20 0 -33.5 13.5t-13.5 33.5t13.5 33.5t33.5 13.5t33.5 -13.5t13.5 -33.5t-13.5 -33.5t-33.5 -13.5zM491 796q-20 0 -33.5 13.5t-13.5 33.5t13.5 33.5
t33.5 13.5t33.5 -13.5t13.5 -33.5t-13.5 -33.5t-33.5 -13.5z" />
    <glyph glyph-name="wdieresis" unicode="&#x1e85;" horiz-adv-x="704" 
d="M538 0h-63l-124 375l-121 -375h-64l-126 511h70l96 -421l122 421h48l124 -426l94 426h70zM268 606q-20 0 -33.5 13.5t-13.5 33.5t13.5 33.5t33.5 13.5t33.5 -13.5t13.5 -33.5t-13.5 -33.5t-33.5 -13.5zM434 606q-20 0 -33.5 13.5t-13.5 33.5t13.5 33.5t33.5 13.5
t33.5 -13.5t13.5 -33.5t-13.5 -33.5t-33.5 -13.5z" />
    <glyph glyph-name="Ygrave" unicode="&#x1ef2;" horiz-adv-x="616" 
d="M274 0v275l-229 425h77l186 -360l191 360h72l-227 -422v-278h-70zM325 766l-178 156h107l142 -156h-71z" />
    <glyph glyph-name="ygrave" unicode="&#x1ef3;" horiz-adv-x="511" 
d="M217 16l-187 495h71l146 -412l149 412h75l-261 -705h-69zM273 576l-178 156h107l142 -156h-71z" />
    <glyph glyph-name="afii00208" unicode="&#x2015;" horiz-adv-x="605" 
d="M10 257v60h585v-60h-585z" />
    <glyph glyph-name="quotereversed" unicode="&#x201b;" horiz-adv-x="226" 
d="M134 462q-39 24 -65 66.5t-26 99.5q0 22 6.5 38t16.5 26t23 15t26 5q25 0 43 -17.5t18 -48.5q0 -27 -20.5 -44.5t-52.5 -17.5q0 -22 5.5 -41t13 -34t16 -25.5t15.5 -16.5z" />
    <glyph glyph-name="minute" unicode="&#x2032;" horiz-adv-x="215" 
d="M70 730h95l-60 -305h-55z" />
    <glyph glyph-name="second" unicode="&#x2033;" horiz-adv-x="415" 
d="M70 730h95l-60 -305h-55zM270 730h95l-60 -305h-55z" />
    <glyph glyph-name="nsuperior" unicode="&#x207f;" horiz-adv-x="459" 
d="M318 283v244q0 67 -22.5 93.5t-59.5 26.5q-19 0 -35.5 -5.5t-28.5 -19t-18.5 -36t-6.5 -55.5v-248h-72v419h72v-51q18 26 43.5 43.5t68.5 17.5q70 0 100 -46t30 -151v-232h-71z" />
    <glyph glyph-name="afii08941" unicode="&#x20a4;" horiz-adv-x="589" 
d="M257 239q-8 -48 -32.5 -91.5t-67.5 -82.5h402v-65h-464v79q21 10 36 28t25.5 40t16.5 46t9 46h-92v57h97q0 16 -4.5 32.5t-12.5 33.5h-80v57h56q-10 23 -17 48t-7 52q0 37 13.5 72t41 62t70 43t100.5 16q65 0 110 -17.5t88 -47.5l-29 -69q-11 11 -24.5 23t-33 21.5
t-46.5 16t-65 6.5q-39 0 -67.5 -11.5t-46.5 -29.5t-26.5 -40.5t-8.5 -45.5q0 -26 8.5 -50.5t19.5 -48.5h188v-57h-163q5 -15 8.5 -30.5t3.5 -31.5v-4h151v-57h-157z" />
    <glyph glyph-name="afii61248" unicode="&#x2105;" horiz-adv-x="1023" 
d="M236 272q-84 0 -127.5 60t-43.5 160q0 104 46.5 162t127.5 58q43 0 70.5 -12.5t43.5 -28.5t23 -31.5t9 -21.5l-68 -26q-3 9 -9 18.5t-16 17.5t-24.5 13.5t-35.5 5.5q-50 0 -73.5 -40.5t-23.5 -114.5q0 -76 24.5 -115.5t74.5 -39.5q42 0 60.5 16.5t29.5 43.5l61 -23
q-6 -20 -18.5 -38.5t-31.5 -32.5t-43.5 -22.5t-55.5 -8.5zM768 -12q-87 0 -138 57t-51 163q0 104 51 162t138 58q88 0 139 -58t51 -162q0 -106 -51 -163t-139 -57zM768 53q60 0 90 40t30 115t-30 115t-90 40q-55 0 -87 -40t-32 -115t32 -115t87 -40zM214 -12l478 724h74
l-478 -724h-74z" />
    <glyph glyph-name="afii61289" unicode="&#x2113;" horiz-adv-x="453" 
d="M248 -12q-19 0 -36.5 5t-31 18t-22 35t-8.5 56v147q-20 -13 -34.5 -20t-22.5 -12l-23 57q12 5 37 17.5t43 26.5v205q0 54 9 90t25.5 58t39.5 31.5t50 9.5q24 0 45.5 -9t38 -28t26 -47t9.5 -65q0 -55 -18 -98.5t-44.5 -77t-56 -58.5l-52.5 -43v-142q0 -29 4.5 -47
t13 -27.5t19.5 -13t23 -3.5q20 0 37.5 10t30.5 24l18 -41q-17 -22 -47.5 -40t-72.5 -18zM272 645q-12 0 -21.5 -6t-15.5 -21t-9.5 -41.5t-3.5 -67.5v-151q56 48 77.5 93t21.5 95q0 43 -11 71t-38 28z" />
    <glyph glyph-name="afii61352" unicode="&#x2116;" horiz-adv-x="1207" 
d="M753 130v55h349v-55h-349zM529 0l-354 569v-569h-70v700h71l354 -577v577h70v-700h-71zM927 272q-87 0 -138 57t-51 163q0 104 51 162t138 58q88 0 139 -58t51 -162q0 -106 -51 -163t-139 -57zM927 337q60 0 90 40t30 115t-30 115t-90 40q-55 0 -87 -40t-32 -115t32 -115
t87 -40z" />
    <glyph glyph-name="Ohm" unicode="&#x2126;" horiz-adv-x="738" 
d="M438 0v71q33 37 58 71t41.5 70.5t24.5 79.5t8 97q0 47 -10.5 93.5t-34.5 83.5t-62.5 60t-94.5 23t-94.5 -23t-62.5 -60t-34.5 -84t-10.5 -94q0 -54 8.5 -96.5t25 -79.5t41.5 -70.5t58 -70.5v-71h-214v63h169q-78 50 -119.5 130.5t-41.5 196.5q0 56 14.5 113.5t47 104
t85 75.5t128.5 29q77 0 129.5 -29t85 -75.5t46.5 -104t14 -113.5q0 -116 -41.5 -196.5t-119.5 -130.5h171v-63h-215z" />
    <glyph glyph-name="estimated" unicode="&#x212e;" horiz-adv-x="810" 
d="M410 -12q-71 0 -133.5 25.5t-109.5 72.5t-74.5 114t-27.5 150q0 92 29 160.5t77.5 114t111.5 68t130 22.5q64 0 122.5 -23t103.5 -69t73.5 -114t32.5 -159h-523v-219q24 -35 73 -59t115 -24q72 0 133 32.5t109 106.5l51 -31q-26 -38 -54.5 -69t-64 -53t-78 -34t-96.5 -12
zM593 577q-28 33 -77 55.5t-106 22.5q-59 0 -106 -18t-82 -51v-178l371 1v168z" />
    <glyph glyph-name="onethird" unicode="&#x2153;" horiz-adv-x="718" 
d="M14 -12l478 724h69l-478 -724h-69zM82 283v324h-47v43q28 0 43 15t23 40h42v-422h-61zM440 114q15 -36 39 -56t58 -20q38 0 58.5 21t20.5 53q0 14 -5 28t-14 25t-22 18t-29 7h-34v50h22q35 0 50 21.5t15 48.5q0 26 -16.5 47.5t-51.5 21.5q-29 0 -51 -18.5t-34 -45.5
l-53 18q17 41 54.5 68.5t87.5 27.5q56 0 92 -29.5t36 -83.5q0 -27 -15 -53.5t-42 -38.5q32 -11 53 -37.5t21 -66.5q0 -63 -40 -97.5t-103 -34.5q-57 0 -95 28.5t-57 74.5z" />
    <glyph glyph-name="twothirds" unicode="&#x2154;" horiz-adv-x="875" 
d="M171 -12l478 724h69l-478 -724h-69zM41 612q11 43 46.5 71.5t96.5 28.5q57 0 95 -33t38 -91q0 -54 -29 -88.5t-88 -70.5q-39 -24 -61.5 -44t-33.5 -47h211v-55h-276q0 40 10.5 68.5t30 51.5t46.5 42.5l60 41.5q32 21 50 44t18 62q0 10 -4 22.5t-13.5 22.5t-24.5 17t-37 7
q-69 0 -84 -71zM597 114q15 -36 39 -56t58 -20q38 0 58.5 21t20.5 53q0 14 -5 28t-14 25t-22 18t-29 7h-34v50h22q35 0 50 21.5t15 48.5q0 26 -16.5 47.5t-51.5 21.5q-29 0 -51 -18.5t-34 -45.5l-53 18q17 41 54.5 68.5t87.5 27.5q56 0 92 -29.5t36 -83.5q0 -27 -15 -53.5
t-42 -38.5q32 -11 53 -37.5t21 -66.5q0 -63 -40 -97.5t-103 -34.5q-57 0 -95 28.5t-57 74.5z" />
    <glyph glyph-name="oneeighth" unicode="&#x215b;" horiz-adv-x="710" 
d="M14 -12l478 724h69l-478 -724h-69zM82 283v324h-47v43q28 0 43 15t23 40h42v-422h-61zM521 -12q-32 0 -57.5 9.5t-44.5 27t-29 41t-10 51.5q0 47 20.5 74.5t50.5 41.5q-20 9 -35.5 31.5t-15.5 51.5q0 50 34 81.5t87 31.5t87 -31.5t34 -81.5q0 -28 -15.5 -51t-35.5 -32
q29 -14 50 -41.5t21 -74.5q0 -57 -38.5 -93t-102.5 -36zM521 38q35 0 57.5 22.5t22.5 62.5q0 33 -21.5 57.5t-58.5 24.5q-35 0 -57.5 -24.5t-22.5 -57.5q0 -40 23 -62.5t57 -22.5zM521 251q30 0 47.5 17t17.5 44q0 31 -18 49t-47 18q-28 0 -46.5 -18t-18.5 -49q0 -27 18 -44
t47 -17z" />
    <glyph glyph-name="threeeighths" unicode="&#x215c;" horiz-adv-x="855" 
d="M157 -12l478 724h69l-478 -724h-69zM89 397q15 -36 39 -56t58 -20q38 0 58.5 21t20.5 53q0 14 -5 28t-14 25t-22 18t-29 7h-34v50h22q35 0 50 21.5t15 48.5q0 26 -16.5 47.5t-51.5 21.5q-29 0 -51 -18.5t-34 -45.5l-53 18q17 41 54.5 68.5t87.5 27.5q56 0 92 -29.5
t36 -83.5q0 -27 -15 -53.5t-42 -38.5q32 -11 53 -37.5t21 -66.5q0 -63 -40 -97.5t-103 -34.5q-57 0 -95 28.5t-57 74.5zM665 -12q-32 0 -57.5 9.5t-44.5 27t-29 41t-10 51.5q0 47 20.5 74.5t50.5 41.5q-20 9 -35.5 31.5t-15.5 51.5q0 50 34 81.5t87 31.5t87 -31.5t34 -81.5
q0 -28 -15.5 -51t-35.5 -32q29 -14 50 -41.5t21 -74.5q0 -57 -38.5 -93t-102.5 -36zM665 38q35 0 57.5 22.5t22.5 62.5q0 33 -21.5 57.5t-58.5 24.5q-35 0 -57.5 -24.5t-22.5 -57.5q0 -40 23 -62.5t57 -22.5zM665 251q30 0 47.5 17t17.5 44q0 31 -18 49t-47 18
q-28 0 -46.5 -18t-18.5 -49q0 -27 18 -44t47 -17z" />
    <glyph glyph-name="fiveeighths" unicode="&#x215d;" horiz-adv-x="838" 
d="M141 -12l478 724h69l-478 -724h-69zM63 366q16 -19 43 -32t56 -13q48 0 72 27.5t24 66.5q0 38 -20.5 64.5t-63.5 26.5q-35 0 -57.5 -13t-34.5 -28l-41 13l35 222h210v-55h-165l-18 -113q33 24 81 24q60 0 97.5 -38.5t37.5 -102.5q0 -30 -11 -56t-31.5 -45.5t-48.5 -31
t-62 -11.5q-50 0 -85.5 18t-49.5 36zM648 -12q-32 0 -57.5 9.5t-44.5 27t-29 41t-10 51.5q0 47 20.5 74.5t50.5 41.5q-20 9 -35.5 31.5t-15.5 51.5q0 50 34 81.5t87 31.5t87 -31.5t34 -81.5q0 -28 -15.5 -51t-35.5 -32q29 -14 50 -41.5t21 -74.5q0 -57 -38.5 -93t-102.5 -36
zM648 38q35 0 57.5 22.5t22.5 62.5q0 33 -21.5 57.5t-58.5 24.5q-35 0 -57.5 -24.5t-22.5 -57.5q0 -40 23 -62.5t57 -22.5zM648 251q30 0 47.5 17t17.5 44q0 31 -18 49t-47 18q-28 0 -46.5 -18t-18.5 -49q0 -27 18 -44t47 -17z" />
    <glyph glyph-name="seveneighths" unicode="&#x215e;" horiz-adv-x="747" 
d="M49 -12l478 724h69l-478 -724h-69zM97 283q0 60 10.5 111.5t27.5 96t39 83t47 71.5h-201v55h268v-58q-38 -42 -62 -89t-38 -93.5t-20 -92t-6 -84.5h-65zM558 -12q-32 0 -57.5 9.5t-44.5 27t-29 41t-10 51.5q0 47 20.5 74.5t50.5 41.5q-20 9 -35.5 31.5t-15.5 51.5
q0 50 34 81.5t87 31.5t87 -31.5t34 -81.5q0 -28 -15.5 -51t-35.5 -32q29 -14 50 -41.5t21 -74.5q0 -57 -38.5 -93t-102.5 -36zM558 38q35 0 57.5 22.5t22.5 62.5q0 33 -21.5 57.5t-58.5 24.5q-35 0 -57.5 -24.5t-22.5 -57.5q0 -40 23 -62.5t57 -22.5zM558 251q30 0 47.5 17
t17.5 44q0 31 -18 49t-47 18q-28 0 -46.5 -18t-18.5 -49q0 -27 18 -44t47 -17z" />
    <glyph glyph-name="divisionslash" unicode="&#x2215;" horiz-adv-x="325" 
d="M-111 -12l478 724h69l-478 -724h-69z" />
    <glyph glyph-name="bulletoperator" unicode="&#x2219;" horiz-adv-x="226" 
d="M113 286q-27 0 -45 19.5t-18 43.5t18 43.5t45 19.5t45 -19.5t18 -43.5t-18 -43.5t-45 -19.5z" />
    <glyph glyph-name="dottedcircle" unicode="&#x25cc;" horiz-adv-x="674" 
d="M70 359q0 14 9 22.5t23 8.5t22 -8.5t8 -22.5t-8 -22t-22 -8t-23 8t-9 22zM542 359q0 14 8 22.5t22 8.5q13 0 22.5 -8.5t9.5 -22.5t-9.5 -22t-22.5 -8q-14 0 -22 8t-8 22zM307 124q0 14 8 22.5t22 8.5t22 -8.5t8 -22.5t-8 -22.5t-22 -8.5t-22 8.5t-8 22.5zM307 594
q0 14 8 23t22 9t22 -9t8 -23t-8 -22t-22 -8t-22 8t-8 22zM473 526q0 14 8 22t22 8t22.5 -8t8.5 -22t-8.5 -22.5t-22.5 -8.5t-22 8.5t-8 22.5zM140 526q0 14 8.5 22t22.5 8t22 -8t8 -22t-8 -22.5t-22 -8.5t-22.5 8.5t-8.5 22.5zM473 193q0 14 8 22.5t22 8.5t22.5 -8.5
t8.5 -22.5t-8.5 -22t-22.5 -8t-22 8t-8 22zM140 193q0 14 8.5 22.5t22.5 8.5t22 -8.5t8 -22.5t-8 -22t-22 -8t-22.5 8t-8.5 22zM89 269q0 14 8.5 22.5t22.5 8.5q13 0 21.5 -8.5t8.5 -22.5t-8.5 -22.5t-21.5 -8.5q-14 0 -22.5 9t-8.5 22zM524 449q0 13 8.5 22.5t21.5 9.5
q14 0 22.5 -9.5t8.5 -22.5t-8.5 -21.5t-22.5 -8.5q-13 0 -21.5 8.5t-8.5 21.5zM397 142q0 14 8.5 22.5t21.5 8.5q14 0 22.5 -8.5t8.5 -22.5t-8.5 -22.5t-22.5 -8.5q-13 0 -21.5 8.5t-8.5 22.5zM216 576q0 14 8.5 23t22.5 9q13 0 21.5 -9t8.5 -23q0 -13 -8.5 -21.5
t-21.5 -8.5q-14 0 -22.5 8.5t-8.5 21.5zM396 576q0 14 9 22.5t21 8.5q14 0 23 -8.5t9 -22.5q0 -13 -9 -21.5t-23 -8.5t-22 8.5t-8 21.5zM89 449q0 14 8.5 22.5t22.5 8.5t22.5 -8.5t8.5 -22.5q0 -13 -9.5 -22t-21.5 -9q-14 0 -22.5 9t-8.5 22zM523 270q0 13 9 21.5t22 8.5
q14 0 22.5 -8.5t8.5 -21.5q0 -14 -8.5 -22.5t-22.5 -8.5t-22.5 8.5t-8.5 22.5zM216 143q0 13 9 21.5t23 8.5q13 0 21.5 -8.5t8.5 -21.5q0 -14 -9.5 -23t-20.5 -9q-14 0 -23 9t-9 23z" />
    <glyph glyph-name="zero.denominator" unicode="&#xe10a;" horiz-adv-x="389" 
d="M194 -7q-42 0 -70 19.5t-44.5 51t-23 70.5t-6.5 77q0 36 6.5 74.5t23 70.5t44 52.5t70.5 20.5t71 -19.5t44.5 -51t23 -70.5t6.5 -77q0 -36 -6 -75t-22.5 -70.5t-44.5 -52t-72 -20.5zM194 48q27 0 43.5 16t25.5 40.5t12 53t3 53.5q0 28 -3.5 57t-12.5 52.5t-25.5 38.5
t-42.5 15t-42.5 -16t-25.5 -40t-12 -53t-3 -54q0 -28 3.5 -57t12.5 -52.5t25 -38.5t42 -15z" />
    <glyph glyph-name="one.denominator" unicode="&#xe10b;" horiz-adv-x="198" 
d="M72 0v324h-47v43q28 0 43 15t23 40h42v-422h-61z" />
    <glyph glyph-name="two.denominator" unicode="&#xe10c;" horiz-adv-x="367" 
d="M41 329q11 43 46.5 71.5t96.5 28.5q57 0 95 -33t38 -91q0 -54 -29 -88.5t-88 -70.5q-39 -24 -61.5 -44t-33.5 -47h211v-55h-276q0 40 10.5 68.5t30 51.5t46.5 42.5l60 41.5q32 21 50 44t18 62q0 10 -4 22.5t-13.5 22.5t-24.5 17t-37 7q-69 0 -84 -71z" />
    <glyph glyph-name="three.denominator" unicode="&#xe10d;" horiz-adv-x="380" 
d="M90 114q15 -36 39 -56t58 -20q38 0 58.5 21t20.5 53q0 14 -5 28t-14 25t-22 18t-29 7h-34v50h22q35 0 50 21.5t15 48.5q0 26 -16.5 47.5t-51.5 21.5q-29 0 -51 -18.5t-34 -45.5l-53 18q17 41 54.5 68.5t87.5 27.5q56 0 92 -29.5t36 -83.5q0 -27 -15 -53.5t-42 -38.5
q32 -11 53 -37.5t21 -66.5q0 -63 -40 -97.5t-103 -34.5q-57 0 -95 28.5t-57 74.5z" />
    <glyph glyph-name="four.denominator" unicode="&#xe10e;" horiz-adv-x="383" 
d="M230 0v108h-210v30l224 285h47v-260h52v-55h-52v-108h-61zM230 163v172l-129 -172h129z" />
    <glyph glyph-name="five.denominator" unicode="&#xe10f;" horiz-adv-x="368" 
d="M72 83q16 -19 43 -32t56 -13q48 0 72 27.5t24 66.5q0 38 -20.5 64.5t-63.5 26.5q-35 0 -57.5 -13t-34.5 -28l-41 13l35 222h210v-55h-165l-18 -113q33 24 81 24q60 0 97.5 -38.5t37.5 -102.5q0 -30 -11 -56t-31.5 -45.5t-48.5 -31t-62 -11.5q-50 0 -85.5 18t-49.5 36z
" />
    <glyph glyph-name="six.denominator" unicode="&#xe110;" horiz-adv-x="366" 
d="M187 -12q-34 0 -59.5 13t-43 34.5t-26 50.5t-8.5 62q0 50 17.5 96.5t47.5 84t70 63.5t86 35v-50q-48 -12 -89 -51.5t-59 -99.5q15 17 35.5 24t44.5 7q27 0 49.5 -11t39 -29t25.5 -42t9 -50q0 -28 -10 -53t-28 -43.5t-44 -29.5t-57 -11zM190 38q29 0 52 22.5t23 59.5
q0 41 -21.5 64t-53.5 23q-36 0 -57.5 -24t-21.5 -61q0 -40 22 -62t57 -22z" />
    <glyph glyph-name="seven.denominator" unicode="&#xe111;" horiz-adv-x="313" 
d="M97 0q0 60 10.5 111.5t27.5 96t39 83t47 71.5h-201v55h268v-58q-38 -42 -62 -89t-38 -93.5t-20 -92t-6 -84.5h-65z" />
    <glyph glyph-name="eight.denominator" unicode="&#xe112;" horiz-adv-x="382" 
d="M191 -12q-32 0 -57.5 9.5t-44.5 27t-29 41t-10 51.5q0 47 20.5 74.5t50.5 41.5q-20 9 -35.5 31.5t-15.5 51.5q0 50 34 81.5t87 31.5t87 -31.5t34 -81.5q0 -28 -15.5 -51t-35.5 -32q29 -14 50 -41.5t21 -74.5q0 -57 -38.5 -93t-102.5 -36zM191 38q35 0 57.5 22.5
t22.5 62.5q0 33 -21.5 57.5t-58.5 24.5q-35 0 -57.5 -24.5t-22.5 -57.5q0 -40 23 -62.5t57 -22.5zM191 251q30 0 47.5 17t17.5 44q0 31 -18 49t-47 18q-28 0 -46.5 -18t-18.5 -49q0 -27 18 -44t47 -17z" />
    <glyph glyph-name="nine.denominator" unicode="&#xe113;" horiz-adv-x="366" 
d="M179 429q34 0 59.5 -13t43 -34.5t26 -50.5t8.5 -62q0 -50 -17.5 -96.5t-47.5 -84t-70 -63.5t-86 -35v50q48 12 89 51.5t59 99.5q-15 -17 -35.5 -24t-44.5 -7q-27 0 -49.5 11t-39 29t-25.5 42t-9 50q0 28 10 53t28 43.5t43.5 29.5t57.5 11zM176 379q-29 0 -52 -22.5
t-23 -59.5q0 -41 21.5 -64t53.5 -23q36 0 57.5 24t21.5 61q0 40 -22 62t-57 22z" />
    <glyph glyph-name="zero.numerator" unicode="&#xe11e;" horiz-adv-x="389" 
d="M194 276q-42 0 -70 19.5t-44.5 51t-23 70.5t-6.5 77q0 36 6.5 74.5t23 70.5t44 52.5t70.5 20.5t71 -19.5t44.5 -51t23 -70.5t6.5 -77q0 -36 -6 -75t-22.5 -70.5t-44.5 -52t-72 -20.5zM194 331q27 0 43.5 16t25.5 40.5t12 53t3 53.5q0 28 -3.5 57t-12.5 52.5t-25.5 38.5
t-42.5 15t-42.5 -16t-25.5 -40t-12 -53t-3 -54q0 -28 3.5 -57t12.5 -52.5t25 -38.5t42 -15z" />
    <glyph glyph-name="one.numerator" unicode="&#xe11f;" horiz-adv-x="198" 
d="M72 283v324h-47v43q28 0 43 15t23 40h42v-422h-61z" />
    <glyph glyph-name="two.numerator" unicode="&#xe120;" horiz-adv-x="367" 
d="M41 612q11 43 46.5 71.5t96.5 28.5q57 0 95 -33t38 -91q0 -54 -29 -88.5t-88 -70.5q-39 -24 -61.5 -44t-33.5 -47h211v-55h-276q0 40 10.5 68.5t30 51.5t46.5 42.5l60 41.5q32 21 50 44t18 62q0 10 -4 22.5t-13.5 22.5t-24.5 17t-37 7q-69 0 -84 -71z" />
    <glyph glyph-name="three.numerator" unicode="&#xe121;" horiz-adv-x="380" 
d="M90 397q15 -36 39 -56t58 -20q38 0 58.5 21t20.5 53q0 14 -5 28t-14 25t-22 18t-29 7h-34v50h22q35 0 50 21.5t15 48.5q0 26 -16.5 47.5t-51.5 21.5q-29 0 -51 -18.5t-34 -45.5l-53 18q17 41 54.5 68.5t87.5 27.5q56 0 92 -29.5t36 -83.5q0 -27 -15 -53.5t-42 -38.5
q32 -11 53 -37.5t21 -66.5q0 -63 -40 -97.5t-103 -34.5q-57 0 -95 28.5t-57 74.5z" />
    <glyph glyph-name="four.numerator" unicode="&#xe122;" horiz-adv-x="383" 
d="M230 283v108h-210v30l224 285h47v-260h52v-55h-52v-108h-61zM230 446v172l-129 -172h129z" />
    <glyph glyph-name="five.numerator" unicode="&#xe123;" horiz-adv-x="368" 
d="M72 366q16 -19 43 -32t56 -13q48 0 72 27.5t24 66.5q0 38 -20.5 64.5t-63.5 26.5q-35 0 -57.5 -13t-34.5 -28l-41 13l35 222h210v-55h-165l-18 -113q33 24 81 24q60 0 97.5 -38.5t37.5 -102.5q0 -30 -11 -56t-31.5 -45.5t-48.5 -31t-62 -11.5q-50 0 -85.5 18t-49.5 36z
" />
    <glyph glyph-name="six.numerator" unicode="&#xe124;" horiz-adv-x="366" 
d="M187 271q-34 0 -59.5 13t-43 34.5t-26 50.5t-8.5 62q0 50 17.5 96.5t47.5 84t70 63.5t86 35v-50q-48 -12 -89 -51.5t-59 -99.5q15 17 35.5 24t44.5 7q27 0 49.5 -11t39 -29t25.5 -42t9 -50q0 -28 -10 -53t-28 -43.5t-44 -29.5t-57 -11zM190 321q29 0 52 22.5t23 59.5
q0 41 -21.5 64t-53.5 23q-36 0 -57.5 -24t-21.5 -61q0 -40 22 -62t57 -22z" />
    <glyph glyph-name="seven.numerator" unicode="&#xe125;" horiz-adv-x="313" 
d="M97 283q0 60 10.5 111.5t27.5 96t39 83t47 71.5h-201v55h268v-58q-38 -42 -62 -89t-38 -93.5t-20 -92t-6 -84.5h-65z" />
    <glyph glyph-name="eight.numerator" unicode="&#xe126;" horiz-adv-x="382" 
d="M191 271q-32 0 -57.5 9.5t-44.5 27t-29 41t-10 51.5q0 47 20.5 74.5t50.5 41.5q-20 9 -35.5 31.5t-15.5 51.5q0 50 34 81.5t87 31.5t87 -31.5t34 -81.5q0 -28 -15.5 -51t-35.5 -32q29 -14 50 -41.5t21 -74.5q0 -57 -38.5 -93t-102.5 -36zM191 321q35 0 57.5 22.5
t22.5 62.5q0 33 -21.5 57.5t-58.5 24.5q-35 0 -57.5 -24.5t-22.5 -57.5q0 -40 23 -62.5t57 -22.5zM191 534q30 0 47.5 17t17.5 44q0 31 -18 49t-47 18q-28 0 -46.5 -18t-18.5 -49q0 -27 18 -44t47 -17z" />
    <glyph glyph-name="nine.numerator" unicode="&#xe127;" horiz-adv-x="366" 
d="M179 712q34 0 59.5 -13t43 -34.5t26 -50.5t8.5 -62q0 -50 -17.5 -96.5t-47.5 -84t-70 -63.5t-86 -35v50q48 12 89 51.5t59 99.5q-15 -17 -35.5 -24t-44.5 -7q-27 0 -49.5 11t-39 29t-25.5 42t-9 50q0 28 10 53t28 43.5t43.5 29.5t57.5 11zM176 662q-29 0 -52 -22.5
t-23 -59.5q0 -41 21.5 -64t53.5 -23q36 0 57.5 24t21.5 61q0 40 -22 62t-57 22z" />
    <glyph glyph-name="undercommaaccent" unicode="&#xf005;" horiz-adv-x="335" 
d="M133 -239q7 5 21.5 24.5t17.5 49.5q-29 0 -41.5 16.5t-12.5 37.5q0 24 16 38.5t36 14.5t37 -16t17 -43q0 -40 -17.5 -72t-55.5 -55z" />
    <glyph glyph-name="commaaccent" unicode="&#xf6c3;" horiz-adv-x="335" 
d="M217 730v-8q0 -61 -15.5 -116.5t-64.5 -103.5l-20 14q7 15 12.5 39.5t9.5 54t6 61t2 59.5h70z" />
    <glyph glyph-name="mugreek" horiz-adv-x="565" 
d="M405 0v51q-38 -39 -74.5 -51t-65.5 -12q-36 0 -60 12.5t-45 48.5v-215l-70 -34v711h70v-312q0 -47 8 -76t23.5 -45t37.5 -21.5t50 -5.5q27 0 50 7t40 24t26.5 45t9.5 70v314h70v-511h-70z" />
    <glyph glyph-name="nonbreakingspace" horiz-adv-x="230" 
 />
    <glyph glyph-name="i.dot" horiz-adv-x="252" 
d="M91 0v511h70v-511h-70zM126 616q-20 0 -33 13t-13 33t13 34t33 14t33 -14t13 -34t-13 -33t-33 -13z" />
    </font>
</defs>
</svg>
